<svg width="210" height="40" viewBox="0 0 210 40" fill="none" xmlns="http://www.w3.org/2000/svg">
<path d="M51.9831 17.5558C52.7715 17.5558 53.5074 17.3981 54.2433 17.0827C54.9266 16.7674 55.5574 16.2417 56.0304 15.611L58.1855 17.8186C56.5035 19.7109 54.5587 20.657 52.2459 20.657C51.1947 20.7096 50.196 20.5519 49.1973 20.1314C48.2512 19.7634 47.3576 19.1852 46.5692 18.5019C45.8333 17.8186 45.2551 16.9251 44.8872 16.0315C44.5192 15.0854 44.309 14.0867 44.3616 13.088C44.309 12.0893 44.5192 11.0381 44.8872 10.0919C45.2551 9.14582 45.8333 8.30482 46.5692 7.56895C47.3576 6.83308 48.3037 6.25489 49.3024 5.88695C50.3011 5.51902 51.4049 5.36133 52.5087 5.41389C53.6125 5.46645 54.6638 5.72927 55.6625 6.20233C56.6612 6.67539 57.5022 7.3587 58.238 8.1997L56.1881 10.565C55.715 9.93426 55.1369 9.4612 54.4535 9.14582C53.7702 8.83045 53.0344 8.6202 52.2459 8.6202C51.0896 8.6202 49.9332 9.0407 49.0396 9.82913C48.5666 10.2496 48.2512 10.7753 47.9884 11.3534C47.7781 11.9316 47.673 12.5624 47.673 13.1406C47.6204 13.7713 47.7256 14.3495 47.9358 14.9277C48.1461 15.5059 48.4614 16.0315 48.9345 16.452C49.7755 17.1353 50.8793 17.5558 51.9831 17.5558ZM60.7085 20.4467V5.62414H64.0199V17.5032H70.38V20.4467H60.7085ZM84.8872 18.3968C83.3629 19.816 81.4181 20.6044 79.3156 20.6044C77.2131 20.6044 75.2683 19.816 73.744 18.3968C73.0081 17.7135 72.4299 16.8725 72.062 15.9264C71.694 14.9803 71.4838 13.9816 71.4838 12.9829C71.4312 11.9842 71.6415 10.9329 72.0094 10.0394C72.3773 9.09326 72.9555 8.25226 73.6914 7.56895C75.2157 6.14976 77.1605 5.36133 79.263 5.36133C81.3655 5.36133 83.3103 6.14976 84.8346 7.56895C85.5705 8.25226 86.1487 9.09326 86.5166 10.0394C86.8846 10.9855 87.0948 11.9842 87.0422 12.9829C87.0948 13.9816 86.8846 15.0328 86.5166 15.9264C86.2012 16.8725 85.6231 17.7135 84.8872 18.3968ZM83.7308 12.9829C83.7308 11.7214 83.2578 10.5124 82.4168 9.56632C81.9963 9.14582 81.5232 8.77789 80.9976 8.51507C80.4719 8.25226 79.8412 8.14714 79.263 8.14714C78.6848 8.14714 78.1066 8.25226 77.5284 8.51507C77.0028 8.77789 76.4772 9.09326 76.1093 9.56632C75.2683 10.5124 74.7952 11.7214 74.7952 12.9829C74.7952 14.2444 75.2683 15.4533 76.1093 16.3994C76.5298 16.8199 77.0028 17.1879 77.5284 17.4507C78.0541 17.7135 78.6848 17.8186 79.263 17.8186C79.8412 17.8186 80.4194 17.7135 80.9976 17.4507C81.5232 17.1879 82.0488 16.8725 82.4168 16.3994C82.8373 15.9264 83.2052 15.4008 83.4154 14.8226C83.6782 14.1918 83.7834 13.6136 83.7308 12.9829ZM93.8754 16.6622C94.1382 17.0302 94.5061 17.293 94.874 17.4507C95.242 17.6084 95.715 17.7135 96.1355 17.7135C96.556 17.7135 96.9765 17.6609 97.3445 17.4507C97.7124 17.293 98.0803 16.9776 98.2906 16.6622C98.8688 15.8213 99.1316 14.8751 99.079 13.8764V5.6767H102.39V13.9816C102.39 16.1366 101.812 17.7661 100.603 18.9224C99.9726 19.5006 99.2893 19.9737 98.5008 20.2365C97.7124 20.5519 96.8714 20.657 96.0304 20.657C95.1894 20.657 94.3484 20.5519 93.56 20.2365C92.7715 19.9211 92.0357 19.5006 91.4575 18.9224C90.2485 17.7661 89.6704 16.1366 89.6704 13.9816V5.6767H92.9818V13.8764C92.9818 14.8751 93.2972 15.8738 93.8754 16.6622ZM117.266 7.56895C118.685 8.88301 119.421 10.6701 119.421 12.9829C119.421 15.2956 118.737 17.1353 117.371 18.5019C116.004 19.8686 113.849 20.4993 111.063 20.4993H105.912V5.62414H111.168C113.797 5.62414 115.846 6.25489 117.266 7.56895ZM114.848 16.3994C115.636 15.6636 116.057 14.5072 116.057 13.0354C116.057 11.5637 115.636 10.4599 114.848 9.67145C114.059 8.88301 112.798 8.46251 111.116 8.46251H109.276V17.5032H111.379C112.64 17.6084 113.902 17.2404 114.848 16.3994ZM138.291 5.62414H141.602V20.4993H138.291L131.195 11.1958V20.4993H127.883V5.62414H130.984L138.291 15.1905V5.62414ZM155.846 20.4467L154.427 17.2404H148.172L146.753 20.4467H143.179L149.592 5.57158H152.798L159.263 20.4467H155.846ZM151.379 10.0394L149.539 14.3495H153.218L151.379 10.0394ZM166.359 8.51507V20.4993H163.048V8.51507H158.843V5.6767H170.616V8.51507C170.616 8.51507 166.359 8.51507 166.359 8.51507ZM172.929 5.62414H176.241V20.4993H172.929C172.929 20.4467 172.929 5.62414 172.929 5.62414ZM185.439 15.0854L189.224 5.62414H192.85L186.911 20.4993H184.125L178.185 5.62414H181.812L185.439 15.0854ZM205.255 5.62414V8.56764H197.844V11.6163H204.519V14.4546H197.844V17.5558H205.518V20.4993H194.585V5.6767L205.255 5.62414ZM48.1461 33.1143C48.5666 33.1143 48.9871 33.0092 49.4076 32.8515C49.7755 32.6412 50.1434 32.3784 50.4062 32.0105L51.6152 33.272C51.1947 33.745 50.7216 34.1655 50.0909 34.4283C49.5127 34.6912 48.8819 34.8488 48.2512 34.8488C47.673 34.8488 47.0948 34.7963 46.5692 34.586C46.0436 34.3758 45.5179 34.0604 45.0974 33.6399C44.6769 33.272 44.3616 32.7989 44.1513 32.2733C43.9411 31.7477 43.8359 31.1695 43.8359 30.5913C43.8359 30.0131 43.9411 29.4349 44.1513 28.9093C44.3616 28.3837 44.6769 27.9106 45.0974 27.4901C45.5179 27.0696 45.991 26.7542 46.5166 26.544C47.0422 26.3337 47.6204 26.2286 48.1986 26.2286C48.8294 26.2286 49.5127 26.3337 50.0909 26.5965C50.6691 26.8594 51.1947 27.2799 51.6677 27.7529L50.5114 29.067C50.2486 28.699 49.9332 28.4362 49.5652 28.226C49.1973 28.0157 48.7768 27.9632 48.3037 27.9632C47.6204 27.9632 46.9897 28.226 46.5166 28.6465C46.2538 28.8567 46.0436 29.1721 45.9384 29.4875C45.8333 29.8029 45.7282 30.1708 45.7807 30.4862C45.7807 30.8015 45.8333 31.1695 45.9384 31.4849C46.0436 31.8002 46.2538 32.1156 46.4641 32.3258C46.6743 32.5361 46.9371 32.7463 47.2525 32.8515C47.5679 32.9566 47.8307 33.1143 48.1461 33.1143ZM59.8675 33.5873C59.0265 34.3758 57.9227 34.8488 56.7663 34.8488C56.1881 34.8488 55.6099 34.7437 55.0843 34.5335C54.5587 34.3232 54.0856 34.0078 53.6651 33.5873C52.8767 32.7989 52.4036 31.6951 52.4036 30.5387C52.4036 29.3824 52.8767 28.2785 53.6651 27.4901C54.5061 26.7017 55.6099 26.2286 56.7663 26.2286C57.3445 26.2286 57.9227 26.3337 58.4483 26.544C58.9739 26.7542 59.447 27.0696 59.8675 27.4901C60.6559 28.2785 61.129 29.3824 61.129 30.5387C61.129 31.6951 60.6559 32.7989 59.8675 33.5873ZM59.2893 30.5387C59.2893 29.8554 59.079 29.1721 58.606 28.6465C58.3957 28.3837 58.1329 28.226 57.8175 28.0683C57.5022 27.9106 57.1868 27.858 56.8714 27.858C56.556 27.858 56.1881 27.9106 55.9253 28.0683C55.6099 28.226 55.3471 28.4362 55.1369 28.699C54.874 28.9619 54.7164 29.2247 54.6112 29.5926C54.5061 29.908 54.4535 30.2759 54.4535 30.5913C54.4535 31.2746 54.7164 31.9579 55.1369 32.4835C55.3471 32.7463 55.6099 32.904 55.9253 33.0617C56.2407 33.2194 56.556 33.272 56.8714 33.272C57.1868 33.272 57.5547 33.2194 57.8175 33.0617C58.1329 32.904 58.3957 32.6938 58.606 32.431C59.0265 31.9579 59.2893 31.2746 59.2893 30.5387ZM70.1697 29.4875L67.9095 34.0604H66.8057L64.5455 29.4875V34.7437H62.7058V26.4389H65.2288L67.3839 31.0118L69.539 26.4389H72.062V34.7963H70.2223L70.1697 29.4875ZM79.8412 27.2273C80.1566 27.4901 80.4194 27.858 80.5771 28.2785C80.7348 28.699 80.7873 29.1195 80.7348 29.54C80.7348 30.5913 80.4194 31.3272 79.8412 31.8002C79.263 32.3258 78.3169 32.4835 77.1079 32.4835H76.0041V34.7963H74.1119V26.4389H77.0554C78.3169 26.4389 79.2104 26.7017 79.8412 27.2273ZM78.4746 30.4862C78.7374 30.1708 78.8425 29.8029 78.8425 29.3824C78.8425 29.1721 78.8425 29.0144 78.7374 28.8042C78.6323 28.6465 78.5271 28.4888 78.3694 28.3837C77.9489 28.1734 77.4759 28.0683 77.0028 28.0683H75.9516V30.8541H77.2131C77.4233 30.8541 77.6861 30.8541 77.8964 30.8015C78.1066 30.6964 78.3169 30.5913 78.4746 30.4862ZM84.4141 32.5887C84.5718 32.7989 84.7295 32.904 84.9923 33.0092C85.2026 33.1143 85.4654 33.1668 85.6756 33.1668C85.9384 33.1668 86.1487 33.1143 86.3589 33.0092C86.5692 32.904 86.7794 32.7463 86.9371 32.5887C87.2525 32.1156 87.4102 31.5374 87.4102 31.0118V26.3863H89.2499V31.0118C89.3024 31.5374 89.1973 32.0105 89.0396 32.5361C88.8819 33.0092 88.6191 33.4822 88.2512 33.8502C87.5679 34.4809 86.6217 34.7963 85.6756 34.7963C84.7295 34.7963 83.8359 34.4283 83.1526 33.7976C82.7847 33.4297 82.5219 32.9566 82.3642 32.4835C82.2065 32.0105 82.1014 31.4849 82.1539 30.9592V26.3337H83.9936V30.9592C83.8885 31.5374 84.0462 32.1156 84.4141 32.5887ZM94.6638 28.0683V34.7437H92.8241V28.0683H90.4588V26.4914H97.0817V28.0683C97.0291 28.0683 94.6638 28.0683 94.6638 28.0683ZM98.3957 26.4389H100.235V34.7963H98.3957V26.4389ZM108.12 26.4389H109.959V34.7963H108.12L104.178 29.5926V34.7963H102.338V26.4389H104.072L108.172 31.8002L108.12 26.4389ZM117.476 30.5387H119.316V33.4822C118.895 33.9553 118.317 34.3232 117.739 34.5335C117.161 34.7963 116.477 34.9014 115.846 34.8488C114.69 34.8488 113.586 34.4283 112.745 33.6399C112.325 33.272 112.009 32.7989 111.799 32.2733C111.589 31.7477 111.484 31.1695 111.484 30.5913C111.484 30.0131 111.589 29.4349 111.799 28.9093C112.009 28.3837 112.325 27.9106 112.745 27.4901C113.166 27.0696 113.639 26.7542 114.164 26.544C114.69 26.3337 115.268 26.2286 115.846 26.2286C117.003 26.2286 118.107 26.6491 118.948 27.4375L118.002 28.8567C117.739 28.5414 117.371 28.3311 116.95 28.226C116.635 28.1209 116.267 28.0157 115.952 28.0157C115.268 28.0157 114.638 28.2785 114.164 28.699C113.902 28.9619 113.691 29.2247 113.586 29.5926C113.481 29.9605 113.376 30.2759 113.429 30.6439C113.429 31.3272 113.639 32.0105 114.112 32.5361C114.322 32.7464 114.585 32.9566 114.848 33.0617C115.111 33.1668 115.426 33.2194 115.741 33.2194C116.32 33.272 116.845 33.1143 117.318 32.8515V30.4862H117.476V30.5387ZM129.828 26.4389V28.0683H125.991V29.8554H129.618V31.5374H125.991V34.7963H124.151V26.4389C124.099 26.4389 129.828 26.4389 129.828 26.4389ZM138.448 33.5873C137.607 34.3758 136.503 34.8488 135.347 34.8488C134.769 34.8488 134.191 34.7437 133.665 34.5335C133.139 34.3232 132.666 34.0078 132.246 33.5873C131.457 32.7989 130.984 31.6951 130.984 30.5387C130.984 29.3824 131.457 28.2785 132.246 27.4901C133.087 26.7017 134.191 26.2286 135.347 26.2286C135.925 26.2286 136.503 26.3337 137.029 26.544C137.555 26.7542 138.028 27.0696 138.448 27.4901C139.237 28.2785 139.71 29.3824 139.71 30.5387C139.71 31.6951 139.237 32.7989 138.448 33.5873ZM137.765 30.5387C137.765 29.8554 137.555 29.1721 137.082 28.6465C136.871 28.3837 136.609 28.226 136.293 28.0683C135.978 27.9106 135.662 27.858 135.347 27.858C135.032 27.858 134.664 27.9106 134.401 28.0683C134.086 28.226 133.823 28.4362 133.613 28.699C133.35 28.9619 133.192 29.2247 133.087 29.5926C132.982 29.9605 132.929 30.2759 132.929 30.5913C132.929 31.2746 133.192 31.9579 133.613 32.4835C133.823 32.7463 134.086 32.904 134.401 33.0617C134.716 33.2194 135.032 33.272 135.347 33.272C135.662 33.272 136.03 33.2194 136.293 33.0617C136.609 32.904 136.871 32.6938 137.082 32.431C137.344 32.1682 137.502 31.9054 137.607 31.5374C137.712 31.1695 137.818 30.9067 137.765 30.5387ZM143.494 32.5887C143.652 32.7989 143.81 32.904 144.072 33.0092C144.283 33.1143 144.546 33.1668 144.756 33.1668C144.966 33.1668 145.229 33.1143 145.439 33.0092C145.649 32.904 145.86 32.7463 146.017 32.5887C146.333 32.1156 146.49 31.5374 146.49 31.0118V26.3863H148.33V31.0118C148.383 31.5374 148.277 32.0105 148.12 32.5361C147.962 33.0092 147.699 33.4822 147.331 33.8502C146.648 34.4809 145.702 34.7963 144.756 34.7963C143.81 34.7963 142.916 34.4283 142.233 33.7976C141.865 33.4297 141.602 32.9566 141.444 32.4835C141.287 32.0105 141.182 31.4849 141.234 30.9592V26.3337H143.074V30.9592C142.969 31.5374 143.126 32.1682 143.494 32.5887ZM156.057 26.4389H157.896V34.7963H156.057L152.115 29.5926V34.7963H150.275V26.4389H152.009L156.109 31.8002L156.057 26.4389ZM166.306 27.5427C166.727 27.9106 167.042 28.4362 167.252 28.9619C167.463 29.4875 167.568 30.0657 167.515 30.5913C167.568 31.1695 167.463 31.6951 167.252 32.2207C167.042 32.7463 166.727 33.2194 166.359 33.6399C165.623 34.3758 164.414 34.7963 162.785 34.7963H159.946V26.4389H162.89C164.414 26.4389 165.57 26.8068 166.306 27.5427ZM164.94 32.5361C165.15 32.2733 165.36 32.0105 165.465 31.6951C165.57 31.3797 165.623 31.0118 165.623 30.6964C165.623 30.3285 165.57 30.0131 165.465 29.6977C165.36 29.3824 165.15 29.067 164.94 28.8042C164.624 28.5414 164.309 28.3837 163.941 28.2785C163.573 28.1734 163.205 28.1209 162.837 28.1734H161.786V33.2194H162.995C163.678 33.1668 164.414 32.9566 164.94 32.5361ZM174.821 34.7437L174.086 32.9566H170.564L169.828 34.7437H167.831L171.457 26.3863H173.245L176.871 34.7437H174.821ZM172.298 28.9093L171.247 31.3272H173.35L172.298 28.9093ZM180.708 28.0683V34.7437H178.869V28.0683H176.451V26.4914H183.074V28.0683H180.708ZM184.388 26.4389H186.228V34.7963H184.388V26.4389ZM195.321 33.5873C194.48 34.3758 193.376 34.8488 192.22 34.8488C191.641 34.8488 191.063 34.7437 190.538 34.5335C190.012 34.3232 189.539 34.0078 189.118 33.5873C188.33 32.7989 187.857 31.6951 187.857 30.5387C187.857 29.3824 188.33 28.2785 189.118 27.4901C189.959 26.7017 191.063 26.2286 192.22 26.2286C192.798 26.2286 193.376 26.3337 193.902 26.544C194.427 26.7542 194.9 27.0696 195.321 27.4901C196.109 28.2785 196.582 29.3824 196.582 30.5387C196.582 31.6951 196.109 32.7989 195.321 33.5873ZM194.743 30.5387C194.743 29.8554 194.48 29.1721 194.059 28.6465C193.849 28.3837 193.586 28.226 193.271 28.0683C192.956 27.9106 192.64 27.858 192.325 27.858C192.009 27.858 191.641 27.9106 191.379 28.0683C191.063 28.226 190.8 28.4362 190.59 28.699C190.327 28.9619 190.17 29.2247 190.065 29.5926C189.959 29.9605 189.907 30.2759 189.907 30.5913C189.907 31.2746 190.17 31.9579 190.59 32.4835C190.8 32.7463 191.063 32.904 191.379 33.0617C191.694 33.2194 192.009 33.272 192.325 33.272C192.64 33.272 193.008 33.2194 193.271 33.0617C193.586 32.904 193.849 32.6938 194.059 32.431C194.48 31.9579 194.743 31.2746 194.743 30.5387ZM203.994 26.4389H205.833V34.7963H203.994L200.051 29.5926V34.7963H198.159V26.4389H199.894L203.994 31.8002C204.046 31.8002 203.994 26.4389 203.994 26.4389Z" fill="black"/>
<path d="M8.51434 24.8623H3.94141V35.5325H14.6116V30.9595H8.51434V24.8623Z" fill="#0086FF"/>
<path d="M31.4332 24.9149V30.9595H25.3359V35.5325H36.0061V24.8623L31.4332 24.9149Z" fill="#0086FF"/>
<path d="M3.94141 14.2444H8.5669L8.51434 14.1918V8.14715H14.6116V3.57422H3.94141V14.2444Z" fill="#0086FF"/>
<path d="M25.3359 3.57422V8.14715H31.4332V14.2444H36.0061V3.57422C35.9535 3.57422 25.3359 3.57422 25.3359 3.57422Z" fill="#0086FF"/>
<path d="M24.7053 14.2444L18.608 8.14715H25.2835V3.57422H14.6133V8.14715L20.7105 14.2444H24.7053Z" fill="#93EAFF"/>
<path d="M19.2388 24.8623H15.244L20.29 29.9083L21.2887 30.9595H14.6133V35.5325H25.336V30.907L22.2874 27.9109L19.2388 24.8623Z" fill="#93EAFF"/>
<path d="M31.4332 14.2441V20.867L30.3819 19.8158L25.3359 14.7698V18.8171L28.332 21.8131L31.3806 24.8617H36.0061V14.2441H31.4332Z" fill="#93EAFF"/>
<path d="M14.6116 20.2888L8.5669 14.2441H3.94141V24.8617H8.51434V18.2389L14.6116 24.3361V20.2888Z" fill="#93EAFF"/>
</svg>
