<svg width="83" height="55" viewBox="0 0 83 55" fill="none" xmlns="http://www.w3.org/2000/svg">
<g clip-path="url(#clip0_604_5592)">
<path d="M0 13.3223H12.3405C17.6518 13.3223 20.7588 16.7554 20.7588 21.2892C20.7588 25.293 18.4293 28.3184 14.3847 29.093L22.1623 45.184H19.2621L11.6883 29.256H2.65563V37.2288H0V13.3223ZM12.259 26.7227C16.059 26.7227 18.1031 24.5563 18.1031 21.2892C18.1031 18.022 16.059 15.8556 12.259 15.8556H2.65563V26.7256H12.259V26.7227Z" fill="#0A1432"/>
<path d="M46.3189 44.2053C46.3189 50.0465 42.2743 54.5425 36.3487 54.5425C30.423 54.5425 26.2969 50.0494 26.2969 44.2053V15.6689C26.2969 9.86848 30.3822 5.29102 36.3487 5.29102C42.3151 5.29102 46.3189 9.86848 46.3189 15.6689V44.2053ZM28.9525 44.2053C28.9525 48.6983 32.0158 52.0091 36.3487 52.0091C40.6815 52.0091 43.6633 48.7391 43.6633 44.2053V15.6689C43.6633 11.1759 40.6 7.82435 36.3487 7.82435C32.0973 7.82435 28.9525 11.1759 28.9525 15.6689V44.2053Z" fill="#0A1432"/>
<path d="M74.574 54.4962V15.8673H69.2656V13.3252H82.5379V15.8673H77.2267V54.4962H74.574Z" fill="#0A1432"/>
<path d="M51.6289 0.0117188H54.2845V29.2557L63.1075 20.6919H66.5814L58.533 28.5627L71.3743 45.1778H68.1189L56.6548 30.403L54.2845 32.6917V39.9102H51.6289V0.0117188Z" fill="#0A1432"/>
</g>
<defs>
<clipPath id="clip0_604_5592">
<rect width="82.54" height="54.5423" fill="white"/>
</clipPath>
</defs>
</svg>
