<svg width="313" height="87" viewBox="0 0 313 87" fill="none" xmlns="http://www.w3.org/2000/svg">
<g clip-path="url(#clip0_604_6675)">
<path d="M92.1597 82.9686C91.4445 82.9729 90.736 82.8301 90.0783 82.5491C89.4454 82.2773 88.8686 81.8901 88.3773 81.4073C87.8906 80.9118 87.5054 80.326 87.2434 79.6828C86.6949 78.3088 86.6949 76.7767 87.2434 75.4027C87.5036 74.7608 87.8891 74.1772 88.3773 73.686C88.8682 73.2007 89.4449 72.8108 90.0783 72.5364C90.736 72.2597 91.4423 72.1172 92.1559 72.1172C92.8694 72.1172 93.5757 72.2597 94.2335 72.5364C94.8688 72.8071 95.4463 73.1973 95.9344 73.686C96.4227 74.1772 96.8081 74.7608 97.0683 75.4027C97.3446 76.0835 97.4845 76.8119 97.48 77.5466V78.2613H88.9832C89.0529 78.6703 89.1921 79.0644 89.3948 79.4264C89.5759 79.759 89.8184 80.0542 90.1093 80.2964C90.3929 80.533 90.7164 80.7172 91.0646 80.8402C91.4159 80.9662 91.7866 81.0293 92.1597 81.0266C92.6249 81.0385 93.0882 80.9648 93.5267 80.8091C93.8593 80.6936 94.1713 80.5258 94.4509 80.312C94.7168 80.1126 94.9455 79.8681 95.1266 79.5896H97.379C97.1259 80.2196 96.7571 80.7965 96.2917 81.2907C96.0724 81.5105 95.8389 81.7155 95.5927 81.9044C95.317 82.1237 95.0142 82.3065 94.6917 82.4481C94.3254 82.6143 93.9427 82.7419 93.55 82.8288C93.093 82.9253 92.6268 82.9722 92.1597 82.9686ZM95.2664 76.5213C95.2087 76.207 95.1039 75.9033 94.9558 75.6202C94.8092 75.3203 94.6 75.0554 94.3422 74.8434C93.9048 74.4835 93.3839 74.2394 92.8274 74.1336C92.271 74.0277 91.6968 74.0634 91.1578 74.2375C90.8276 74.3457 90.5178 74.5085 90.2414 74.7191C89.9593 74.9316 89.7196 75.1951 89.5346 75.4959C89.3381 75.8136 89.1988 76.1633 89.1229 76.529L95.2664 76.5213Z" fill="#7D0F4B"/>
<path d="M101.665 77.5467L98.5583 72.3267H101.02L103.35 76.5213H103.855L106.185 72.3267H108.733L105.626 77.5467L108.795 82.7667H106.403L103.91 78.4555H103.405L100.966 82.7667H98.5117L101.665 77.5467Z" fill="#7D0F4B"/>
<path d="M110.684 72.3265H112.835V73.6548H112.936C113.183 73.3624 113.464 73.1016 113.775 72.878C114.094 72.6661 114.435 72.4891 114.792 72.3498C115.246 72.1765 115.728 72.0921 116.214 72.1013C116.878 72.0956 117.537 72.2279 118.147 72.4896C118.732 72.749 119.26 73.1212 119.701 73.5849C120.158 74.081 120.514 74.6614 120.749 75.2938C121.257 76.7394 121.257 78.3148 120.749 79.7604C120.516 80.3936 120.16 80.9745 119.701 81.4693C119.256 81.9471 118.716 82.3261 118.115 82.5817C117.514 82.8373 116.866 82.9637 116.214 82.9529C115.729 82.963 115.248 82.884 114.792 82.7199C114.434 82.5863 114.093 82.4116 113.775 82.1995C113.461 81.9796 113.179 81.7183 112.936 81.4227H112.835V86.6427H110.684V72.3265ZM115.802 81.0265C116.216 81.0457 116.629 80.9758 117.013 80.8217C117.398 80.6676 117.745 80.4328 118.031 80.1332C118.581 79.3814 118.877 78.4741 118.877 77.5426C118.877 76.6112 118.581 75.7039 118.031 74.9521C117.743 74.655 117.396 74.4225 117.012 74.2698C116.627 74.1172 116.215 74.0479 115.802 74.0665C115.403 74.0533 115.007 74.1254 114.638 74.2781C114.27 74.4309 113.938 74.6607 113.666 74.9521C113.125 75.7076 112.835 76.6135 112.835 77.5426C112.835 78.4718 113.125 79.3777 113.666 80.1332C113.937 80.4272 114.268 80.6593 114.636 80.8135C115.005 80.9677 115.403 81.0403 115.802 81.0265Z" fill="#7D0F4B"/>
<path d="M128.261 82.9686C127.546 82.9729 126.838 82.8301 126.18 82.5491C125.547 82.2773 124.97 81.8901 124.479 81.4073C123.992 80.9118 123.607 80.326 123.345 79.6828C122.796 78.3088 122.796 76.7767 123.345 75.4027C123.605 74.7608 123.991 74.1772 124.479 73.686C124.97 73.2007 125.547 72.8108 126.18 72.5364C126.838 72.2597 127.544 72.1172 128.257 72.1172C128.971 72.1172 129.677 72.2597 130.335 72.5364C130.969 72.8091 131.546 73.1991 132.036 73.686C132.524 74.1772 132.91 74.7608 133.17 75.4027C133.446 76.0835 133.586 76.8119 133.582 77.5466V78.2613H125.085C125.154 78.6703 125.294 79.0644 125.496 79.4264C125.677 79.759 125.92 80.0542 126.211 80.2964C126.492 80.5322 126.813 80.7164 127.158 80.8402C127.513 80.9655 127.886 81.0286 128.261 81.0266C128.726 81.0385 129.19 80.9648 129.628 80.8091C129.961 80.6936 130.273 80.5258 130.552 80.312C130.818 80.1126 131.047 79.8681 131.228 79.5896H133.481C133.227 80.2196 132.859 80.7965 132.393 81.2907C132.174 81.5105 131.94 81.7155 131.694 81.9044C131.419 82.1237 131.116 82.3065 130.793 82.4481C130.427 82.6143 130.044 82.7419 129.652 82.8288C129.195 82.9253 128.728 82.9722 128.261 82.9686ZM131.368 76.5213C131.31 76.207 131.206 75.9033 131.057 75.6202C130.911 75.3203 130.702 75.0554 130.444 74.8434C130.006 74.4835 129.485 74.2394 128.929 74.1336C128.373 74.0277 127.798 74.0634 127.259 74.2375C126.929 74.3457 126.619 74.5085 126.343 74.7191C126.061 74.9316 125.821 75.1951 125.636 75.4959C125.44 75.8136 125.3 76.1633 125.225 76.529L131.368 76.5213Z" fill="#7D0F4B"/>
<path d="M135.98 72.3264H138.124V73.8799H138.248C138.423 73.5741 138.646 73.2986 138.909 73.0643C139.181 72.8285 139.478 72.6227 139.794 72.4507C140.199 72.2328 140.655 72.1257 141.114 72.1399H142.349V74.1906H141.013C140.625 74.1875 140.24 74.2587 139.879 74.4004C139.54 74.5272 139.231 74.7229 138.971 74.9752C138.701 75.2303 138.494 75.5439 138.365 75.8918C138.218 76.2733 138.144 76.6792 138.147 77.0881V82.7897H136.004L135.98 72.3264Z" fill="#7D0F4B"/>
<path d="M145.388 70.7886C145.221 70.7914 145.055 70.7605 144.9 70.6978C144.745 70.635 144.605 70.5418 144.487 70.4235C144.367 70.3052 144.272 70.1634 144.21 70.007C144.147 69.8507 144.117 69.6831 144.122 69.5146C144.119 69.3464 144.149 69.1793 144.212 69.0232C144.275 68.8671 144.368 68.7252 144.487 68.6058C144.603 68.484 144.743 68.3873 144.898 68.3218C145.053 68.2563 145.219 68.2234 145.388 68.2252C145.729 68.2272 146.056 68.3637 146.297 68.6051C146.538 68.8465 146.675 69.1733 146.677 69.5146C146.681 69.6843 146.649 69.8529 146.583 70.0095C146.518 70.166 146.42 70.3071 146.296 70.4235C146.177 70.542 146.035 70.6354 145.879 70.6981C145.723 70.7608 145.556 70.7915 145.388 70.7886ZM144.324 72.3421H146.475V82.7821H144.324V72.3421Z" fill="#7D0F4B"/>
<path d="M154.148 82.9685C153.433 82.9728 152.724 82.8301 152.067 82.5491C151.434 82.2772 150.857 81.89 150.366 81.4072C149.879 80.9118 149.494 80.326 149.232 79.6827C148.683 78.3088 148.683 76.7766 149.232 75.4026C149.492 74.7607 149.877 74.1771 150.366 73.6859C150.856 73.2006 151.433 72.8108 152.067 72.5363C152.724 72.2553 153.433 72.1125 154.148 72.1168C154.861 72.1118 155.567 72.2546 156.222 72.5363C156.857 72.807 157.435 73.1973 157.923 73.6859C158.411 74.1771 158.796 74.7607 159.057 75.4026C159.333 76.0834 159.473 76.8119 159.468 77.5466V78.2612H150.971C151.045 78.6693 151.184 79.0628 151.383 79.4264C151.564 79.7589 151.807 80.0541 152.098 80.2964C152.381 80.533 152.705 80.7171 153.053 80.8401C153.405 80.9647 153.775 81.0278 154.148 81.0266C154.613 81.0384 155.076 80.9647 155.515 80.8091C155.848 80.6936 156.16 80.5258 156.439 80.3119C156.705 80.1126 156.934 79.8681 157.115 79.5895H159.367C159.114 80.2195 158.745 80.7965 158.28 81.2907C158.062 81.5085 157.831 81.7135 157.589 81.9043C157.311 82.1203 157.008 82.3028 156.688 82.4481C156.319 82.6142 155.934 82.7418 155.538 82.8287C155.081 82.9253 154.615 82.9721 154.148 82.9685ZM157.216 76.5212C157.157 76.2082 157.055 75.905 156.913 75.6201C156.762 75.3232 156.553 75.0592 156.299 74.8434C156.023 74.609 155.711 74.4202 155.375 74.2841C154.983 74.1384 154.567 74.0672 154.148 74.0743C153.797 74.0735 153.449 74.1285 153.115 74.2375C152.783 74.346 152.47 74.5087 152.191 74.7191C151.909 74.9316 151.669 75.195 151.484 75.4958C151.288 75.8136 151.148 76.1632 151.072 76.529L157.216 76.5212Z" fill="#7D0F4B"/>
<path d="M161.867 72.3263H164.018V73.7944H164.119C164.332 73.493 164.595 73.2302 164.896 73.0176C165.21 72.7863 165.552 72.5958 165.914 72.4506C166.391 72.2672 166.901 72.1801 167.412 72.1943C167.965 72.1621 168.518 72.2449 169.037 72.4375C169.555 72.63 170.028 72.9281 170.426 73.3128C171.208 74.2218 171.598 75.4028 171.513 76.5986V82.8129H169.315V76.7695C169.376 76.0402 169.157 75.3151 168.702 74.7421C168.454 74.5181 168.162 74.3468 167.846 74.2386C167.53 74.1305 167.194 74.0877 166.861 74.1129C166.469 74.1064 166.08 74.1832 165.719 74.3382C165.379 74.4838 165.07 74.6949 164.811 74.9596C164.547 75.2376 164.341 75.565 164.205 75.9228C164.06 76.3263 163.989 76.7526 163.995 77.1812V82.8129H161.844L161.867 72.3263Z" fill="#7D0F4B"/>
<path d="M179.032 82.9687C178.321 82.9734 177.617 82.8389 176.958 82.5725C176.335 82.3151 175.772 81.9316 175.304 81.4462C174.83 80.9512 174.458 80.3679 174.209 79.7295C173.67 78.3242 173.67 76.7693 174.209 75.364C174.458 74.7256 174.83 74.1423 175.304 73.6473C175.77 73.1594 176.333 72.7756 176.958 72.5209C177.615 72.248 178.32 72.1106 179.032 72.117C179.505 72.112 179.978 72.1669 180.438 72.2801C180.834 72.3785 181.218 72.5246 181.579 72.7151C181.895 72.8805 182.188 73.0868 182.449 73.3288C182.679 73.5473 182.897 73.7781 183.102 74.0201C183.544 74.5765 183.864 75.2196 184.041 75.9077H181.797C181.685 75.5656 181.502 75.2507 181.261 74.9834C180.98 74.6762 180.634 74.4348 180.249 74.2763C179.863 74.1179 179.448 74.0464 179.032 74.0667C178.634 74.0628 178.24 74.1447 177.877 74.3069C177.514 74.4691 177.19 74.7078 176.927 75.0067C176.652 75.3373 176.441 75.7167 176.306 76.1252C176.142 76.589 176.06 77.0781 176.065 77.57C176.061 78.0619 176.143 78.5507 176.306 79.0149C176.446 79.4157 176.659 79.7871 176.935 80.1101C177.194 80.3953 177.509 80.6251 177.859 80.7859C178.222 80.9514 178.617 81.0362 179.016 81.0345C179.509 81.0552 179.999 80.9566 180.445 80.7471C180.772 80.5863 181.069 80.3709 181.323 80.1101C181.573 79.8484 181.764 79.5357 181.882 79.1935H184.072C183.898 79.8876 183.578 80.5364 183.133 81.0967C182.932 81.3397 182.714 81.5681 182.48 81.7802C182.216 82.0172 181.924 82.2207 181.61 82.3861C181.248 82.5741 180.865 82.7175 180.469 82.8134C179.998 82.9267 179.515 82.9789 179.032 82.9687Z" fill="#7D0F4B"/>
<path d="M191.062 82.9686C190.347 82.9729 189.638 82.8301 188.981 82.5491C188.348 82.2773 187.771 81.8901 187.28 81.4073C186.793 80.9118 186.408 80.326 186.146 79.6828C185.597 78.3088 185.597 76.7767 186.146 75.4027C186.406 74.7608 186.791 74.1772 187.28 73.686C187.771 73.2007 188.347 72.8108 188.981 72.5364C189.638 72.2597 190.345 72.1172 191.058 72.1172C191.772 72.1172 192.478 72.2597 193.136 72.5364C193.771 72.8071 194.349 73.1973 194.837 73.686C195.325 74.1772 195.71 74.7608 195.971 75.4027C196.247 76.0835 196.387 76.8119 196.382 77.5466V78.2613H187.878C187.951 78.6694 188.09 79.0629 188.289 79.4264C188.47 79.759 188.713 80.0542 189.004 80.2964C189.287 80.533 189.611 80.7172 189.959 80.8402C190.31 80.9662 190.681 81.0293 191.054 81.0266C191.519 81.0385 191.983 80.9648 192.421 80.8091C192.754 80.6936 193.066 80.5258 193.346 80.312C193.611 80.1126 193.84 79.8681 194.021 79.5896H196.274C196.02 80.2196 195.652 80.7965 195.186 81.2907C194.967 81.5105 194.733 81.7155 194.487 81.9044C194.212 82.1237 193.909 82.3065 193.586 82.4481C193.22 82.6143 192.837 82.7419 192.445 82.8288C191.99 82.9248 191.527 82.9716 191.062 82.9686ZM194.13 76.5213C194.072 76.207 193.967 75.9033 193.819 75.6202C193.673 75.3203 193.463 75.0554 193.206 74.8434C192.768 74.4835 192.247 74.2394 191.691 74.1336C191.134 74.0277 190.56 74.0634 190.021 74.2375C189.691 74.3457 189.381 74.5085 189.105 74.7191C188.823 74.9316 188.583 75.1951 188.398 75.4959C188.202 75.8136 188.062 76.1633 187.986 76.529L194.13 76.5213Z" fill="#7D0F4B"/>
<path d="M205.176 68.4351H207.327V76.4204H208.881L212.049 72.3268H214.511L210.721 77.1351L214.814 82.7668H212.158L208.981 78.3624H207.343V82.7668H205.191L205.176 68.4351Z" fill="#7D0F4B"/>
<path d="M216.605 72.3263H218.757V73.7944H218.858C219.07 73.493 219.333 73.2302 219.634 73.0176C219.948 72.7863 220.29 72.5958 220.652 72.4506C221.13 72.2672 221.639 72.1801 222.151 72.1943C222.703 72.1621 223.256 72.2449 223.775 72.4375C224.294 72.63 224.767 72.9281 225.164 73.3128C225.946 74.2218 226.337 75.4028 226.252 76.5986V82.8129H224.1V76.7695C224.165 76.0399 223.945 75.3136 223.487 74.7421C223.239 74.5181 222.947 74.3468 222.631 74.2386C222.315 74.1305 221.98 74.0877 221.646 74.1129C221.254 74.1064 220.865 74.1832 220.504 74.3382C220.164 74.4838 219.855 74.6949 219.596 74.9596C219.332 75.2376 219.126 75.565 218.99 75.9228C218.845 76.3263 218.774 76.7526 218.78 77.1812V82.8129H216.629L216.605 72.3263Z" fill="#7D0F4B"/>
<path d="M233.936 82.9686C233.037 82.9684 232.153 82.7455 231.362 82.32C230.571 81.8945 229.897 81.2795 229.402 80.53C228.906 79.7806 228.604 78.92 228.523 78.0252C228.441 77.1305 228.582 76.2294 228.934 75.4027C229.2 74.7618 229.587 74.1788 230.076 73.686C230.588 73.1834 231.195 72.7874 231.862 72.5207C232.528 72.2541 233.241 72.1221 233.959 72.1324C234.694 72.1257 235.424 72.2684 236.102 72.5519C237.399 73.0917 238.429 74.122 238.968 75.4182C239.391 76.4207 239.508 77.526 239.303 78.5946C239.099 79.6633 238.582 80.6474 237.819 81.4228C237.326 81.911 236.743 82.2989 236.102 82.5646C235.415 82.8458 234.678 82.9833 233.936 82.9686ZM233.936 81.0266C234.375 81.0305 234.811 80.946 235.217 80.778C235.596 80.6203 235.937 80.3848 236.219 80.0867C236.508 79.7689 236.729 79.3965 236.871 78.9914C237.038 78.5282 237.12 78.0388 237.112 77.5466C237.123 77.0631 237.047 76.5815 236.887 76.1251C236.745 75.72 236.523 75.3476 236.235 75.0298C235.955 74.7269 235.613 74.4884 235.233 74.3307C234.408 74.0099 233.494 74.0099 232.67 74.3307C232.289 74.4884 231.947 74.7269 231.668 75.0298C231.379 75.3476 231.157 75.72 231.015 76.1251C230.854 76.5894 230.775 77.0784 230.782 77.5699C230.776 78.0613 230.855 78.5501 231.015 79.0147C231.157 79.4198 231.379 79.7922 231.668 80.11C231.95 80.4081 232.291 80.6436 232.67 80.8013C233.073 80.9585 233.503 81.035 233.936 81.0266Z" fill="#7D0F4B"/>
<path d="M240.715 72.3265H242.967L244.707 80.7857H245.018L246.757 72.2954H249.864L251.565 80.7857H251.876L253.615 72.2954H255.868L253.615 82.7354H249.934L248.381 74.75H248.171L246.618 82.7354H242.928L240.715 72.3265Z" fill="#7D0F4B"/>
<path d="M257.973 68.4351H260.124V80.7859H262.454V82.7357H257.949L257.973 68.4351Z" fill="#7D0F4B"/>
<path d="M268.976 82.9685C268.261 82.9728 267.553 82.8301 266.895 82.5491C266.263 82.2788 265.689 81.8914 265.202 81.4072C264.71 80.9143 264.322 80.328 264.06 79.6827C263.522 78.3068 263.522 76.7785 264.06 75.4026C264.32 74.7588 264.709 74.1747 265.202 73.6859C265.688 73.199 266.263 72.8089 266.895 72.5363C267.553 72.2553 268.261 72.1125 268.976 72.1168C269.689 72.1118 270.395 72.2546 271.05 72.5363C271.685 72.807 272.263 73.1973 272.751 73.6859C273.242 74.1751 273.628 74.7592 273.885 75.4026C274.166 76.0821 274.306 76.8114 274.297 77.5466V78.2612H265.8C265.873 78.6693 266.012 79.0628 266.211 79.4264C266.395 79.7575 266.637 80.0523 266.926 80.2964C267.21 80.533 267.533 80.7171 267.881 80.8401C268.233 80.9647 268.603 81.0278 268.976 81.0266C269.442 81.0384 269.905 80.9647 270.343 80.8091C270.677 80.6953 270.989 80.5274 271.268 80.3119C271.533 80.1126 271.762 79.8681 271.943 79.5895H274.165C273.915 80.2214 273.546 80.7991 273.077 81.2907C272.859 81.5085 272.628 81.7135 272.386 81.9043C272.109 82.122 271.807 82.3047 271.485 82.4481C271.116 82.6154 270.731 82.743 270.336 82.8287C269.889 82.9235 269.433 82.9703 268.976 82.9685ZM272.044 76.5212C271.986 76.2082 271.884 75.905 271.741 75.6201C271.59 75.3232 271.382 75.0592 271.128 74.8434C270.851 74.609 270.539 74.4202 270.204 74.2841C269.476 74.0214 268.682 74.0051 267.943 74.2375C267.611 74.346 267.299 74.5087 267.019 74.7191C266.737 74.9316 266.497 75.195 266.312 75.4958C266.119 75.8152 265.98 76.1643 265.901 76.529L272.044 76.5212Z" fill="#7D0F4B"/>
<path d="M281.057 82.9687C280.392 82.9787 279.733 82.8463 279.123 82.5803C278.534 82.3284 278.005 81.9552 277.57 81.485C277.108 80.9923 276.751 80.4109 276.521 79.7761C276.014 78.3305 276.014 76.7552 276.521 75.3096C276.753 74.6758 277.11 74.0947 277.57 73.6007C278.015 73.1229 278.555 72.7439 279.156 72.4883C279.756 72.2327 280.404 72.1062 281.057 72.117C281.54 72.1098 282.019 72.1942 282.47 72.3656C282.829 72.5066 283.173 72.6835 283.496 72.8938C283.806 73.1173 284.088 73.3782 284.335 73.6706H284.435V68.4351H286.595V82.7668H284.443V81.4384H284.342C284.099 81.7341 283.817 81.9954 283.503 82.2152C283.182 82.4258 282.838 82.6003 282.478 82.7357C282.023 82.8987 281.541 82.9777 281.057 82.9687ZM281.469 81.0267C281.868 81.0406 282.266 80.9679 282.634 80.8137C283.003 80.6595 283.334 80.4275 283.604 80.1334C284.145 79.3779 284.436 78.472 284.436 77.5429C284.436 76.6137 284.145 75.7079 283.604 74.9523C283.332 74.6609 283.001 74.4311 282.632 74.2784C282.264 74.1256 281.867 74.0535 281.469 74.0668C281.054 74.048 280.641 74.1172 280.255 74.2699C279.87 74.4225 279.521 74.6551 279.232 74.9523C278.687 75.706 278.393 76.6126 278.393 77.5429C278.393 78.4731 278.687 79.3797 279.232 80.1334C279.519 80.4333 279.868 80.6681 280.254 80.8222C280.639 80.9763 281.054 81.046 281.469 81.0267Z" fill="#7D0F4B"/>
<path d="M290.546 84.7086H297.303V81.4383H297.202C296.958 81.7339 296.676 81.9952 296.363 82.2151C296.043 82.4287 295.699 82.6034 295.338 82.7355C294.885 82.899 294.406 82.978 293.924 82.9685C293.259 82.9765 292.6 82.8441 291.99 82.5802C291.403 82.3257 290.874 81.9528 290.437 81.4849C289.978 80.9917 289.624 80.4103 289.396 79.776C288.889 78.3304 288.889 76.755 289.396 75.3094C289.626 74.6761 289.979 74.095 290.437 73.6005C290.882 73.1227 291.422 72.7437 292.023 72.4881C292.624 72.2325 293.271 72.106 293.924 72.1168C294.407 72.1083 294.887 72.1927 295.338 72.3654C295.698 72.5031 296.042 72.6802 296.363 72.8936C296.676 73.1138 296.958 73.3751 297.202 73.6704H297.303V72.3188H299.454V86.6505H290.546V84.7086ZM294.336 81.0266C294.735 81.0409 295.133 80.9685 295.502 80.8143C295.87 80.6601 296.201 80.4277 296.472 80.1333C297.012 79.3777 297.303 78.4719 297.303 77.5427C297.303 76.6135 297.012 75.7077 296.472 74.9521C296.2 74.6599 295.869 74.4296 295.5 74.2768C295.132 74.124 294.735 74.0523 294.336 74.0666C293.923 74.0485 293.511 74.118 293.126 74.2706C292.742 74.4232 292.395 74.6555 292.107 74.9521C291.562 75.7059 291.268 76.6124 291.268 77.5427C291.268 78.473 291.562 79.3795 292.107 80.1333C292.396 80.4356 292.747 80.6719 293.135 80.826C293.524 80.9802 293.942 81.0486 294.359 81.0266H294.336Z" fill="#7D0F4B"/>
<path d="M307.176 82.9684C306.46 82.9727 305.752 82.8299 305.094 82.549C304.463 82.2787 303.888 81.8913 303.401 81.4071C302.912 80.9121 302.524 80.3263 302.259 79.6826C301.721 78.3067 301.721 76.7784 302.259 75.4025C302.522 74.7602 302.91 74.1766 303.401 73.6858C303.887 73.1989 304.462 72.8088 305.094 72.5362C305.753 72.2593 306.461 72.1167 307.176 72.1167C307.89 72.1167 308.598 72.2593 309.257 72.5362C309.889 72.8088 310.464 73.1989 310.95 73.6858C311.441 74.1766 311.829 74.7602 312.092 75.4025C312.366 76.0838 312.503 76.8122 312.496 77.5465V78.2611H304.007C304.077 78.6688 304.214 79.0623 304.411 79.4263C304.594 79.7574 304.836 80.0522 305.125 80.2963C305.409 80.5329 305.732 80.717 306.08 80.84C306.432 80.9646 306.803 81.0277 307.176 81.0265C307.643 81.0384 308.109 80.9647 308.55 80.809C308.88 80.6936 309.19 80.5257 309.467 80.3118C309.733 80.1125 309.961 79.868 310.142 79.5894H312.395C312.145 80.2213 311.776 80.7989 311.307 81.2906C311.089 81.5084 310.858 81.7134 310.616 81.9042C310.339 82.1219 310.037 82.3046 309.715 82.448C309.347 82.6153 308.961 82.7429 308.566 82.8286C308.109 82.9256 307.643 82.9725 307.176 82.9684ZM310.243 76.5211C310.185 76.2081 310.083 75.9049 309.941 75.62C309.792 75.3215 309.583 75.057 309.327 74.8432C309.051 74.6089 308.739 74.4201 308.403 74.284C307.675 74.0213 306.881 74.005 306.143 74.2374C305.81 74.3459 305.498 74.5086 305.218 74.719C304.936 74.9315 304.697 75.1949 304.512 75.4957C304.318 75.8138 304.181 76.1635 304.108 76.5289L310.243 76.5211Z" fill="#7D0F4B"/>
<path d="M162.008 18.705C160.678 17.2877 159.034 16.2022 157.208 15.5357C155.217 14.815 153.112 14.4572 150.995 14.4793C149.023 14.4259 147.059 14.7502 145.208 15.4347C143.824 15.9655 142.517 16.6815 141.325 17.5631C140.181 18.4898 139.181 19.5815 138.358 20.8023H138.203V15.2483H130.188V53.3108H138.179V33.0522C138.151 31.4414 138.414 29.8386 138.956 28.3216C139.456 26.9821 140.219 25.7564 141.201 24.7173C142.163 23.7197 143.318 22.927 144.595 22.387C145.93 21.8277 147.365 21.5475 148.812 21.5636C150.053 21.501 151.295 21.6842 152.465 22.1028C153.635 22.5214 154.711 23.167 155.631 24.0027C157.325 25.6288 158.174 28.143 158.179 31.5453V53.2953H166.21V30.6675C166.251 28.3263 165.878 25.9962 165.107 23.7852C164.423 21.9002 163.366 20.1724 162 18.705" fill="#7D0F4B"/>
<path d="M204.025 39.4918C203.457 40.9577 202.62 42.3041 201.556 43.4612C200.523 44.5731 199.262 45.4477 197.859 46.0246C196.382 46.6341 194.796 46.9379 193.199 46.9179C191.642 46.9332 190.098 46.6292 188.663 46.0246C187.277 45.4408 186.032 44.5667 185.012 43.4612C183.947 42.3105 183.119 40.9619 182.574 39.4918C181.414 36.1164 181.414 32.4504 182.574 29.0751C183.121 27.6035 183.949 26.2527 185.012 25.0979C186.054 23.9701 187.321 23.0735 188.731 22.466C190.142 21.8585 191.663 21.5537 193.199 21.5713C194.799 21.5538 196.386 21.8686 197.859 22.4957C199.25 23.095 200.507 23.9666 201.556 25.0591C202.63 26.2143 203.469 27.5678 204.025 29.044C204.654 30.7171 204.964 32.4926 204.942 34.2795C204.967 36.0592 204.656 37.8276 204.025 39.4918ZM220.771 7.93875V0H204.942V21.0354H204.717C203.897 19.777 202.88 18.6595 201.703 17.7262C200.444 16.8273 199.077 16.0913 197.633 15.5357C195.739 14.8064 193.721 14.4555 191.692 14.5026C189.288 14.4866 186.907 14.9735 184.702 15.9319C182.522 16.88 180.554 18.2562 178.916 19.9789C177.204 21.7833 175.87 23.9121 174.993 26.2398C174.035 28.7758 173.556 31.4676 173.58 34.1786C173.546 36.9427 174.023 39.6893 174.986 42.2804C175.857 44.5973 177.191 46.7119 178.908 48.4947C180.559 50.2051 182.523 51.5817 184.694 52.5496C186.895 53.5253 189.277 54.0231 191.684 54.0099C195.27 54.0875 198.784 52.997 201.695 50.9028C202.872 49.9695 203.889 48.852 204.709 47.5937H204.934V53.2254H220.763V45.3021H212.856V7.93875H220.771Z" fill="#7D0F4B"/>
<path d="M55.7478 25.0981C56.802 24.0097 58.0576 23.1364 59.4448 22.5269C61.0004 21.887 62.6707 21.5727 64.3525 21.6034C66.0343 21.6341 67.6919 22.0093 69.2232 22.7056C70.4382 23.3233 71.545 24.1339 72.5007 25.1059C73.0986 25.773 73.6196 26.5052 74.0541 27.2886L79.584 21.7502C79.5296 21.6725 79.483 21.587 79.4209 21.5094C78.665 20.5949 77.8392 19.7404 76.9511 18.9537C75.9435 18.0738 74.8324 17.3199 73.6424 16.7088C72.2827 16.0354 70.8527 15.5144 69.3785 15.1553C67.5998 14.7197 65.7728 14.5135 63.9418 14.5416C61.2798 14.529 58.6411 15.0383 56.175 16.0408C53.8129 16.9921 51.6657 18.4079 49.8606 20.2044C48.0619 22.0063 46.6389 24.1476 45.6744 26.5041C43.645 31.5295 43.645 37.1465 45.6744 42.1719C46.6409 44.5272 48.0636 46.6682 49.8606 48.4716C51.6657 50.268 53.8129 51.6839 56.175 52.6352C58.6411 53.6376 61.2798 54.1469 63.9418 54.1344C65.7878 54.1568 67.6296 53.9506 69.4251 53.5207C70.9435 53.1566 72.4119 52.6088 73.7978 51.8895C75.0089 51.2556 76.1361 50.4727 77.153 49.5591C78.0271 48.7554 78.8086 47.8565 79.483 46.8792L74.0463 41.4417C73.6619 42.1186 73.2118 42.756 72.7027 43.3448C71.7155 44.3571 70.5722 45.2042 69.3164 45.8538C67.6517 46.6793 65.806 47.072 63.9495 46.9957C62.4172 47.0076 60.9 46.6925 59.4992 46.0713C58.1159 45.4582 56.8615 44.5884 55.8022 43.5079C54.7091 42.3672 53.8444 41.0277 53.2547 39.5619C52.5949 37.9074 52.2702 36.1384 52.2994 34.3574C52.2809 32.5935 52.5917 30.8416 53.2159 29.1918C53.7844 27.7034 54.6364 26.3395 55.7245 25.1758" fill="#7D0F4B"/>
<path d="M93.0158 30.543C94.1808 25.4084 98.2195 21.5711 103.703 21.5711C109.186 21.5711 112.681 25.4084 113.846 30.543H93.0158ZM103.889 14.4868C92.4799 14.4868 84.4258 23.148 84.4258 33.9065C84.4258 34.0385 84.4258 34.1628 84.4258 34.2871C84.4258 34.9163 84.4258 35.5299 84.5035 36.1436C84.5035 36.2057 84.5035 36.2757 84.5035 36.3456C84.5423 36.7961 84.6044 37.2466 84.6743 37.6894C84.6743 37.7982 84.7132 37.9069 84.7287 38.0079C84.885 38.8804 85.0977 39.7419 85.3656 40.5868C85.4044 40.6878 85.4355 40.7888 85.4665 40.8975C85.6141 41.3092 85.7617 41.7209 85.9325 42.1249C86.8912 44.4844 88.315 46.6268 90.119 48.4245C91.923 50.2221 94.0704 51.6381 96.4332 52.5882C98.8993 53.5906 101.538 54.0999 104.2 54.0873C106.046 54.1097 107.888 53.9036 109.683 53.4737C111.202 53.1096 112.67 52.5618 114.056 51.8424C115.269 51.2113 116.396 50.4282 117.411 49.5121C118.283 48.706 119.064 47.8074 119.741 46.8322L114.304 41.3947C113.921 42.0697 113.471 42.7046 112.961 43.29C111.972 44.3001 110.829 45.1469 109.575 45.799C107.909 46.6207 106.064 47.0132 104.208 46.9409C102.675 46.9529 101.158 46.6377 99.7573 46.0165C98.3741 45.4035 97.1196 44.5336 96.0604 43.4532C94.969 42.314 94.1044 40.9774 93.5129 39.5149C93.3808 39.1964 93.2721 38.8701 93.1711 38.5361C93.1245 38.3885 93.0779 38.2332 93.0391 38.0778L92.9459 37.6972C92.8527 37.2622 92.7673 36.8194 92.7051 36.3611H122.452V34.1084C122.452 22.3712 114.685 14.5101 103.889 14.5101" fill="#7D0F4B"/>
<path d="M26.8257 34.6447C26.8257 42.2961 20.9385 46.8947 15.5561 46.8947C12.0223 46.8947 9.234 44.9605 9.234 41.4572C9.234 36.5013 16.8765 33.5495 26.8257 33.5495V34.6447ZM34.8177 45.3955V15.2251H3.14487V23.1483H26.8257V27.1876C8.18549 27.1876 0.908044 32.5552 0.620675 41.6902C0.372139 49.3804 6.42244 54.0799 13.8241 54.0799C18.5929 54.0799 23.7578 52.2001 26.616 47.6947H26.8645V53.3342H40.7515V45.411L34.8177 45.3955Z" fill="#7D0F4B"/>
</g>
<defs>
<clipPath id="clip0_604_6675">
<rect width="313" height="87" fill="white"/>
</clipPath>
</defs>
</svg>
