<svg width="192" height="20" viewBox="0 0 192 20" fill="none" xmlns="http://www.w3.org/2000/svg">
<path d="M57.8984 16.7401C58.5638 15.6981 58.9275 14.5001 58.9896 13.1463H54.3451C54.3096 14.2507 54.0079 15.0568 53.4401 15.5645C52.8723 16.0721 52.0516 16.326 50.9781 16.326C49.7094 16.326 48.8133 15.8806 48.2899 14.99C47.7753 14.0993 47.518 12.6163 47.518 10.5411V9.165C47.5446 7.25006 47.8285 5.85616 48.3697 4.9833C48.9109 4.11044 49.7626 3.67401 50.9249 3.67401C52.0694 3.67401 52.9211 3.93231 53.48 4.4489C54.039 4.96549 54.3362 5.81608 54.3717 7.00067H59.0296C58.8344 4.81853 58.0226 3.10844 56.5942 1.87041C55.1658 0.623469 53.276 0 50.9249 0C49.2924 0 47.8551 0.391895 46.613 1.17568C45.3709 1.95057 44.4172 3.055 43.7518 4.48898C43.0953 5.91405 42.767 7.5796 42.767 9.48564V10.4476C42.767 13.4847 43.4989 15.8361 44.9628 17.5017C46.4267 19.1672 48.4318 20 50.9781 20C52.5219 20 53.8926 19.715 55.0903 19.145C56.2969 18.5749 57.233 17.7733 57.8984 16.7401Z" fill="#0B0C11"/>
<path d="M75.4758 19.7328H80.1203V0.280561H75.4758V8.00267H68.5955V0.280561H63.9243V19.7328H68.5955V11.6099H75.4758V19.7328Z" fill="#0B0C11"/>
<path d="M88.382 15.3641C89.0918 15.3641 89.6818 15.5778 90.152 16.0053C90.6222 16.424 90.8573 16.9628 90.8573 17.6219C90.8573 18.281 90.6222 18.8243 90.152 19.2518C89.6818 19.6705 89.0918 19.8798 88.382 19.8798C87.6634 19.8798 87.069 19.666 86.5987 19.2385C86.1374 18.811 85.9067 18.2721 85.9067 17.6219C85.9067 16.9717 86.1374 16.4329 86.5987 16.0053C87.069 15.5778 87.6634 15.3641 88.382 15.3641Z" fill="#0B0C11"/>
<path d="M111.376 16.7401C112.041 15.6981 112.405 14.5001 112.467 13.1463H107.823C107.787 14.2507 107.485 15.0568 106.918 15.5645C106.35 16.0721 105.529 16.326 104.456 16.326C103.187 16.326 102.291 15.8806 101.767 14.99C101.253 14.0993 100.996 12.6163 100.996 10.5411V9.165C101.022 7.25006 101.306 5.85616 101.847 4.9833C102.388 4.11044 103.24 3.67401 104.402 3.67401C105.547 3.67401 106.399 3.93231 106.958 4.4489C107.516 4.96549 107.814 5.81608 107.849 7.00067H112.507C112.312 4.81853 111.5 3.10844 110.072 1.87041C108.643 0.623469 106.754 0 104.402 0C102.77 0 101.333 0.391895 100.091 1.17568C98.8484 1.95057 97.8947 3.055 97.2293 4.48898C96.5728 5.91405 96.2445 7.5796 96.2445 9.48564V10.4476C96.2445 13.4847 96.9764 15.8361 98.4403 17.5017C99.9042 19.1672 101.909 20 104.456 20C105.999 20 107.37 19.715 108.568 19.145C109.774 18.5749 110.71 17.7733 111.376 16.7401Z" fill="#0B0C11"/>
<path d="M122.073 16.1256H130.204V19.7328H117.402V0.280561H122.073V16.1256Z" fill="#0B0C11"/>
<path fill-rule="evenodd" clip-rule="evenodd" d="M149.405 15.4442C150.106 13.9835 150.457 12.3046 150.457 10.4075V9.51236C150.448 7.64195 150.084 5.9853 149.365 4.54242C148.656 3.09063 147.657 1.97283 146.371 1.18904C145.085 0.405255 143.621 0.0133601 141.979 0.0133601C140.32 0.0133601 138.839 0.409708 137.534 1.2024C136.239 1.9951 135.241 3.1218 134.54 4.5825C133.848 6.03429 133.502 7.7132 133.502 9.61924V10.7148C133.538 12.5495 133.91 14.175 134.62 15.5912C135.339 17.0073 136.337 18.0984 137.614 18.8644C138.892 19.6215 140.356 20 142.006 20C143.656 20 145.124 19.6081 146.411 18.8243C147.706 18.0316 148.704 16.9049 149.405 15.4442ZM144.734 5.19706C145.382 6.19461 145.706 7.65976 145.706 9.59252V10.4876C145.697 12.3759 145.373 13.8232 144.734 14.8297C144.095 15.8361 143.186 16.3393 142.006 16.3393C140.764 16.3393 139.828 15.8272 139.198 14.8029C138.568 13.7787 138.253 12.3135 138.253 10.4075L138.266 8.97795C138.399 5.4509 139.637 3.68737 141.979 3.68737C143.177 3.68737 144.095 4.1906 144.734 5.19706Z" fill="#0B0C11"/>
<path d="M170.789 0.280561V13.0127C170.789 14.4556 170.483 15.707 169.871 16.7669C169.258 17.8179 168.38 18.6195 167.236 19.1717C166.091 19.7239 164.738 20 163.177 20C160.817 20 158.958 19.3854 157.6 18.1563C156.243 16.9272 155.551 15.2438 155.524 13.1062V0.280561H160.222V13.1997C160.275 15.3284 161.26 16.3928 163.177 16.3928C164.144 16.3928 164.876 16.1256 165.372 15.5912C165.869 15.0568 166.118 14.1884 166.118 12.986V0.280561H170.789Z" fill="#0B0C11"/>
<path fill-rule="evenodd" clip-rule="evenodd" d="M176.442 0.280561V19.7328H182.817C184.494 19.7239 186.011 19.3231 187.368 18.5304C188.734 17.7288 189.79 16.6244 190.535 15.2171C191.29 13.8009 191.667 12.2022 191.667 10.4208V9.52572C191.658 7.76219 191.267 6.17234 190.496 4.75618C189.733 3.33111 188.668 2.23113 187.302 1.45625C185.935 0.672456 184.396 0.280561 182.684 0.280561H176.442ZM181.113 16.1256V3.90114H182.684C184.059 3.90114 185.106 4.37764 185.824 5.33066C186.543 6.28368 186.902 7.69984 186.902 9.57916V10.4208C186.902 12.3091 186.543 13.7341 185.824 14.6961C185.106 15.6491 184.077 16.1256 182.737 16.1256H181.113Z" fill="#0B0C11"/>
<path fill-rule="evenodd" clip-rule="evenodd" d="M0 19.7328L5.01927 19.7328C5.58195 18.1745 6.75139 16.6877 8.5091 15.4302C9.45549 14.7531 10.5516 14.1614 11.7667 13.6844C12.0854 13.5593 12.4123 13.4421 12.7468 13.3333C14.5901 12.7339 16.6655 12.39 18.8804 12.39C20.2502 12.39 21.5665 12.5215 22.8076 12.7636V19.7328H27.4788V14.3536C28.1153 14.6806 28.7082 15.0413 29.2517 15.4302C31.0094 16.6877 32.1789 18.1745 32.7416 19.7328H37.5618C36.8983 16.4494 34.7741 13.6507 31.9496 11.6299C31.0063 10.9549 29.9732 10.3562 28.8671 9.84268C28.1299 9.50036 27.3602 9.1959 26.5631 8.93198C25.7659 8.66802 24.9413 8.44462 24.0942 8.26444C23.6707 8.17435 23.2417 8.09508 22.8076 8.02694C21.536 7.82735 20.2217 7.72334 18.8804 7.72334C17.3382 7.72334 15.8317 7.86083 14.3848 8.12302L11.4982 0.280558H7.10656L0 19.7328ZM10.3832 9.21933L9.3024 5.73146L7.88081 10.3476C8.67348 9.9241 9.50995 9.54673 10.3832 9.21933Z" fill="#0B0C11"/>
<path d="M18.658 19.7328L16.6175 14.189C15.0259 14.3776 13.5585 14.7595 12.2612 15.2804L13.6409 19.7328H18.658Z" fill="#0B0C11"/>
<path d="M22.8076 6.34141V0.280558H30.4332C32.731 0.280558 34.5276 0.792693 35.823 1.81696C37.1183 2.84124 37.766 4.28857 37.766 6.15898C37.766 7.5128 37.4909 8.63505 36.9409 9.52571C36.4277 10.3703 35.6353 11.0627 34.5637 11.6029C34.0404 11.128 33.488 10.6839 32.9131 10.2726C32.368 9.88263 31.7971 9.51693 31.2029 9.1767C31.7162 9.07696 32.125 8.8682 32.4293 8.55041C32.8818 8.07836 33.1081 7.42371 33.1081 6.58648C33.1081 5.74925 32.8818 5.09461 32.4293 4.62256C31.9769 4.14159 31.3115 3.90111 30.4331 3.90111H27.4787V7.48395C25.998 6.96494 24.4313 6.57991 22.8076 6.34141Z" fill="#0B0C11"/>
</svg>
