<svg width="139" height="64" viewBox="0 0 139 64" fill="none" xmlns="http://www.w3.org/2000/svg">
<path d="M107.614 17.1316C105.529 16.5895 103.326 16.7304 101.327 17.5336C99.3285 18.3367 97.6403 19.7598 96.5105 21.5936C95.3986 23.4372 94.9117 25.5905 95.1221 27.7332C95.3325 29.8758 96.229 31.8933 97.6782 33.4854C99.1274 35.0776 101.052 36.1593 103.165 36.5697C105.279 36.9801 107.468 36.6972 109.408 35.7632C109.807 35.5775 110.144 35.165 110.666 35.3438C110.776 37.4819 110.494 38.6576 109.58 39.8539C107.084 43.1195 102.478 42.7827 100.134 39.1595C99.2124 37.7363 98.1628 37.3513 96.9849 38.0045C95.7405 38.6988 95.5067 39.9226 96.3661 41.4145C97.555 43.4981 99.4497 45.088 101.708 45.8971C102.114 46.0483 102.059 46.0483 102.677 46.2821C103.386 46.5571 105.565 46.6258 106.576 46.4402C107.012 46.3495 107.442 46.2277 107.861 46.0758C109.909 45.4899 111.716 44.267 113.022 42.5846C114.327 40.9021 115.062 38.8475 115.121 36.7188C115.197 33.2881 115.211 29.8574 115.115 26.4268C115.036 24.2752 114.262 22.207 112.91 20.5315C111.558 18.856 109.7 17.6632 107.614 17.1316ZM99.4324 26.7912C99.4195 25.6752 99.7379 24.5805 100.347 23.6455C100.957 22.7106 101.83 21.9774 102.856 21.5387C103.882 21.1 105.015 20.9756 106.112 21.1811C107.209 21.3866 108.221 21.9129 109.018 22.6934C109.816 23.4738 110.364 24.4733 110.594 25.5655C110.824 26.6577 110.724 27.7934 110.308 28.8289C109.892 29.8645 109.178 30.7534 108.257 31.3832C107.335 32.0129 106.248 32.3553 105.132 32.3669C104.391 32.3761 103.656 32.2391 102.968 31.9637C102.281 31.6882 101.654 31.2798 101.125 30.7619C100.595 30.2439 100.173 29.6265 99.883 28.9452C99.5926 28.2638 99.4394 27.5318 99.4324 26.7912Z" fill="black"/>
<path d="M136.487 23.8278C134.974 19.1528 130.32 16.1827 125.555 16.884C123.803 17.1324 122.147 17.842 120.759 18.9402C119.37 20.0384 118.298 21.4857 117.653 23.1341C117.007 24.7825 116.811 26.5728 117.085 28.3219C117.358 30.0709 118.092 31.7159 119.21 33.0885C120.328 34.4611 121.79 35.5121 123.448 36.1338C125.105 36.7556 126.898 36.9259 128.643 36.6273C130.388 36.3287 132.022 35.5719 133.379 34.4343C134.735 33.2967 135.765 31.8192 136.363 30.1529C136.653 29.4678 136.859 28.7498 136.975 28.0148C137.064 27.0442 137.022 26.0661 136.851 25.1066C136.751 24.6745 136.63 24.2477 136.487 23.8278ZM126.855 32.3667C125.756 32.3446 124.689 31.9987 123.786 31.3724C122.883 30.746 122.185 29.8671 121.78 28.8458C121.375 27.8245 121.28 26.7063 121.508 25.6313C121.735 24.5564 122.275 23.5726 123.06 22.8033C123.844 22.034 124.838 21.5133 125.918 21.3067C126.997 21.1001 128.113 21.2166 129.126 21.6418C130.139 22.0669 131.004 22.7816 131.613 23.6964C132.222 24.6112 132.547 25.6854 132.547 26.7841C132.542 27.525 132.39 28.2574 132.101 28.9394C131.811 29.6213 131.39 30.2394 130.861 30.7581C130.332 31.2769 129.706 31.686 129.018 31.962C128.331 32.2381 127.596 32.3756 126.855 32.3667Z" fill="black"/>
<path d="M81.4485 24.6529C81.1703 23.3045 80.6104 22.0302 79.8055 20.9133C79.0007 19.7963 77.969 18.862 76.778 18.1714C75.587 17.4808 74.2636 17.0496 72.8944 16.9059C71.5252 16.7622 70.1411 16.9094 68.8327 17.3377C67.5043 17.7412 66.2746 18.4171 65.2221 19.3223C64.1695 20.2276 63.3172 21.3423 62.7194 22.5953C62.1217 23.8483 61.7917 25.2122 61.7505 26.5998C61.7093 27.9875 61.9578 29.3685 62.4801 30.6548C64.632 35.8936 71.1496 38.2931 76.2853 35.7287C76.8903 35.4261 77.3441 34.9861 77.9284 35.8937C78.1744 36.2807 78.555 36.5631 78.9967 36.6862C79.4385 36.8093 79.9103 36.7646 80.321 36.5605C80.7471 36.4083 81.111 36.1195 81.356 35.739C81.6009 35.3585 81.7132 34.9077 81.6754 34.4568C81.6685 33.0336 81.6754 31.6105 81.6754 29.8229C81.586 28.3379 81.861 26.4748 81.4485 24.6529ZM71.734 32.3667C68.5302 32.3255 66.0139 29.8298 66.1033 26.7841C66.1743 25.2976 66.8114 23.8946 67.884 22.8629C68.9566 21.8312 70.3833 21.2491 71.8715 21.2359C72.61 21.2501 73.3383 21.411 74.014 21.7093C74.6897 22.0076 75.2993 22.4374 75.8073 22.9735C76.3153 23.5097 76.7116 24.1416 76.9731 24.8324C77.2345 25.5232 77.356 26.2591 77.3303 26.9973C77.2959 30.1254 74.9171 32.408 71.734 32.3667Z" fill="black"/>
<path d="M95.7089 18.8437C95.5989 17.4068 94.3888 16.6712 92.5119 16.8775C90.3459 17.0937 88.3091 18.0089 86.7092 19.4849C85.1092 20.9608 84.033 22.9173 83.643 25.0588C83.313 26.7776 83.5674 28.5308 83.4918 29.9745C83.4918 31.5283 83.4849 32.7933 83.4918 34.0584C83.5055 35.7978 84.2756 36.7603 85.6506 36.774C87.0256 36.7947 87.8644 35.8184 87.885 34.1065C87.9056 31.6864 87.8644 29.2595 87.8987 26.8395C87.94 23.8144 90.0369 21.4082 93.0276 21.2844C94.8013 21.2088 95.7982 20.0331 95.7089 18.8437Z" fill="#010101"/>
<path d="M21.6783 50.9477C21.6836 50.9477 21.689 50.9637 21.689 50.9957C21.6943 51.2199 21.6996 51.4388 21.705 51.663C21.737 51.4922 21.769 51.3213 21.8064 51.1452C21.7797 50.8196 21.5235 50.985 21.6783 50.9477Z" fill="#FEFEFE"/>
<path d="M35.6853 32.6924C35.68 32.6977 35.6694 32.6977 35.6641 32.703C35.6693 32.7083 35.68 32.7136 35.6853 32.7189C35.68 32.7136 35.6853 32.703 35.6853 32.6924Z" fill="#FEFEFE"/>
<path d="M26.8594 10.2842V10.2894H26.8752C26.8699 10.2894 26.8647 10.2842 26.8594 10.2842Z" fill="#FEFEFE"/>
<path d="M34.3591 55.2874C34.4285 54.5134 34.3911 53.7288 34.4872 52.9601C34.7007 51.268 34.4979 49.5385 34.9409 47.8678C35.1598 47.003 34.4605 45.9888 35.3573 45.2309L35.1331 44.4942C35.0386 44.3025 34.9916 44.0908 34.9963 43.8771C35.0009 43.6634 35.057 43.4539 35.1598 43.2665C35.1071 41.7828 35.1965 40.2974 35.4267 38.8307C35.5067 36.7916 35.5921 34.7526 35.6722 32.7082C35.6669 32.7028 35.6562 32.6975 35.6508 32.6922C31.2898 34.6939 27.1796 31.8915 26.4804 28.5286C26.0213 26.3187 26.2668 24.2316 27.991 22.5448C28.2792 22.2619 28.5248 21.9363 28.7917 21.6267C29.4963 17.4044 29.0052 13.5291 25.3968 10.5079C25.9359 10.1983 26.4216 10.3744 26.8593 10.2944V10.2891C22.4342 9.17884 17.0643 12.2054 15.2868 16.828C14.734 18.194 14.4845 19.6638 14.5555 21.1357C18.9433 19.102 22.8773 21.5307 23.9609 25.2299C25.0872 29.0785 22.0873 33.1513 18.0999 33.21C16.9581 33.2155 15.8223 33.0463 14.7317 32.7082C14.8118 34.8327 14.8936 36.9572 14.9772 39.0817C15.1727 40.4677 15.2566 41.8672 15.2281 43.2666C15.2388 43.5975 15.2495 43.9285 15.2601 44.2594C15.2495 44.4783 15.2388 44.6971 15.2281 44.9213C15.5057 46.2629 15.6717 47.6252 15.7245 48.9941C15.7149 48.9591 15.7077 48.9234 15.7032 48.8874C15.7085 48.9248 15.7192 48.9568 15.7245 48.9941C15.8313 51.3161 15.8953 53.6435 16.0608 55.9654C16.1302 56.9262 15.7832 57.4067 14.8971 57.6522C13.8509 57.9458 12.8207 58.2981 11.7852 58.629C13.1516 58.8009 14.5297 58.8615 15.906 58.8105C17.3846 58.7785 18.0572 58.1219 18.2013 56.654C18.292 55.7199 18.3721 54.7858 18.4575 53.8516C18.5536 52.1595 18.6497 50.4621 18.7457 48.77H18.9539V53.6008C18.9806 54.332 18.9913 55.0687 19.0393 55.8C19.2528 59.2109 19.3543 59.1895 15.954 59.8781C15.8762 59.9023 15.8011 59.9345 15.7298 59.9742C15.9327 60.1076 16.1355 60.2411 16.3384 60.3799C16.3692 60.3848 16.3985 60.3965 16.4243 60.414C16.4501 60.4315 16.4718 60.4545 16.4878 60.4813C17.2992 60.4866 18.1159 60.556 18.9166 60.4813C20.3738 60.3425 21.0624 59.5632 21.1691 58.1166C21.2332 57.1878 21.3293 56.259 21.4094 55.3302C21.3264 54.1039 21.4235 52.872 21.6976 51.6738C21.6923 51.4496 21.6869 51.2307 21.6816 51.0066C21.6816 50.9745 21.6709 50.9532 21.6709 50.9585C21.5161 50.9959 21.7723 50.8304 21.799 51.156C21.8257 51.0119 21.8577 50.8678 21.8844 50.7236V56.3177C21.9004 56.9743 21.9218 57.6255 21.9325 58.2821C21.9591 60.6575 21.8097 60.871 19.5464 61.5489C18.9219 61.7357 18.2707 61.8478 17.6515 62.056C17.2031 62.2108 16.6319 62.1254 16.2102 62.6538C18.0518 62.5844 19.7759 62.7926 21.4894 62.515C23.2616 62.2268 23.9662 61.5115 24.3292 59.782C24.5961 58.5116 24.7082 57.2038 25.1939 55.9174C25.2489 56.0053 25.2954 56.0982 25.3327 56.195C25.5782 57.396 25.8238 58.6023 26.0586 59.8034C26.3896 61.4848 27.0728 62.2001 28.781 62.499C30.5478 62.8033 32.336 62.5951 34.1669 62.6378C33.9053 62.1894 33.4943 62.2641 33.1634 62.1681C32.0264 61.8371 30.8681 61.5542 29.7525 61.1699C28.9411 60.887 28.3593 60.3692 28.3699 59.371C28.3966 56.638 28.3806 53.905 28.3806 51.172H28.7116C28.829 52.8855 28.9678 54.5936 29.0585 56.3071C29.2667 60.2678 29.7364 60.7001 33.7132 60.4813C33.9374 60.1076 34.4872 60.4012 34.6953 60.0009C33.7399 59.9956 32.9071 59.5365 32.0317 59.2429C31.7956 59.1616 31.5932 59.0043 31.456 58.7957C31.3189 58.5871 31.2548 58.3389 31.2737 58.0899C31.3164 55.2822 31.2097 52.4638 31.5887 49.6667C31.8182 52.0154 31.9997 54.3694 32.1812 56.7181C32.2666 57.8177 32.763 58.6771 33.916 58.7518C35.4746 58.8586 37.0386 58.7785 38.6026 58.7785C37.7894 58.401 36.9468 58.0904 36.0832 57.8497C34.1722 57.2359 34.1829 57.2304 34.3591 55.2874ZM22.3382 15.2373C22.3347 15.6128 22.184 15.9719 21.9185 16.2375C21.6529 16.503 21.2938 16.6537 20.9183 16.6571C20.0802 16.6732 19.4504 16.1927 19.4344 15.1038C19.438 14.917 19.4795 14.7328 19.5564 14.5625C19.6333 14.3922 19.7439 14.2393 19.8817 14.113C20.0194 13.9867 20.1814 13.8897 20.3578 13.8279C20.5341 13.7661 20.7212 13.7407 20.9076 13.7533C21.9058 13.7373 22.3542 14.4099 22.3382 15.2373ZM28.7543 38.5852C28.7596 40.747 27.1049 42.6313 25.2153 42.626C23.4324 42.6206 21.6122 40.5175 21.6763 38.5318C21.5802 37.9446 21.4788 37.3521 21.3453 36.5301C22.6211 37.4002 23.694 38.2916 25.1299 38.3236C26.5978 38.3503 27.7508 37.5977 28.9518 36.7169C29.208 37.4215 28.5621 37.9713 28.7543 38.5852Z" fill="#FE733E"/>
<path d="M15.2348 43.2614C15.1281 43.224 15.0267 43.176 14.9253 43.1386C13.4943 42.5133 12.176 41.6567 11.0233 40.6031C6.78499 36.9413 3.98792 32.3561 3.31001 26.794C2.54135 20.474 3.95589 14.6397 8.17282 9.62738C12.0214 5.05815 16.927 2.39455 22.7826 1.78069C29.2895 1.10278 35.1345 2.923 40.056 7.41751C44.0739 10.9846 46.6121 15.9257 47.1714 21.2693C47.7481 25.856 46.7969 30.505 44.4651 34.4966C42.2926 38.2064 39.3995 41.217 35.4868 43.1226C35.38 43.176 35.2733 43.2294 35.1665 43.2774C35.0625 43.4645 35.0057 43.674 35.001 43.888C34.9964 44.1019 35.044 44.3138 35.1398 44.5051C35.2234 44.4153 35.3164 44.3347 35.4174 44.2649C41.3264 41.1369 45.4259 36.4876 47.3422 30.0181C47.5077 29.4683 47.7639 29.1961 48.3778 29.2601C49.2105 29.3455 49.4347 28.7904 49.4347 28.0965C49.4399 25.4328 49.4417 22.771 49.4399 20.111C49.4399 19.5398 49.3012 18.91 48.7087 18.8459C47.6197 18.7178 47.4863 17.9224 47.2674 17.1485C46.0627 12.7367 43.4638 8.83265 39.8584 6.01898C32.332 0.109932 24.069 -0.957643 15.4002 3.0351C8.95742 5.99762 4.85259 11.138 2.995 18.0185C2.87756 18.4456 2.93095 18.9527 2.205 18.8032C1.16945 18.5897 0.779779 19.1982 0.774441 20.1163C0.758429 22.7799 0.769121 25.4382 0.769121 28.1018C0.769121 28.9879 1.2175 29.4576 2.07157 29.2495C2.85624 29.0573 3.04306 29.447 3.2032 30.0448C3.89713 32.5754 5.05755 34.9542 6.62478 37.0588C8.92008 40.1708 11.7171 42.6689 15.2722 44.2596C15.2615 43.9287 15.2509 43.5924 15.2348 43.2614Z" fill="#B5D2F3"/>
<path d="M15.2399 44.9165C14.4499 47.1317 12.3468 47.0783 10.5586 47.6335C11.9037 47.9804 13.2702 48.3808 14.6154 48.1513C15.4161 48.0125 15.5709 48.3007 15.6883 48.7758C15.699 48.8132 15.7043 48.8505 15.715 48.8879C15.7203 48.9199 15.731 48.9573 15.7363 48.9947C15.6835 47.6239 15.5175 46.2599 15.2399 44.9165Z" fill="#FE684B"/>
<path d="M34.9448 47.8732C36.6529 48.6472 38.265 47.8679 39.9144 47.6437C38.3023 46.9605 36.2152 47.3128 35.3665 45.2363C34.4644 45.9943 35.1637 47.0085 34.9448 47.8732Z" fill="#FE6446"/>
<path d="M21.8905 50.7129C21.8638 50.857 21.8318 51.0011 21.8051 51.1453C21.7731 51.3161 21.7357 51.4869 21.7037 51.663C21.4296 52.8612 21.3324 54.0931 21.4154 55.3195C21.8158 55.5277 21.5222 56.0775 21.8905 56.3017L21.8905 50.7129Z" fill="#FED6C8"/>
<path d="M18.7609 48.7593C18.6648 50.4514 18.5687 52.1488 18.4727 53.8409C18.6381 53.7555 18.8036 53.6755 18.9691 53.5901V48.7593H18.7609Z" fill="#FEEBE3"/>
<path d="M13.7383 60.4709H16.4926C16.4446 60.4389 16.3912 60.4069 16.3432 60.3695C16.1403 60.2361 15.9375 60.1026 15.7346 59.9638C15.0355 59.9484 14.3453 60.1237 13.7383 60.4709Z" fill="#FE9166"/>
<path d="M33.7188 60.4711H36.3984C35.908 60.1136 35.3059 59.9432 34.7009 59.9907C34.4927 60.3964 33.9376 60.0975 33.7188 60.4711Z" fill="#FE8F64"/>
<path d="M35.4902 43.1174C39.4028 41.2171 42.2906 38.2065 44.4685 34.4913C46.8003 30.4997 47.7515 25.8508 47.1748 21.2641C46.6202 15.919 44.0812 10.9763 40.0594 7.41224C35.1379 2.92308 29.2929 1.09752 22.786 1.78077C16.9357 2.38929 12.0248 5.05823 8.1762 9.62746C3.95393 14.6397 2.54473 20.474 3.31339 26.7941C3.9913 32.3615 6.78835 36.9414 11.0266 40.6032C12.1798 41.6562 13.498 42.5128 14.9286 43.1387C15.03 43.1814 15.1315 43.2241 15.2382 43.2615C15.2667 41.862 15.1828 40.4626 14.9873 39.0766C14.8806 39.0018 14.7738 38.9271 14.6671 38.847C13.6113 38.0305 12.6257 37.127 11.7206 36.1461C11.4377 35.8578 11.0854 35.6123 11.0854 35.1425C10.4555 35.5963 10.0018 35.2813 9.63345 34.7796C7.56606 32.0673 6.36268 28.7957 6.17984 25.3902C6.03038 22.3049 6.30795 19.305 7.60506 16.4172C9.18962 12.8502 11.8416 9.86247 15.1955 7.86594C15.772 7.51365 16.103 7.82859 16.5033 8.09013C16.6933 8.08267 16.8795 8.03505 17.0497 7.9504C17.2199 7.86576 17.3702 7.74601 17.4908 7.59904L17.4428 7.48695C17.1012 6.76634 17.0851 5.94964 17.9072 5.75748C18.7345 5.55997 19.2043 6.23255 19.2096 7.10262C25.3855 5.07423 31.1291 5.89626 36.3122 9.85164C40.1875 12.8088 42.4081 16.7749 43.086 21.611C43.9614 27.8297 41.8583 32.986 37.5239 37.3471C37.0123 37.8718 36.4259 38.3179 35.7838 38.6709C35.6717 38.7296 35.5596 38.783 35.4475 38.8364C35.2173 40.3031 35.1279 41.7884 35.1806 43.2721C35.2767 43.2241 35.3781 43.1707 35.4902 43.1174Z" fill="#E2F5FC"/>
<path d="M37.5145 37.3523C41.8435 32.9912 43.9467 27.8348 43.0766 21.6162C42.3987 16.7747 40.1781 12.8087 36.3028 9.85684C31.1197 5.90146 25.3708 5.08477 19.2002 7.10783C19.1895 7.11309 19.1789 7.12384 19.1682 7.12916C18.6824 7.43876 18.3034 8.10599 17.6042 7.68963C17.5615 7.66292 17.5241 7.64159 17.4814 7.60956C17.3612 7.75697 17.211 7.87702 17.0407 7.96171C16.8704 8.0464 16.684 8.09376 16.4939 8.10065C16.4779 8.1647 16.4565 8.22342 16.4352 8.28747C15.9921 9.5312 14.663 9.85682 13.7716 10.6041C11.3809 12.5439 9.56029 15.095 8.50308 17.9864C6.80563 22.7158 7.1526 27.3491 9.42654 31.8222C9.80406 32.5478 10.2415 33.2405 10.7343 33.8933C11.0029 34.249 11.1252 34.694 11.0759 35.137V35.1531C11.0759 35.6174 11.4282 35.8683 11.7112 36.1566C12.6175 37.1362 13.603 38.0396 14.6577 38.8575C14.7644 38.9323 14.8712 39.0123 14.9779 39.0871C14.8979 36.9626 14.816 34.8381 14.7324 32.7136C14.7271 32.7136 14.7271 32.7083 14.7217 32.7083C12.8748 31.4966 11.519 29.9486 11.2841 27.6427C10.9905 24.7976 12.1862 22.6944 14.5135 21.1625C14.5242 21.1571 14.5349 21.1465 14.5456 21.1411C14.4737 19.6692 14.7232 18.1992 15.2769 16.8334C17.0544 12.2162 22.4243 9.18425 26.8494 10.2945C26.8523 10.2942 26.8552 10.2945 26.858 10.2954C26.8608 10.2963 26.8633 10.2978 26.8654 10.2998C29.8012 10.7749 32.214 12.1147 33.9434 14.5754C35.3389 16.4697 36.0281 18.7922 35.8918 21.141C37.5572 22.4061 38.9023 23.8901 39.1212 26.0839C39.4148 29.0358 38.155 31.1923 35.6729 32.6976V32.7243C35.5929 34.7633 35.5075 36.8024 35.4274 38.8468C35.5448 38.7934 35.6569 38.7401 35.7637 38.6813C36.4123 38.3311 37.0028 37.8829 37.5145 37.3523Z" fill="#CDECF6"/>
<path d="M30.3267 20.9008C32.1576 19.9987 33.9351 20.4844 35.702 21.0663C35.766 21.0876 35.8354 21.109 35.8995 21.1303C36.0373 18.7813 35.348 16.4583 33.9512 14.5647C32.2217 12.1039 29.809 10.7641 26.8731 10.2891H26.8571C26.4194 10.3745 25.9337 10.193 25.3945 10.5026C29.0029 13.5238 29.4994 17.3991 28.7894 21.6214C28.9015 21.568 29.0083 21.52 29.1204 21.4666C29.5314 21.2798 29.9317 21.0983 30.3267 20.9008Z" fill="#FE6B3C"/>
<path d="M39.1344 26.0792C38.9156 23.8853 37.5704 22.4013 35.905 21.1363C35.841 21.1149 35.7716 21.0936 35.7075 21.0722C33.9353 20.4904 32.1632 20.0046 30.3323 20.9067C29.9373 21.1042 29.5316 21.2911 29.1312 21.4779C29.0191 21.5313 28.9124 21.5793 28.8003 21.6327C28.5334 21.937 28.2879 22.2679 27.9996 22.5508C26.2701 24.2376 26.0299 26.3247 26.489 28.5346C27.1883 31.9028 31.2984 34.7052 35.6648 32.7088C35.6701 32.7035 35.6808 32.7035 35.6862 32.6981C38.1683 31.1875 39.4334 29.0257 39.1344 26.0792ZM32.6062 31.9775C31.6047 31.9669 30.6288 31.6594 29.8021 31.0939C28.9755 30.5283 28.3353 29.7302 27.9625 28.8005C27.5898 27.8709 27.5012 26.8515 27.7082 25.8715C27.9151 24.8916 28.4082 23.995 29.125 23.2954C29.8418 22.5959 30.75 22.1247 31.7347 21.9417C32.7195 21.7586 33.7364 21.8719 34.6567 22.2671C35.577 22.6623 36.3593 23.3218 36.9046 24.1619C37.4499 25.002 37.7337 25.9851 37.7199 26.9866C37.7241 27.6536 37.5938 28.3146 37.3368 28.9302C37.0797 29.5457 36.7012 30.103 36.2238 30.5689C35.7465 31.0348 35.1801 31.3997 34.5585 31.6417C33.9369 31.8838 33.2729 31.998 32.6062 31.9775Z" fill="#FE6142"/>
<path d="M14.5193 21.1519C12.1919 22.6839 10.9963 24.787 11.2898 27.6321C11.5247 29.9381 12.8805 31.4861 14.7274 32.6978C14.7328 32.6978 14.7328 32.7031 14.7381 32.7031C15.8286 33.0415 16.9645 33.2107 18.1063 33.2049C22.0884 33.1461 25.0936 29.0787 23.9673 25.2247C22.8837 21.5256 18.9444 19.0968 14.562 21.1306C14.5467 21.1354 14.5323 21.1427 14.5193 21.1519ZM17.7007 31.9772C17.0306 31.9859 16.3654 31.8621 15.7433 31.6128C15.1213 31.3635 14.5546 30.9938 14.076 30.5248C13.5973 30.0558 13.2161 29.4968 12.9542 28.8799C12.6924 28.263 12.555 27.6005 12.5501 26.9304C12.5452 26.2603 12.6727 25.5958 12.9255 24.9752C13.1783 24.3545 13.5513 23.79 14.023 23.314C14.4947 22.838 15.0558 22.4599 15.6742 22.2016C16.2925 21.9432 16.9558 21.8096 17.6259 21.8085C18.2987 21.7955 18.9673 21.9162 19.593 22.1635C20.2188 22.4108 20.7892 22.7799 21.2713 23.2493C21.7533 23.7187 22.1375 24.2791 22.4014 24.8981C22.6653 25.517 22.8037 26.1822 22.8086 26.855C22.8136 27.5278 22.6849 28.195 22.4302 28.8177C22.1754 29.4405 21.7996 30.0065 21.3244 30.4829C20.8493 30.9594 20.2844 31.3368 19.6623 31.5933C19.0403 31.8498 18.3735 31.9802 17.7007 31.9772Z" fill="#FE6143"/>
<path d="M22.35 39.002C22.1525 38.8045 22.0084 38.5376 21.6774 38.5322C21.6134 40.5179 23.4283 42.621 25.2164 42.6264C27.1114 42.6317 28.7608 40.7475 28.7555 38.5856C28.0402 38.9539 27.5865 39.7119 26.7644 39.9361C25.1257 40.3845 23.6204 40.2724 22.35 39.002Z" fill="#070909"/>
<path d="M28.9541 36.7171C27.7531 37.5979 26.6055 38.3505 25.1322 38.3238C23.691 38.2971 22.6234 37.4003 21.3477 36.5303C21.4864 37.3523 21.5825 37.9395 21.6786 38.532C22.0096 38.5426 22.1537 38.8042 22.3512 39.0017C23.6163 40.2721 25.1269 40.3842 26.7656 39.9358C27.5876 39.7117 28.0413 38.959 28.7566 38.5854C28.5645 37.9715 29.2104 37.4217 28.9541 36.7171Z" fill="#FDFCFB"/>
<path d="M20.9068 13.759C20.72 13.7445 20.5322 13.7686 20.3551 13.8298C20.1779 13.8909 20.0152 13.9878 19.8771 14.1144C19.739 14.2411 19.6283 14.3947 19.552 14.5659C19.4757 14.737 19.4354 14.9221 19.4336 15.1094C19.4496 16.1984 20.0795 16.6734 20.9175 16.6628C21.293 16.6593 21.6522 16.5086 21.9177 16.2431C22.1832 15.9775 22.3339 15.6184 22.3374 15.2429C22.3534 14.4102 21.905 13.7376 20.9068 13.759Z" fill="#FEA777"/>
<path d="M11.0788 35.1318C11.128 34.6888 11.0058 34.2437 10.7371 33.8881C10.2462 33.234 9.80884 32.5414 9.42936 31.817C7.15542 27.3438 6.80312 22.7105 8.50591 17.9812C9.56311 15.0897 11.3837 12.5386 13.7744 10.5989C14.6658 9.85156 15.995 9.53129 16.438 8.28222C16.4608 8.22099 16.4804 8.15863 16.4967 8.09539C16.0964 7.83384 15.7654 7.5189 15.1889 7.8712C11.835 9.86773 9.18302 12.8554 7.59846 16.4225C6.30136 19.3103 6.02378 22.3102 6.17325 25.3955C6.35948 28.8002 7.56251 32.0709 9.62686 34.7848C9.99517 35.2866 10.4542 35.6015 11.0788 35.1478L11.0788 35.1318Z" fill="#FDFEFE"/>
<path d="M19.1627 7.1287C19.1734 7.12344 19.184 7.11269 19.1947 7.10737C19.184 6.2373 18.7197 5.56472 17.8923 5.76222C17.0703 5.95972 17.0863 6.77642 17.4279 7.49169L17.4759 7.60378C17.5152 7.63298 17.5562 7.65973 17.5987 7.68386C18.298 8.10555 18.677 7.43295 19.1627 7.1287Z" fill="#FBFDFE"/>
<path d="M37.7175 26.9917C37.736 26.3248 37.6206 25.6608 37.378 25.0392C37.1355 24.4177 36.7708 23.851 36.3055 23.3728C35.8402 22.8945 35.2838 22.5144 34.6691 22.2549C34.0543 21.9955 33.3939 21.8619 32.7266 21.862C32.0602 21.851 31.3982 21.9717 30.7786 22.2172C30.159 22.4627 29.594 22.8281 29.116 23.2926C28.638 23.7571 28.2565 24.3114 27.9933 24.9237C27.7301 25.536 27.5905 26.1943 27.5824 26.8607C27.5743 27.5271 27.698 28.1886 27.9462 28.8071C28.1944 29.4256 28.5624 29.989 29.029 30.4649C29.4956 30.9408 30.0516 31.3199 30.665 31.5804C31.2785 31.8408 31.9374 31.9775 32.6038 31.9827C33.2703 32.0022 33.9339 31.8873 34.5551 31.645C35.1763 31.4026 35.7423 31.0377 36.2195 30.572C36.6967 30.1063 37.0752 29.5493 37.3326 28.9342C37.5899 28.3191 37.7209 27.6585 37.7175 26.9917ZM32.8547 27.5469C32.65 27.5672 32.4433 27.5441 32.2481 27.4791C32.0529 27.414 31.8736 27.3086 31.722 27.1695C31.5703 27.0305 31.4497 26.861 31.3681 26.6721C31.2864 26.4833 31.2455 26.2793 31.248 26.0736C31.2348 25.8592 31.2662 25.6445 31.3404 25.4429C31.4146 25.2413 31.5299 25.0574 31.679 24.9028C31.8281 24.7482 32.0077 24.6263 32.2064 24.5448C32.4052 24.4633 32.6187 24.4241 32.8334 24.4295C33.7728 24.4989 34.3013 25.0487 34.4134 26.0309C34.2853 26.9063 33.8369 27.5308 32.8547 27.5469Z" fill="#FEFEFE"/>
<path d="M17.6268 21.8139C16.9566 21.8151 16.2933 21.9487 15.675 22.207C15.0567 22.4654 14.4955 22.8434 14.0238 23.3194C13.5521 23.7954 13.1791 24.36 12.9264 24.9806C12.6736 25.6013 12.546 26.2657 12.5509 26.9359C12.5558 27.606 12.6932 28.2685 12.9551 28.8854C13.2169 29.5022 13.5981 30.0612 14.0768 30.5302C14.5555 30.9992 15.1221 31.369 15.7442 31.6182C16.3662 31.8675 17.0314 31.9913 17.7015 31.9826C18.3743 31.9857 19.0411 31.8552 19.6631 31.5987C20.2852 31.3422 20.8502 30.9648 21.3253 30.4884C21.8004 30.0119 22.1762 29.4459 22.431 28.8232C22.6858 28.2004 22.8144 27.5333 22.8095 26.8605C22.8045 26.1876 22.6661 25.5225 22.4022 24.9035C22.1383 24.2846 21.7542 23.7242 21.2721 23.2548C20.79 22.7854 20.2196 22.4163 19.5939 22.169C18.9681 21.9216 18.2995 21.801 17.6268 21.8139ZM17.6321 27.5468C17.4268 27.5656 17.2199 27.5409 17.0249 27.4741C16.8299 27.4074 16.6512 27.3002 16.5005 27.1596C16.3499 27.019 16.2306 26.8481 16.1505 26.6582C16.0705 26.4683 16.0315 26.2636 16.0361 26.0575C16.0247 25.8428 16.0584 25.6281 16.1349 25.4272C16.2114 25.2262 16.3291 25.0435 16.4803 24.8907C16.6316 24.7379 16.8132 24.6184 17.0134 24.5399C17.2136 24.4614 17.4279 24.4256 17.6428 24.4348C18.0618 24.4405 18.4614 24.6125 18.7537 24.9128C19.046 25.2131 19.207 25.6172 19.2014 26.0362C19.084 26.9383 18.5929 27.5361 17.6321 27.5468Z" fill="#FEFEFE"/>
<path d="M32.8348 24.4294C32.6198 24.423 32.4059 24.4617 32.2068 24.5428C32.0077 24.624 31.8277 24.7459 31.6784 24.9007C31.5291 25.0555 31.4139 25.2398 31.34 25.4417C31.2661 25.6437 31.2353 25.8589 31.2494 26.0735C31.2464 26.2793 31.287 26.4835 31.3685 26.6726C31.45 26.8616 31.5706 27.0313 31.7224 27.1704C31.8741 27.3096 32.0536 27.415 32.249 27.4799C32.4444 27.5447 32.6513 27.5675 32.8561 27.5467C33.833 27.5307 34.2867 26.9062 34.4148 26.0308C34.3027 25.0486 33.7743 24.4988 32.8348 24.4294Z" fill="#090B0B"/>
<path d="M17.644 24.4345C17.4292 24.4253 17.2148 24.4611 17.0146 24.5396C16.8144 24.6181 16.6329 24.7376 16.4816 24.8904C16.3303 25.0432 16.2126 25.2259 16.1361 25.4268C16.0596 25.6278 16.026 25.8425 16.0373 26.0572C16.0327 26.2633 16.0717 26.468 16.1518 26.6579C16.2318 26.8478 16.3511 27.0187 16.5018 27.1593C16.6525 27.2999 16.8312 27.4071 17.0262 27.4738C17.2212 27.5406 17.4281 27.5653 17.6333 27.5465C18.5941 27.5358 19.0852 26.938 19.2027 26.0359C19.1119 25.0484 18.5675 24.5092 17.644 24.4345Z" fill="#090C0C"/>
</svg>
