<svg width="120" height="120" viewBox="0 0 120 120" fill="none" xmlns="http://www.w3.org/2000/svg">
<path d="M41.2874 83.9941C41.2874 83.9941 40.4904 86.3853 39.2948 87.5808C38.9441 87.9702 38.5131 88.2789 38.0314 88.4853C37.5497 88.6917 37.029 88.791 36.5052 88.7764C34.541 89.3061 32.5441 89.7055 30.5273 89.972C30.5273 89.972 33.317 90.3705 36.5052 90.769C37.7007 90.769 37.7007 90.769 38.4978 91.1675C40.4904 91.1675 41.2874 89.972 41.2874 89.972V83.9941Z" fill="#E9654B"/>
<path d="M77.9532 83.9941C77.9532 83.9941 78.7503 86.3853 79.9458 87.5808C80.2965 87.9702 80.7276 88.2789 81.2092 88.4853C81.6909 88.6917 82.2116 88.791 82.7355 88.7764C84.6996 89.3061 86.6965 89.7055 88.7133 89.9719C88.7133 89.9719 85.9236 90.3705 82.337 90.769C81.1414 90.769 81.1414 90.769 80.3444 91.1675C77.9532 91.1675 77.5547 89.972 77.5547 89.972L77.9532 83.9941Z" fill="#E9654B"/>
<path d="M60.0168 87.5805C83.7873 87.5805 103.057 68.3108 103.057 44.5403C103.057 20.7698 83.7873 1.5 60.0168 1.5C36.2463 1.5 16.9766 20.7698 16.9766 44.5403C16.9766 68.3108 36.2463 87.5805 60.0168 87.5805Z" fill="#B6CFEA"/>
<path d="M60.0165 85.9871C82.9066 85.9871 101.463 67.431 101.463 44.5409C101.463 21.6508 82.9066 3.09473 60.0165 3.09473C37.1264 3.09473 18.5703 21.6508 18.5703 44.5409C18.5703 67.431 37.1264 85.9871 60.0165 85.9871Z" fill="#E6F5F8"/>
<path d="M60.011 79.2124C78.7192 79.2124 93.8853 64.0464 93.8853 45.3382C93.8853 26.6299 78.7192 11.4639 60.011 11.4639C41.3027 11.4639 26.1367 26.6299 26.1367 45.3382C26.1367 64.0464 41.3027 79.2124 60.011 79.2124Z" fill="#D0E8F0"/>
<path d="M40.0913 61.2783C40.0913 61.2783 42.881 106.311 42.881 107.108C42.881 107.507 43.2795 108.304 41.2869 109.101C39.2943 109.898 32.918 111.492 32.918 111.492H42.4825C46.8662 111.492 46.8662 107.905 46.8662 107.108C46.8662 106.311 48.0618 89.1748 48.0618 89.1748C48.0618 89.1748 48.4603 109.499 48.4603 110.296C48.4603 111.093 48.0618 112.289 45.2721 113.086C43.2795 113.485 37.3017 114.68 37.3017 114.68H46.4677C52.047 114.68 52.047 111.093 52.047 111.093L53.2425 93.16C53.2425 93.16 53.6411 111.093 53.6411 113.086C53.6411 114.68 52.4455 115.876 48.0618 116.673C45.2721 117.47 41.6854 118.267 41.6854 118.267H52.047C57.2278 117.868 58.0248 114.282 58.0248 114.282L66.7923 69.6473L40.0913 61.2783Z" fill="#EE794B"/>
<path d="M79.9392 61.2783C79.9392 61.2783 77.1495 106.311 77.1495 107.108C77.1495 107.507 76.751 108.304 78.7436 109.101C80.7362 109.898 87.1126 111.492 87.1126 111.492H77.5481C73.1643 111.492 73.1643 107.905 73.1643 107.108C73.1643 106.311 71.9688 89.1748 71.9688 89.1748C71.9688 89.1748 71.5702 109.499 71.5702 110.296C71.5702 111.093 71.9688 112.289 74.7584 113.086C76.751 113.485 82.7288 114.68 82.7288 114.68H73.5629C67.9836 114.68 67.9836 111.093 67.9836 111.093L66.788 93.16C66.788 93.16 66.3895 111.093 66.3895 113.086C66.3895 114.68 67.585 115.876 71.9688 116.673C74.7584 117.47 78.3451 118.267 78.3451 118.267H67.9836C62.8028 117.868 62.0057 114.282 62.0057 114.282L53.2383 69.6473L79.9392 61.2783Z" fill="#EE794B"/>
<path d="M80.3404 39.3606C80.3404 50.5192 71.1744 59.2867 60.4143 59.2867C49.6543 59.2867 40.4883 50.1207 40.4883 39.3606C40.4883 28.6006 49.6543 19.4346 60.4143 19.4346C71.1744 19.4346 80.3404 28.202 80.3404 39.3606Z" fill="#EE794B"/>
<mask id="mask0_587_3508" style="mask-type:luminance" maskUnits="userSpaceOnUse" x="40" y="38" width="41" height="56">
<path d="M80.3366 38.5645L77.9456 93.1618H42.0786L40.0859 38.5645" fill="white"/>
</mask>
<g mask="url(#mask0_587_3508)">
<path d="M60.4098 85.5881C79.9984 85.5881 95.8781 69.7084 95.8781 50.1197C95.8781 30.5311 79.9984 14.6514 60.4098 14.6514C40.8211 14.6514 24.9414 30.5311 24.9414 50.1197C24.9414 69.7084 40.8211 85.5881 60.4098 85.5881Z" fill="#EE794B"/>
</g>
<g opacity="0.22">
<path d="M79.145 61.2785C79.145 61.2785 81.5361 40.1569 78.3479 32.1865C72.3701 18.2382 58.4219 19.4338 58.4219 19.4338C58.4219 19.4338 66.3923 22.622 66.7908 34.5776C67.1893 42.9465 66.7908 55.3007 66.7908 55.3007L79.145 61.2785Z" fill="#E34E3B"/>
</g>
<g opacity="0.5">
<path d="M52.0514 31.3869C53.592 31.3869 54.841 30.1379 54.841 28.5973C54.841 27.0566 53.592 25.8076 52.0514 25.8076C50.5107 25.8076 49.2617 27.0566 49.2617 28.5973C49.2617 30.1379 50.5107 31.3869 52.0514 31.3869Z" fill="#FBDFC3"/>
</g>
<path d="M67.1905 69.2472C67.1905 76.0221 64.0023 80.4058 60.0171 80.4058C56.0319 80.4058 52.8438 75.2251 52.8438 68.4502C52.8438 68.4502 56.0319 74.8265 60.4156 74.8265C64.7994 74.8265 67.1905 69.2472 67.1905 69.2472Z" fill="#010101"/>
<path d="M67.1865 69.2472C67.1865 73.6309 63.9983 76.022 60.0131 76.022C56.0279 76.022 53.2383 72.8338 53.2383 68.8486C53.2383 68.8486 56.4265 72.8338 60.8102 72.8338C65.1939 72.8338 67.1865 69.2472 67.1865 69.2472Z" fill="white"/>
<path d="M73.9674 62.8714C80.7904 62.8714 86.3216 57.3402 86.3216 50.5172C86.3216 43.6942 80.7904 38.1631 73.9674 38.1631C67.1444 38.1631 61.6133 43.6942 61.6133 50.5172C61.6133 57.3402 67.1444 62.8714 73.9674 62.8714Z" fill="#E9654B"/>
<path d="M46.069 62.8704C52.892 62.8704 58.4232 57.3393 58.4232 50.5163C58.4232 43.6933 52.892 38.1621 46.069 38.1621C39.246 38.1621 33.7148 43.6933 33.7148 50.5163C33.7148 57.3393 39.246 62.8704 46.069 62.8704Z" fill="#E9654B"/>
<path d="M73.959 60.0812C79.2414 60.0812 83.5235 55.799 83.5235 50.5167C83.5235 45.2343 79.2414 40.9521 73.959 40.9521C68.6767 40.9521 64.3945 45.2343 64.3945 50.5167C64.3945 55.799 68.6767 60.0812 73.959 60.0812Z" fill="white"/>
<path d="M45.2715 60.0821C50.5539 60.0821 54.836 55.8 54.836 50.5176C54.836 45.2353 50.5539 40.9531 45.2715 40.9531C39.9892 40.9531 35.707 45.2353 35.707 50.5176C35.707 55.8 39.9892 60.0821 45.2715 60.0821Z" fill="white"/>
<path d="M45.274 52.1115C46.8147 52.1115 48.0637 50.8626 48.0637 49.3219C48.0637 47.7812 46.8147 46.5322 45.274 46.5322C43.7333 46.5322 42.4844 47.7812 42.4844 49.3219C42.4844 50.8626 43.7333 52.1115 45.274 52.1115Z" fill="#010101"/>
<path d="M73.9693 52.1115C75.51 52.1115 76.759 50.8626 76.759 49.3219C76.759 47.7812 75.51 46.5322 73.9693 46.5322C72.4287 46.5322 71.1797 47.7812 71.1797 49.3219C71.1797 50.8626 72.4287 52.1115 73.9693 52.1115Z" fill="#010101"/>
<path d="M16.1757 55.3015C15.9099 55.3176 15.6436 55.2771 15.3946 55.1826C15.1456 55.0881 14.9194 54.9419 14.7311 54.7536C14.5427 54.5652 14.3965 54.3391 14.3021 54.0901C14.2076 53.841 14.1671 53.5748 14.1831 53.3089V37.3681C14.1671 37.1022 14.2076 36.836 14.3021 36.587C14.3965 36.3379 14.5427 36.1118 14.7311 35.9235C14.9194 35.7351 15.1456 35.5889 15.3946 35.4944C15.6436 35.4 15.9099 35.3594 16.1757 35.3755C16.4416 35.3594 16.7078 35.4 16.9568 35.4944C17.2059 35.5889 17.432 35.7351 17.6204 35.9235C17.8087 36.1118 17.9549 36.3379 18.0494 36.587C18.1438 36.836 18.1844 37.1022 18.1683 37.3681V53.3089C18.1844 53.5748 18.1438 53.841 18.0494 54.0901C17.9549 54.3391 17.8087 54.5652 17.6204 54.7536C17.432 54.9419 17.2059 55.0881 16.9568 55.1826C16.7078 55.277 16.4416 55.3176 16.1757 55.3015Z" fill="#B6CFEA"/>
<path d="M103.055 55.3015C102.789 55.3176 102.523 55.2771 102.274 55.1826C102.024 55.0881 101.798 54.9419 101.61 54.7536C101.422 54.5652 101.275 54.3391 101.181 54.0901C101.087 53.841 101.046 53.5748 101.062 53.3089V37.3681C101.046 37.1022 101.087 36.836 101.181 36.587C101.275 36.3379 101.422 36.1118 101.61 35.9235C101.798 35.7351 102.024 35.5889 102.274 35.4944C102.523 35.4 102.789 35.3594 103.055 35.3755C103.32 35.3594 103.587 35.4 103.836 35.4944C104.085 35.5889 104.311 35.7351 104.499 35.9235C104.688 36.1118 104.834 36.3379 104.928 36.587C105.023 36.836 105.063 37.1022 105.047 37.3681V53.3089C105.063 53.5748 105.023 53.841 104.928 54.0901C104.834 54.3391 104.688 54.5652 104.499 54.7536C104.311 54.9419 104.085 55.0881 103.836 55.1826C103.587 55.277 103.32 55.3176 103.055 55.3015Z" fill="#B6CFEA"/>
<path d="M46.4614 14.6522C47.5618 14.6522 48.454 13.7601 48.454 12.6596C48.454 11.5591 47.5618 10.667 46.4614 10.667C45.3609 10.667 44.4688 11.5591 44.4688 12.6596C44.4688 13.7601 45.3609 14.6522 46.4614 14.6522Z" fill="white"/>
<path d="M32.1113 66.4599C31.895 66.4867 31.6753 66.4648 31.4685 66.3959C31.2616 66.3269 31.0728 66.2127 30.9158 66.0614C26.1335 60.0836 23.7424 52.5117 23.7424 44.9398C23.7209 38.644 25.3712 32.4554 28.5246 27.0063C31.7209 21.8175 36.0885 17.4499 41.2773 14.2537C41.6097 14.1048 41.9802 14.0632 42.3373 14.1346C42.6944 14.206 43.0204 14.3869 43.2699 14.6522C43.4188 14.9846 43.4604 15.355 43.389 15.7121C43.3175 16.0692 43.1366 16.3952 42.8714 16.6448C37.9279 19.4386 33.8121 23.4913 30.9423 28.3911C28.0724 33.2908 26.5508 38.863 26.532 44.5413C26.5224 51.6284 28.9101 58.5104 33.3069 64.0688C33.7054 64.4673 33.7054 65.6629 32.9084 66.0614C32.5099 66.4599 32.5099 66.4599 32.1113 66.4599Z" fill="white"/>
<g opacity="0.25">
<path d="M77.9492 85.1872V81.999C72.3699 85.1872 66.3921 88.3754 59.2187 88.3754C51.2483 88.3754 46.0675 84.7887 40.8867 81.999L41.2852 85.1872C41.2852 85.1872 47.2631 91.5635 59.6172 91.5635C71.1743 91.165 77.9492 85.1872 77.9492 85.1872Z" fill="#E9654B"/>
</g>
</svg>
