<?xml version="1.0" encoding="utf-8"?>
<!-- Generator: Adobe Illustrator 27.7.0, SVG Export Plug-In . SVG Version: 6.00 Build 0)  -->
<svg version="1.1" id="Layer_1" xmlns="http://www.w3.org/2000/svg" xmlns:xlink="http://www.w3.org/1999/xlink" x="0px" y="0px"
	 viewBox="0 0 400 80" style="enable-background:new 0 0 400 80;" xml:space="preserve">
<style type="text/css">
	.st0{fill:#5E6A70;}
</style>
<polygon class="st0" points="190.1,7.3 143.5,7.3 143.5,15.4 162.7,15.4 162.7,72.6 170.9,72.6 170.9,15.4 190.1,15.4 "/>
<path class="st0" d="M119,7.3c-17.9,0-26.8,20.9-27.5,22.6c0,0.1-15.5,33.9-19.5,42.6H81l13-28.5h32.1c0,10.7,0,21.9,0,28.5l8.1,0
	l0-65.2L119,7.3z M126.1,35.7l-26.1,0v0l-2.1,0l1.2-2.6c0,0,7.3-17.7,20-17.7l7.1,0L126.1,35.7z"/>
<path class="st0" d="M261.7,7.3v65.2l8.1,0c0-6.6,0-17.7,0-28.5h32.1l13,28.5l8.9,0c-3.9-8.6-19.4-42.5-19.5-42.6
	c-0.7-1.7-9.6-22.6-27.5-22.6H261.7z M269.4,15l7.1,0c12.7,0,20,17.7,20,17.7l1.2,2.6l-2.1,0l0,0l-26.1,0L269.4,15z"/>
<path class="st0" d="M244.1,35.4L244.1,35.4l-32.5,0l0,0c-2.5,0-4.5,2-4.5,4.4c0,2.4,2,4.4,4.5,4.4c0,0,0,0,0.1,0l32.3,0
	c0,0,0.1,0,0.1,0c2.5,0,4.5-2,4.5-4.4C248.6,37.4,246.6,35.4,244.1,35.4z"/>
<path class="st0" d="M190.2,40c0-18.1,14.7-32.9,32.8-32.9c9,0,17.9,4.2,24.2,11l0,0c0.7,0.7,1.1,1.7,1.1,2.8c0,2.3-1.9,4.2-4.2,4.2
	c-1.2,0-2.3-0.5-3-1.3l0,0c-4.8-5.1-11.5-8.3-18-8.3c-13.5,0-24.5,11-24.5,24.5l0,0c0,13.5,10.9,24.5,24.5,24.5
	c6.5,0,13.2-3.1,18-8.3l0,0c0.8-0.8,1.8-1.3,3-1.3c2.3,0,4.2,1.9,4.2,4.2c0,1.1-0.4,2-1.1,2.8l0,0c-6.3,6.8-15.2,11-24.2,11
	C204.9,72.9,190.2,58.2,190.2,40L190.2,40z"/>
</svg>
