<?xml version="1.0" encoding="UTF-8"?>
<svg id="a" data-name="Layer 1" xmlns="http://www.w3.org/2000/svg" width="251.8" height="65.8" viewBox="0 0 251.8 65.8">
  <polygon points="118.1 .2 71.5 .2 71.5 8.3 90.7 8.3 90.7 65.5 98.9 65.5 98.9 8.3 118.1 8.3 118.1 .2" style="fill: #5e6a70; stroke-width: 0px;"/>
  <path d="m47,.2C29.1.2,20.2,21.1,19.5,22.8c0,.1-15.5,33.9-19.5,42.6h9l13-28.5h32.1v28.5h8.1V.2h-15.2Zm7.1,28.4h-28.2l1.2-2.6s7.3-17.7,20-17.7h7.1l-.1,20.3Z" style="fill: #5e6a70; stroke-width: 0px;"/>
  <path d="m189.7.2v65.2h8.1v-28.5h32.1l13,28.5h8.9c-3.9-8.6-19.4-42.5-19.5-42.6-.7-1.7-9.6-22.6-27.5-22.6,0,0-15.1,0-15.1,0Zm7.7,7.7h7.1c12.7,0,20,17.7,20,17.7l1.2,2.6h-28.2l-.1-20.3Z" style="fill: #5e6a70; stroke-width: 0px;"/>
  <path d="m172.1,28.3h-32.5c-2.5,0-4.5,2-4.5,4.4s2,4.4,4.5,4.4h32.5c2.5,0,4.5-2,4.5-4.4,0-2.4-2-4.4-4.5-4.4Z" style="fill: #5e6a70; stroke-width: 0px;"/>
  <path d="m118.2,32.9c0-18.1,14.7-32.9,32.8-32.9,9,0,17.9,4.2,24.2,11h0c.7.7,1.1,1.7,1.1,2.8,0,2.3-1.9,4.2-4.2,4.2-1.2,0-2.3-.5-3-1.3h0c-4.8-5.1-11.5-8.3-18-8.3-13.5,0-24.5,11-24.5,24.5h0c0,13.5,10.9,24.5,24.5,24.5,6.5,0,13.2-3.1,18-8.3h0c.8-.8,1.8-1.3,3-1.3,2.3,0,4.2,1.9,4.2,4.2,0,1.1-.4,2-1.1,2.8h0c-6.3,6.8-15.2,11-24.2,11-18.1,0-32.8-14.7-32.8-32.9h0Z" style="fill: #5e6a70; stroke-width: 0px;"/>
</svg>