<svg width="24" height="24" viewBox="0 0 24 24" fill="none" xmlns="http://www.w3.org/2000/svg">
<path d="M11.5039 6C13.0227 6 14.2539 4.76878 14.2539 3.25C14.2539 1.73122 13.0227 0.5 11.5039 0.5C9.98512 0.5 8.75391 1.73122 8.75391 3.25C8.75391 4.76878 9.98512 6 11.5039 6Z" stroke="#262F59" stroke-linecap="round" stroke-linejoin="round"/>
<path d="M14.8714 9.53701C14.6643 8.80761 14.2259 8.1652 13.6222 7.70644C13.0184 7.24768 12.2821 6.99739 11.5238 6.99322C10.7656 6.98904 10.0265 7.23122 9.41778 7.6833C8.80905 8.13539 8.3636 8.77293 8.14844 9.50001" stroke="#262F59" stroke-linecap="round" stroke-linejoin="round"/>
<path d="M7.00391 11.5H16.0039" stroke="#262F59" stroke-linecap="round" stroke-linejoin="round"/>
<path d="M8.21291 14.451L8.00391 11.5H15.0039L14.7929 14.481" stroke="#262F59" stroke-linecap="round" stroke-linejoin="round"/>
<path d="M11.5 13.7725C11.4506 13.7725 11.4022 13.7871 11.3611 13.8146C11.32 13.8421 11.288 13.8811 11.269 13.9268C11.2501 13.9725 11.2452 14.0227 11.2548 14.0712C11.2644 14.1197 11.2883 14.1643 11.3232 14.1992C11.3582 14.2342 11.4027 14.258 11.4512 14.2677C11.4997 14.2773 11.55 14.2724 11.5957 14.2534C11.6414 14.2345 11.6804 14.2025 11.7079 14.1614C11.7353 14.1202 11.75 14.0719 11.75 14.0225C11.75 13.9562 11.7237 13.8926 11.6768 13.8457C11.6299 13.7988 11.5663 13.7725 11.5 13.7725Z" stroke="#262F59" stroke-linecap="round" stroke-linejoin="round"/>
<path d="M12.0883 20.7C13.3862 20.7 14.4383 19.6479 14.4383 18.35C14.4383 17.0521 13.3862 16 12.0883 16C10.7904 16 9.73828 17.0521 9.73828 18.35C9.73828 19.6479 10.7904 20.7 12.0883 20.7Z" stroke="#262F59" stroke-linecap="round" stroke-linejoin="round"/>
<path d="M4.69766 20.7C5.99553 20.7 7.04766 19.6479 7.04766 18.35C7.04766 17.0521 5.99553 16 4.69766 16C3.39979 16 2.34766 17.0521 2.34766 18.35C2.34766 19.6479 3.39979 20.7 4.69766 20.7Z" stroke="#262F59" stroke-linecap="round" stroke-linejoin="round"/>
<path d="M19.3188 20.7C20.6166 20.7 21.6687 19.6479 21.6687 18.35C21.6687 17.0521 20.6166 16 19.3188 16C18.0209 16 16.9688 17.0521 16.9688 18.35C16.9688 19.6479 18.0209 20.7 19.3188 20.7Z" stroke="#262F59" stroke-linecap="round" stroke-linejoin="round"/>
<path d="M23 23.5C22.5611 22.9554 22.0058 22.5161 21.3748 22.2143C20.7439 21.9125 20.0534 21.7559 19.354 21.7559C18.6546 21.7559 17.9641 21.9125 17.3332 22.2143C16.7022 22.5161 16.1469 22.9554 15.708 23.5C15.2538 22.9576 14.6867 22.5209 14.0462 22.2203C13.4058 21.9198 12.7074 21.7627 12 21.76" stroke="#262F59" stroke-linecap="round" stroke-linejoin="round"/>
<path d="M1 23.5C1.43892 22.9554 1.99423 22.5161 2.62516 22.2143C3.25609 21.9125 3.9466 21.7559 4.646 21.7559C5.3454 21.7559 6.03591 21.9125 6.66684 22.2143C7.29777 22.5161 7.85308 22.9554 8.292 23.5C8.74621 22.9576 9.31334 22.5209 9.95378 22.2203C10.5942 21.9198 11.2926 21.7627 12 21.76" stroke="#262F59" stroke-linecap="round" stroke-linejoin="round"/>
</svg>
