<svg width="107" height="64" viewBox="0 0 107 64" fill="none" xmlns="http://www.w3.org/2000/svg">
<g clip-path="url(#clip0_953_3144)">
<path d="M30.2529 23.1898C30.2529 24.5021 30.395 25.5658 30.6428 26.3459C30.9575 27.2236 31.3363 28.0769 31.7762 28.8988C31.9534 29.1824 32.024 29.466 32.024 29.7145C32.024 30.0688 31.8117 30.4235 31.3512 30.7782L29.1196 32.2674C28.8007 32.4803 28.4818 32.5865 28.1981 32.5865C27.8441 32.5865 27.4897 32.4092 27.1353 32.09C26.6581 31.5766 26.2311 31.0185 25.8603 30.4235C25.5059 29.8212 25.1515 29.1469 24.762 28.3316C21.9988 31.5935 18.5269 33.2249 14.3469 33.2249C11.3714 33.2249 8.99773 32.3736 7.26174 30.672C5.52617 28.9695 4.64062 26.7002 4.64062 23.8637C4.64062 20.8499 5.70336 18.4032 7.86436 16.5594C10.0249 14.7155 12.8947 13.7936 16.5435 13.7936C17.7479 13.7936 18.9878 13.8998 20.2984 14.0772C21.6093 14.2545 22.9554 14.5381 24.3725 14.8573V12.2688C24.3725 9.57374 23.8054 7.69473 22.7072 6.59544C21.5738 5.49614 19.6606 4.96406 16.933 4.96406C15.693 4.96406 14.418 5.10629 13.107 5.42545C11.7965 5.74419 10.521 6.13447 9.28107 6.63099C8.71439 6.87904 8.28938 7.02085 8.04114 7.09196C7.79332 7.16307 7.61613 7.19821 7.47446 7.19821C6.9784 7.19821 6.73058 6.84349 6.73058 6.09891V4.36129C6.73058 3.79408 6.80163 3.36866 6.9784 3.12061C7.15559 2.87214 7.47446 2.62409 7.97051 2.37604C9.21044 1.73771 10.6982 1.20563 12.4338 0.78022C14.1702 0.319252 16.0123 0.106756 17.9606 0.106756C22.1764 0.106756 25.2585 1.06383 27.2423 2.97881C29.1906 4.89337 30.1827 7.80098 30.1827 11.7016V23.1898H30.2538H30.2529ZM15.8702 28.5796C17.0395 28.5796 18.2439 28.3671 19.519 27.9413C20.7944 27.5159 21.9282 26.7358 22.8844 25.672C23.4515 24.9986 23.8765 24.254 24.0888 23.4028C24.3015 22.5519 24.4432 21.5233 24.4432 20.3178V18.8286C23.3689 18.5669 22.2807 18.3657 21.1839 18.2259C20.0795 18.0855 18.9673 18.0143 17.854 18.013C15.4803 18.013 13.7447 18.4739 12.5759 19.4314C11.4065 20.3889 10.8399 21.7362 10.8399 23.509C10.8399 25.1755 11.2649 26.4166 12.1504 27.2679C13.0009 28.1542 14.2408 28.5796 15.8702 28.5796ZM44.3168 32.4092C43.679 32.4092 43.254 32.3029 42.9707 32.0545C42.6873 31.842 42.4391 31.3454 42.2268 30.672L33.9021 3.26242C33.689 2.55298 33.5828 2.09201 33.5828 1.84396C33.5828 1.27674 33.8662 0.957161 34.4333 0.957161H37.9048C38.5776 0.957161 39.0386 1.06383 39.2864 1.31188C39.5698 1.52479 39.7825 2.02132 39.9948 2.69478L45.9462 26.1686L51.4726 2.69478C51.6498 1.98576 51.8625 1.52479 52.1454 1.31188C52.4292 1.09938 52.9253 0.957579 53.563 0.957579H56.3968C57.0696 0.957579 57.5306 1.06383 57.8135 1.31188C58.0973 1.52479 58.3451 2.02132 58.4868 2.69478L64.0842 26.4522L70.2124 2.69478C70.4247 1.98576 70.673 1.52479 70.9208 1.31188C71.2041 1.09938 71.6646 0.957579 72.3024 0.957579H75.5967C76.1638 0.957579 76.4827 1.24119 76.4827 1.84396C76.4827 2.02132 76.4472 2.19868 76.4117 2.41117C76.3761 2.62409 76.3055 2.9077 76.1638 3.29797L67.626 30.7071C67.4137 31.4166 67.1659 31.8775 66.8821 32.09C66.5988 32.3029 66.1382 32.4447 65.5364 32.4447H62.4899C61.8167 32.4447 61.3561 32.3385 61.0724 32.09C60.789 31.842 60.5412 31.381 60.3995 30.672L54.9082 7.80098L49.4529 30.636C49.2761 31.3454 49.0634 31.8064 48.78 32.0545C48.4967 32.3029 48.0006 32.4092 47.3633 32.4092H44.3164H44.3168ZM89.8382 33.3667C87.9961 33.3667 86.1539 33.1538 84.3828 32.7284C82.6113 32.3029 81.2301 31.8416 80.3091 31.3103C79.742 30.9907 79.3521 30.6364 79.2108 30.3173C79.0728 30.0043 79.0004 29.6663 78.9981 29.3242V27.5159C78.9981 26.7713 79.2814 26.4166 79.813 26.4166C80.03 26.4174 80.2453 26.4534 80.4507 26.5233C80.663 26.5944 80.9819 26.7358 81.3363 26.8776C82.5875 27.4284 83.8937 27.8445 85.2328 28.1187C86.6205 28.4006 88.0328 28.5431 89.4487 28.5441C91.6803 28.5441 93.4163 28.1542 94.6207 27.3741C95.8251 26.594 96.4629 25.4595 96.4629 24.0055C96.4629 23.0129 96.144 22.1972 95.5063 21.5233C94.8686 20.8499 93.6641 20.2471 91.9286 19.6795L86.7916 18.0841C84.2056 17.2684 82.2929 16.0628 81.1236 14.467C79.9547 12.9068 79.3525 11.1696 79.3525 9.32568C79.3525 7.83653 79.6713 6.52432 80.3091 5.38947C80.9464 4.25504 81.7968 3.26242 82.8596 2.48229C83.9223 1.6666 85.1267 1.06383 86.5438 0.638416C87.9605 0.213004 89.4483 0.0356445 91.0071 0.0356445C91.7865 0.0356445 92.6014 0.0712001 93.3808 0.177448C94.1957 0.283697 94.9396 0.425501 95.6835 0.567305C96.3918 0.744664 97.0651 0.922024 97.7028 1.13494C98.3405 1.34744 98.8362 1.56035 99.1905 1.77285C99.6866 2.05687 100.041 2.34048 100.253 2.65964C100.466 2.94325 100.572 3.33311 100.572 3.82963V5.49614C100.572 6.24072 100.289 6.63099 99.7572 6.63099C99.4739 6.63099 99.0134 6.48877 98.4116 6.20516C96.3918 5.28323 94.1247 4.82226 91.6097 4.82226C89.5904 4.82226 87.9961 5.14142 86.8978 5.8153C85.8 6.48877 85.2328 7.51737 85.2328 8.97097C85.2328 9.96401 85.5872 10.8148 86.2956 11.4887C87.0044 12.1622 88.3149 12.8361 90.1926 13.4388L95.2229 15.0347C97.7734 15.8503 99.6156 16.9848 100.714 18.4384C101.812 19.8924 102.344 21.5589 102.344 23.4028C102.344 24.9275 102.024 26.3104 101.422 27.5159C100.785 28.7214 99.9344 29.7852 98.8362 30.6364C97.7379 31.5228 96.4273 32.1611 94.9041 32.6221C93.3098 33.1186 91.6448 33.3667 89.8382 33.3667Z" fill="#252F3E"/>
<path d="M96.5352 50.5993C84.8806 59.2159 67.947 63.79 53.3875 63.79C32.9823 63.79 14.5969 56.2371 0.710254 43.6848C-0.388007 42.6921 0.603688 41.3448 1.91425 42.1245C16.9347 50.8478 35.4622 56.1309 54.6274 56.1309C67.5575 56.1309 81.763 53.4362 94.8352 47.9046C96.7834 47.0178 98.4484 49.1812 96.5352 50.5993ZM101.389 45.0677C99.901 43.1531 91.5404 44.1457 87.7499 44.6067C86.6162 44.7489 86.439 43.7559 87.4666 43.0113C94.1264 38.3305 105.073 39.6783 106.348 41.2381C107.624 42.834 105.994 53.7905 99.7589 59.0385C98.8028 59.8542 97.8817 59.4288 98.3067 58.365C99.7234 54.8542 102.877 46.9471 101.389 45.0677Z" fill="#FF9900"/>
</g>
<defs>
<clipPath id="clip0_953_3144">
<rect width="106.985" height="64" fill="white"/>
</clipPath>
</defs>
</svg>
