<svg width="241" height="34" viewBox="0 0 241 34" fill="none" xmlns="http://www.w3.org/2000/svg">
<g clip-path="url(#clip0_428_2818)">
<path d="M133.043 18.0328V17.9589C133.043 12.3067 128.534 7.79127 122.448 7.79127C116.326 7.79127 111.781 12.3799 111.781 18.0328V18.106C111.781 23.7589 116.29 28.2744 122.375 28.2744C128.497 28.2744 133.043 23.6861 133.043 18.0328ZM127.544 18.106C127.544 21.0061 125.638 23.4656 122.448 23.4656C119.369 23.4656 117.28 20.9326 117.28 18.0328V17.9589C117.28 15.0594 119.186 12.6006 122.375 12.6006C125.454 12.6006 127.544 15.1326 127.544 18.0328V18.106Z" fill="#F25C24"/>
<path d="M96.4447 18.0327V17.9588C96.4447 11.3881 92.0827 7.79121 87.5003 7.79121C84.6047 7.79121 82.7347 9.14975 81.3783 10.9847V8.15839H76.1406V33.707H81.3783V25.2646C82.6974 26.8422 84.5312 28.1998 87.5003 28.1998C92.1555 28.1998 96.4447 24.6036 96.4447 18.0327ZM91.4298 18.0327C91.4298 21.3367 89.23 23.4656 86.6276 23.4656C84.0249 23.4656 81.862 21.3001 81.862 18.0327V17.9588C81.862 14.6921 84.0249 12.5263 86.6276 12.5263C89.23 12.5263 91.4298 14.6921 91.4298 17.9588V18.0327Z" fill="#6A7478"/>
<path d="M72.7365 27.833V15.0222C72.7365 10.2875 70.2432 7.79108 66.1009 7.79108C63.4254 7.79108 61.3719 8.8923 59.6495 10.9116C58.6232 8.92925 56.6801 7.79108 54.1136 7.79108C51.2912 7.79108 49.605 9.2961 48.3218 10.9479V8.15826H42.75V27.833H48.3218V16.8581C48.3218 14.2153 49.605 12.8567 51.6951 12.8567C53.7838 12.8567 54.957 14.2153 54.957 16.8581V27.833H60.5288V16.8581C60.5288 14.2153 61.812 12.8567 63.9021 12.8567C65.9915 12.8567 67.1644 14.2153 67.1644 16.8581V27.833H72.7365Z" fill="#6A7478"/>
<path d="M39.416 27.8254C39.416 27.8254 39.3845 18.3639 39.3845 15.0504C39.3845 11.1319 36.3439 7.78728 30.617 7.78728C24.795 7.78728 22.1374 11.0746 22.1374 15.3823H27.339C27.4053 14.9249 27.1695 12.5943 30.4501 12.5943C32.8155 12.5943 33.959 13.292 33.959 14.4905C33.959 17.7811 21.9141 13.9891 21.9141 22.7286C21.9141 26.9658 25.0037 28.2725 27.899 28.2725C32.3532 28.2725 33.959 25.7569 33.959 25.7569L33.9124 27.8193L39.416 27.8254ZM29.7203 24.2416C28.1403 24.2416 27.1756 23.4133 27.1756 22.3621C27.1756 21.151 27.7594 20.5236 29.4976 20.2675C33.123 19.7332 34.0148 19.1946 34.0148 19.1946C34.5507 23.6298 31.4061 24.2416 29.7203 24.2416Z" fill="#6A7478"/>
<path d="M14.5869 20.7427C14.3328 21.8326 13.0894 23.4662 10.4843 23.4662C7.44234 23.4662 5.49937 21.0433 5.49937 18.0332V17.9596C5.49937 15.0598 7.47871 12.6007 10.2649 12.6007C12.995 12.6007 14.2198 14.0947 14.5869 15.3827H19.7885C19.7045 12.9246 17.4514 7.79167 10.301 7.79167C4.28957 7.79167 0 12.4176 0 18.0332V18.1064C0 23.7229 4.32634 28.2744 10.2283 28.2744C17.2735 28.2744 19.7045 23.0593 19.7885 20.7427H14.5869Z" fill="#6A7478"/>
<path d="M231.597 18.0327V17.9588C231.597 11.3881 227.235 7.79121 222.653 7.79121C219.757 7.79121 217.887 9.14975 216.531 10.9847V8.15839H211.293V33.707H216.531V25.2646C217.85 26.8422 219.684 28.1998 222.653 28.1998C227.308 28.1998 231.597 24.6036 231.597 18.0327ZM226.582 18.0327C226.582 21.3367 224.382 23.4656 221.781 23.4656C219.178 23.4656 217.014 21.3001 217.014 18.0327V17.9588C217.014 14.6921 219.178 12.5263 221.781 12.5263C224.382 12.5263 226.582 14.6921 226.582 17.9588V18.0327Z" fill="#6A7478"/>
<path d="M207.889 27.833V15.0222C207.889 10.2875 205.396 7.79108 201.253 7.79108C198.578 7.79108 196.524 8.8923 194.802 10.9116C193.776 8.92925 191.832 7.79108 189.266 7.79108C186.444 7.79108 184.758 9.2961 183.474 10.9479V8.15826H177.902V27.833H183.474V16.8581C183.474 14.2153 184.758 12.8567 186.847 12.8567C188.936 12.8567 190.109 14.2153 190.109 16.8581V27.833H195.681V16.8581C195.681 14.2153 196.964 12.8567 199.054 12.8567C201.144 12.8567 202.317 14.2153 202.317 16.8581V27.833H207.889Z" fill="#6A7478"/>
<path d="M174.569 27.8254C174.569 27.8254 174.537 18.3639 174.537 15.0504C174.537 11.1319 171.497 7.78728 165.769 7.78728C159.948 7.78728 157.29 11.0746 157.29 15.3823H162.492C162.558 14.9249 162.322 12.5943 165.603 12.5943C167.968 12.5943 169.112 13.292 169.112 14.4905C169.112 17.7811 157.066 13.9891 157.066 22.7286C157.066 26.9658 160.156 28.2725 163.051 28.2725C167.506 28.2725 169.112 25.7569 169.112 25.7569L169.065 27.8193L174.569 27.8254ZM164.873 24.2416C163.293 24.2416 162.328 23.4133 162.328 22.3621C162.328 21.151 162.912 20.5236 164.65 20.2675C168.275 19.7332 169.168 19.1946 169.168 19.1946C169.703 23.6298 166.559 24.2416 164.873 24.2416Z" fill="#6A7478"/>
<path d="M149.739 20.7427C149.485 21.8326 148.242 23.4662 145.637 23.4662C142.595 23.4662 140.652 21.0433 140.652 18.0332V17.9596C140.652 15.0598 142.631 12.6007 145.417 12.6007C148.147 12.6007 149.372 14.0947 149.739 15.3827H154.941C154.857 12.9246 152.604 7.79167 145.454 7.79167C139.442 7.79167 135.152 12.4176 135.152 18.0332V18.1064C135.152 23.7229 139.479 28.2744 145.381 28.2744C152.426 28.2744 154.857 23.0593 154.941 20.7427H149.739Z" fill="#6A7478"/>
<path d="M239.9 8.1582V4.53197H238.995V3.6255H238.09V1.81255H237.185V0.906082H236.279V2.71903H235.374V3.6255H236.279V4.53197H235.374V3.6255H234.469V4.53197H233.563V5.43878H232.658V6.34526H231.753V5.43878H230.848V8.1582H239.9ZM235.374 0.906082H234.469V1.81255H235.374V0.906082ZM234.469 1.81255H233.563V2.71903H234.469V1.81255ZM233.563 2.71903H232.658V3.6255H233.563V2.71903ZM232.658 3.6255H231.753V5.43845H232.658V3.6255ZM235.374 0.906082H236.279V-0.000395775H235.374V0.906082Z" fill="#F25C24"/>
<path d="M110.217 23.1772C110.217 23.1772 109.482 23.2571 108.238 23.2571C106.995 23.2571 106.287 22.4781 106.287 21.1807V12.9309H110.349V8.15855H106.287V3.1295H100.715V8.15855H97.5898V12.9309H100.715V21.9102C100.715 26.4627 102.998 28.0557 106.434 28.0557C108.832 28.0557 110.217 27.82 110.217 27.82V23.1772Z" fill="#F25C24"/>
</g>
<defs>
<clipPath id="clip0_428_2818">
<rect width="240.429" height="34" fill="white"/>
</clipPath>
</defs>
</svg>
