<svg width="136" height="64" viewBox="0 0 136 64" fill="none" xmlns="http://www.w3.org/2000/svg">
<path d="M27.3869 24.1201H18.6909L14.3242 31.6774L18.6709 39.1574H27.3856L31.7322 31.6774L27.3869 24.1201ZM26.2269 37.1068H19.8269L16.6402 31.6575L19.8296 26.1508H26.2296L29.4189 31.6575L26.2269 37.1068Z" fill="#373737"/>
<path d="M16.6406 31.6759L19.83 37.1066H26.23L29.4393 31.6759L26.23 26.0933H19.83L16.6406 31.6759Z" fill="#E82429"/>
<path d="M27.3869 40.1826H18.6909L14.3242 47.72L18.6709 55.2H27.3856L31.7322 47.72L27.3869 40.1826ZM26.2269 53.2266H19.8269L16.6402 47.7773L19.8296 42.2706H26.2296L29.4189 47.7773L26.2269 53.2266Z" fill="#373737"/>
<path d="M16.6406 47.72L19.83 53.2267H26.23L29.4393 47.72L26.23 42.2134H19.83L16.6406 47.72Z" fill="#6289C6"/>
<path d="M27.3869 8H18.6909L14.3242 15.5573L18.6909 23.0373H27.4056L31.7522 15.5573L27.3869 8ZM26.2269 20.9867H19.8269L16.6402 15.5373L19.8296 9.97467H26.2296L29.4189 15.4813L26.2269 20.9867Z" fill="#373737"/>
<path d="M16.6406 15.5563L19.83 20.987H26.23L29.4393 15.5563L26.23 9.97363H19.83L16.6406 15.5563Z" fill="#F9C515"/>
<path d="M41.5319 32.208H32.9053L28.5586 39.7653L32.9053 47.2453H41.6199L45.9666 39.7653L41.5319 32.208ZM40.3719 45.2267H33.9719L30.7826 39.7773L33.9719 34.2707H40.3719L43.5613 39.7773L40.3719 45.2267Z" fill="#373737"/>
<path d="M30.8633 39.7642L34.0553 45.2268H40.3753L43.6419 39.7775L40.3753 34.1948H34.0553L30.8633 39.7642Z" fill="#8061A9"/>
<path d="M41.5319 16.0879H32.9053L28.5586 23.5679L32.9053 31.0479H41.6199L45.9666 23.5679L41.5319 16.0879ZM40.3719 29.0932H33.9719L30.7826 23.6439L33.9719 18.1372H40.3719L43.5613 23.6439L40.3719 29.0932Z" fill="#373737"/>
<path d="M30.8633 23.6442L34.0553 29.0935H40.3753L43.6419 23.6442L40.3753 18.0615H34.0553L30.8633 23.6442Z" fill="#F17423"/>
<path d="M13.1664 32.208H4.52635L0.179688 39.7653L4.52635 47.2453H13.241L17.5877 39.7653L13.1664 32.208ZM12.0064 45.2147H5.68369L2.49435 39.7653L5.68369 34.2587H12.0837L15.273 39.7653L12.0064 45.2147Z" fill="#373737"/>
<path d="M2.49219 39.7643L5.68152 45.2136H12.0042L15.2709 39.7643L12.0042 34.1816H5.68152L2.49219 39.7643Z" fill="#97C93D"/>
<path d="M13.1664 16.0879H4.52635L0.179688 23.5679L4.52635 31.0479H13.241L17.5877 23.5679L13.1664 16.0879ZM12.0064 29.0946H5.68369L2.49435 23.6452L5.68369 18.1386H12.0837L15.273 23.6452L12.0064 29.0946Z" fill="#373737"/>
<path d="M2.49219 23.6442L5.68152 29.0935H12.0042L15.2709 23.6442L12.0042 18.0615H5.68152L2.49219 23.6442Z" fill="#CADD72"/>
<path d="M64.5252 27.2736C65.2513 27.2786 65.9749 27.3604 66.6839 27.5176C67.3559 27.6603 67.9239 27.9176 68.4759 28.1896V30.2936C67.8617 30.071 67.2365 29.8806 66.6025 29.723C65.9719 29.5803 65.4025 29.479 64.7705 29.479C64.1385 29.479 63.5305 29.5803 62.8972 29.7643C62.2639 29.9483 61.7372 30.2936 61.2079 30.7816C60.7199 31.2696 60.3319 31.8816 60.0079 32.655C59.7225 33.4283 59.5812 34.3856 59.5812 35.5456C59.5812 36.3456 59.6825 37.1456 59.9279 37.8656C60.1472 38.5355 60.4925 39.1573 60.9452 39.6976C61.3932 40.227 61.9625 40.6136 62.5745 40.8976C63.2465 41.183 64.0199 41.3243 64.8945 41.3243C65.5252 41.3243 66.1345 41.2843 66.8279 41.1416C67.4631 40.9889 68.0887 40.7983 68.7012 40.571V42.6883C68.5185 42.7896 68.2745 42.9323 67.9892 43.035C67.7039 43.1376 67.3585 43.2176 66.9719 43.3203C66.6252 43.4216 66.2599 43.463 65.8119 43.503L64.6119 43.6043C63.5932 43.618 62.5801 43.4528 61.6185 43.1163C60.718 42.7844 59.8837 42.295 59.1545 41.671C58.4382 40.9627 57.8825 40.1088 57.5252 39.167C57.1252 38.1496 56.8945 37.007 56.8945 35.6043C56.8945 34.587 56.9959 33.671 57.2412 32.8576C57.4239 32.0576 57.7292 31.311 58.1172 30.6976C58.5052 30.0843 58.9172 29.5376 59.4199 29.0976C59.9017 28.6788 60.4348 28.3231 61.0065 28.039C61.5759 27.7536 62.1665 27.551 62.7372 27.4083L64.5292 27.2456L64.5252 27.2736ZM72.6079 24.0976V21.247H75.1412V24.0976H72.6079ZM72.6479 43.215V27.7016H75.1812V43.227L72.6479 43.215ZM80.4052 43.2283V19.5776H82.9385V43.227L80.4052 43.2283ZM88.1079 24.0976V21.247H90.6412V24.0976H88.1079ZM88.1479 43.215V27.7016H90.6812V43.227L88.1479 43.215ZM101.945 43.615C101.219 43.616 100.494 43.5342 99.7865 43.371C99.1965 43.2033 98.6292 42.9642 98.0972 42.659C97.6092 42.3123 97.1812 41.987 96.8572 41.499C96.5032 41.0709 96.232 40.5808 96.0572 40.0536C95.9145 39.6536 95.8132 39.2536 95.7105 38.751L95.6092 37.2043V27.7176H98.1425V37.2043C98.1425 38.0803 98.2439 38.8043 98.4892 39.3643C98.7332 40.0363 99.1612 40.5243 99.7292 40.911C100.297 41.2976 101.073 41.4816 101.948 41.4816C102.905 41.4816 103.679 41.299 104.268 40.851C104.839 40.4243 105.285 39.8936 105.508 39.1616C105.691 38.6323 105.793 37.9616 105.793 37.1883V27.695H108.327V37.223C108.327 37.7065 108.293 38.1895 108.225 38.6683C108.185 39.0929 108.09 39.5103 107.94 39.9096C107.757 40.439 107.452 40.927 107.14 41.3963C106.793 41.823 106.367 42.1963 105.9 42.5563C105.412 42.903 104.841 43.127 104.169 43.3296C103.445 43.5218 102.699 43.6178 101.951 43.615H101.945ZM125.725 43.215H123.192V33.227C123.194 32.6414 123.112 32.0585 122.948 31.4963C122.805 31.0083 122.601 30.6203 122.317 30.3363C122.03 30.0419 121.683 29.8128 121.3 29.6643C120.9 29.5216 120.5 29.4816 119.997 29.4816C119.081 29.4816 118.267 29.7256 117.533 30.1936C116.821 30.6816 116.128 31.3536 115.56 32.2096V43.2443H113.036V27.7016H115.009L115.497 29.8616H115.537L116.453 28.8443C116.8 28.559 117.165 28.2736 117.553 28.0443C117.969 27.7948 118.423 27.6159 118.897 27.515C119.385 27.3723 119.915 27.3323 120.497 27.3323C121.657 27.3323 122.615 27.6176 123.388 28.1323C124.161 28.703 124.732 29.435 125.18 30.3923H125.22C125.892 29.435 126.707 28.6616 127.58 28.1323C128.453 27.603 129.513 27.3323 130.655 27.3323C131.184 27.3323 131.755 27.4336 132.385 27.5763C133.016 27.719 133.545 28.003 134.075 28.3763C134.604 28.7496 134.991 29.3336 135.315 30.0656C135.661 30.7776 135.844 31.695 135.844 32.855V43.259H133.401V33.263C133.403 32.6774 133.321 32.0945 133.157 31.5323C133.015 31.0443 132.811 30.6563 132.527 30.3723C132.24 30.0779 131.893 29.8488 131.509 29.7003C131.109 29.5576 130.709 29.5176 130.207 29.5176C129.291 29.5176 128.476 29.7616 127.743 30.2296C127.031 30.7176 126.337 31.3896 125.727 32.2456L125.725 43.215Z" fill="#1E2222"/>
</svg>
