<svg width="102" height="104" viewBox="0 0 102 104" fill="none" xmlns="http://www.w3.org/2000/svg">
<path d="M60.1153 35.7939H41.2737L31.8125 52.1682L41.2304 68.3748H60.1124L69.5303 52.1682L60.1153 35.7939ZM57.6019 63.9317H43.7351L36.8306 52.1248L43.7409 40.1937H57.6077L64.518 52.1248L57.6019 63.9317Z" fill="#373737"/>
<path d="M36.832 52.1622L43.7423 63.9286H57.6091L64.5628 52.1622L57.6091 40.0664H43.7423L36.832 52.1622Z" fill="#E82429"/>
<path d="M60.1192 70.5938H41.2776L31.8164 86.9246L41.2343 103.131H60.1163L69.5342 86.9246L60.1192 70.5938ZM57.6058 98.8557H43.739L36.8345 87.0489L43.7448 75.1178H57.6116L64.5219 87.0489L57.6058 98.8557Z" fill="#373737"/>
<path d="M36.832 86.9292L43.7423 98.8603H57.6091L64.5628 86.9292L57.6091 74.998H43.7423L36.832 86.9292Z" fill="#6289C6"/>
<path d="M60.1153 0.863281H41.2737L31.8125 17.2375L41.2737 33.4442H60.1557L69.5736 17.2375L60.1153 0.863281ZM57.6019 29.0011H43.7351L36.8306 17.1942L43.7409 5.14173H57.6077L64.518 17.0728L57.6019 29.0011Z" fill="#373737"/>
<path d="M36.832 17.2364L43.7423 29.0028H57.6091L64.5628 17.2364L57.6091 5.14062H43.7423L36.832 17.2364Z" fill="#F9C515"/>
<path d="M90.7811 53.3164H72.0898L62.6719 69.6906L72.0898 85.8973H90.9718L100.39 69.6906L90.7811 53.3164ZM88.2677 81.5235H74.4009L67.4906 69.7166L74.4009 57.7855H88.2677L95.178 69.7166L88.2677 81.5235Z" fill="#373737"/>
<path d="M67.6445 69.6899L74.5606 81.5257H88.2541L95.3319 69.7188L88.2541 57.623H74.5606L67.6445 69.6899Z" fill="#8061A9"/>
<path d="M90.7811 18.3906H72.0898L62.6719 34.5973L72.0898 50.8039H90.9718L100.39 34.5973L90.7811 18.3906ZM88.2677 46.5688H74.4009L67.4906 34.762L74.4009 22.8308H88.2677L95.178 34.762L88.2677 46.5688Z" fill="#373737"/>
<path d="M67.6445 34.7598L74.5606 46.5667H88.2541L95.3319 34.7598L88.2541 22.6641H74.5606L67.6445 34.7598Z" fill="#F17423"/>
<path d="M29.3022 53.3164H10.5819L1.16406 69.6906L10.5819 85.8973H29.4639L38.8818 69.6906L29.3022 53.3164ZM26.7888 81.4975H13.0895L6.17923 69.6906L13.0895 57.7595H26.9564L33.8666 69.6906L26.7888 81.4975Z" fill="#373737"/>
<path d="M6.19531 69.6866L13.1056 81.4935H26.8049L33.8827 69.6866L26.8049 57.5908H13.1056L6.19531 69.6866Z" fill="#97C93D"/>
<path d="M29.3022 18.3906H10.5819L1.16406 34.5973L10.5819 50.8039H29.4639L38.8818 34.5973L29.3022 18.3906ZM26.7888 46.5717H13.0895L6.17923 34.7648L13.0895 22.8337H26.9564L33.8666 34.7648L26.7888 46.5717Z" fill="#373737"/>
<path d="M6.19531 34.7598L13.1056 46.5667H26.8049L33.8827 34.7598L26.8049 22.6641H13.1056L6.19531 34.7598Z" fill="#CADD72"/>
</svg>
