<?xml version="1.0" encoding="utf-8"?>
<!-- Generator: Adobe Illustrator 27.7.0, SVG Export Plug-In . SVG Version: 6.00 Build 0)  -->
<svg version="1.1" id="Layer_1" xmlns="http://www.w3.org/2000/svg" xmlns:xlink="http://www.w3.org/1999/xlink" x="0px" y="0px"
	 viewBox="0 0 2000 913.4" style="enable-background:new 0 0 2000 913.4;" xml:space="preserve">
<style type="text/css">
	.st0{clip-path:url(#SVGID_00000054974827154325857420000010519090582956006792_);fill:#0A0905;}
	.st1{fill:#FFFFFF;}
</style>
<g>
	<g>
		<defs>
			<rect id="SVGID_1_" x="521.2" y="2" width="957.7" height="911.4"/>
		</defs>
		<clipPath id="SVGID_00000132046404365108182390000006859024944061698197_">
			<use xlink:href="#SVGID_1_"  style="overflow:visible;"/>
		</clipPath>
		<polygon style="clip-path:url(#SVGID_00000132046404365108182390000006859024944061698197_);fill:#0A0905;" points="521.2,913.4 
			1478.8,913.4 1478.8,2 521.2,2 521.2,913.4 		"/>
	</g>
	<path class="st1" d="M1360.7,652.9c-0.7,2.8-3.2,4-5.4,5.3c-15.7,9-33,14.7-49.9,21c-1,0.4-2.7,0.4-3.7,0c-3-1.1-5-2.6-6.5,2.4
		c-1.3,4.4-11.3,3.5-13.7-1.1c-3.9-7.3-7.4-14.7-11.3-22c-2-3.7-4.5-6.5-9.1-8c-2.7-0.9-3.2-4.8-3.6-7.7c-0.2-2.1-0.6-4.2,2.3-5.5
		c9.1-4.3,18.1-8.9,27.2-13.3c6.1-3,7.6-2.5,11.3,3c3.4,5,5.4,10.7,7.7,16.2c1.3,3,2.8,5.9,4.4,8.7c1.1,1.9,2.4,4.2,5.3,3.5
		c2.7-0.7,4.8-2.3,5.2-5.2c0.2-1.7,0.3-3.4,0.3-5.1c0-10.8,0.1-21.5,0-32.3c-0.1-6.8-2-8.1-8.5-5.7c-9,3.4-17.8,7.1-26.7,10.5
		c-8.9,3.4-14,1.7-18.7-6.3c-7.7-13-10-27.3-8.9-42.3c0.5-6.6,0.3-13.2-0.2-19.7c-0.4-4.6,1.2-7.5,4.8-9.9
		c13.4-8.6,28.5-14.1,43.2-20.2c3.1-1.3,4.9,1.3,7.9,2.2c-0.3-7.9,6.5-7.6,11.6-8.8c4.2-1,6.3,1.7,8.1,4.5
		c3.3,5.1,6.6,10.3,9.5,15.5c2.1,3.7,4.6,6.6,9,8.1c3.3,1.1,3.2,4.9,3.7,7.7c0.4,2.2,0.6,4.4-2.6,5.8c-9.2,4.2-18.1,8.9-27.2,13.3
		c-5.4,2.6-7.7,1.9-11-3.1c-3.3-5.1-4.8-11-7.5-16.3c-1.3-2.6-2.1-6.9-6-6.2c-4.2,0.7-3.4,5-3.4,8.1c-0.1,11.4-0.1,22.9,0,34.3
		c0,5,0.8,5.5,5.7,3.5c9.7-3.9,19.3-8,29.1-11.8c9-3.4,13.9-1.7,18.9,6.3c4.7,7.6,7.2,15.8,8.6,24.5L1360.7,652.9L1360.7,652.9z"/>
	<path class="st1" d="M1183.8,373.1c0-14.7,0-29.4,0-44c0-2.5-0.5-5.1-1-7.6c-2.1-11.6-10.4-12-19.3-9.8c-2.8,0.7-1.8,3-1.8,4.7
		c-0.1,21,0,42,0,63c0,7.7,0.1,15.4,0,23c-0.1,6,1.6,10.4,8.2,12.8c3.3,1.2,3.4,5.3,3.9,8.4c0.6,3.6-0.1,6.4-7.1,8
		c-6.8,1.6-13,5.1-18.1,9.7c-4.2,3.8-6.6,4.2-9.7,2.4c-10.9-6.2-17.7-14.7-17.5-27.3c0.1-4.1,0-8.2,0-12.3c0-1.5-0.3-3.1,0.8-4.4
		c3.1-3.6,3.7-7.3,1-11.4c-2.1-3.2-1.8-6.8-1.8-10.4c0-19,0-37.9-0.2-56.9c-0.1-7.1-2.7-12.7-11-15.1c-2.9-0.8-3.2-5-3.4-7.9
		c-0.2-2.4-1.1-5.1,3.8-6.7c4.9-1.6,9.7-3.4,14.1-6c11.2-6.7,13.3-11.2,18.9-9.4c6.8,2.2,12.3,6.1,14.9,12.4
		c1.7,3.9,3.1,2.8,5.6,1.4c8.2-4.5,16.5-8.9,25.1-12.7c5.2-2.3,10-1.8,14.8,0.9c0.5,0.3,1.2,0.5,1.3,0.8c2.2,7.7,11.6,9.9,14.1,17.7
		c2.4,7.5,5.2,14.7,5.2,22.8c-0.2,27-0.1,54-0.1,80.9c0,7.8,2,11.1,9.7,13.2c5,1.4,3.3,5.3,4.4,8c1.1,2.8,1,6.4-4.5,8.2
		c-8.6,2.9-16.4,7.3-23.6,12.5c-3.7,2.7-6.4,2.9-9.6,1c-10.6-6.3-16.9-14.9-16.7-27.3c0.2-14.3,0-28.7,0-43c-0.1,0-1.7,0-1.7,0"/>
	<path class="st1" d="M712.3,400.8c8.1,0.4,13.6,1.5,18.5,6.2c5.7,5.4,14.1,5.3,21.7,6c3.4,0.3,6.8,0,10.2,0.4
		c2.1,0.2,5-1.6,6.1,1.5c1.5,4.3,2.2,8.8,1.2,13.4c-0.1,0.4-1.1,0.7-1.8,0.9c-12.9,4.6-25.7,9.2-38.6,13.7
		c-10,3.5-18.9,0.9-26.5-5.2c-16.1-12.9-25.3-29.4-25.5-49.7c-0.2-30.9-0.1-61.8,0-92.7c0-2-1-4.5,1.8-5.9c0.6-0.3,1-0.6,0.5-1.5
		c-4.5-9.9-2-20.4-2.3-30.6c-0.4-14.2-0.1-14.2,13.7-19.5c17.9-6.8,35.9-13.4,54.4-18.6c7.5-2.1,8.5-1.7,10.9,5.4
		c1.3,3.8,5.5,8.2-1.6,11.8c5.5,0.8,6.2,4.8,7.5,8.4c1.8,5.1,3.4,10.3,5.1,15.5c1.7,5.3,5.5,8.4,11.4,8.4c5.5,0,3.7,4.7,5,7.1
		c0.9,1.7,1.6,5.1-2.2,6.8c-11.1,4.8-22,9.9-33,14.8c-5.9,2.6-7.9,1.9-10.8-3.9c-3.8-7.7-6.3-15.8-8.8-23.9
		c-1.3-4.2-2.8-8.4-4.6-12.5c-0.8-1.8-1.3-4.7-4.6-4c-3.2,0.7-2.6,3.2-2.6,5.4c0,14.3,0,28.7,0,43c0,24.6,0,49.1,0,73.7
		c0,2.6-0.2,5.2,0.3,7.7C719.1,389.4,719.4,395.3,712.3,400.8"/>
	<path class="st1" d="M891.4,528.6c7.2-4.6,14-9,20.9-13.1c8-4.7,14.2-4.1,20.8,2.3c10.2,9.8,15.9,21.7,16.6,35.5
		c0.1,2.4,0,4.8,0,7.2c0,7.9-6.2,12.9-14.5,10.9c-4.3-1-5.7,0.1-6.4,3.9c-0.5,2.7-8.6,9.3-10.9,8.5c-2.9-0.9-5.3-2.8-6.7-6
		c-2.7-6.2-1.3-12.8-2.4-19.1c-1.1-6.4-7.2-10.8-14-9.7c-2.3,0.4-1.8,1.7-1.8,2.9c-0.1,5.8,0,11.6,0,17.4c0,23,0.1,46.1,0,69.1
		c0,6.3,1.3,11.1,8.5,13.6c2.9,1,3.6,5.2,3.8,8.5c0.1,2.7-0.1,4.7-3.1,6.3c-8.5,4.3-16.9,8.9-25.3,13.5c-2,1.1-3.7,1.6-5.9,0.4
		c-11.2-6.1-18.2-14.7-18.3-27.4c-0.1-12.8,0.1-25.6-0.1-38.4c-0.1-6.5-0.1-13,3.4-18.8c2-3.4-0.8-5.6-1.8-7.8
		c-1.3-3.2-1.5-6.2-1.6-9.4c0-6.7,0.1-13.3,0-20c-0.2-7.7-2.4-13.9-11.4-16.3c-2.6-0.7-2.3-4.7-2.9-7.1c-0.5-2.1-1.5-5.2,1.8-6.8
		c10.2-5.2,20.4-10.5,30.6-15.8c1.5-0.8,2.7-0.4,4,0.1C882.8,515.6,888.2,520.6,891.4,528.6"/>
	<path class="st1" d="M1111.3,501.3c0,1.8,0,2.9,0,3.9c0.1,3.6-1.1,7.9,0.7,10.4c1.8,2.5,6.7,0.5,10.1,0.9c1,0.1,2.2-0.6,2.8,1.3
		c1.7,5.6,0.3,10.8-0.7,16.2c-0.6,3.1-1.7,4.2-4.8,3.8c-1.4-0.2-2.9,0.1-4.3-0.1c-3.1-0.4-4,0.7-3.9,3.7c0.2,8.4,0.1,16.7,0.1,25.1
		c0,23.7,0.1,47.4,0,71.1c0,6.6,1,12,8.9,14.4c4.4,1.4,4.7,12.5,0.5,14.5c-2.8,1.4-5.2,4.6-9.2,2.8c-0.7-0.3-1.2,0-1.6,0.8
		c-3.5,6.6-11.4,7.5-17,11.3c-1,0.7-2.1-0.1-3-0.4c-10.2-3.8-18.8-15.6-18.6-26c0.1-6.5-1.9-13.3,3.1-19.2c0.6-0.7,0.2-1.6-0.3-2.4
		c-2.9-4.6-2.9-9.6-2.9-14.7c0.1-25.2,0-50.5,0.1-75.7c0-3.8-0.6-5.5-5.1-5.1c-4.6,0.4-7.7-3.1-6.9-7.4c0.5-3,1.6-5.9,2.1-9
		c0.3-1.9,1.3-2.3,3-2.8c17.1-5,27.6-16.4,33.4-32c1-2.8,1.6-4.7,5.1-4.1c2.7,0.5,5.4-1.4,7,3.6
		C1111.8,491.8,1110.1,496.9,1111.3,501.3"/>
	<path class="st1" d="M827.1,588.6c0,16,0,32.1,0,48.1c0,6.7,0.6,12.7,9,15.4c4.9,1.6,4.8,12.2,0.2,14.6
		c-8.4,4.5-16.9,8.9-25.2,13.6c-2.3,1.3-4.1,1.3-6.3,0.1c-11.1-6-19.3-14.9-17.2-27.1c1.6-9.2-0.1-17.6-0.4-26.4
		c-0.4-9-0.1-18.1-0.1-27.1c0-14.3-0.1-28.7,0.1-43c0.1-6.8-1.1-12.3-9-15c-4.6-1.6-4.7-12.1-0.4-14.4c8.5-4.7,17.2-9.2,25.6-13.9
		c2.1-1.2,3.8-1.3,5.9-0.2c11.1,6.1,18.1,14.7,17.9,27.5C826.9,556.9,827.1,572.8,827.1,588.6"/>
	<path class="st1" d="M1055.5,367.1c0-16.4-0.1-32.8,0-49.1c0.1-6.3-1.9-10.8-8.6-13.2c-3.6-1.3-3-5.2-3.4-8.1
		c-0.3-2.3-0.9-4.9,2.4-6.5c8.8-4.5,17.5-9.3,26.1-14c2-1.1,3.5-1.1,5.4,0c11,6,18.1,14.3,18,26.9c0,6.5-0.1,13,0,19.5
		c0,3.9,0.4,7.9-3.4,10.7c-1.4,1.1-1.1,2.2,0,3.4c2.8,3.3,3.4,7.3,3.4,11.4c0,17.4,0,34.8,0,52.2c0,6.4,1,11.9,8.8,14.6
		c2.8,1,3.7,5.3,3.9,8.9c0.2,2.9-0.8,4.6-3.6,6c-8.4,4.2-16.6,8.7-24.8,13.3c-2.5,1.4-4.4,1.4-6.8,0c-11-6.2-17.5-14.8-17.4-27.3
		C1055.6,399.5,1055.5,383.3,1055.5,367.1"/>
	<path class="st1" d="M799.6,458.3c1.4-3.1,1.5-6.2,5.4-7.5c5.3-1.8,8.9-0.7,11.9,3.6c3.9,5.5,6.1,11.5,6.2,18.1
		c0.1,4.3-0.4,8.6,0.1,12.8c0.7,5.5-1.4,8.6-6.9,10.2c-5.6,1.7-11.1,3.6-16.6,5.7c-4.8,1.8-8.3,0.5-11-3.4
		c-3.5-5.1-5.6-10.7-5.9-16.7c-0.4-5.6-0.2-11.2-0.2-16.9c0-2.6-0.4-5.4,3.1-6.2c3.8-1,7.3-5.1,11.7-1.2
		C797.8,457.3,798.5,457.6,799.6,458.3"/>
	<path class="st1" d="M1091.1,231.6c0,7.6,0,15.2-0.1,22.9c-7.5,5-16.3,7.2-24.8,10.1c-2.9,1-5.5,0-7.7-2.3
		c-4.3-4.7-6.4-10.4-7.1-16.3c-0.8-7.1-0.3-14.3-0.5-21.5c0-2.1,1.3-3,3-3.7c7.4-3.1,14.9-5.7,22.6-8c2.8-0.9,4.8,0,6.7,1.9
		C1087.9,219.5,1090.5,225.2,1091.1,231.6"/>
	<path class="st1" d="M1044.5,422c-0.3-3.2-0.8-7.4-3.8-8.4c-8.3-2.8-10.5-8.4-10.5-15.9c0-26.5,0-52.9,0-79.4
		c0.1-22.7-10.7-42.3-19.4-62.5c-7.9-2.6-7.2-9.2-8.4-15.3c-1.2-5.9-5.4-10.6-8.7-15.7c-4.1-6.3-9.9-7.7-17.1-6
		c-11.9,2.8-23.1,7-34.3,11.7c-4.8,2-7.1,7.9-4.7,12.3c1.6,3.1,2.7,6.3,7.9,5.2c7.6-1.5,12.4,2.8,16.4,8.4c4.7,6.7,8.3,13.9,12.2,21
		c2.1,3.8,1.4,5.2-2.9,6.6c-13.4,4.3-26.7,8.8-39.5,14.4c-2.2,1-4.9,1.8-4.9,4.8c0,8.6-1.4,17.5,4.6,25.1c1.7,2.2,1.1,3.8-0.9,5.1
		c-3.4,2.2-3.8,5.3-3.8,8.9c0.1,19.5,0,38.9,0.1,58.4c0,17.3,8.3,30.7,22.5,41c7.5,5.5,16,2,17.5-7.3c4.3,3.8,8.1,2.1,12-0.5
		c4-2.6,8.3-4.7,12.6-7.1c3,7.4,8.8,12.3,15.7,16.2c2.4,1.4,4.4,1.4,6.8,0c9.1-5.1,18.1-10.3,27.5-14.9
		C1044.9,426.5,1044.7,424.4,1044.5,422 M991.3,357.5c0,0,0,29.3,0,44c0,6.2-1.8,8.3-8.3,9.5c-5.7,1.1-11.4-1.7-13.3-6.3
		c-1.4-3.3-1.1-6.7-1.1-10.1c-0.1-27.5,0-55-0.1-82.5c0-3,0.9-4.8,3.7-5.9c2.3-0.9,4.5-2,6.9-2.8c9-2.9,12.2-0.7,12.2,8.4
		C991.4,327,991.3,342.2,991.3,357.5"/>
	<path class="st1" d="M1351.9,385.9c-0.1-21,0.2-42-0.1-63c-0.3-16.6-6.1-31.3-18.6-43.3c-4.1-3.9-8.8-5.3-14.7-4
		c-9.1,2.1-18,4.6-26.5,8c-9.3,3.8-20.2,4.5-27.7,12.2c-0.4,0.4-1.6-0.1-2.5-0.1c-7.5-0.2-13.4,5.1-13.4,12.3c0,14.3,0,28.7,0,46.2
		c0.4,13.9-0.9,31,0.6,48c1,11.2,5.2,21.5,13.1,30.1c7.5,8.1,17.2,9.5,30.1-1.5c2.1-1.8,5-1.8,7.7-0.8c1.3,0.5,2.6-2.1,4.1-0.7
		c1.3,1.3-0.3,2.2-0.9,3c-12.5,16.5-25.5,32.2-50.2,30.5c-1.6-0.1-3.4-0.5-3.2,4.6c0.2,5.7,4.9,12.3,10.3,14.7
		c1.6,0.7,3.3,1.5,4.9,2.4c4.8,2.6,9.6,3.7,14.5,0.2c2.5-1.8,3.2-0.2,4.1,1.7c4.8,10.3,20,12.8,27.5,4.2
		c17.1-19.5,29.9-41.5,38.7-65.5c2.6-7.3,2.6-14.3-1.5-21.1c-1.6-2.6-1.3-5,0.2-7.7C1350.1,393.1,1351.9,389.9,1351.9,385.9
		 M1315.2,345.8c-1.3,1.9-1.2,4.2-1.2,6.4c0,16-0.1,32.1,0.1,48.1c0,3.5-0.9,4.3-4.5,3.8c-10.9-1.4-16.2-6.1-17.5-16.6
		c-1.6-12.8-0.4-25.6-0.8-35.8c0-13,0-23.4,0-33.8c0-6.2,2.1-8.4,9-9.3c6.7-0.9,10.8,1.4,12.6,6.8c1.8,5.4-0.1,11.4,3,16.5
		C1318.7,336.8,1318.2,341.3,1315.2,345.8"/>
	<path class="st1" d="M765.2,501.4c0.4-17.6-8.2-30.5-21.1-41.7c-3.9-3.4-7.9-4.2-13.2-2.1c-5.2,2-3.1,5.8-3.8,9.8
		c-7.4-6.1-13-1.1-18.9,2.2c-1.8,1-3.8,2-5.5,3.1c-1.9,1.3-2.7,1-3.8-1.2c-3.2-6.4-8.6-10.8-14.9-14.3c-2.4-1.3-4.4-1.3-7.4,1
		c-6.4,5-13.5,9.4-21.4,11.6c-6,1.7-6.1,4.9-5.3,8c0.7,2.9-0.3,6.8,4,8.3c5.7,1.9,8,5.9,7.9,11.4c-0.1,4.9,0,9.9,0,14.8
		c0,45.4,0,90.8,0,136.2c0,5.9-0.8,11.6-3.7,16.8c-3,5.5-7.8,9-14.5,9.6c1.8,4.9,3.5,9.4,6.1,13.5c0.6,1,0.7,3.2,2.8,2.1
		c7.6-3.8,17.9-3.9,21.8-13.2c1.5-3.5,3.7-3.7,7.2-2.6c2.9,0.9,5.9,2.2,9.3,0.7c6.8-3,13.8-5.6,20.7-8.4c1.3-0.5,2.7-0.8,3-2.5
		c0.7-4.6-0.6-8.9-2.1-13.1c-0.8-2.3-3.8-1-5.6-1.8c-2.9-1.2-3.9-3.1-4.2-5.9c-1.2-10-0.2-20.1-0.7-30.2c-0.2-3.8,1.3-5.2,4.9-6.3
		c17.7-5.5,34.9-12,51.9-19.3c4.8-2.1,6.9-4.7,6.8-10C764.8,552.6,764.6,527,765.2,501.4 M716.5,583.4c-14.2,7.5-15.3,7-15.3-7.9
		v-34.8c0-13.5,0-26.9,0-40.4c0-4.9,3.9-9.1,9.1-9.6c7.1-0.7,12.5,2.6,13.3,8.5c0.5,3.2,0.6,6.4,0.6,9.7c0,20.6-0.2,41.3,0.2,61.9
		C724.4,577,721.9,580.6,716.5,583.4"/>
	<path class="st1" d="M879.5,278c-2.6-2.2-5.7-3.7-9.4-2.7c-23.4,6.4-46.1,14.6-68.4,23.9c-2.8,1.2-3.8,3-3.8,6
		c0.2,31.9-0.3,63.8,0.4,95.7c0.3,15.3,6.9,28.7,19,39.3c4.5,3.9,9.5,4.6,15.5,3.6c5.3-0.9,7.5-3.9,8.6-8.4c0.7-2.7,2.2-3.5,4.8-1.2
		c2.1,1.9,4.1,4.2,7.9,2.9c14.4-5.2,28.8-10.2,42.6-16.6c3.6-1.7,4.7-3.9,4.7-7.6c-0.2-16.4-0.1-32.8-0.1-49.2
		c0-14.5-0.4-29,0.1-43.5C902.1,302.3,893,289.2,879.5,278 M862.8,382c-3.7,6.3-1.5,13-1.9,19.5c-0.4,6.2-2.2,8.6-8.9,9.5
		c-5.7,0.8-11.4-2.2-12.8-7c-0.7-2.3-0.9-4.7-0.9-7.1c-0.1-13.3,0-26.6,0-39.9c0-13.5,0.2-26.9-0.1-40.4c-0.1-3.7,1.4-5.5,4.7-6.9
		c7.5-3,18.1-0.1,17.9,10.9c-0.2,16.7,0,33.4,0.1,50.1c0,2.5-0.5,5,1.4,7.3C863,379.1,863.4,381.1,862.8,382"/>
	<path class="st1" d="M1060.1,658.6c-1.1-2.8-0.4-6.8-4.8-8.2c-8.3-2.7-9.9-5.1-9.9-13.6c0-13.5,0-27,0-40.5c0-12.6-0.1-25.3,0-37.9
		c0.2-13.7-4.7-25.7-13.3-36.4c-3.4-4.3-7.6-7.6-13.3-9.1c-3.1-0.8-5.6-1-6.9,2.5c-0.7,1.9-2,3-3.9,1.1c-2.3-2.2-4.8-1.7-7.5-0.9
		c-10.8,3.5-21.7,7-32.5,10.5c-6.9,2.3-8,6.1-5.9,12.9c1.4,4.4,3.6,5,7.7,4.9c7.7-0.2,15.4,0.7,22.7,3.2c7.4,2.5,11.7,7.2,12.3,15.1
		c0.2,3.2-1,4.2-3.7,4.9c-5,1.4-9.9,2.9-14.8,4.5c-12.2,3.9-24.1,8.5-35.4,14.5c-5.7,3-8.1,7.2-8.7,13.9
		c-1.3,14.5,5.9,28.8,0.4,43.2c-0.3,0.7,0.1,1.7,0.2,2.5c2.2,16,12.1,26.8,25.9,35.1c2.2,1.3,3.6,0.4,5.3-0.5
		c9.9-5.1,19.9-10.1,29.8-15.2c2.2-1.1,3.3-1.5,4.6,1.4c2.9,6.3,8.3,10.5,14.5,13.9c2.3,1.2,4.2,1.2,6.5,0c9.1-5,18.3-10,27.7-14.6
		C1060.7,664,1061.1,661.2,1060.1,658.6 M1008.5,607.3c-5.7,9.6-1.9,20-2.9,29.9c-0.7,7.6-8.1,12.2-15.6,8.9c-4.3-2-7.5-5-7.3-10.2
		c0.3-8-0.2-16,0.3-24c0.8-13.2,8.4-21.3,22.5-24.6c0.1,6.4-0.3,12.8,2.4,18.7C1008.2,606.4,1008.7,607,1008.5,607.3"/>
	<path class="st1" d="M1239.6,593.9c-1.8-6.5,0.2-12.7,0.1-19.1c-0.1-6.5-0.2-13,0-19.5c0.7-18.5-9.5-31.2-24.4-41.2
		c-6.2-4.2-16.3-0.3-18.4,6.8c-3.3-0.8-5.6-3.2-9.3-2c-15.6,5.4-31.3,10.7-46.4,17.2c-3.1,1.3-4.5,3.1-4.5,6.6
		c0.2,15-0.5,30.1,0.4,45c0.4,6.6,0.9,12.8,0.1,19.5c-1.3,9.9-0.8,20.1-0.2,30.2c0.8,15.3,6.3,28.9,18.5,39.5
		c5,4.3,10.7,5.8,17.4,3.7c13.7-4.4,27.5-8.5,41.3-12.7c7.2-2.2,8.1-5.6,6-12.8c-1.3-4.5-3.8-4.7-7.4-4.7
		c-6.1,0.1-12.2-0.8-18.1-2.1c-10.2-2.4-16.7-9.2-17.1-17.3c-0.1-2.2,0.5-2.9,2.6-3.5c5.2-1.4,10.2-3.1,15.3-4.8
		c12.6-4.3,25-9.1,36.5-15.7C1237.3,604.1,1241.4,600.2,1239.6,593.9 M1199.5,579.4c-0.1,14.1-7.7,23.7-22.6,27.9
		c0-18.4,0.1-36.5-0.1-54.5c0-2.4,0.9-3.6,3.1-4.7c11.2-5.5,19.6-0.7,19.6,11.4C1199.6,566.1,1199.6,572.7,1199.5,579.4"/>
</g>
</svg>
