<?xml version="1.0" encoding="UTF-8" standalone="no"?>
<!-- Generator: Adobe Illustrator 27.8.1, SVG Export Plug-In . SVG Version: 6.00 Build 0)  -->

<svg
   version="1.1"
   id="Layer_1"
   x="0px"
   y="0px"
   viewBox="0 0 957.59996 911.4"
   xml:space="preserve"
   sodipodi:docname="fa501fe335f38a734d83013fc5a2f46e.svg"
   width="957.59998"
   height="911.40002"
   xmlns:inkscape="http://www.inkscape.org/namespaces/inkscape"
   xmlns:sodipodi="http://sodipodi.sourceforge.net/DTD/sodipodi-0.dtd"
   xmlns:xlink="http://www.w3.org/1999/xlink"
   xmlns="http://www.w3.org/2000/svg"
   xmlns:svg="http://www.w3.org/2000/svg"><defs
   id="defs51" /><sodipodi:namedview
   id="namedview49"
   pagecolor="#ffffff"
   bordercolor="#666666"
   borderopacity="1.0"
   inkscape:pageshadow="2"
   inkscape:pageopacity="0.0"
   inkscape:pagecheckerboard="0" />
<style
   type="text/css"
   id="style2">
	.st0{clip-path:url(#SVGID_00000060031338877155211300000017298603514463167616_);fill:#0A0905;}
	.st1{fill:#FFFFFF;}
</style>
<g
   id="g46"
   transform="translate(0,-2)">
	<g
   id="g14">
		<g
   id="g12">
			<defs
   id="defs5">
				<rect
   id="SVGID_1_"
   y="2"
   width="957.70001"
   height="911.40002"
   x="0" />
			</defs>
			<clipPath
   id="SVGID_00000073694891513717313240000012631732183396848784_">
				<use
   xlink:href="#SVGID_1_"
   style="overflow:visible"
   id="use7"
   x="0"
   y="0"
   width="100%"
   height="100%" />
			</clipPath>
			<polygon
   style="fill:#0a0905"
   points="957.6,2 0,2 0,913.4 957.6,913.4 "
   clip-path="url(#SVGID_00000073694891513717313240000012631732183396848784_)"
   id="polygon10" />
		</g>
	</g>
	<path
   class="st1"
   d="m 839.5,652.9 c -0.7,2.8 -3.2,4 -5.4,5.3 -15.7,9 -33,14.7 -49.9,21 -1,0.4 -2.7,0.4 -3.7,0 -3,-1.1 -5,-2.6 -6.5,2.4 -1.3,4.4 -11.3,3.5 -13.7,-1.1 -3.9,-7.3 -7.4,-14.7 -11.3,-22 -2,-3.7 -4.5,-6.5 -9.1,-8 -2.7,-0.9 -3.2,-4.8 -3.6,-7.7 -0.2,-2.1 -0.6,-4.2 2.3,-5.5 9.1,-4.3 18.1,-8.9 27.2,-13.3 6.1,-3 7.6,-2.5 11.3,3 3.4,5 5.4,10.7 7.7,16.2 1.3,3 2.8,5.9 4.4,8.7 1.1,1.9 2.4,4.2 5.3,3.5 2.7,-0.7 4.8,-2.3 5.2,-5.2 0.2,-1.7 0.3,-3.4 0.3,-5.1 0,-10.8 0.1,-21.5 0,-32.3 -0.1,-6.8 -2,-8.1 -8.5,-5.7 -9,3.4 -17.8,7.1 -26.7,10.5 -8.9,3.4 -14,1.7 -18.7,-6.3 -7.7,-13 -10,-27.3 -8.9,-42.3 0.5,-6.6 0.3,-13.2 -0.2,-19.7 -0.4,-4.6 1.2,-7.5 4.8,-9.9 13.4,-8.6 28.5,-14.1 43.2,-20.2 3.1,-1.3 4.9,1.3 7.9,2.2 -0.3,-7.9 6.5,-7.6 11.6,-8.8 4.2,-1 6.3,1.7 8.1,4.5 3.3,5.1 6.6,10.3 9.5,15.5 2.1,3.7 4.6,6.6 9,8.1 3.3,1.1 3.2,4.9 3.7,7.7 0.4,2.2 0.6,4.4 -2.6,5.8 -9.2,4.2 -18.1,8.9 -27.2,13.3 -5.4,2.6 -7.7,1.9 -11,-3.1 -3.3,-5.1 -4.8,-11 -7.5,-16.3 -1.3,-2.6 -2.1,-6.9 -6,-6.2 -4.2,0.7 -3.4,5 -3.4,8.1 -0.1,11.4 -0.1,22.9 0,34.3 0,5 0.8,5.5 5.7,3.5 9.7,-3.9 19.3,-8 29.1,-11.8 9,-3.4 13.9,-1.7 18.9,6.3 4.7,7.6 7.2,15.8 8.6,24.5 z"
   id="path16" />
	<path
   class="st1"
   d="m 662.6,373.1 c 0,-14.7 0,-29.4 0,-44 0,-2.5 -0.5,-5.1 -1,-7.6 -2.1,-11.6 -10.4,-12 -19.3,-9.8 -2.8,0.7 -1.8,3 -1.8,4.7 -0.1,21 0,42 0,63 0,7.7 0.1,15.4 0,23 -0.1,6 1.6,10.4 8.2,12.8 3.3,1.2 3.4,5.3 3.9,8.4 0.6,3.6 -0.1,6.4 -7.1,8 -6.8,1.6 -13,5.1 -18.1,9.7 -4.2,3.8 -6.6,4.2 -9.7,2.4 -10.9,-6.2 -17.7,-14.7 -17.5,-27.3 0.1,-4.1 0,-8.2 0,-12.3 0,-1.5 -0.3,-3.1 0.8,-4.4 3.1,-3.6 3.7,-7.3 1,-11.4 -2.1,-3.2 -1.8,-6.8 -1.8,-10.4 0,-19 0,-37.9 -0.2,-56.9 -0.1,-7.1 -2.7,-12.7 -11,-15.1 -2.9,-0.8 -3.2,-5 -3.4,-7.9 -0.2,-2.4 -1.1,-5.1 3.8,-6.7 4.9,-1.6 9.7,-3.4 14.1,-6 11.2,-6.7 13.3,-11.2 18.9,-9.4 6.8,2.2 12.3,6.1 14.9,12.4 1.7,3.9 3.1,2.8 5.6,1.4 8.2,-4.5 16.5,-8.9 25.1,-12.7 5.2,-2.3 10,-1.8 14.8,0.9 0.5,0.3 1.2,0.5 1.3,0.8 2.2,7.7 11.6,9.9 14.1,17.7 2.4,7.5 5.2,14.7 5.2,22.8 -0.2,27 -0.1,54 -0.1,80.9 0,7.8 2,11.1 9.7,13.2 5,1.4 3.3,5.3 4.4,8 1.1,2.8 1,6.4 -4.5,8.2 -8.6,2.9 -16.4,7.3 -23.6,12.5 -3.7,2.7 -6.4,2.9 -9.6,1 -10.6,-6.3 -16.9,-14.9 -16.7,-27.3 0.2,-14.3 0,-28.7 0,-43 -0.1,0 -1.7,0 -1.7,0"
   id="path18" />
	<path
   class="st1"
   d="m 191.1,400.8 c 8.1,0.4 13.6,1.5 18.5,6.2 5.7,5.4 14.1,5.3 21.7,6 3.4,0.3 6.8,0 10.2,0.4 2.1,0.2 5,-1.6 6.1,1.5 1.5,4.3 2.2,8.8 1.2,13.4 -0.1,0.4 -1.1,0.7 -1.8,0.9 -12.9,4.6 -25.7,9.2 -38.6,13.7 -10,3.5 -18.9,0.9 -26.5,-5.2 -16.1,-12.9 -25.3,-29.4 -25.5,-49.7 -0.2,-30.9 -0.1,-61.8 0,-92.7 0,-2 -1,-4.5 1.8,-5.9 0.6,-0.3 1,-0.6 0.5,-1.5 -4.5,-9.9 -2,-20.4 -2.3,-30.6 -0.4,-14.2 -0.1,-14.2 13.7,-19.5 17.9,-6.8 35.9,-13.4 54.4,-18.6 7.5,-2.1 8.5,-1.7 10.9,5.4 1.3,3.8 5.5,8.2 -1.6,11.8 5.5,0.8 6.2,4.8 7.5,8.4 1.8,5.1 3.4,10.3 5.1,15.5 1.7,5.3 5.5,8.4 11.4,8.4 5.5,0 3.7,4.7 5,7.1 0.9,1.7 1.6,5.1 -2.2,6.8 -11.1,4.8 -22,9.9 -33,14.8 -5.9,2.6 -7.9,1.9 -10.8,-3.9 -3.8,-7.7 -6.3,-15.8 -8.8,-23.9 -1.3,-4.2 -2.8,-8.4 -4.6,-12.5 -0.8,-1.8 -1.3,-4.7 -4.6,-4 -3.2,0.7 -2.6,3.2 -2.6,5.4 0,14.3 0,28.7 0,43 0,24.6 0,49.1 0,73.7 0,2.6 -0.2,5.2 0.3,7.7 1.4,6.5 1.7,12.4 -5.4,17.9"
   id="path20" />
	<path
   class="st1"
   d="m 370.2,528.6 c 7.2,-4.6 14,-9 20.9,-13.1 8,-4.7 14.2,-4.1 20.8,2.3 10.2,9.8 15.9,21.7 16.6,35.5 0.1,2.4 0,4.8 0,7.2 0,7.9 -6.2,12.9 -14.5,10.9 -4.3,-1 -5.7,0.1 -6.4,3.9 -0.5,2.7 -8.6,9.3 -10.9,8.5 -2.9,-0.9 -5.3,-2.8 -6.7,-6 -2.7,-6.2 -1.3,-12.8 -2.4,-19.1 -1.1,-6.4 -7.2,-10.8 -14,-9.7 -2.3,0.4 -1.8,1.7 -1.8,2.9 -0.1,5.8 0,11.6 0,17.4 0,23 0.1,46.1 0,69.1 0,6.3 1.3,11.1 8.5,13.6 2.9,1 3.6,5.2 3.8,8.5 0.1,2.7 -0.1,4.7 -3.1,6.3 -8.5,4.3 -16.9,8.9 -25.3,13.5 -2,1.1 -3.7,1.6 -5.9,0.4 -11.2,-6.1 -18.2,-14.7 -18.3,-27.4 -0.1,-12.8 0.1,-25.6 -0.1,-38.4 -0.1,-6.5 -0.1,-13 3.4,-18.8 2,-3.4 -0.8,-5.6 -1.8,-7.8 -1.3,-3.2 -1.5,-6.2 -1.6,-9.4 0,-6.7 0.1,-13.3 0,-20 -0.2,-7.7 -2.4,-13.9 -11.4,-16.3 -2.6,-0.7 -2.3,-4.7 -2.9,-7.1 -0.5,-2.1 -1.5,-5.2 1.8,-6.8 10.2,-5.2 20.4,-10.5 30.6,-15.8 1.5,-0.8 2.7,-0.4 4,0.1 8.1,2.6 13.5,7.6 16.7,15.6"
   id="path22" />
	<path
   class="st1"
   d="m 590.1,501.3 c 0,1.8 0,2.9 0,3.9 0.1,3.6 -1.1,7.9 0.7,10.4 1.8,2.5 6.7,0.5 10.1,0.9 1,0.1 2.2,-0.6 2.8,1.3 1.7,5.6 0.3,10.8 -0.7,16.2 -0.6,3.1 -1.7,4.2 -4.8,3.8 -1.4,-0.2 -2.9,0.1 -4.3,-0.1 -3.1,-0.4 -4,0.7 -3.9,3.7 0.2,8.4 0.1,16.7 0.1,25.1 0,23.7 0.1,47.4 0,71.1 0,6.6 1,12 8.9,14.4 4.4,1.4 4.7,12.5 0.5,14.5 -2.8,1.4 -5.2,4.6 -9.2,2.8 -0.7,-0.3 -1.2,0 -1.6,0.8 -3.5,6.6 -11.4,7.5 -17,11.3 -1,0.7 -2.1,-0.1 -3,-0.4 -10.2,-3.8 -18.8,-15.6 -18.6,-26 0.1,-6.5 -1.9,-13.3 3.1,-19.2 0.6,-0.7 0.2,-1.6 -0.3,-2.4 -2.9,-4.6 -2.9,-9.6 -2.9,-14.7 0.1,-25.2 0,-50.5 0.1,-75.7 0,-3.8 -0.6,-5.5 -5.1,-5.1 -4.6,0.4 -7.7,-3.1 -6.9,-7.4 0.5,-3 1.6,-5.9 2.1,-9 0.3,-1.9 1.3,-2.3 3,-2.8 17.1,-5 27.6,-16.4 33.4,-32 1,-2.8 1.6,-4.7 5.1,-4.1 2.7,0.5 5.4,-1.4 7,3.6 1.9,5.6 0.2,10.7 1.4,15.1"
   id="path24" />
	<path
   class="st1"
   d="m 305.9,588.6 c 0,16 0,32.1 0,48.1 0,6.7 0.6,12.7 9,15.4 4.9,1.6 4.8,12.2 0.2,14.6 -8.4,4.5 -16.9,8.9 -25.2,13.6 -2.3,1.3 -4.1,1.3 -6.3,0.1 -11.1,-6 -19.3,-14.9 -17.2,-27.1 1.6,-9.2 -0.1,-17.6 -0.4,-26.4 -0.4,-9 -0.1,-18.1 -0.1,-27.1 0,-14.3 -0.1,-28.7 0.1,-43 0.1,-6.8 -1.1,-12.3 -9,-15 -4.6,-1.6 -4.7,-12.1 -0.4,-14.4 8.5,-4.7 17.2,-9.2 25.6,-13.9 2.1,-1.2 3.8,-1.3 5.9,-0.2 11.1,6.1 18.1,14.7 17.9,27.5 -0.3,16.1 -0.1,32 -0.1,47.8"
   id="path26" />
	<path
   class="st1"
   d="m 534.3,367.1 c 0,-16.4 -0.1,-32.8 0,-49.1 0.1,-6.3 -1.9,-10.8 -8.6,-13.2 -3.6,-1.3 -3,-5.2 -3.4,-8.1 -0.3,-2.3 -0.9,-4.9 2.4,-6.5 8.8,-4.5 17.5,-9.3 26.1,-14 2,-1.1 3.5,-1.1 5.4,0 11,6 18.1,14.3 18,26.9 0,6.5 -0.1,13 0,19.5 0,3.9 0.4,7.9 -3.4,10.7 -1.4,1.1 -1.1,2.2 0,3.4 2.8,3.3 3.4,7.3 3.4,11.4 0,17.4 0,34.8 0,52.2 0,6.4 1,11.9 8.8,14.6 2.8,1 3.7,5.3 3.9,8.9 0.2,2.9 -0.8,4.6 -3.6,6 -8.4,4.2 -16.6,8.7 -24.8,13.3 -2.5,1.4 -4.4,1.4 -6.8,0 -11,-6.2 -17.5,-14.8 -17.4,-27.3 0.1,-16.3 0,-32.5 0,-48.7"
   id="path28" />
	<path
   class="st1"
   d="m 278.4,458.3 c 1.4,-3.1 1.5,-6.2 5.4,-7.5 5.3,-1.8 8.9,-0.7 11.9,3.6 3.9,5.5 6.1,11.5 6.2,18.1 0.1,4.3 -0.4,8.6 0.1,12.8 0.7,5.5 -1.4,8.6 -6.9,10.2 -5.6,1.7 -11.1,3.6 -16.6,5.7 -4.8,1.8 -8.3,0.5 -11,-3.4 -3.5,-5.1 -5.6,-10.7 -5.9,-16.7 -0.4,-5.6 -0.2,-11.2 -0.2,-16.9 0,-2.6 -0.4,-5.4 3.1,-6.2 3.8,-1 7.3,-5.1 11.7,-1.2 0.4,0.5 1.1,0.8 2.2,1.5"
   id="path30" />
	<path
   class="st1"
   d="m 569.9,231.6 c 0,7.6 0,15.2 -0.1,22.9 -7.5,5 -16.3,7.2 -24.8,10.1 -2.9,1 -5.5,0 -7.7,-2.3 -4.3,-4.7 -6.4,-10.4 -7.1,-16.3 -0.8,-7.1 -0.3,-14.3 -0.5,-21.5 0,-2.1 1.3,-3 3,-3.7 7.4,-3.1 14.9,-5.7 22.6,-8 2.8,-0.9 4.8,0 6.7,1.9 4.7,4.8 7.3,10.5 7.9,16.9"
   id="path32" />
	<path
   class="st1"
   d="m 523.3,422 c -0.3,-3.2 -0.8,-7.4 -3.8,-8.4 -8.3,-2.8 -10.5,-8.4 -10.5,-15.9 0,-26.5 0,-52.9 0,-79.4 0.1,-22.7 -10.7,-42.3 -19.4,-62.5 -7.9,-2.6 -7.2,-9.2 -8.4,-15.3 -1.2,-5.9 -5.4,-10.6 -8.7,-15.7 -4.1,-6.3 -9.9,-7.7 -17.1,-6 -11.9,2.8 -23.1,7 -34.3,11.7 -4.8,2 -7.1,7.9 -4.7,12.3 1.6,3.1 2.7,6.3 7.9,5.2 7.6,-1.5 12.4,2.8 16.4,8.4 4.7,6.7 8.3,13.9 12.2,21 2.1,3.8 1.4,5.2 -2.9,6.6 -13.4,4.3 -26.7,8.8 -39.5,14.4 -2.2,1 -4.9,1.8 -4.9,4.8 0,8.6 -1.4,17.5 4.6,25.1 1.7,2.2 1.1,3.8 -0.9,5.1 -3.4,2.2 -3.8,5.3 -3.8,8.9 0.1,19.5 0,38.9 0.1,58.4 0,17.3 8.3,30.7 22.5,41 7.5,5.5 16,2 17.5,-7.3 4.3,3.8 8.1,2.1 12,-0.5 4,-2.6 8.3,-4.7 12.6,-7.1 3,7.4 8.8,12.3 15.7,16.2 2.4,1.4 4.4,1.4 6.8,0 9.1,-5.1 18.1,-10.3 27.5,-14.9 3.5,-1.6 3.3,-3.7 3.1,-6.1 m -53.2,-64.5 c 0,0 0,29.3 0,44 0,6.2 -1.8,8.3 -8.3,9.5 -5.7,1.1 -11.4,-1.7 -13.3,-6.3 -1.4,-3.3 -1.1,-6.7 -1.1,-10.1 -0.1,-27.5 0,-55 -0.1,-82.5 0,-3 0.9,-4.8 3.7,-5.9 2.3,-0.9 4.5,-2 6.9,-2.8 9,-2.9 12.2,-0.7 12.2,8.4 0.1,15.2 0,30.4 0,45.7"
   id="path34" />
	<path
   class="st1"
   d="m 830.7,385.9 c -0.1,-21 0.2,-42 -0.1,-63 -0.3,-16.6 -6.1,-31.3 -18.6,-43.3 -4.1,-3.9 -8.8,-5.3 -14.7,-4 -9.1,2.1 -18,4.6 -26.5,8 -9.3,3.8 -20.2,4.5 -27.7,12.2 -0.4,0.4 -1.6,-0.1 -2.5,-0.1 -7.5,-0.2 -13.4,5.1 -13.4,12.3 0,14.3 0,28.7 0,46.2 0.4,13.9 -0.9,31 0.6,48 1,11.2 5.2,21.5 13.1,30.1 7.5,8.1 17.2,9.5 30.1,-1.5 2.1,-1.8 5,-1.8 7.7,-0.8 1.3,0.5 2.6,-2.1 4.1,-0.7 1.3,1.3 -0.3,2.2 -0.9,3 -12.5,16.5 -25.5,32.2 -50.2,30.5 -1.6,-0.1 -3.4,-0.5 -3.2,4.6 0.2,5.7 4.9,12.3 10.3,14.7 1.6,0.7 3.3,1.5 4.9,2.4 4.8,2.6 9.6,3.7 14.5,0.2 2.5,-1.8 3.2,-0.2 4.1,1.7 4.8,10.3 20,12.8 27.5,4.2 17.1,-19.5 29.9,-41.5 38.7,-65.5 2.6,-7.3 2.6,-14.3 -1.5,-21.1 -1.6,-2.6 -1.3,-5 0.2,-7.7 1.7,-3.2 3.5,-6.4 3.5,-10.4 M 794,345.8 c -1.3,1.9 -1.2,4.2 -1.2,6.4 0,16 -0.1,32.1 0.1,48.1 0,3.5 -0.9,4.3 -4.5,3.8 -10.9,-1.4 -16.2,-6.1 -17.5,-16.6 -1.6,-12.8 -0.4,-25.6 -0.8,-35.8 0,-13 0,-23.4 0,-33.8 0,-6.2 2.1,-8.4 9,-9.3 6.7,-0.9 10.8,1.4 12.6,6.8 1.8,5.4 -0.1,11.4 3,16.5 2.8,4.9 2.3,9.4 -0.7,13.9"
   id="path36" />
	<path
   class="st1"
   d="m 244,501.4 c 0.4,-17.6 -8.2,-30.5 -21.1,-41.7 -3.9,-3.4 -7.9,-4.2 -13.2,-2.1 -5.2,2 -3.1,5.8 -3.8,9.8 -7.4,-6.1 -13,-1.1 -18.9,2.2 -1.8,1 -3.8,2 -5.5,3.1 -1.9,1.3 -2.7,1 -3.8,-1.2 -3.2,-6.4 -8.6,-10.8 -14.9,-14.3 -2.4,-1.3 -4.4,-1.3 -7.4,1 -6.4,5 -13.5,9.4 -21.4,11.6 -6,1.7 -6.1,4.9 -5.3,8 0.7,2.9 -0.3,6.8 4,8.3 5.7,1.9 8,5.9 7.9,11.4 -0.1,4.9 0,9.9 0,14.8 0,45.4 0,90.8 0,136.2 0,5.9 -0.8,11.6 -3.7,16.8 -3,5.5 -7.8,9 -14.5,9.6 1.8,4.9 3.5,9.4 6.1,13.5 0.6,1 0.7,3.2 2.8,2.1 7.6,-3.8 17.9,-3.9 21.8,-13.2 1.5,-3.5 3.7,-3.7 7.2,-2.6 2.9,0.9 5.9,2.2 9.3,0.7 6.8,-3 13.8,-5.6 20.7,-8.4 1.3,-0.5 2.7,-0.8 3,-2.5 0.7,-4.6 -0.6,-8.9 -2.1,-13.1 -0.8,-2.3 -3.8,-1 -5.6,-1.8 -2.9,-1.2 -3.9,-3.1 -4.2,-5.9 -1.2,-10 -0.2,-20.1 -0.7,-30.2 -0.2,-3.8 1.3,-5.2 4.9,-6.3 17.7,-5.5 34.9,-12 51.9,-19.3 4.8,-2.1 6.9,-4.7 6.8,-10 -0.7,-25.3 -0.9,-50.9 -0.3,-76.5 m -48.7,82 c -14.2,7.5 -15.3,7 -15.3,-7.9 v -34.8 c 0,-13.5 0,-26.9 0,-40.4 0,-4.9 3.9,-9.1 9.1,-9.6 7.1,-0.7 12.5,2.6 13.3,8.5 0.5,3.2 0.6,6.4 0.6,9.7 0,20.6 -0.2,41.3 0.2,61.9 0,6.2 -2.5,9.8 -7.9,12.6"
   id="path38" />
	<path
   class="st1"
   d="m 358.3,278 c -2.6,-2.2 -5.7,-3.7 -9.4,-2.7 -23.4,6.4 -46.1,14.6 -68.4,23.9 -2.8,1.2 -3.8,3 -3.8,6 0.2,31.9 -0.3,63.8 0.4,95.7 0.3,15.3 6.9,28.7 19,39.3 4.5,3.9 9.5,4.6 15.5,3.6 5.3,-0.9 7.5,-3.9 8.6,-8.4 0.7,-2.7 2.2,-3.5 4.8,-1.2 2.1,1.9 4.1,4.2 7.9,2.9 14.4,-5.2 28.8,-10.2 42.6,-16.6 3.6,-1.7 4.7,-3.9 4.7,-7.6 -0.2,-16.4 -0.1,-32.8 -0.1,-49.2 0,-14.5 -0.4,-29 0.1,-43.5 0.7,-17.9 -8.4,-31 -21.9,-42.2 m -16.7,104 c -3.7,6.3 -1.5,13 -1.9,19.5 -0.4,6.2 -2.2,8.6 -8.9,9.5 -5.7,0.8 -11.4,-2.2 -12.8,-7 -0.7,-2.3 -0.9,-4.7 -0.9,-7.1 -0.1,-13.3 0,-26.6 0,-39.9 0,-13.5 0.2,-26.9 -0.1,-40.4 -0.1,-3.7 1.4,-5.5 4.7,-6.9 7.5,-3 18.1,-0.1 17.9,10.9 -0.2,16.7 0,33.4 0.1,50.1 0,2.5 -0.5,5 1.4,7.3 0.7,1.1 1.1,3.1 0.5,4"
   id="path40" />
	<path
   class="st1"
   d="m 538.9,658.6 c -1.1,-2.8 -0.4,-6.8 -4.8,-8.2 -8.3,-2.7 -9.9,-5.1 -9.9,-13.6 0,-13.5 0,-27 0,-40.5 0,-12.6 -0.1,-25.3 0,-37.9 0.2,-13.7 -4.7,-25.7 -13.3,-36.4 -3.4,-4.3 -7.6,-7.6 -13.3,-9.1 -3.1,-0.8 -5.6,-1 -6.9,2.5 -0.7,1.9 -2,3 -3.9,1.1 -2.3,-2.2 -4.8,-1.7 -7.5,-0.9 -10.8,3.5 -21.7,7 -32.5,10.5 -6.9,2.3 -8,6.1 -5.9,12.9 1.4,4.4 3.6,5 7.7,4.9 7.7,-0.2 15.4,0.7 22.7,3.2 7.4,2.5 11.7,7.2 12.3,15.1 0.2,3.2 -1,4.2 -3.7,4.9 -5,1.4 -9.9,2.9 -14.8,4.5 -12.2,3.9 -24.1,8.5 -35.4,14.5 -5.7,3 -8.1,7.2 -8.7,13.9 -1.3,14.5 5.9,28.8 0.4,43.2 -0.3,0.7 0.1,1.7 0.2,2.5 2.2,16 12.1,26.8 25.9,35.1 2.2,1.3 3.6,0.4 5.3,-0.5 9.9,-5.1 19.9,-10.1 29.8,-15.2 2.2,-1.1 3.3,-1.5 4.6,1.4 2.9,6.3 8.3,10.5 14.5,13.9 2.3,1.2 4.2,1.2 6.5,0 9.1,-5 18.3,-10 27.7,-14.6 3.6,-1.8 4,-4.6 3,-7.2 m -51.6,-51.3 c -5.7,9.6 -1.9,20 -2.9,29.9 -0.7,7.6 -8.1,12.2 -15.6,8.9 -4.3,-2 -7.5,-5 -7.3,-10.2 0.3,-8 -0.2,-16 0.3,-24 0.8,-13.2 8.4,-21.3 22.5,-24.6 0.1,6.4 -0.3,12.8 2.4,18.7 0.3,0.4 0.8,1 0.6,1.3"
   id="path42" />
	<path
   class="st1"
   d="m 718.4,593.9 c -1.8,-6.5 0.2,-12.7 0.1,-19.1 -0.1,-6.5 -0.2,-13 0,-19.5 0.7,-18.5 -9.5,-31.2 -24.4,-41.2 -6.2,-4.2 -16.3,-0.3 -18.4,6.8 -3.3,-0.8 -5.6,-3.2 -9.3,-2 -15.6,5.4 -31.3,10.7 -46.4,17.2 -3.1,1.3 -4.5,3.1 -4.5,6.6 0.2,15 -0.5,30.1 0.4,45 0.4,6.6 0.9,12.8 0.1,19.5 -1.3,9.9 -0.8,20.1 -0.2,30.2 0.8,15.3 6.3,28.9 18.5,39.5 5,4.3 10.7,5.8 17.4,3.7 13.7,-4.4 27.5,-8.5 41.3,-12.7 7.2,-2.2 8.1,-5.6 6,-12.8 -1.3,-4.5 -3.8,-4.7 -7.4,-4.7 -6.1,0.1 -12.2,-0.8 -18.1,-2.1 -10.2,-2.4 -16.7,-9.2 -17.1,-17.3 -0.1,-2.2 0.5,-2.9 2.6,-3.5 5.2,-1.4 10.2,-3.1 15.3,-4.8 12.6,-4.3 25,-9.1 36.5,-15.7 5.3,-2.9 9.4,-6.8 7.6,-13.1 m -40.1,-14.5 c -0.1,14.1 -7.7,23.7 -22.6,27.9 0,-18.4 0.1,-36.5 -0.1,-54.5 0,-2.4 0.9,-3.6 3.1,-4.7 11.2,-5.5 19.6,-0.7 19.6,11.4 0.1,6.6 0.1,13.2 0,19.9"
   id="path44" />
</g>
</svg>
