<svg width="20" height="24" viewBox="0 0 20 24" fill="none" xmlns="http://www.w3.org/2000/svg">
<path d="M16.018 17.562C16.3285 17.2 16.4995 16.7389 16.5 16.262V5.5H3.5V20.5H12.58C12.8687 20.4999 13.154 20.4372 13.4162 20.3164C13.6784 20.1956 13.9113 20.0194 14.099 19.8L16.018 17.562Z" stroke="#262F59" stroke-linecap="round" stroke-linejoin="round"/>
<path d="M18.5 2.49981H13.052C12.7926 1.90677 12.3659 1.40222 11.8242 1.0479C11.2825 0.693588 10.6493 0.504883 10.002 0.504883C9.35471 0.504883 8.72146 0.693588 8.17976 1.0479C7.63806 1.40222 7.2114 1.90677 6.952 2.49981H1.5C1.23478 2.49981 0.98043 2.60517 0.792893 2.79271C0.605357 2.98024 0.5 3.2346 0.5 3.49981V22.4998C0.5 22.765 0.605357 23.0194 0.792893 23.2069C0.98043 23.3945 1.23478 23.4998 1.5 23.4998H18.5C18.7652 23.4998 19.0196 23.3945 19.2071 23.2069C19.3946 23.0194 19.5 22.765 19.5 22.4998V3.49981C19.5 3.2346 19.3946 2.98024 19.2071 2.79271C19.0196 2.60517 18.7652 2.49981 18.5 2.49981Z" stroke="#262F59" stroke-linecap="round" stroke-linejoin="round"/>
<path d="M13.5 8.5H6.5" stroke="#262F59" stroke-linecap="round" stroke-linejoin="round"/>
<path d="M13.5 12.5H6.5" stroke="#262F59" stroke-linecap="round" stroke-linejoin="round"/>
<path d="M11 16.5H6.5" stroke="#262F59" stroke-linecap="round" stroke-linejoin="round"/>
</svg>
