<svg version="1.1" id="Layer_1" xmlns:x="ns_extend;" xmlns:i="ns_ai;" xmlns:graph="ns_graphs;" xmlns="http://www.w3.org/2000/svg" xmlns:xlink="http://www.w3.org/1999/xlink" x="0px" y="0px" viewBox="0 0 263.1 43" style="enable-background:new 0 0 263.1 43;" xml:space="preserve">
 <style type="text/css">
  .st0{fill-rule:evenodd;clip-rule:evenodd;fill:#173361;}
 </style>
 <metadata>
  <sfw xmlns="ns_sfw;">
   <slices>
   </slices>
   <sliceSourceBounds bottomLeftOrigin="true" height="43" width="263.1" x="68.7" y="-221.7">
   </sliceSourceBounds>
  </sfw>
 </metadata>
 <g>
  <path class="st0" d="M76,24.3h2.4c-1,4.4-4.7,7.3-9.7,7.3c-5.9,0-10.6-4.4-10.6-10.1c0-5.8,4.7-10.1,10.6-10.1c5,0,8.7,2.9,9.7,7.3
		H76c-0.8-3.2-3.5-5.2-7.2-5.2c-4.6,0-8.2,3.4-8.2,8c0,4.6,3.6,8,8.2,8C72.4,29.5,75.1,27.4,76,24.3 M103.7,21.5
		c0,5.6-4.5,10.1-10.1,10.1s-10.1-4.5-10.1-10.1S88,11.4,93.6,11.4S103.7,15.9,103.7,21.5 M101.4,21.5c0-4.4-3.4-8-7.8-8
		c-4.4,0-7.8,3.6-7.8,8s3.4,8,7.8,8C98,29.5,101.4,25.9,101.4,21.5 M127.7,11.4v20.2h-1.9l-12.3-16v16h-2.2V11.4h1.8l12.4,16.2V11.4
		H127.7z M138.9,13.6V21h10.3v2.2h-10.3v8.5h-2.4V11.4h13.9v2.2H138.9z M172,29.4v2.2h-13.9V11.4h2.4v18.1H172z M193.5,22.8
		c0,5.3-3.5,8.9-8.9,8.9c-5.3,0-8.9-3.6-8.9-8.9V11.4h2.4v11.4c0,3.9,2.6,6.7,6.5,6.7c3.9,0,6.4-2.8,6.4-6.7V11.4h2.4V22.8z
		 M204.7,13.6v6.9h10.4v2.2h-10.4v6.8h11.6v2.2h-13.9V11.4h13.9v2.2H204.7z M239,11.4v20.2h-1.9l-12.3-16v16h-2.2V11.4h1.8
		l12.4,16.2V11.4H239z M263.1,13.6h-7.1v18.1h-2.2V13.6h-7.1v-2.2h16.4V13.6z M30.8,22.7c1.1-0.1,2.2-0.1,3.3-0.2v-0.8
		c-1.1-0.1-2.2-0.1-3.3-0.2l-3.3-0.1c-1.9-0.1-3.9-0.1-5.8-0.1c0-1.9,0-3.9-0.1-5.8l-0.1-3.3c-0.1-1.1-0.1-2.2-0.2-3.3h-0.9
		c-0.1,1.1-0.1,2.2-0.2,3.3l-0.1,3.3c0,0.9,0,1.8,0,2.7c-0.4-0.8-0.7-1.7-1.1-2.5l-1.4-3c-0.5-1-0.9-2-1.4-3L15.4,10
		c0.4,1.1,0.7,2.1,1.1,3.1l1.2,3.1c0.3,0.9,0.7,1.7,1,2.6c-0.7-0.6-1.3-1.3-2-1.9l-2.4-2.3c-0.8-0.7-1.6-1.5-2.5-2.2l-0.7,0.7
		c0.7,0.8,1.5,1.6,2.2,2.5l2.3,2.4c0.6,0.7,1.3,1.3,1.9,2c-0.8-0.3-1.7-0.7-2.6-1l-3.1-1.2c-1-0.4-2.1-0.8-3.1-1.1l-0.4,0.9
		c1,0.5,2,0.9,3,1.4l3,1.4c0.8,0.4,1.7,0.7,2.5,1.1c-0.9,0-1.8,0-2.7,0l-3.3,0.1c-1.1,0.1-2.2,0.1-3.3,0.2v0.9
		c1.1,0.1,2.2,0.1,3.3,0.2l3.3,0.1c2,0.1,3.9,0.1,5.8,0.1c0,1.9,0,3.9,0.1,5.8l0.1,3.3c0.1,1.1,0.1,2.2,0.2,3.3h0.8
		c0.1-1.1,0.1-2.2,0.2-3.3l0.1-3.3c0-0.9,0-1.9,0.1-2.8c0.4,0.9,0.7,1.7,1.1,2.6l1.4,3c0.5,1,0.9,2,1.4,3l0.8-0.3
		c-0.3-1.1-0.7-2.1-1.1-3.1L24.1,28c-0.3-0.9-0.7-1.7-1-2.6c0.7,0.7,1.3,1.3,2,1.9l2.4,2.3c0.8,0.7,1.6,1.5,2.5,2.2l0.6-0.6
		c-0.7-0.8-1.5-1.6-2.2-2.5l-2.3-2.4c-0.6-0.7-1.3-1.4-1.9-2c0.9,0.3,1.7,0.7,2.6,1l3.1,1.2c1,0.4,2.1,0.8,3.1,1.1l0.3-0.8
		c-1-0.5-2-1-3-1.4l-3-1.4c-0.9-0.4-1.7-0.8-2.6-1.1c0.9,0,1.9,0,2.8-0.1C27.5,22.8,30.8,22.7,30.8,22.7z">
  </path>
  <path class="st0" d="M21.5,43C9.6,43,0,33.4,0,21.5S9.6,0,21.5,0S43,9.6,43,21.5S33.4,43,21.5,43 M21.5,2C10.8,2,2,10.8,2,21.5
		S10.8,41,21.5,41S41,32.2,41,21.5S32.2,2,21.5,2">
  </path>
 </g>
</svg>