<svg width="701" height="215" viewBox="0 0 701 215" fill="none" xmlns="http://www.w3.org/2000/svg">
<path d="M72.8586 73.0155L72.8416 119.506L63.3523 135.872L46.0591 145.835H27.05L9.72615 136.11L-0.00146484 119.393V72.9814L72.8586 73.0155Z" fill="#20159E"/>
<path d="M99.652 145.756H118.668L135.992 136.027L145.726 119.304V100.195L145.662 73.144H145.58L145.662 73.0146H72.8594V145.756H99.652Z" fill="#642FFF"/>
<path d="M72.8594 46.2294V27.2187L82.5904 9.89628L99.3183 0.167969H118.43L145.491 0.229239V0.310932L145.621 0.229239V73.0146H72.8594V46.2294Z" fill="#20159E"/>
<path d="M244.308 139.394C231.877 140.599 226.657 140.122 216.967 140.412C207.277 140.701 199.834 139.237 194.124 136.885C188.414 134.533 183.934 130.785 180.685 125.635C177.437 120.489 175.854 114.488 174.914 107.499C174.008 100.77 173.542 91.8279 173.542 81.303C173.542 59.2492 175.227 43.8841 181.441 35.2076C187.655 26.5344 199.105 22.4328 215.793 22.1945C225.234 22.0617 231.874 22.0617 244.475 23.8828L243.804 43.302C232.824 42.4476 229.031 42.4476 220.917 42.6791C213.583 42.8901 208.346 43.6594 205.21 45.6167C202.075 47.5773 199.752 51.3012 198.241 56.7848C196.729 62.2719 196.923 71.619 196.923 84.8295C196.923 98.04 197.512 106.716 200.593 111.812C203.671 116.908 209.834 119.696 219.071 119.927C230.457 120.213 231.877 120.213 243.808 119.471L244.311 139.394H244.308Z" fill="#242424"/>
<path d="M259.081 63.9197C265.016 56.2542 274.924 52.418 288.812 52.418C302.7 52.418 312.605 56.2542 318.543 63.9197C324.478 71.5887 327.447 82.3654 327.447 96.2465C327.447 125.69 314.57 140.409 288.815 140.409C263.061 140.409 250.184 125.69 250.184 96.2465C250.184 82.3654 253.15 71.5887 259.088 63.9197H259.081ZM276.466 115.22C278.761 119.25 282.874 121.265 288.812 121.265C294.75 121.265 298.863 119.25 301.158 115.22C303.453 111.19 304.6 104.865 304.6 96.2465C304.6 87.6278 303.449 81.3578 301.158 77.44C298.863 73.5221 294.747 71.5614 288.812 71.5614C282.877 71.5614 278.761 73.5221 276.466 77.44C274.171 81.3612 273.024 87.6278 273.024 96.2465C273.024 104.865 274.171 111.193 276.466 115.22Z" fill="#242424"/>
<path d="M363.566 138.397H341.06V54.437H363.399V59.1378C371.012 54.6616 378.012 52.4219 384.396 52.4219C395.591 52.4219 403.32 55.7236 407.576 62.3306C411.829 68.9375 413.961 79.122 413.961 92.8941V138.401H391.455V93.5647C391.455 86.4029 390.614 81.1099 388.935 77.6958C387.256 74.2817 383.896 72.5763 378.857 72.5763C374.264 72.5763 369.841 73.3592 365.588 74.9284L363.572 75.599V138.404L363.566 138.397Z" fill="#242424"/>
<path d="M480.472 73.5772H459.811V108.001C459.811 111.36 459.897 113.74 460.063 115.139C460.23 116.538 460.847 117.743 461.912 118.75C462.975 119.758 464.626 120.262 466.866 120.262L479.631 119.928L480.639 137.897C473.135 139.575 467.425 140.416 463.506 140.416C453.427 140.416 446.543 138.149 442.845 133.615C439.151 129.081 437.302 120.714 437.302 108.511V73.584H427.391V54.4406H437.302V31.1001H459.811V54.4406H480.472V73.584V73.5772Z" fill="#242424"/>
<path d="M562.74 80.6299V115.557C562.961 118.243 563.41 120.122 564.085 121.184C564.755 122.249 566.155 123.005 568.283 123.451L567.612 140.409C561.902 140.409 557.336 140.014 553.921 139.235C550.503 138.452 547.06 136.883 543.591 134.534C535.528 138.452 527.299 140.412 518.899 140.412C501.541 140.412 492.862 131.236 492.862 112.872C492.862 103.916 495.27 97.5643 500.084 93.8132C504.898 90.0621 512.287 87.853 522.256 87.179L540.23 85.8345V80.6299C540.23 77.1613 539.447 74.782 537.878 73.492C536.308 72.2053 533.788 71.562 530.319 71.562L498.739 72.9065L498.068 57.2894C510.05 54.0455 521.442 52.4219 532.249 52.4219C543.056 52.4219 550.836 54.6616 555.596 59.1378C560.353 63.6173 562.736 70.7825 562.736 80.6333L562.74 80.6299ZM524.946 102.796C518.674 103.358 515.538 106.717 515.538 112.872C515.538 119.026 518.279 122.106 523.768 122.106C528.021 122.106 532.672 121.436 537.707 120.091L540.227 119.421V101.452L524.943 102.796H524.946Z" fill="#242424"/>
<path d="M583.761 43.6863V20.8496H606.271V43.6863H583.761ZM583.761 138.396V54.4358H606.271V138.396H583.761Z" fill="#242424"/>
<path d="M649.606 138.397H627.097V54.437H649.436V59.1378C657.049 54.6616 664.049 52.4219 670.433 52.4219C681.628 52.4219 689.354 55.7236 693.614 62.3306C697.866 68.9375 699.994 79.122 699.994 92.8941V138.401H677.485V93.5647C677.485 86.4029 676.644 81.1099 674.965 77.6958C673.287 74.2817 669.926 72.5763 664.887 72.5763C660.294 72.5763 655.871 73.3592 651.618 74.9284L649.603 75.599V138.404L649.606 138.397Z" fill="#242424"/>
<path d="M691.225 164.489C693.271 164.489 695.704 164.716 698.523 165.171L700.092 165.375L699.887 168.854C696.295 168.399 693.635 168.172 691.907 168.172C687.86 168.172 685.086 169.172 683.586 171.173C682.085 173.128 681.335 176.766 681.335 182.086C681.335 187.36 682.017 191.043 683.381 193.135C684.745 195.226 687.587 196.272 691.907 196.272L700.023 195.658L700.16 199.137C696.113 199.683 693.112 199.955 691.157 199.955C685.746 199.955 682.04 198.614 680.039 195.931C678.084 193.249 677.106 188.633 677.106 182.086C677.106 175.538 678.175 170.968 680.312 168.376C682.495 165.785 686.132 164.489 691.225 164.489Z" fill="#242424"/>
<path d="M664.286 199.274V165.171H668.31V199.274H664.286ZM664.286 156.646V151.53H668.31V156.646H664.286Z" fill="#242424"/>
<path d="M657.892 168.787H646.502V185.634C646.502 190.044 646.821 192.931 647.457 194.296C648.094 195.66 649.594 196.342 651.959 196.342L658.234 195.864L658.506 199.343C655.505 199.797 653.209 200.025 651.618 200.025C648.162 200.025 645.752 199.184 644.388 197.501C643.069 195.773 642.41 192.499 642.41 187.68V168.787H637.363V165.172H642.41V154.464H646.502V165.172H657.892V168.787Z" fill="#242424"/>
<path d="M629.112 195.865L631.158 195.66L631.295 199.002C626.156 199.639 621.814 199.957 618.267 199.957C613.357 199.912 609.924 198.457 607.968 195.592C606.013 192.728 605.036 188.317 605.036 182.36C605.036 170.447 609.719 164.491 619.086 164.491C623.587 164.491 626.952 165.787 629.18 168.378C631.408 170.925 632.522 175.017 632.522 180.655L632.386 183.929H609.196C609.196 188.112 609.901 191.227 611.311 193.273C612.766 195.274 615.221 196.274 618.677 196.274C622.178 196.274 625.656 196.138 629.112 195.865ZM609.196 180.519H628.43C628.43 176.017 627.68 172.812 626.179 170.902C624.724 168.992 622.36 168.037 619.086 168.037C615.857 168.037 613.402 169.038 611.72 171.038C610.037 172.994 609.196 176.154 609.196 180.519Z" fill="#242424"/>
<path d="M574.191 199.275H570.167V165.173H574.191V167.696C578.01 165.559 581.716 164.491 585.308 164.491C589.855 164.491 592.879 165.696 594.379 168.106C595.925 170.515 596.698 174.926 596.698 181.337V199.275H592.606V181.542C592.606 176.313 592.106 172.789 591.105 170.97C590.105 169.106 587.968 168.174 584.694 168.174C583.103 168.174 581.42 168.424 579.647 168.924C577.919 169.379 576.578 169.856 575.623 170.356L574.191 171.038V199.275Z" fill="#242424"/>
<path d="M519.333 165.172H523.494L532.565 195.728H535.02L544.16 165.172H548.32L533.588 214.621H529.496L534.065 199.275H529.359L519.333 165.172Z" fill="#242424"/>
<path d="M502.307 164.49C506.854 164.49 510.015 165.808 511.788 168.446C513.561 171.083 514.448 175.653 514.448 182.155C514.448 188.612 513.311 193.204 511.038 195.932C508.81 198.615 504.626 199.956 498.488 199.956C495.942 199.956 492.895 199.774 489.349 199.411L487.575 199.274V150.03H491.667V167.013C495.214 165.331 498.761 164.49 502.307 164.49ZM491.667 195.864C494.85 196.137 497.397 196.273 499.306 196.273C501.262 196.273 503.012 196 504.558 195.455C506.104 194.909 507.286 194 508.105 192.727C508.969 191.408 509.537 189.93 509.81 188.293C510.083 186.611 510.219 184.406 510.219 181.677C510.219 176.858 509.628 173.402 508.446 171.31C507.309 169.219 505.149 168.173 501.966 168.173C500.42 168.173 498.784 168.377 497.056 168.787C495.328 169.15 493.986 169.537 493.032 169.946L491.667 170.492V195.864Z" fill="#242424"/>
</svg>
