<svg width="18" height="24" viewBox="0 0 18 24" fill="none" xmlns="http://www.w3.org/2000/svg">
<path d="M1.435 0.913258L10.371 4.48626C10.5566 4.56039 10.7157 4.68842 10.8278 4.85383C10.9399 5.01923 10.9999 5.21444 11 5.41426V22.2623C10.9997 22.4255 10.9595 22.5862 10.8828 22.7303C10.8062 22.8744 10.6954 22.9976 10.5601 23.089C10.4249 23.1805 10.2693 23.2374 10.107 23.2549C9.94471 23.2724 9.7806 23.2498 9.629 23.1893L1.629 19.9893C1.4436 19.9152 1.28461 19.7873 1.17251 19.6221C1.06041 19.4569 1.00033 19.2619 1 19.0623V1.73926C1 1.47404 1.10536 1.21969 1.29289 1.03215C1.48043 0.844615 1.73478 0.739258 2 0.739258H16C16.2652 0.739258 16.5196 0.844615 16.7071 1.03215C16.8946 1.21969 17 1.47404 17 1.73926V18.7393C17 19.0045 16.8946 19.2588 16.7071 19.4464C16.5196 19.6339 16.2652 19.7393 16 19.7393H14" stroke="#262F59" stroke-linecap="round" stroke-linejoin="round"/>
<path d="M1.55078 0.845703L13.1868 3.0827C13.4152 3.12643 13.6212 3.2484 13.7694 3.42763C13.9176 3.60686 13.9987 3.83214 13.9988 4.0647V20.7397C13.9988 21.0049 13.8934 21.2593 13.7059 21.4468C13.5184 21.6343 13.264 21.7397 12.9988 21.7397H10.9988" stroke="#262F59" stroke-linecap="round" stroke-linejoin="round"/>
</svg>
