<?xml version="1.0" encoding="UTF-8"?>
<svg id="a" data-name="Layer 1" xmlns="http://www.w3.org/2000/svg" width="1515.1" height="683.6" viewBox="0 0 1515.1 683.6">
  <path d="m1513.07,15.98l-4.7-2.2c-1.6-.7-3.5-.2-4.4,1.3-8.3,12.5-19,24.2-22.8,37.9-10.8,38.9-19,78.5-26.5,118.1-3.3,17.5-7.8,29.5-24.6,40.9-27.5,18.7-50.4,39-73.2,63.5-17.3,18.7-16.3,41.6.8,54.2,1.6,1.2,2,3.4.8,5-.3.5-.8.9-1.3,1.1-47.8,22.5-97.5,18.4-121.8-10.2-1-1.3-1.1-3.1-.1-4.5,28.4-38.4,27.7-49.2-14.1-66.8-4.2-1.8-6.1.8-7.2,1.9-16.6,16.7-20.3,33.9-11.9,57.5,2,5.6-3.3,18.1-8.9,21.5-32.5,19.7-66,37.8-99.4,56.5-1.7,1-3.9.4-4.9-1.4-13.2-23.3-16.4-40.4,8.6-59.1,19.4-14.6,29.4-38.7,25.1-65.5-.3-1.9-2.1-3.2-4-3-42.3,4.6-58.7,25.3-61.9,74.5-.1,1.8-1.5,3.2-3.3,3.4-32.1,2.3-64.1,4.4-96,7-14.3,1.2-29.2,6.9-42.7,4.6-38.8-6.8-69.8-24.8-75.2-64.2-.2-1.4-1.1-2.5-2.5-3-44.2-14.2-67.2,10.7-92.4,38-35.8,38.7-54.9,36.8-70.4-14.8-1.5-4.9-2.6-10.2-5.2-14.5-2.9-4.7-6.3-9.1-10.1-13.2-3.7-4-9.9-1.1-11.3.6-3.7,4.3,0,7-1.6,12-7.6,22.9-37.6,46-62.5,46.4-11.3.2-22.7-8.5-24.7-19.6-5.2-30.1,27.1-73,57.7-76.2,9.1-1,14.2-4.4,20.6-8.5,1.8-1,2.4-3.2,1.4-5-.3-.6-.9-1.1-1.5-1.4-39.7-19.1-69,12.3-102.2,19.5-33.5,7.2-63.6,28.9-83.2,61.4-1,1.7-3.2,2.2-4.9,1.2-.9-.5-1.5-1.4-1.7-2.4-4-20.1-7.4-38.4-12.2-56.3-1.6-6-8.3-13.1-13.9-14.5-3.6-.9-12.8,7-14,12.2-10.5,45.5-38.8,80.8-67.9,114.7-13.4,15.6-36.6,29.7-52.3,35.8-5.2,2-15-.9-20.7-4.6-2.8-1.9-.2-12.4,2.5-17.7,8-15.9,18.7-30.5,25.9-46.7,18.4-41.6,35.6-83.7,52.8-125.8,1.9-4.8,3.3-9.7,4.4-14.8,1.5-6.3-2.5-12.5-8.7-14-.4-.1-.7-.2-1.1-.2-7.2-1-14.3-1.6-20.6.2-11.6,3.4-22.6,11.3-31.8,19.5-46,40.8-59.1,95.9-54.6,153,3.3,42-23.9,55.8-49.3,79.5-1.5,1.3-3.7,1.2-5.1-.3-.4-.4-.7-1-.8-1.6-2.7-11-4.9-18.5-5.7-26.2-4.3-42.1-7.2-84.3-12-126.3-10.7-94.4-2.3-184.1,60.5-261.5,1.1-1.3,1.1-3.1.1-4.4-13.1-16.3-23.7-6.4-31.1,7.1-23.2,41.9-42.6,83.9-47.7,132.7-2.2,20.9-5,54.8-8,83.7-.2,2-2,3.4-3.9,3.2-.2,0-.5-.1-.7-.1-25.4-8-48.7-12.7-70,10.4C6.17,302.48-8.23,370.28,4.17,444.08c1.2,7.1,7.3,16.7,13.5,19.3,20.7,8.4,50.5-14.3,52.5-37-2.1-.4-13,15.7-28.3,23.7-7.4,3.9-15.6.7-18.3-7.2-18.8-54.9,4.2-148.1,46.2-183.8,11.8-10,20.8-10.5,32.2-3.2,27.8,17.8,35.9,46.3,39.8,76.6,4.3,33.3,5.5,67.1,12.1,99.9,5,24.8,19.6,28.2,39.7,12.3,14.5-11.4,28.1-23.8,41.8-35.6,1.3-1.1,3.3-1.1,4.6,0,20.9,16.9,44.2,19.8,63,5.1,21.6-16.8,42.8-34.8,60.5-55.5,17.3-20,31-43.1,45.9-65.2,6.6-10.7,11.4-17.2,12.8,3.3,3.4,38.9,6.8,77.8,10.2,116.8.1,1.6,1.3,2.8,2.8,3.2,13.6,2.9,22.3-.5,22.1-18.3-.6-69.5,25.1-113.4,92.7-141.3,1.8-.8,3.9.1,4.7,1.9.4.9.4,2,0,2.9-5.3,11.3-9,17.8-11.3,29.8-3.8,19.5-7.7,38.1,3.4,55.7,6.1,9.6,33.3,11.9,48.5,8,17.9-4.6,33.5-17.9,52-29.4,1.7-1,3.9-.5,5,1.2.1.2.2.4.3.6,1.3,4,3,7.9,5,11.6,21.3,35.6,37.2,39.4,69.5,14.2,16.8-13.1,31.5-29.2,46.5-44.5,19-19.5,37.2-17.3,49.5,6.8,21.1,41.2,72.6,63.9,117.9,55,35.9-7.1,76-11,110.9-15.9,1.6-.2,3.4.6,3.8,2.1,4.1,18.3,9.2,28.4,14.6,40.3.8,1.8.1,3.8-1.7,4.7-45.4,22.8-89.4,45.7-134,67-38.1,18.2-70.3,43-96.6,76.2-24,30.2-22.7,61.8,6.4,86.5,15.3,13,29.5,24.6,48.7,35.9,41.8,24.6,138.6,21.2,180.7-15,42.6-36.7,67.3-80.6,54.8-138.1-8.3-38.1-19.5-74-32.3-111.9-.6-1.6,2.3-4.2,3.8-5l108.7-56.6c1.1-.6,2.3-.5,3.4,0,10,5.5,17.2,10.9,25.2,13.1,72,19.4,137.2-9.2,201.3-33.7,31.8-12.2,37.5-50.5,44.2-80.7,10.5-46.9,15.6-94.9,22.5-142.5,3.7-25.8,6.5-51.7,9.7-77.6.2-1.6-.6-3.1-2-3.8ZM250.77,358.58c-2.8-52.4,5-102.2,38.8-145.2,3.1-4,7.4-8.1,11.5-10.4,5.6-3.1,11.8-5,18.1-5.6,5.4-.7,7.6,5.5,7.8,8.8.5,6.6-2,14.8-4.2,19.8-20.3,46.4-42.1,89.3-63,135.4-4.1,8-8.9,2.6-9-2.8Zm852.7-75.3c13.4-2.3-23.5,60.9-28.6,39.2s28.6-39.2,28.6-39.2h0Zm11.7,285.8c-8.4,41.3-31.1,67.8-67,85.6-64.3,31.8-138.7,20.7-188.3-28-22.1-21.7-23.6-45.3-7.8-72.4,20.2-34.3,52.6-53.4,85.2-72.6,22.2-13.1,45.1-25.2,68.1-36.7,22.4-11.2,45.3-21.2,71.4-33.2.9-.4,2,0,2.4.9v.1c19.9,52.5,47.7,98.5,36,156.3h0Zm115.2-274.1c-.9,5.2-8.3,11.4-14.2,8.3-4.9-2.6.8-16.6,2.8-21.1.5-1.3,1.7-2.3,3.2-2.6,5.6-.8,9,10.8,8.2,15.4h0Zm168,11.4l-.3.1c-17.9,6.2-32.6-15.6-20.4-30.1.3-.3.6-.7.9-1,13.7-15.2,30-28.2,46-41.1,4-3.3,11.1-4.7,15.7-4.1,5,.6,8.3,16.3,10.2,25.7.2,1,.3,2.1.3,3.2.4,36-29.4,39.1-52.4,47.3h0Zm77.3-89.1c-4-2-5.4-10.4-3.5-23.9,6.4-50.9,6.6-55.5,18.9-108.4,3.4-11.3,7.4-19.8,10.7-19.2,1,1-20.9,150.8-26.1,151.5h0Z" style="stroke-width: 0px;"/>
</svg>