<svg width="274" height="48" viewBox="0 0 274 48" fill="none" xmlns="http://www.w3.org/2000/svg">
<g clip-path="url(#clip0_428_2768)">
<path d="M198.182 12.5547H191.801C190.112 12.5547 188.798 12.924 188.047 13.6624C187.297 14.4009 186.921 15.6932 186.921 17.3547V38.7701H183.168V16.9855C183.168 15.324 183.543 13.4778 184.294 12.1855C185.983 9.7855 189.173 9.23166 191.425 9.23166H198.182V12.5547ZM173.784 35.447C172.095 35.447 170.782 35.0778 170.031 34.3393C169.28 33.6009 168.905 32.4932 168.905 30.8317V12.5547H176.787V9.23166H168.905V0.370117H165.151V30.8317C165.151 32.4932 165.527 34.3393 166.277 35.6317C167.967 38.2163 170.969 38.5855 173.221 38.5855H180.165V35.2624C180.165 35.447 173.784 35.447 173.784 35.447ZM75.0693 0.370117V9.23166H67.1871C62.3076 9.23166 59.4926 10.7086 57.6158 12.3701C54.8008 14.9547 54.8008 18.8317 54.8008 19.2009V28.6163C54.8008 28.9855 54.8008 32.8624 57.6158 35.447C59.3049 37.1086 62.3076 38.5855 67.1871 38.5855H70.7528C73.0049 38.5855 76.1953 38.0317 77.6967 35.6317C78.635 34.3393 78.8227 32.4932 78.8227 30.8317V0.370117H75.0693ZM73.9432 34.3393C73.1926 35.0778 71.8789 35.447 70.1898 35.447H66.8117C63.6213 35.447 61.7446 34.524 60.6186 33.4163C59.3049 32.124 58.7419 30.2778 58.7419 28.9855V19.2009C58.7419 17.9086 59.3049 16.0624 60.6186 14.7701C61.7446 13.6624 63.809 12.7393 66.8117 12.7393H75.0693V30.8317C75.0693 32.4932 74.6939 33.6009 73.9432 34.3393ZM232.338 14.5855C233.464 13.4778 235.528 12.5547 238.531 12.5547H247.539V9.23166H238.906C234.027 9.23166 231.212 10.7086 229.335 12.3701C226.52 14.9547 226.52 18.8317 226.52 19.2009V28.6163C226.52 28.9855 226.52 32.8624 229.335 35.447C231.024 37.1086 234.027 38.5855 238.906 38.5855H247.539V35.2624H238.531C235.34 35.2624 233.464 34.3393 232.338 33.2317C231.024 31.9393 230.461 30.0932 230.461 28.8009V19.0163C230.461 17.724 230.836 15.8778 232.338 14.5855ZM161.21 19.2009C161.21 18.8317 161.21 14.9547 158.395 12.3701C156.706 10.7086 153.891 9.23166 149.012 9.23166H140.567V12.5547H149.387C152.577 12.5547 154.454 13.4778 155.58 14.5855C156.894 15.8778 157.457 17.724 157.457 19.0163V21.9701H145.446C143.194 21.9701 140.004 22.524 138.502 24.924C137.564 26.2163 137.376 28.0624 137.376 29.724V30.8317C137.376 32.4932 137.751 34.3393 138.502 35.6317C140.191 38.2163 143.194 38.5855 145.446 38.5855H153.141C155.393 38.5855 158.583 38.0317 160.084 35.6317C161.023 34.3393 161.21 32.4932 161.21 30.8317V19.2009ZM156.331 34.3393C155.58 35.0778 154.267 35.447 152.577 35.447H146.009C144.32 35.447 143.006 35.0778 142.256 34.3393C141.505 33.6009 141.13 32.4932 141.13 30.8317V30.0932C141.13 28.4317 141.505 27.1393 142.256 26.5855C143.006 26.0317 144.32 25.4778 146.009 25.4778H157.457V31.0163C157.457 32.4932 157.082 33.6009 156.331 34.3393ZM223.705 19.2009C223.705 18.8317 223.705 14.9547 220.89 12.3701C219.201 10.7086 216.198 9.23166 211.319 9.23166H202.873V12.5547H211.694C214.884 12.5547 216.761 13.4778 217.887 14.5855C219.201 15.8778 219.764 17.724 219.764 19.0163V21.9701H207.753C205.501 21.9701 202.31 22.524 200.809 24.924C199.871 26.2163 199.683 28.0624 199.683 29.724V30.8317C199.683 32.4932 200.058 34.3393 200.809 35.6317C202.498 38.2163 205.501 38.5855 207.753 38.5855H215.447C217.699 38.5855 220.89 38.0317 222.391 35.6317C223.33 34.3393 223.517 32.4932 223.517 30.8317C223.705 31.0163 223.705 21.2317 223.705 19.2009ZM218.638 34.3393C217.887 35.0778 216.573 35.447 214.884 35.447H208.316C206.627 35.447 205.313 35.0778 204.562 34.3393C203.812 33.6009 203.436 32.4932 203.436 30.8317V30.0932C203.436 28.4317 203.812 27.1393 204.562 26.5855C205.313 25.847 206.627 25.4778 208.316 25.4778H219.764V31.0163C219.764 32.4932 219.388 33.6009 218.638 34.3393ZM108.85 9.23166H104.909L95.3378 33.7855L85.7665 9.23166H81.8254L93.4611 38.7701L89.8953 47.6317H93.8364L108.85 9.23166ZM134.373 19.2009C134.373 18.8317 134.373 14.9547 131.558 12.3701C129.869 10.7086 127.054 9.23166 122.55 9.23166H122.175C117.671 9.23166 114.856 10.7086 113.167 12.3701C110.351 14.9547 110.351 18.8317 110.351 19.2009V38.7701H114.105V19.2009C114.105 17.9086 114.48 16.0624 115.982 14.7701C117.108 13.6624 119.36 12.7393 122.362 12.7393C125.365 12.7393 127.617 13.6624 128.743 14.7701C130.057 16.0624 130.62 17.9086 130.62 19.2009V38.7701H134.373V19.2009ZM270.998 12.3701C269.309 10.7086 266.494 9.23166 261.99 9.23166H261.614C257.11 9.23166 254.295 10.7086 252.606 12.3701C249.791 14.9547 249.791 18.8317 249.791 19.2009V28.6163C249.791 28.9855 249.791 32.8624 252.606 35.447C254.295 37.1086 257.11 38.5855 261.614 38.5855H270.435V35.2624H261.802C258.799 35.2624 256.547 34.3393 255.421 33.2317C254.108 31.9393 253.545 30.0932 253.545 28.8009V25.2932H273.813V19.2009C273.625 18.8317 273.625 14.9547 270.998 12.3701ZM253.545 21.9701V19.0163C253.545 17.724 253.92 15.8778 255.421 14.5855C256.547 13.4778 258.799 12.5547 261.802 12.5547C264.805 12.5547 267.057 13.4778 268.183 14.5855C269.497 15.8778 270.06 17.724 270.06 19.0163V21.9701H253.545Z" fill="#353535"/>
<path d="M16.3271 4.43089C15.764 7.56935 15.0134 12.3694 14.638 17.1694C13.8873 25.6617 14.2627 31.3847 14.2627 31.3847L2.06404 42.8309C2.06404 42.8309 1.12568 36.554 0.750342 29.354C0.562671 24.9232 0.375 21.0463 0.375 18.6463V18.277C0.375 18.0924 0.562671 16.6155 2.06404 14.954C3.94075 13.1078 16.5147 3.3232 16.3271 4.43089Z" fill="#1496FF"/>
<path d="M16.3271 4.43091C15.764 7.56937 15.0134 12.3694 14.638 17.1694C14.638 17.1694 1.12568 15.5078 0.375 18.8309C0.375 18.6463 0.562671 16.8001 2.25171 15.1386C3.94075 13.4771 16.5147 3.32322 16.3271 4.43091Z" fill="#1284EA"/>
<path d="M0.374694 17.9082V18.6466C0.562366 18.0928 0.750037 17.7235 1.31305 16.9851C2.25141 15.8774 3.75278 15.5082 4.50346 15.5082C7.88154 15.1389 12.5733 14.5851 17.6404 14.4005C26.0857 14.0312 31.9035 14.7697 31.9035 14.7697L44.1021 3.32354C44.1021 3.32354 37.7213 2.21584 30.4021 1.29277C25.7103 0.73892 21.3939 0.369689 19.1418 0.369689C18.9541 0.369689 17.2651 0.185074 15.7637 1.662C13.887 3.32354 5.25415 11.4466 1.68839 14.7697C0.187023 16.2466 0.374694 17.9082 0.374694 17.9082Z" fill="#B4DC00"/>
<path d="M43.54 32.4924C40.162 32.8616 35.4702 33.4155 30.4031 33.6001C21.9578 33.9693 16.14 33.2309 16.14 33.2309L3.94141 44.677C3.94141 44.677 10.3222 45.9693 17.6414 46.7078C22.1455 47.2616 26.0866 47.4463 28.3387 47.6309C28.5263 47.6309 28.714 47.4463 28.9017 47.4463C29.0894 47.4463 30.7784 47.077 32.2798 45.6001C34.1565 43.9386 44.4784 32.3078 43.54 32.4924Z" fill="#6F2DA8"/>
<path d="M43.5375 32.4923C40.1594 32.8616 35.4676 33.4154 30.4005 33.6C30.4005 33.6 31.3388 46.8923 28.1484 47.4462C28.3361 47.4462 30.5882 47.2616 32.0895 45.7846C33.9662 44.3077 44.4758 32.3077 43.5375 32.4923Z" fill="#591F91"/>
<path d="M28.8991 47.6314H28.1484C28.7115 47.4468 29.0868 47.2622 29.8375 46.893C31.1512 45.9699 31.5265 44.3083 31.7142 43.7545C32.2772 40.616 33.0279 35.816 33.4032 31.016C34.1539 22.5237 33.5909 16.8006 33.5909 16.8006L45.7895 5.35449C45.7895 5.35449 46.7279 11.6314 47.1032 18.8314C47.4786 23.4468 47.4786 27.693 47.4786 29.9083C47.4786 30.093 47.6662 31.7545 45.9772 33.2314C44.2882 34.893 35.6553 43.016 32.0895 46.3391C30.7758 47.816 29.0868 47.6314 28.8991 47.6314Z" fill="#73BE28"/>
</g>
<defs>
<clipPath id="clip0_428_2768">
<rect width="274" height="48" fill="white"/>
</clipPath>
</defs>
</svg>
