<?xml version="1.0" encoding="UTF-8"?>
<svg id="a" data-name="Layer 1" xmlns="http://www.w3.org/2000/svg" width="95.11mm" height="16.66mm" viewBox="0 0 269.61 47.23">
  <path d="m31.49,20.51h-15.81c-10.64,0-15.68,1.25-15.68,9.11s5.16,9.19,16.12,9.19h23.55V12.09h-8.18v8.43Zm0,12.53H15.19c-5.76,0-6.69-.4-6.69-3.43,0-3.63,2.1-3.63,7.5-3.63h15.49v7.05Zm85.3-12.53h-23.55v26.72h8.18v-8.42h15.81c10.64,0,15.68-1.25,15.68-9.11s-5.16-9.19-16.12-9.19Zm.12,12.81h-15.48v-7.05h16.29c5.76,0,6.69.4,6.69,3.43,0,3.63-2.1,3.63-7.5,3.63Zm91.42-12.81h-23.55v18.29h8.18v-12.53h16.3c5.76,0,6.69.4,6.69,3.43v9.11h8.5v-9.11c0-8.02-5.16-9.19-16.12-9.19Zm-130.57,9.39c0,3.47-2.62,3.39-7.38,3.39h-8.31c-5.04,0-7.29-.44-7.29-4.03v-8.74h-8.34v8.74c0,8.35,6.35,9.86,17.18,9.87h5.8c3.28,0,6.07-.24,8.38-.74v.72c0,2.82-1.53,3.34-5.68,3.34h-5.86v4.74h6.95c9.71,0,12.9-1.95,12.9-8.12v-18.56h-8.34v9.39Zm87.32-17.77h-6.95v4.73h5.86c4.15,0,5.68.53,5.68,3.35v.3h-15.69c-10.64,0-15.68,1.25-15.68,9.11s5.16,9.19,16.12,9.19h23.55v-20.43h-.13c-.65-4.7-4.12-6.25-12.77-6.25Zm4.59,20.92h-16.17c-5.76,0-6.69-.4-6.69-3.43,0-3.63,2.1-3.63,7.5-3.63h15.36v7.05Zm76.39-12.53c-10.96,0-16.12,1.17-16.12,9.19s5.04,9.11,15.68,9.11h15.69v.3c0,2.82-1.53,3.34-5.68,3.34h-5.86v4.74h6.95c8.65,0,12.11-1.56,12.77-6.26h.13v-20.42h-23.55Zm15.25,12.81h-15.36c-5.4,0-7.5,0-7.5-3.63,0-3.02.92-3.43,6.69-3.43h16.17v7.05ZM169.86,0h-3.73c-5.52,0-8.11.59-8.11,4.63s2.54,4.58,7.89,4.58h4.17c5.35,0,7.89-.63,7.89-4.58s-2.59-4.63-8.11-4.63Zm.06,6.45h-3.85c-2.72,0-3.77,0-3.77-1.83,0-1.52.47-1.73,3.37-1.73h4.66c2.9,0,3.37.2,3.37,1.73,0,1.83-1.05,1.83-3.77,1.83Z" style="fill: #231f20; stroke-width: 0px;"/>
</svg>