<?xml version="1.0" encoding="UTF-8"?>
<svg id="a" data-name="Layer 1" xmlns="http://www.w3.org/2000/svg" width="735.01" height="549.7" viewBox="0 0 735.01 549.7">
  <path d="m735,257.7c-.1-16.5-6.7-33.1-14.1-45.7,0,0-103.8-178.4-104.7-179.8l-.1-.2h0c-11.4-18.2-31.2-30.7-54-32H172.9c-22.8,1.3-42.5,13.7-54,32h0l-.1.2c-.9,1.4-104.7,179.8-104.7,179.8C6.7,224.6.1,241.3,0,257.7c-.2,23.7,11.1,44.9,28.6,58.1h0l271.5,207c21.4,15.5,42.1,26.9,67.4,26.9s46-11.4,67.4-26.9l271.5-206.9h0c17.5-13.3,28.8-34.5,28.6-58.2Z" style="fill: #010101; stroke-width: 0px;"/>
  <g>
    <path d="m121.3,287.6c18.2,0,32.9-3.2,32.9-3.2l1.8,9.6s-13,4-33.9,4c-30.7,0-46.1-5.6-46.1-47.9,0-12.6,1.8-24.4,4.8-31.5,5.4-12.6,17.4-16.4,38.9-16.4,16.6,0,28.7,1.8,34.9,9.4,5,6.4,7,15.2,7,30.9,0,3.6-.2,7-.4,10.8-3.4.2-16,1.6-31.1,1.6s-27.7-.8-27.7-.8l-6.2-4.2c-1.2-.8-2-1.4-3.6-1.4-3.8,0-3.4,3.6-3.4,6.2,0,8.4.2,19,6,25.4,4.9,5.5,13.7,7.5,26.1,7.5Zm-.4-75.3c-29.5,0-30.3,5.2-31.5,31.1,13.8,2.2,30.1,1.8,30.1,1.8,0,0,16.6.4,28.7-.8,0-29.1-5.6-32.1-27.3-32.1Z" style="fill: #fff; stroke-width: 0px;"/>
    <path d="m234.1,171.8s-6.4-.8-12.6-.8-12.4.4-15.2,3.4c-3,3.4-3.4,9.8-3.4,16.6v12.4h29.5v9.8h-29.5v70.7c0,2.6.4,3.2,2.8,3.6l5.2,1v8h-28.7v-7.7l5.2-1c2.4-.6,2.8-1.2,2.8-3.6v-70.9h-17.6v-9.8h17.6v-12.7c0-10,.6-19.6,9-25.4,5-3.6,13-4.2,20.4-4.2,7,0,15.2,1.4,15.2,1.4l-.7,9.2Z" style="fill: #fff; stroke-width: 0px;"/>
    <path d="m243.6,296.6v-7.8l5.2-1c2.4-.6,2.8-1.2,2.8-3.6v-68.1c0-2.6-.4-3.2-2.8-3.6l-5.2-1v-8h20.6v80.6c0,2.6.4,3.2,2.8,3.6l5.2,1v8h-28.6v-.1Zm4.2-118.2v-15.2h15.8v15.2h-15.8Z" style="fill: #fff; stroke-width: 0px;"/>
    <path d="m359.4,206.3l-1.6,9.4s-14.4-3.2-29.3-3.2c-25.4,0-31.1,5.6-31.1,37.7s5.6,37.7,31.1,37.7c14.8,0,29.3-3.2,29.3-3.2l1.6,9.4s-15.4,4-32.9,4c-31.3,0-42.3-8.4-42.3-47.9s11-47.9,42.3-47.9c17.5,0,32.9,4,32.9,4Z" style="fill: #fff; stroke-width: 0px;"/>
    <path d="m414.3,298c-35.9,0-42.3-8.4-42.3-47.9s6.4-47.9,42.3-47.9,42.3,8.4,42.3,47.9-6.4,47.9-42.3,47.9Zm0-85.7c-26.5,0-29.1,4-29.1,37.9s2.6,37.9,29.1,37.9,29.1-4,29.1-37.9c0-33.9-2.6-37.9-29.1-37.9Z" style="fill: #fff; stroke-width: 0px;"/>
    <path d="m543.2,296.6l-.8-5c-.2-1.2-.6-3.2-3.4-3.2-1.4,0-2.8,1-4,1.8l-9.6,6.4s-7.6,1.4-17,1.4c-30.5,0-35.5-19.6-35.5-47.9s4.8-47.9,37.1-47.9c15.2,0,29.5,2.6,32.1,3.2v-29.6c0-2.6-.4-3.2-2.8-3.6l-5.2-1v-8h20.6v120.8c0,2.6.4,3.2,2.8,3.6l5.2,1v8h-19.5Zm-1.3-81.7c-2.4-.4-15.8-2.4-27.9-2.4-23.2,0-28.1,7.8-28.1,37.7s4.8,37.5,28.1,37.5c14,0,27.9-4,27.9-4v-68.8Z" style="fill: #fff; stroke-width: 0px;"/>
    <path d="m618.7,287.6c18.2,0,32.9-3.2,32.9-3.2l1.8,9.6s-13,4-33.9,4c-30.7,0-46.1-5.6-46.1-47.9,0-12.6,1.8-24.4,4.8-31.5,5.4-12.6,17.4-16.4,38.9-16.4,16.6,0,28.7,1.8,34.9,9.4,5,6.4,7,15.2,7,30.9,0,3.6-.2,7-.4,10.8-3.4.2-16,1.6-31.1,1.6s-27.7-.8-27.7-.8l-6.2-4.2c-1.2-.8-2-1.4-3.6-1.4-3.8,0-3.4,3.6-3.4,6.2,0,8.4.2,19,6,25.4,4.8,5.5,13.6,7.5,26.1,7.5Zm-.4-75.3c-29.5,0-30.3,5.2-31.5,31.1,13.8,2.2,30.1,1.8,30.1,1.8,0,0,16.6.4,28.7-.8-.1-29.1-5.7-32.1-27.3-32.1Z" style="fill: #fff; stroke-width: 0px;"/>
  </g>
</svg>