<?xml version="1.0" encoding="UTF-8"?>
<svg id="a" data-name="Layer 1" xmlns="http://www.w3.org/2000/svg" width="132.58mm" height="21.25mm" viewBox="0 0 375.83 60.23">
  <path d="m67.47,9.36h11.33l14.09,30.9h-10.74l-2.04-5.03h-13.96l-2.04,5.03h-10.74l14.09-30.9Zm10.38,20.3l-4.71-12.23-4.76,12.23h9.47Z" style="fill: #005596; stroke-width: 0px;"/>
  <path d="m104.81,35.09c0,3.08-2.45,5.57-5.53,5.57s-5.57-2.49-5.57-5.57,2.49-5.53,5.57-5.53,5.53,2.45,5.53,5.53Z" style="fill: #005596; stroke-width: 0px;"/>
  <g>
    <path d="m117.94,9.35h23.15v6.53h-12.33v5.44h11.28v6.52h-11.28v5.89h12.51v6.53h-23.33V9.35Z" style="fill: #005596; stroke-width: 0px;"/>
    <path d="m143.76,16.33h9.42v3.13c2.58-2.54,4.71-3.53,7.7-3.53,5.26,0,8.2,3.22,8.2,8.52v15.81h-9.42v-13.1c0-2.4-.86-3.49-2.72-3.49-1.5,0-2.72.82-3.76,2.58v14h-9.42v-23.92Z" style="fill: #005596; stroke-width: 0px;"/>
    <path d="m195.24,21.04h-3.58c1.04,1.54,1.45,2.81,1.45,4.62,0,2.17-.82,3.85-2.18,5.21-3.67,3.67-7.61,1.86-7.61,3.9s5.94.59,9.38,4.03c1.18,1.18,1.77,2.54,1.77,4.17,0,3.99-3.94,7.75-12.78,7.75s-11.69-2.9-11.69-6.07c0-2.54,2.27-4.85,5.94-5.35v-.09c-1.36-.59-1.99-1.54-1.99-2.81,0-1.45,1-2.58,2.81-3.26-3.81-1.45-5.8-4.12-5.8-7.75,0-4.31,3.35-9.47,12.73-9.47h11.55v5.12Zm-13.28,7.61c2.26,0,3.99-1.5,3.99-3.49s-1.63-3.4-3.94-3.4-3.9,1.49-3.9,3.49,1.68,3.4,3.85,3.4Zm.09,18.4c3.17,0,4.85-1,4.85-2.95s-1.9-3.35-4.85-3.35c-2.72,0-4.53,1.27-4.53,3.22,0,1.81,1.13,3.08,4.53,3.08Z" style="fill: #005596; stroke-width: 0px;"/>
    <path d="m220.16,21.04h-3.58c1.04,1.54,1.45,2.81,1.45,4.62,0,2.17-.81,3.85-2.17,5.21-3.67,3.67-7.61,1.86-7.61,3.9s5.94.59,9.38,4.03c1.18,1.18,1.77,2.54,1.77,4.17,0,3.99-3.94,7.75-12.78,7.75s-11.69-2.9-11.69-6.07c0-2.54,2.26-4.85,5.94-5.35v-.09c-1.36-.59-1.99-1.54-1.99-2.81,0-1.45,1-2.58,2.81-3.26-3.8-1.45-5.8-4.12-5.8-7.75,0-4.31,3.35-9.47,12.73-9.47h11.56v5.12Zm-13.28,7.61c2.27,0,3.99-1.5,3.99-3.49s-1.63-3.4-3.94-3.4-3.9,1.49-3.9,3.49,1.68,3.4,3.85,3.4Zm.09,18.4c3.17,0,4.85-1,4.85-2.95s-1.9-3.35-4.85-3.35c-2.72,0-4.53,1.27-4.53,3.22,0,1.81,1.13,3.08,4.53,3.08Z" style="fill: #005596; stroke-width: 0px;"/>
    <path d="m244.49,40.57c-4.67.32-7.02-.18-8.47-2.22-2.27,1.54-4.89,2.31-7.84,2.31-5.35,0-7.61-2.76-7.61-5.84,0-1.45.63-2.9,1.81-4.08,2.54-2.54,9.74-2.9,12.28-4.85-.09-2.17-1.09-2.94-3.76-2.94-3.13,0-5.57,1.04-9.56,4.08v-7.02c3.44-2.81,6.98-4.08,11.28-4.08,5.53,0,10.74,2.27,10.74,8.29v6.8c0,2.4.18,3.13,2.85,3.17l-1.72,6.39Zm-9.83-10.69c-2.27,1.59-6.93,1.31-6.93,4.58,0,1.54,1.13,2.67,2.67,2.67s3.22-.63,4.49-1.63c-.18-.54-.23-1.13-.23-2.22v-3.4Z" style="fill: #005596; stroke-width: 0px;"/>
    <path d="m270.36,40.57c-4.67.32-7.02-.18-8.47-2.22-2.27,1.54-4.89,2.31-7.84,2.31-5.35,0-7.61-2.76-7.61-5.84,0-1.45.63-2.9,1.81-4.08,2.54-2.54,9.74-2.9,12.28-4.85-.09-2.17-1.09-2.94-3.76-2.94-3.13,0-5.57,1.04-9.56,4.08v-7.02c3.44-2.81,6.98-4.08,11.28-4.08,5.53,0,10.74,2.27,10.74,8.29v6.8c0,2.4.18,3.13,2.85,3.17l-1.72,6.39Zm-9.83-10.69c-2.27,1.59-6.93,1.31-6.93,4.58,0,1.54,1.13,2.67,2.67,2.67s3.22-.63,4.49-1.63c-.18-.54-.23-1.13-.23-2.22v-3.4Z" style="fill: #005596; stroke-width: 0px;"/>
    <path d="m281.52,16.33v6.39h.09c1.68-4.49,4.35-6.8,7.66-6.8,1.81,0,3.62.59,5.8,1.86l-4.17,9.51c-1.5-1.41-2.72-1.99-4.03-1.99-2.31,0-3.94,2.27-4.44,5.03v9.92h-9.42v-23.92h8.52Z" style="fill: #005596; stroke-width: 0px;"/>
    <path d="m319.97,40.25h-15.09c-7.38,0-12.14-4.89-12.14-12.14s4.89-12.19,12.14-12.19c1.99,0,3.58.27,5.67,1v-7.57h9.42v30.9Zm-9.42-16.09c-1.22-.32-2.31-.5-3.35-.5-2.99,0-5.03,1.81-5.03,4.53s2.13,4.31,5.39,4.31c.95,0,1.77-.14,2.99-.41v-7.93Z" style="fill: #005596; stroke-width: 0px;"/>
    <path d="m336.2,9.37h7.68l9.56,20.95h-7.28l-1.38-3.41h-9.46l-1.38,3.41h-7.28l9.55-20.95Zm7.04,13.76l-3.2-8.3-3.22,8.3h6.42Z" style="fill: #005596; stroke-width: 0px;"/>
    <path d="m358.46,10.74h4.35l-7.22,29.57h-4.27l7.14-29.57Z" style="fill: #005596; stroke-width: 0px;"/>
    <path d="m360.99,33.07c2.03,1.38,3.96,2.09,5.71,2.09,1.35,0,2.09-.61,2.09-1.44,0-2.27-7.8-2.58-7.8-8.72,0-2.64,1.84-6.3,7.4-6.3,2.49,0,4.52.67,6.61,2.24v5.53c-2.03-1.87-3.66-2.73-5.22-2.73-1.23,0-2.03.55-2.03,1.44,0,2.55,8.08,2.83,8.08,8.79,0,3.01-2.12,6.24-7.59,6.24-2.7,0-5.13-.46-7.25-1.44v-5.68Z" style="fill: #005596; stroke-width: 0px;"/>
    <rect x=".02" width="40.55" height="30.35" style="fill: #005596; stroke-width: 0px;"/>
    <rect x=".02" y="30.35" width="40.55" height="29.88" style="fill: #a4d7f4; stroke-width: 0px;"/>
    <polygon points="34.7 40.07 5.85 40.07 8.94 34.64 31.61 34.64 34.7 40.07" style="fill: #005596; fill-rule: evenodd; stroke-width: 0px;"/>
    <polygon points="40.57 50.53 0 50.53 3.32 44.63 37.26 44.63 40.57 50.53" style="fill: #005596; fill-rule: evenodd; stroke-width: 0px;"/>
    <polygon points="11.36 30.35 .02 30.35 15.18 9.1 25.86 9.1 40.57 30.35 29.2 30.35 27.19 26.6 13.34 26.6 11.36 30.35" style="fill: #fff; fill-rule: evenodd; stroke-width: 0px;"/>
    <polygon points="24.63 22.31 15.84 22.31 20.31 14.42 24.63 22.31" style="fill: #005596; fill-rule: evenodd; stroke-width: 0px;"/>
  </g>
</svg>