<?xml version="1.0" encoding="UTF-8"?>
<svg width="244px" height="58px" viewBox="0 0 244 58" version="1.1" xmlns="http://www.w3.org/2000/svg" xmlns:xlink="http://www.w3.org/1999/xlink">
    <title>FLOW_Logo_BLUE_rgb_new 2</title>
    <g id="Page-1" stroke="none" stroke-width="1" fill="none" fill-rule="evenodd">
        <g id="FLOW_Logo_BLUE_rgb_new" transform="translate(0.500000, 0.500000)" fill="#276EF1" fill-rule="nonzero" stroke="#006FFA">
            <polygon id="Path" points="79.7 54.3 49.2 54.3 49.2 1.4 55.5 1.4 55.5 48.6 79.7 48.6"></polygon>
            <path d="M226.5,56.1 C223.4,56.1 220.8,55.5 218.8,54.5 C216.8,53.4 215.1,52 213.9,50.3 C212.7,48.6 211.9,46.8 211.4,44.9 C211,43 210.7,41.2 210.7,39.5 L210.7,17.2 C210.7,15.7 210.5,14.3 210.2,12.9 C209.9,11.6 209.3,10.4 208.6,9.3 C207.9,8.3 206.9,7.5 205.7,6.8 C204.5,6.2 203,5.9 201.2,5.9 C199.4,5.9 197.9,6.2 196.7,6.8 C195.5,7.4 194.5,8.3 193.8,9.3 C193.1,10.3 192.5,11.5 192.2,12.9 C191.9,14.3 191.7,15.7 191.7,17.2 L191.7,39.5 C191.7,41.2 191.5,43 191,44.9 C190.5,46.8 189.7,48.7 188.5,50.3 C187.3,52 185.7,53.4 183.6,54.5 C181.6,55.6 179,56.1 175.9,56.1 C172.8,56.1 170.2,55.5 168.2,54.5 C166.2,53.4 164.6,52 163.4,50.3 C162.2,48.6 161.4,46.8 160.9,44.9 C160.5,43 160.2,41.2 160.2,39.5 L160.2,1.5 L166.4,1.5 L166.4,39 C166.4,40.5 166.6,41.9 166.9,43.3 C167.2,44.6 167.8,45.8 168.5,46.9 C169.2,47.9 170.2,48.7 171.4,49.4 C172.6,50 174.1,50.3 175.9,50.3 C177.7,50.3 179.2,50 180.4,49.4 C181.6,48.8 182.6,47.9 183.3,46.9 C184,45.9 184.6,44.7 184.9,43.3 C185.2,41.9 185.4,40.5 185.4,39 L185.4,16.7 C185.4,15 185.6,13.2 186.1,11.3 C186.6,9.4 187.4,7.5 188.6,5.9 C189.8,4.2 191.4,2.8 193.5,1.7 C195.5,0.6 198.1,0.1 201.2,0.1 C204.3,0.1 206.9,0.7 208.9,1.7 C210.9,2.8 212.5,4.2 213.7,5.9 C214.9,7.6 215.7,9.4 216.2,11.3 C216.6,13.2 216.9,15 216.9,16.7 L216.9,39 C216.9,40.5 217.1,41.9 217.4,43.3 C217.7,44.6 218.3,45.8 219,46.9 C219.7,47.9 220.7,48.7 221.9,49.4 C223.1,50 224.6,50.3 226.4,50.3 C228.2,50.3 229.7,50 230.9,49.4 C232.1,48.8 233.1,47.9 233.8,46.9 C234.5,45.9 235.1,44.7 235.4,43.3 C235.7,41.9 235.9,40.5 235.9,39 L235.9,1.5 L242.1,1.5 L242.1,39.5 C242.1,41.2 241.9,43 241.4,44.9 C240.9,46.8 240.1,48.7 238.9,50.3 C237.7,52 236.1,53.4 234.1,54.5 C232.2,55.6 229.6,56.1 226.5,56.1 Z" id="Path"></path>
            <polygon id="Path" points="6.2 54.3 0 54.3 0 1.4 32.3 1.4 32.3 7.1 6.3 7.1 6.3 24.1 30.5 24.1 30.5 29.7 6.2 29.7"></polygon>
            <path d="M116.8,55.6 C112.9,55.6 109.2,54.9 105.9,53.5 C102.6,52.1 99.6,50.2 97.2,47.7 C94.7,45.2 92.8,42.3 91.4,38.9 C90,35.5 89.3,31.8 89.3,27.8 C89.3,23.8 90,20.1 91.4,16.7 C92.8,13.3 94.7,10.4 97.2,7.9 C99.7,5.4 102.6,3.5 105.9,2.1 C109.2,0.7 112.9,0 116.8,0 C120.7,0 124.4,0.7 127.7,2.1 C131,3.5 134,5.4 136.4,7.9 L136.4,7.9 C138.9,10.4 140.8,13.3 142.2,16.7 C143.6,20.1 144.3,23.8 144.3,27.8 C144.3,31.8 143.6,35.5 142.2,38.9 C140.8,42.3 138.9,45.2 136.4,47.7 C133.9,50.2 131,52.1 127.7,53.5 C124.4,54.9 120.7,55.6 116.8,55.6 Z M116.8,5.7 C113.6,5.7 110.6,6.3 108,7.5 C105.4,8.7 103.2,10.3 101.4,12.3 C99.6,14.3 98.2,16.7 97.2,19.4 C96.2,22.1 95.8,24.9 95.8,27.9 C95.8,30.9 96.3,33.7 97.2,36.4 C98.1,39.1 99.5,41.4 101.4,43.4 C103.2,45.4 105.4,47 108,48.2 C110.6,49.4 113.5,50 116.8,50 C120,50 123,49.4 125.6,48.2 C128.2,47 130.4,45.4 132.2,43.4 C134,41.4 135.4,39 136.4,36.4 C137.4,33.7 137.8,30.9 137.8,27.9 C137.8,24.9 137.3,22.1 136.4,19.4 C135.4,16.7 134.1,14.4 132.2,12.3 C130.4,10.3 128.2,8.7 125.6,7.5 C123,6.3 120.1,5.7 116.8,5.7 Z" id="Shape"></path>
        </g>
    </g>
</svg>
