
<svg width="129" height="64" viewBox="0 0 129 64" fill="none" xmlns="http://www.w3.org/2000/svg">
<path d="M9.73559 22.5416C9.48438 22.5416 9.42157 22.4164 9.54718 22.2287L10.8661 20.539C10.9917 20.3512 11.3057 20.2261 11.5569 20.2261H33.978C34.2293 20.2261 34.2921 20.4138 34.1665 20.6016L33.0988 22.2287C32.9732 22.4164 32.6592 22.6042 32.4707 22.6042L9.73559 22.5416Z" fill="#00ACD7"/>
<path d="M0.255123 28.3009C0.00390625 28.3009 -0.058898 28.1757 0.0667105 27.988L1.3856 26.2983C1.51121 26.1105 1.82523 25.9854 2.07645 25.9854H30.7152C30.9664 25.9854 31.092 26.1731 31.0292 26.3608L30.5268 27.8628C30.464 28.1131 30.2128 28.2383 29.9615 28.2383L0.255123 28.3009Z" fill="#00ACD7"/>
<path d="M15.4543 34.0557C15.2031 34.0557 15.1403 33.868 15.2659 33.6803L16.1452 32.1157C16.2708 31.928 16.522 31.7402 16.7732 31.7402H29.3341C29.5853 31.7402 29.7109 31.928 29.7109 32.1783L29.5853 33.6803C29.5853 33.9306 29.3341 34.1183 29.1457 34.1183L15.4543 34.0557Z" fill="#00ACD7"/>
<path d="M80.6296 21.4139C76.6729 22.4152 73.9723 23.1662 70.0784 24.1675C69.1364 24.4178 69.0736 24.4804 68.2571 23.5417C67.315 22.4778 66.6242 21.7894 65.3053 21.1636C61.3486 19.2236 57.5176 19.7868 53.9377 22.1023C49.667 24.8559 47.4689 28.9237 47.5317 33.9928C47.5945 38.9993 51.0487 43.1297 56.0103 43.8181C60.281 44.3813 63.8608 42.8794 66.687 39.6877C67.2522 38.9993 67.7547 38.2483 68.3827 37.3722C66.1218 37.3722 63.2956 37.3722 56.2615 37.3722C54.9426 37.3722 54.6286 36.5586 55.0682 35.4948C55.8847 33.5547 57.392 30.3005 58.2712 28.6734C58.4596 28.2979 58.8993 27.6721 59.8413 27.6721C63.0444 27.6721 74.8516 27.6721 82.7021 27.6721C82.5765 29.3618 82.5765 31.0515 82.3253 32.7412C81.6344 37.247 79.9387 41.3774 77.1753 45.0071C72.6534 50.9524 66.7498 54.6447 59.2761 55.646C53.1213 56.4596 47.4061 55.2705 42.3817 51.5156C37.7342 48.0111 35.0964 43.38 34.4056 37.6225C33.5891 30.8011 35.5989 24.6682 39.744 19.2862C44.2031 13.4661 50.1067 9.77376 57.3292 8.45955C63.2328 7.39567 68.8852 8.08406 73.9723 11.526C77.3009 13.7164 79.6875 16.7203 81.2576 20.35C81.6344 20.9133 81.3832 21.2262 80.6296 21.4139Z" fill="#00ACD7"/>
<path d="M101.423 56.0221C95.7082 55.8969 90.4955 54.2698 86.0992 50.5149C82.3937 47.3232 80.0699 43.2554 79.3163 38.4367C78.1858 31.365 80.1327 25.1068 84.4034 19.5371C88.9881 13.5292 94.5149 10.4002 101.989 9.08595C108.395 7.95948 114.424 8.5853 119.888 12.2776C124.849 15.657 127.927 20.2255 128.743 26.2333C129.811 34.6818 127.362 41.5657 121.521 47.4484C117.376 51.6414 112.289 54.2698 106.448 55.4588C104.752 55.7718 103.056 55.8343 101.423 56.0221ZM116.371 30.7391C116.308 29.9256 116.308 29.2998 116.182 28.674C115.052 22.4784 109.337 18.9738 103.37 20.3506C97.5295 21.6648 93.7613 25.3571 92.3796 31.2398C91.2491 36.1212 93.6357 41.0651 98.1576 43.0677C101.612 44.5697 105.066 44.3819 108.395 42.6922C113.356 40.1264 116.057 36.1212 116.371 30.7391Z" fill="#00ACD7"/>
</svg>
