<svg width="130" height="50" viewBox="0 0 130 50" fill="none" xmlns="http://www.w3.org/2000/svg">
<g clip-path="url(#clip0_587_3561)">
<path d="M9.81176 15.5498C9.55859 15.5498 9.4953 15.4232 9.62188 15.2334L10.951 13.5245C11.0776 13.3346 11.394 13.208 11.6472 13.208H34.2421C34.4953 13.208 34.5586 13.3979 34.432 13.5878L33.3561 15.2334C33.2295 15.4232 32.913 15.6131 32.7232 15.6131L9.81176 15.5498Z" fill="#00ACD7"/>
<path d="M0.257071 21.374C0.00390625 21.374 -0.0593849 21.2475 0.0671974 21.0576L1.39631 19.3487C1.52289 19.1588 1.83935 19.0322 2.09251 19.0322H30.9533C31.2064 19.0322 31.333 19.2221 31.2697 19.412L30.7634 20.931C30.7001 21.1842 30.4469 21.3107 30.1938 21.3107L0.257071 21.374Z" fill="#00ACD7"/>
<path d="M15.5735 27.1943C15.3203 27.1943 15.257 27.0045 15.3836 26.8146L16.2697 25.2323C16.3963 25.0424 16.6494 24.8525 16.9026 24.8525H29.5608C29.814 24.8525 29.9406 25.0424 29.9406 25.2956L29.814 26.8146C29.814 27.0678 29.5608 27.2576 29.3709 27.2576L15.5735 27.1943Z" fill="#00ACD7"/>
<path d="M81.2549 14.409C77.2676 15.4217 74.546 16.1812 70.622 17.1939C69.6726 17.447 69.6093 17.5103 68.7865 16.5609C67.8372 15.485 67.141 14.7888 65.8119 14.1558C61.8245 12.1938 57.9638 12.7634 54.3562 15.1052C50.0524 17.8901 47.8372 22.0041 47.9005 27.1307C47.9638 32.1941 51.4448 36.3714 56.4448 37.0676C60.7486 37.6372 64.3562 36.1182 67.2043 32.8903C67.7739 32.1941 68.2802 31.4346 68.9131 30.5485C66.6346 30.5485 63.7865 30.5485 56.6979 30.5485C55.3688 30.5485 55.0524 29.7257 55.4954 28.6497C56.3182 26.6877 57.8372 23.3965 58.7232 21.7509C58.9131 21.3712 59.3562 20.7382 60.3055 20.7382C63.5334 20.7382 75.4321 20.7382 83.3435 20.7382C83.2169 22.4471 83.2169 24.156 82.9638 25.8649C82.2676 30.4219 80.5587 34.5992 77.7739 38.2701C73.2169 44.2829 67.2676 48.0171 59.7359 49.0298C53.5334 49.8526 47.7739 48.6501 42.7106 44.8525C38.027 41.3082 35.3688 36.6246 34.6726 30.8017C33.8498 23.9028 35.8751 17.7002 40.0524 12.2571C44.546 6.37091 50.4954 2.63668 57.7739 1.30754C63.7233 0.231578 69.4195 0.927792 74.546 4.40886C77.9005 6.62408 80.3055 9.66211 81.8878 13.3331C82.2676 13.9027 82.0144 14.2191 81.2549 14.409Z" fill="#00ACD7"/>
<path d="M102.211 49.4104C96.451 49.2838 91.1979 47.6382 86.7675 43.8407C83.0333 40.6128 80.6915 36.4988 79.932 31.6253C78.7928 24.4733 80.7548 18.1441 85.0586 12.5111C89.6789 6.43505 95.2485 3.27044 102.78 1.94131C109.236 0.802047 115.312 1.43497 120.818 5.1692C125.818 8.58698 128.919 13.2073 129.742 19.2833C130.818 27.8278 128.35 34.7899 122.464 40.7394C118.286 44.98 113.16 47.6382 107.274 48.8408C105.565 49.1572 103.856 49.2205 102.211 49.4104ZM117.274 23.8404C117.211 23.0176 117.211 22.3847 117.084 21.7517C115.945 15.4858 110.185 11.9415 104.173 13.3339C98.2865 14.663 94.489 18.3973 93.0966 24.3467C91.9573 29.2835 94.3624 34.2836 98.9194 36.3089C102.4 37.8279 105.881 37.6381 109.236 35.9292C114.236 33.3342 116.957 29.2835 117.274 23.8404Z" fill="#00ACD7"/>
</g>
<defs>
<clipPath id="clip0_587_3561">
<rect width="130" height="48.5451" fill="white" transform="translate(0 0.867188)"/>
</clipPath>
</defs>
</svg>
