<svg width="132" height="56" viewBox="0 0 132 56" fill="none" xmlns="http://www.w3.org/2000/svg">
<g clip-path="url(#clip0_428_2798)">
<path d="M0 0H132V56H0V0Z" fill="#004153"/>
<path fill-rule="evenodd" clip-rule="evenodd" d="M12.7734 41.0746H18.9914V14.8564H12.7734V41.0746Z" fill="#FF9C66"/>
<path fill-rule="evenodd" clip-rule="evenodd" d="M55.107 14.8564V30.8493L43.8359 14.8564H41.2408H38.1825H38.1541V30.8493L26.8831 14.8564H21.2305V41.0746H27.1304V25.0817L38.4015 41.0746H39.3849H42.7229H44.0833V25.0817L55.3544 41.0746H61.0253V14.8564H55.107Z" fill="#FF9C66"/>
<path fill-rule="evenodd" clip-rule="evenodd" d="M76.1212 14.2461C68.401 14.2461 62.9336 19.9973 62.9336 27.8036C62.9336 35.6091 68.401 41.3612 76.1212 41.3612C83.8411 41.3612 89.3089 35.6091 89.3089 27.8036C89.3089 19.9973 83.8411 14.2461 76.1212 14.2461ZM76.1212 20.2221C80.1958 20.2221 83.0904 23.3221 83.0904 27.8036C83.0904 32.2852 80.1958 35.3852 76.1212 35.3852C72.0463 35.3852 69.1516 32.2852 69.1516 27.8036C69.1516 23.3221 72.0463 20.2221 76.1212 20.2221Z" fill="#FF9C66"/>
<path fill-rule="evenodd" clip-rule="evenodd" d="M104.219 14.7627C96.499 14.7627 91.0312 20.5139 91.0312 28.3202C91.0312 36.1256 96.499 41.8777 104.219 41.8777C106.846 41.8777 109.097 41.1114 111.009 39.8609L112.117 41.3918H119.14L115.191 35.7898C116.585 33.7165 117.407 31.2518 117.407 28.3202C117.407 20.5139 111.939 14.7627 104.219 14.7627ZM104.219 20.7387C108.293 20.7387 111.188 23.8386 111.188 28.3202C111.188 29.1794 111.081 29.9821 110.884 30.7294L110.081 29.5899H103.576L107.524 35.1172C106.56 35.6214 105.434 35.9018 104.219 35.9018C100.144 35.9018 97.2493 32.8018 97.2493 28.3202C97.2493 23.8386 100.144 20.7387 104.219 20.7387Z" fill="white"/>
</g>
<defs>
<clipPath id="clip0_428_2798">
<rect width="132" height="56" fill="white"/>
</clipPath>
</defs>
</svg>
