<svg xmlns="http://www.w3.org/2000/svg" width="48" height="48" viewBox="0 0 48 48"><g fill="currentColor" class="nc-icon-wrapper"><path d="M24 6.784c5.607 0 6.271.021 8.486.122a11.65 11.65 0 0 1 3.9.723 6.954 6.954 0 0 1 3.986 3.986 11.65 11.65 0 0 1 .723 3.9c.1 2.215.122 2.879.122 8.486s-.021 6.271-.122 8.486a11.65 11.65 0 0 1-.723 3.9 6.954 6.954 0 0 1-3.986 3.986 11.65 11.65 0 0 1-3.9.723c-2.214.1-2.878.122-8.486.122s-6.272-.021-8.486-.122a11.65 11.65 0 0 1-3.9-.723 6.954 6.954 0 0 1-3.986-3.986 11.65 11.65 0 0 1-.723-3.9c-.1-2.215-.122-2.879-.122-8.486s.021-6.271.122-8.486a11.65 11.65 0 0 1 .723-3.9 6.954 6.954 0 0 1 3.986-3.986 11.65 11.65 0 0 1 3.9-.723c2.215-.1 2.879-.122 8.486-.122M24 3c-5.7 0-6.418.024-8.658.126a15.418 15.418 0 0 0-5.1.976 10.287 10.287 0 0 0-3.717 2.423A10.287 10.287 0 0 0 4.1 10.244a15.418 15.418 0 0 0-.976 5.1C3.024 17.582 3 18.3 3 24s.024 6.418.126 8.658a15.418 15.418 0 0 0 .976 5.1 10.287 10.287 0 0 0 2.423 3.719 10.287 10.287 0 0 0 3.719 2.423 15.418 15.418 0 0 0 5.1.976c2.24.1 2.955.126 8.658.126s6.418-.024 8.658-.126a15.418 15.418 0 0 0 5.1-.976 10.749 10.749 0 0 0 6.14-6.144 15.418 15.418 0 0 0 .976-5.1C44.976 30.418 45 29.7 45 24s-.024-6.418-.126-8.658a15.418 15.418 0 0 0-.976-5.1 10.287 10.287 0 0 0-2.423-3.719A10.287 10.287 0 0 0 37.756 4.1a15.418 15.418 0 0 0-5.1-.976C30.418 3.024 29.7 3 24 3Z"/><path d="M24 13.216A10.784 10.784 0 1 0 34.784 24 10.784 10.784 0 0 0 24 13.216ZM24 31a7 7 0 1 1 7-7 7 7 0 0 1-7 7Z"/><circle cx="35.21" cy="12.79" r="2.52"/></g></svg>
