<?xml version="1.0" encoding="UTF-8"?>
<svg xmlns="http://www.w3.org/2000/svg" xmlns:xlink="http://www.w3.org/1999/xlink" version="1.1" viewBox="0 0 351 83">
  <defs>
    <style>
      .cls-1 {
        fill: none;
      }

      .cls-2 {
        fill: #050505;
      }

      .cls-3 {
        stroke: #000;
        stroke-width: 1px;
      }

      .cls-4 {
        fill: #0000d8;
      }

      .cls-5 {
        clip-path: url(#clippath);
      }
    </style>
    <clipPath id="clippath">
      <rect class="cls-1" x="212" y="57" width="58.9" height="16.1"/>
    </clipPath>
  </defs>
  <!-- Generator: Adobe Illustrator 28.6.0, SVG Export Plug-In . SVG Version: 1.2.0 Build 709)  -->
  <g>
    <g id="Layer_1">
      <g class="cls-5">
        <path class="cls-2" d="M226.2,58.4h3.1v14.2h-3.1v-14.2ZM254.3,62.5c0-.1-1.1-.8-2.6-.8s-3.4,1.6-3.4,3.8,1.4,3.8,3.4,3.8,2.5-.7,2.6-.8v3.9c-.4.1-1.5.5-2.8.5-3.5,0-6.6-2.7-6.6-7.4s2.7-7.4,6.6-7.4,2.6.5,2.8.5v4.1ZM221.9,62.5c0-.1-1.1-.8-2.7-.8s-3.4,1.6-3.4,3.8,1.4,3.8,3.4,3.8,2.5-.7,2.7-.8v3.9c-.4.1-1.5.5-2.8.5-3.4,0-6.6-2.7-6.6-7.4s2.7-7.4,6.6-7.4,2.6.5,2.8.5v4.1ZM270.5,65.6c0,4.1-2.7,7.4-6.5,7.4s-6.5-3.3-6.5-7.4,2.7-7.4,6.5-7.4,6.5,3.3,6.5,7.4ZM264,61.8c-1.9,0-3.2,1.7-3.2,3.8s1.4,3.8,3.2,3.8,3.2-1.7,3.2-3.8-1.4-3.8-3.2-3.8ZM241,61.7s-1.4-.5-2.5-.5-2,.5-2,1.1.9,1.1,1.4,1.4l.9.3c2,.8,2.9,2.4,2.9,4.1,0,3.5-2.7,4.8-5.1,4.8s-3.2-.3-3.3-.3v-3.3c.3.1,1.6.6,2.9.6s2.3-.6,2.3-1.4-.6-1.1-1.4-1.4c-.2-.1-.5-.2-.7-.2-1.8-.7-3.1-1.8-3.1-4.2s1.8-4.4,4.6-4.4,2.9.5,3,.5v3Z"/>
      </g>
      <path class="cls-2" d="M205,60v2h-7.1v-2h7.1ZM199.8,72.5v-14c0-.8.2-1.4.5-1.9.3-.5.8-.9,1.4-1.2.6-.3,1.2-.4,1.8-.4s.9,0,1.3.1c.3,0,.6.1.8.2l-.6,2c-.1,0-.3,0-.4-.1-.2,0-.4,0-.7,0-.6,0-1,.1-1.3.4-.2.3-.4.7-.4,1.3v13.6h-2.4Z"/>
      <path class="cls-2" d="M190.4,72.8c-1.2,0-2.2-.3-3.1-.8-.9-.5-1.6-1.3-2-2.3-.5-1-.7-2.1-.7-3.4s.2-2.4.7-3.4c.5-1,1.2-1.7,2-2.3.9-.5,1.9-.8,3.1-.8s2.2.3,3.1.8c.9.5,1.6,1.3,2,2.3.5,1,.7,2.1.7,3.4s-.2,2.4-.7,3.4c-.5,1-1.2,1.7-2,2.3-.9.5-1.9.8-3.1.8ZM190.5,70.7c.8,0,1.4-.2,1.9-.6s.9-.9,1.1-1.6c.2-.7.4-1.4.4-2.2s-.1-1.5-.4-2.2c-.2-.7-.6-1.2-1.1-1.6-.5-.4-1.1-.6-1.9-.6s-1.4.2-1.9.6c-.5.4-.9.9-1.1,1.6-.2.7-.4,1.4-.4,2.2s.1,1.5.4,2.2c.2.7.6,1.2,1.1,1.6.5.4,1.1.6,1.9.6Z"/>
      <path class="cls-2" d="M176.4,60v2h-6.8v-2h6.8ZM171.4,57h2.4v11.8c0,.5,0,.8.2,1.1.1.2.3.4.5.5.2,0,.5.1.7.1s.4,0,.5,0c.1,0,.3,0,.3,0l.4,2c-.1,0-.3.1-.6.2-.3,0-.6,0-1,0-.6,0-1.2-.1-1.8-.3-.6-.2-1-.6-1.3-1.1s-.5-1.1-.5-1.9v-12.3Z"/>
      <path class="cls-2" d="M161,72.5v-12.5h2.4v2h.1c.2-.7.6-1.2,1.2-1.6.6-.4,1.2-.6,2-.6s.3,0,.5,0c.2,0,.4,0,.5,0v2.3c0,0-.3,0-.5,0-.2,0-.5,0-.8,0-.6,0-1.1.1-1.5.4-.4.2-.8.6-1.1,1-.3.4-.4.9-.4,1.5v7.6h-2.4Z"/>
      <path class="cls-2" d="M151.6,72.8c-.8,0-1.5-.1-2.2-.4-.6-.3-1.1-.7-1.5-1.3-.4-.6-.6-1.3-.6-2.1s.1-1.3.4-1.7c.3-.5.6-.8,1.1-1.1.5-.3,1-.5,1.5-.6.6-.1,1.2-.2,1.7-.3.7,0,1.4-.2,1.8-.2.5,0,.8-.2,1-.3.2-.1.3-.3.3-.6h0c0-.8-.2-1.3-.6-1.7-.4-.4-1-.6-1.8-.6s-1.5.2-1.9.5c-.5.4-.8.8-1,1.2l-2.3-.5c.3-.8.7-1.4,1.2-1.8.5-.5,1.1-.8,1.8-1,.7-.2,1.4-.3,2.2-.3s1,0,1.6.2c.6.1,1.1.3,1.6.6.5.3.9.8,1.2,1.3.3.6.5,1.3.5,2.2v8.3h-2.4v-1.7h0c-.2.3-.4.6-.7.9-.3.3-.7.6-1.2.8-.5.2-1.1.3-1.8.3ZM152.1,70.8c.7,0,1.2-.1,1.7-.4.5-.3.9-.6,1.1-1,.3-.4.4-.9.4-1.4v-1.6c0,0-.3.2-.5.2-.2,0-.5.1-.8.2-.3,0-.6,0-.9.1-.3,0-.5,0-.7,0-.5,0-.9.2-1.3.3-.4.1-.7.3-.9.6-.2.3-.3.6-.3,1s.2,1.1.7,1.4c.4.3,1,.5,1.7.5Z"/>
      <path class="cls-2" d="M133.8,77.2v-17.2h2.4v2h.2c.1-.3.3-.6.6-.9.3-.3.6-.6,1.1-.9.5-.3,1.1-.4,1.9-.4s1.9.3,2.7.8c.8.5,1.4,1.2,1.9,2.2.5,1,.7,2.1.7,3.5s-.2,2.5-.7,3.5c-.5,1-1.1,1.7-1.9,2.2-.8.5-1.7.8-2.7.8s-1.4-.1-1.9-.4c-.5-.3-.9-.6-1.1-.9-.3-.3-.5-.6-.6-.9h-.1v6.6h-2.4ZM136.2,66.2c0,.9.1,1.7.4,2.3.3.7.6,1.2,1.1,1.6.5.4,1.1.6,1.8.6s1.3-.2,1.8-.6c.5-.4.9-.9,1.1-1.6.3-.7.4-1.4.4-2.3s-.1-1.6-.4-2.2c-.2-.7-.6-1.2-1.1-1.6-.5-.4-1.1-.6-1.8-.6s-1.3.2-1.8.5c-.5.4-.9.9-1.1,1.5-.2.7-.4,1.4-.4,2.3Z"/>
      <path class="cls-2" d="M111.5,72.5l-3.7-12.5h2.5l2.5,9.2h.1l2.5-9.2h2.5l2.4,9.1h.1l2.4-9.1h2.5l-3.7,12.5h-2.5l-2.5-9h-.2l-2.5,9h-2.5Z"/>
      <path class="cls-2" d="M100.6,72.8c-1.2,0-2.2-.3-3.1-.8-.9-.5-1.6-1.3-2-2.3-.5-1-.7-2.1-.7-3.4s.2-2.4.7-3.4c.5-1,1.2-1.7,2-2.3.9-.5,1.9-.8,3.1-.8s2.2.3,3.1.8c.9.5,1.6,1.3,2,2.3.5,1,.7,2.1.7,3.4s-.2,2.4-.7,3.4c-.5,1-1.2,1.7-2,2.3-.9.5-1.9.8-3.1.8ZM100.6,70.7c.8,0,1.4-.2,1.9-.6.5-.4.9-.9,1.1-1.6.2-.7.4-1.4.4-2.2s-.1-1.5-.4-2.2c-.2-.7-.6-1.2-1.1-1.6-.5-.4-1.1-.6-1.9-.6s-1.4.2-1.9.6c-.5.4-.9.9-1.1,1.6-.2.7-.4,1.4-.4,2.2s.1,1.5.4,2.2c.2.7.6,1.2,1.1,1.6.5.4,1.1.6,1.9.6Z"/>
      <path class="cls-2" d="M84.1,65.1v7.4h-2.4v-12.5h2.3v2h.2c.3-.7.7-1.2,1.4-1.6.6-.4,1.4-.6,2.3-.6s1.6.2,2.2.5c.6.4,1.1.9,1.5,1.6.4.7.5,1.6.5,2.6v8h-2.4v-7.7c0-.9-.2-1.6-.7-2.1-.5-.5-1.1-.8-1.9-.8s-1.1.1-1.5.4c-.4.2-.8.6-1,1.1-.2.5-.4,1-.4,1.7Z"/>
      <path class="cls-3" d="M20.3,35.5l-.2.4h0s0,0,0,0h0s0,0,0,0h0s0,0,0,0c0,0,0,0,0,0,0,0,.2,0,.3.1.2,0,.5.2.8.3,3.9,1.7,8.1,2.6,12.6,2.6h0c2.7,0,5.1-.5,7.2-1.3h0s0,0,0,0c2.1-.9,3.7-2.2,4.9-3.8,1.2-1.6,1.8-3.5,1.8-5.5s-.7-4.5-1.9-6h0s0,0,0,0c-1.3-1.4-2.8-2.5-4.5-3.2-1.7-.7-4-1.4-6.7-2h0s0,0,0,0c-2.1-.5-3.8-.9-5-1.3-1.2-.4-2.1-1-2.9-1.7-.7-.7-1.1-1.6-1.1-2.7,0-1.6.7-3,2.4-3.9h0s0,0,0,0c1.6-1,3.8-1.5,6.4-1.5s5.5.5,8.2,1.4c.2,0,.4.1.6.2,0,0,.2,0,.2,0h0s0,0,0,0h0s0,0,0,0h0s0,0,0,0h0s.1-.5.1-.5v.5c-.1,0,.3.1.3.1l.2-.4,1.6-4v-.3c.1,0-.1-.2-.1-.2l-.3.3q.3-.3.3-.3h0s0,0,0,0h0s0,0,0,0c0,0,0,0,0,0,0,0,0,0,0,0,0,0,0,0,0,0,0,0,0,0-.2,0-.2,0-.4-.2-.9-.3-3.2-1.2-6.7-1.8-10.6-1.8s-5.5.5-7.6,1.5c-2.1.9-3.7,2.3-4.8,4-1.1,1.7-1.6,3.5-1.6,5.7s.7,4.4,2,5.9c1.3,1.4,2.8,2.5,4.7,3.2,1.8.7,4.1,1.4,6.9,2.2h0s0,0,0,0c2.1.5,3.7,1,4.9,1.4,1.1.4,2,.9,2.8,1.5.7.6,1,1.3,1,2.2,0,1.8-.7,3.2-2.1,4.1-1.4.9-3.6,1.4-6.6,1.4s-6.9-.7-10.1-2.1c-.2-.1-.4-.2-.6-.3-.1,0-.2,0-.3-.1,0,0,0,0,0,0h0s0,0,0,0h0s0,0,0,0h0s0,0,0,0l-.2.4.2-.4-.4-.2-.2.4-1.8,4-.2.4.4.2.2-.4Z"/>
      <path class="cls-3" d="M59,19.7h0s0,0,0,0c0,3.7.9,7,2.4,9.9,1.5,2.9,3.7,5.2,6.6,6.8,2.8,1.7,6.2,2.5,9.9,2.5s7-.8,9.8-2.5c2.8-1.6,5-3.9,6.6-6.8,1.6-2.9,2.4-6.2,2.5-9.9h0s0,0,0,0c-.1-3.7-.9-7-2.5-9.9h0c-1.5-2.9-3.7-5.2-6.6-6.8-2.8-1.7-6.1-2.5-9.8-2.5s-7.1.8-9.9,2.5c-2.8,1.7-5,3.9-6.6,6.8-1.5,2.9-2.3,6.2-2.4,9.9ZM89.3,26.8h0s0,0,0,0c-1,2.1-2.5,3.7-4.5,4.9-2,1.2-4.3,1.8-7,1.8s-5.1-.6-7-1.8c-1.9-1.3-3.4-2.9-4.5-5-1.1-2.1-1.6-4.5-1.6-7.1s.5-5,1.6-7.1c1.1-2.1,2.6-3.8,4.5-4.9,1.9-1.2,4.3-1.8,7-1.8s5,.6,7,1.8c1.9,1.3,3.4,2.9,4.5,4.9,1.1,2.1,1.6,4.5,1.6,7.1s-.5,5-1.6,7.1Z"/>
      <path class="cls-3" d="M105.1.7h-.7l.3.7,15.3,37v.3h6.3v-.3c.1,0,15.4-37,15.4-37l.3-.7h-6.2v.3c-.1,0-12.6,31.1-12.6,31.1L110.6,1v-.3h-5.5Z"/>
      <path class="cls-3" d="M152.6,38.4l12.5-29.9,12.5,29.9v.3h6.3l-.3-.7L168,1v-.3h-5.5v.3c-.1,0-15.8,37-15.8,37l-.3.7h6.1v-.3Z"/>
      <path class="cls-3" d="M196.2,37.9v.5h25.2v-5.7h-19.5V1.2c0,0,0-.5,0-.5h-5.6v37.2Z"/>
      <path class="cls-3" d="M233.9,1h-.5v36.9h0c0,0,.5,0,.5,0v.4h26v-5.4h-20.8v-10.6h18.9v-5.4h-18.9V6.4h20.8V1h-26Z"/>
      <path class="cls-3" d="M274.7,38.2v.5h5.6v-.5s0-26.7,0-26.7l22.8,27v.2h4.3V.7h-5.7v27.3L278.9.9v-.2h-3.7v.5-.5h-.5v37.5Z"/>
      <path class="cls-3" d="M331.1,38.2v.5h5.7V6.4h12.9V1h-31.4v5.4h12.8v31.8Z"/>
      <path class="cls-3" d="M6.2,1.2v-.5H.5v38h5.7V1.2Z"/>
      <path class="cls-4" d="M167.1,24.2l1.9,3.2-1.9,3.3h-3.6l-1.9-3.3,1.9-3.2h3.6Z"/>
    </g>
  </g>
</svg>