<svg width="400" height="80" viewBox="0 0 400 80" fill="none" xmlns="http://www.w3.org/2000/svg">
<path fill-rule="evenodd" clip-rule="evenodd" d="M69.9994 0H23.3332L0 39.998L23.3332 79.9958H69.9994L93.3332 39.998L69.9994 0ZM58.0008 20.5685H35.3321L23.9977 39.998L35.3321 59.4276H58.0008L69.3351 39.998L58.0008 20.5685Z" fill="#0080FF"/>
<path d="M39.8651 28.3291H53.3922L60.1559 39.9232L53.3922 51.5174H39.8651L33.1016 39.9232L39.8651 28.3291Z" fill="#5C5F70"/>
<path d="M53.3943 51.5248L46.7178 39.9307L39.8672 51.5248H53.3943Z" fill="#2B2E3B"/>
<path d="M53.3943 28.3291H39.8672L46.7178 39.9232L53.3943 28.3291Z" fill="#C7C9D1"/>
<path d="M53.3922 28.3291L46.7157 39.9233H60.1909L53.3922 28.3291ZM46.7157 39.9232L39.8651 28.3291L33.1016 39.9232H46.7157Z" fill="#8F92A3"/>
<path d="M69.983 79.9979L93.3167 40H69.3187L57.9844 59.4297L69.983 79.9979Z" fill="#0055FF"/>
<path d="M69.983 79.9998L81.982 59.4316H57.9844L69.983 79.9998Z" fill="#0080FF"/>
<path d="M82.0307 20.5752H57.9844L69.3187 40.0046L82.0307 20.5752Z" fill="#51C2FB"/>
<path d="M82.0401 20.5947L69.3281 39.9958H93.3261L82.0401 20.5947Z" fill="#9EDBFA"/>
<path d="M46.6719 79.9998L58.0062 59.4316L70.0048 79.9998H46.6719Z" fill="#0072E4"/>
<path d="M0 40H23.9977L11.3344 59.4297H35.3321L47.0125 79.9979H23.3332L11.3344 59.4297L0 40Z" fill="#0000CC"/>
<path fill-rule="evenodd" clip-rule="evenodd" d="M23.9977 40.0046L11.3788 20.5752L0 40.0046H23.9977L35.3321 59.4343H11.3788L23.9977 40.0046Z" fill="#002BFF"/>
<path d="M57.9969 20.5685L47.0085 0L35.3281 20.5685H57.9969Z" fill="#002BFF"/>
<path d="M69.983 0L57.9844 20.5685H82.0307L69.983 0Z" fill="#3899FA"/>
<path d="M250.639 41.7441H253.215L254.503 43.8861L253.215 46.0281H250.639L249.352 43.8861L250.639 41.7441Z" fill="#0000CC"/>
<path d="M120 53.0741V26.8507H123.462V53.0741H120ZM155.262 32.3539C154.621 31.6644 153.633 31.0366 152.3 30.4703C150.967 29.9039 149.479 29.6208 147.838 29.6208C145.735 29.6208 144.184 30.0024 143.184 30.7657C142.184 31.529 141.684 32.5755 141.684 33.9051C141.684 34.8408 141.94 35.5795 142.453 36.1212C142.966 36.6629 143.748 37.1062 144.8 37.4508C145.876 37.7955 147.236 38.1526 148.877 38.522C150.774 38.9159 152.416 39.3961 153.8 39.9624C155.185 40.5287 156.249 41.292 156.992 42.2523C157.736 43.188 158.108 44.4437 158.108 46.0196C158.108 47.694 157.672 49.0729 156.8 50.1563C155.928 51.2397 154.736 52.0399 153.223 52.557C151.736 53.0741 150.056 53.3326 148.184 53.3326C143.928 53.3326 140.222 52.1015 137.068 49.6392L138.722 46.8322C139.287 47.3739 140.043 47.9156 140.992 48.4573C141.966 48.999 143.069 49.4545 144.299 49.8238C145.556 50.1686 146.877 50.3409 148.261 50.3409C150.21 50.3409 151.723 50.0086 152.8 49.3437C153.877 48.6543 154.416 47.657 154.416 46.352C154.416 45.3671 154.108 44.5792 153.492 43.9882C152.903 43.3973 152.018 42.9049 150.839 42.5109C149.659 42.1169 148.223 41.7229 146.531 41.3289C144.684 40.8857 143.133 40.4056 141.876 39.8885C140.62 39.3468 139.671 38.645 139.03 37.7832C138.415 36.9214 138.107 35.8011 138.107 34.4222C138.107 32.7479 138.53 31.332 139.377 30.1747C140.222 29.0175 141.389 28.1434 142.877 27.5524C144.363 26.9615 146.043 26.666 147.915 26.666C149.736 26.666 151.39 26.9369 152.877 27.4785C154.39 28.0202 155.723 28.7466 156.877 29.6577L155.262 32.3539ZM182.969 53.2588C181.046 53.2588 179.303 52.8894 177.739 52.1507C176.175 51.4121 174.816 50.4148 173.661 49.1591C172.533 47.8787 171.661 46.4506 171.046 44.8746C170.431 43.2742 170.123 41.6368 170.123 39.9624C170.123 38.2141 170.444 36.5521 171.085 34.9762C171.751 33.3757 172.662 31.9599 173.815 30.7288C174.995 29.473 176.367 28.4881 177.931 27.774C179.495 27.0353 181.2 26.666 183.046 26.666C184.97 26.666 186.713 27.0476 188.278 27.811C189.842 28.5743 191.188 29.5961 192.316 30.8765C193.445 32.1569 194.316 33.585 194.932 35.1609C195.547 36.7368 195.855 38.3496 195.855 39.9993C195.855 41.7475 195.534 43.4219 194.894 45.0224C194.252 46.5982 193.342 48.014 192.162 49.2698C191.009 50.501 189.649 51.4736 188.085 52.1877C186.521 52.9017 184.816 53.2588 182.969 53.2588ZM173.623 39.9624C173.623 41.292 173.841 42.5847 174.277 43.8405C174.739 45.0716 175.379 46.1673 176.201 47.1276C177.021 48.0879 178.008 48.8512 179.162 49.4176C180.316 49.9839 181.598 50.2671 183.008 50.2671C184.47 50.2671 185.778 49.9716 186.931 49.3806C188.085 48.7897 189.06 48.0018 189.855 47.0168C190.675 46.0319 191.291 44.9239 191.701 43.6928C192.136 42.4616 192.355 41.2182 192.355 39.9624C192.355 38.6327 192.124 37.3523 191.663 36.1212C191.227 34.8901 190.585 33.7943 189.739 32.834C188.919 31.8491 187.932 31.0858 186.777 30.5441C185.649 29.9778 184.393 29.6946 183.008 29.6946C181.547 29.6946 180.239 29.9901 179.085 30.581C177.931 31.1473 176.944 31.923 176.124 32.9079C175.328 33.8928 174.713 35.0009 174.277 36.232C173.841 37.4385 173.623 38.6819 173.623 39.9624ZM209.613 26.8507L218.652 48.9005L227.653 26.8507H231.307L220.229 53.0741H217.075L205.959 26.8507H209.613ZM250.31 26.8507H253.233L264.388 53.0741H260.453L257.464 45.3917L251.771 30.6918L242.81 53.0741H239.117L250.31 26.8507ZM277.263 53.0741V26.8507H280.725V50.1193H295.957V53.0741H277.263ZM327.496 50.1193V53.0741H308.957V26.8507H327.15V29.8054H312.418V38.3003H325.226V41.0704H312.418V50.1193H327.496ZM344.938 32.9818V53.0741H341.477V26.8507H344.4L361.093 47.3493V26.8876H364.555V53.0741H361.4L344.938 32.9818ZM399.999 29.8054H390.576V53.0741H387.114V29.8054H377.691V26.8507H399.999V29.8054Z" fill="#0A0B0F"/>
</svg>
