<?xml version="1.0" encoding="UTF-8"?>
<svg id="Layer_1" data-name="Layer 1" xmlns="http://www.w3.org/2000/svg" width="2000" height="913.38" viewBox="0 0 2000 913.38">
  <rect width="2000" height="913.11" style="fill: #143c8a;"/>
  <path d="m669.23,237.49v282.29c0,83.34-58.89,143.35-142.8,143.35-43.36,0-91.11-18.88-125.04-45.58l51.68-129.47c7.8,20.02,16.67,43.92,40.57,43.92s26.68-27.8,26.68-45.58v-248.94h148.91Z" style="fill: #fff;"/>
  <path d="m865.05,237.49l46.68,109.47h4.44c4.45-13.33,8.32-26.67,13.89-39.45l30.01-70.02h171.15l-143.37,238.38v180.57h-148.93v-180.57l-146.14-238.38h172.27Z" style="fill: #fff;"/>
  <path d="m1144.93,506.41l7.79,6.13c27.22,21.12,60.01,38.34,95.02,38.34,15.02,0,38.9-6.1,38.9-25.01s-19.98-20.57-33.9-23.36l-30.52-5.55c-59.5-10.54-109.49-45.54-109.49-111.12,0-99.46,90.57-155.03,181.7-155.03,47.78,0,91.67,11.66,132.81,36.67l-41.13,107.23c-26.11-17.78-55.54-31.66-88.33-31.66-13.33,0-32.8,5-32.8,22.22,0,15.57,18.91,17.78,30.56,20.57l34.45,7.77c64.46,14.45,111.14,48.9,111.14,120.03,0,100.05-91.12,149.48-181.69,149.48-52.78,0-113.93-14.43-161.16-38.34l46.68-118.37Z" style="fill: #fff;"/>
  <path d="m1486.51,237.49h148.35l-3.34,181.69h3.34c3.38-17.21,12.78-32.21,21.12-47.23l73.35-134.46h166.16l-131.16,203.93,145.04,215.03h-176.7l-72.24-126.68c-8.89-16.12-22.19-31.66-25.56-48.9h-3.34l3.34,175.58h-148.35V237.49Z" style="fill: #fff;"/>
  <path d="m147.78,149.62c-6.18.12-11.49,2.29-15.33,6.29-3.81,3.96-5.77,9.34-5.63,15.54.15,9.46,5.29,19.96,13.73,28.06,14.61,14.02,33.88,16.81,43.93,6.39,3.84-4.01,5.68-9.29,5.68-15.07,0-9.3-4.79-19.91-13.76-28.56-8.44-8.11-19.14-12.83-28.61-12.64m28.61,12.64h0Z" style="fill: #fff;"/>
  <path d="m207.65,913.28c6.24-22.43,8.03-46.09,8.03-46.09.71-6.41,1.22-12.92,1.53-19.5,3.88-79.41-24.62-177.97-83.1-256.8-59.46-80.13-97.12-138.18-97.12-186.74s35.48-71.9,60.7-77.5c25.2-5.62,91.5-5.62,115.79-26.15,23.69-20.05,37.33-48.54,34.54-84.04-2.81-35.47-11.47-113.15-131.65-118.58-42.2-1.89-86.52,15.4-116.38,38.33l.07-62.75c27.37-13.52,68.71-27.85,120.99-27.85,98.98,0,144.71,63.49,144.71,63.49,0,0,58.83,24.27,99.92,56.02,41.08,31.75,74.69,66.3,77.5,70.97,2.79,4.67,10.27,22.39-14.95,30.82-25.2,8.41-75.62,17.72-127,17.72,0,0-33.59,59.77-86.83,78.45-53.21,18.66-114.95.79-117.65,49.49-1.86,33.61,28.03,73.78,39.22,89.62,11.21,15.88,138.99,143.01,131.67,338.03-1.58,41.93-8.18,73.17-8.18,73.17l-51.81-.1m96.72-678.15s28.96,3.75,53.21,4.69c24.31.93,20.55-10.27,20.55-10.27-11.2-9.34-77.48-46.68-77.48-46.68-9.35,24.27,3.72,52.26,3.72,52.26Z" style="fill: #fff;"/>
</svg>