<?xml version="1.0" encoding="UTF-8"?> <svg xmlns="http://www.w3.org/2000/svg" width="400" height="53" viewBox="0 0 179 24" fill="none"><path d="M58.5067 7.57001H54.0121L47.2239 14.2829V0.533813H43.8325V23.2371H47.2239V17.9161L49.9108 15.483L55.2737 23.2371H59.446L52.3356 13.2472L58.5067 7.57001Z" fill="#476FFF"></path><path d="M22.923 10.1371C22.923 12.272 21.7516 14.0027 20.3065 14.0027C18.8614 14.0027 17.69 12.272 17.69 10.1371C17.69 8.00211 18.8614 6.27138 20.3065 6.27138C21.7516 6.27138 22.923 8.00211 22.923 10.1371Z" fill="#476FFF"></path><path d="M12.5302 14.0033C13.9752 14.0033 15.1467 12.2725 15.1467 10.1376C15.1467 8.00262 13.9752 6.27189 12.5302 6.27189C11.0851 6.27189 9.91362 8.00262 9.91362 10.1376C9.91362 12.2725 11.0851 14.0033 12.5302 14.0033Z" fill="#476FFF"></path><path fill-rule="evenodd" clip-rule="evenodd" d="M3.41339 0.559204L0.632324 3.49834V20.2864L3.41319 23.2127H29.0321L31.813 20.2864V3.48552L29.0321 0.559204H3.41339ZM4.14214 4.87681L5.22883 3.75819H27.2501L28.2968 4.87867V18.9128L27.2501 20.0333H5.22883L4.14214 18.9147V4.87681Z" fill="#476FFF"></path><path d="M92.0738 9.32352L93.7832 7.56995H99.8287L102.543 10.3592V23.237H99.1515V11.3675L98.2122 10.425H93.7176L92.4943 11.658V23.237H89.0975V11.3675L88.1582 10.425H84.248L82.4403 12.2717V23.237H79.0435V7.56995H82.2437V9.71259L84.2807 7.56995H90.3918L92.0738 9.32352Z" fill="#476FFF"></path><path fill-rule="evenodd" clip-rule="evenodd" d="M61.3784 10.3592L64.0926 7.56995H73.3711L76.0854 10.3592V20.4477L73.3711 23.237H64.0926L61.3784 20.4477V10.3592ZM71.7546 20.382L72.6612 19.4394H72.6667V11.3675L71.7601 10.425H65.7146L64.808 11.3675V19.4394L65.7091 20.382H71.7546Z" fill="#476FFF"></path><path fill-rule="evenodd" clip-rule="evenodd" d="M153.993 7.56995L151.278 10.3592V20.4477L153.993 23.237H163.271L165.985 20.4477V10.3592L163.271 7.56995H153.993ZM162.561 19.4394L161.655 20.382H155.609L154.702 19.4394V11.3675L155.609 10.425H161.655L162.561 11.3675V19.4394Z" fill="#476FFF"></path><path d="M172.15 9.90439L174.411 7.56995H178.327V10.8141H174.154L172.347 12.6334V23.237H168.95V7.56995H172.15V9.90439Z" fill="#476FFF"></path><path fill-rule="evenodd" clip-rule="evenodd" d="M108.213 7.56995L105.499 10.3592V20.4477L108.213 23.237H128.267L130.981 20.4477V10.3592L128.267 7.56995H108.213ZM127.551 19.4394L126.645 20.382H109.824L108.918 19.4394V11.3675L109.824 10.425H126.645L127.551 11.3675V19.4394Z" fill="#476FFF"></path><path fill-rule="evenodd" clip-rule="evenodd" d="M143.093 7.57001L144.966 9.51538V0.533813H148.357V23.2371H144.966V21.3246L143.093 23.2371H136.627L133.913 20.4478V10.3593L136.627 7.57001H143.093ZM143.158 20.382L144.966 18.5682V12.2718L143.158 10.425H138.243L137.304 11.3676V19.4395L138.243 20.382H143.158Z" fill="#476FFF"></path></svg> 