<svg width="112" height="108" viewBox="0 0 112 108" fill="none" xmlns="http://www.w3.org/2000/svg">
<g clip-path="url(#clip0_587_3502)">
<path d="M35.7649 106.23C33.1862 106.23 30.7511 105.085 29.1035 103.007L4.03452 71.8503C2.38696 69.773 1.7425 67.1233 2.38696 64.5443L11.3403 25.6518C11.9132 23.0732 13.6323 20.9959 15.9963 19.8501L52.2396 2.51633C53.3858 1.94388 54.6752 1.65723 55.9645 1.65723C57.2538 1.65723 58.5427 1.94345 59.689 2.51676L95.9327 19.7786C98.2962 20.9244 100.015 23.0016 100.588 25.5802L109.542 64.4727C110.115 67.0513 109.542 69.7015 107.895 71.7788L82.8246 102.936C81.1771 104.941 78.7419 106.159 76.1633 106.159L35.7657 106.23H35.7649Z" fill="#326DE6"/>
<path d="M55.89 3.44764C56.8931 3.44764 57.8958 3.66231 58.8269 4.09208L95.0706 21.3539C96.9328 22.285 98.3653 24.0041 98.795 26.0098L107.748 64.9023C108.25 66.9795 107.748 69.1284 106.388 70.7755L81.3181 101.933C80.0287 103.58 78.0229 104.511 75.946 104.511H35.7628C33.6854 104.511 31.6801 103.58 30.3908 101.933L5.32131 70.7755C4.03198 69.1284 3.53021 66.9795 3.96042 64.9023L12.9138 26.0098C13.4151 23.9325 14.776 22.2134 16.6383 21.3539L52.8824 4.02095C53.8135 3.66274 54.8877 3.44807 55.8904 3.44807L55.89 3.44764ZM55.89 0.0810547C54.386 0.0810547 52.882 0.439267 51.4491 1.0837L15.2058 18.4175C12.3405 19.7784 10.3351 22.285 9.61867 25.3649L0.6653 64.2578C-0.0507096 67.3378 0.6653 70.4892 2.67108 72.9963L27.7405 104.153C29.6747 106.588 32.6112 107.949 35.6912 107.949H75.8741C78.9541 107.949 81.891 106.588 83.8248 104.153L108.895 72.9959C110.9 70.5608 111.616 67.3378 110.9 64.2574L101.947 25.3649C101.231 22.285 99.2248 19.7784 96.3599 18.4175L60.2593 1.08327C58.8984 0.439267 57.3944 0.0810547 55.89 0.0810547Z" fill="white"/>
<path d="M92.214 61.8243C92.1424 61.8243 92.1424 61.8243 92.214 61.8243H92.1424C92.0709 61.8243 91.9993 61.8243 91.9993 61.7528C91.8562 61.7528 91.7131 61.6812 91.5695 61.6812C91.0682 61.6097 90.6384 61.5381 90.2086 61.5381C89.9935 61.5381 89.7788 61.5381 89.4922 61.4661H89.4206C87.9166 61.323 86.6988 61.1799 85.5526 60.8217C85.0513 60.6066 84.9082 60.3204 84.7646 60.0337C84.7646 59.9622 84.6931 59.9622 84.6931 59.8906L83.7619 59.6044C84.2019 56.235 84.032 52.8139 83.2606 49.5046C82.4785 46.1678 81.1212 42.9927 79.2495 40.1217L79.9659 39.4773V39.3342C79.9659 38.976 80.0375 38.6178 80.3237 38.2595C81.1833 37.4716 82.2579 36.8271 83.5473 36.0391C83.7619 35.896 83.9766 35.8245 84.1917 35.6809C84.6215 35.4663 84.9797 35.2516 85.4095 34.9649C85.4811 34.8934 85.6242 34.8218 85.7677 34.6787C85.8393 34.6067 85.9108 34.6067 85.9108 34.5352C86.9135 33.6756 87.1286 32.2432 86.4122 31.3117C86.054 30.8104 85.4095 30.5242 84.7646 30.5242C84.1922 30.5242 83.6904 30.7388 83.189 31.097L83.0459 31.2401C82.9028 31.3117 82.8308 31.4552 82.6877 31.5268C82.3295 31.885 82.0428 32.1712 81.7566 32.5294C81.6135 32.6726 81.4704 32.8877 81.2553 33.0308C80.2521 34.1054 79.321 34.9649 78.3899 35.6094C78.1752 35.7525 77.9606 35.8245 77.7455 35.8245C77.6023 35.8245 77.4588 35.8245 77.3157 35.7525H77.1726L76.3126 36.3258C75.3815 35.3232 74.3788 34.4636 73.3761 33.6041C69.0585 30.2293 63.8624 28.1658 58.4058 27.6589L58.3343 26.7278L58.1912 26.5847C57.9761 26.3696 57.6898 26.1549 57.6178 25.6536C57.5463 24.5074 57.6898 23.2181 57.8329 21.7857V21.7141C57.8329 21.499 57.9045 21.2128 57.9761 20.9977C58.0476 20.5684 58.1192 20.1382 58.1912 19.6368V18.9924C58.1912 17.7031 57.1881 16.6289 55.9707 16.6289C55.3974 16.6289 54.8245 16.9151 54.3947 17.3449C53.9654 17.7747 53.7503 18.3475 53.7503 18.9924V19.5653C53.7503 20.0666 53.8218 20.4964 53.9649 20.9262C54.0365 21.1413 54.0365 21.3559 54.108 21.6426V21.7141C54.2512 23.1465 54.4663 24.4358 54.3232 25.582C54.2516 26.0834 53.9649 26.298 53.7503 26.5131L53.6071 26.6562L53.5352 27.5873C52.2458 27.7304 50.9565 27.8736 49.6671 28.1602C44.152 29.378 39.2813 32.1717 35.4853 36.1823L34.7689 35.6809H34.6257C34.4826 35.6809 34.3391 35.7525 34.196 35.7525C33.9809 35.7525 33.7662 35.6809 33.5511 35.5378C32.62 34.8934 31.6888 33.9619 30.6862 32.8877C30.5431 32.7445 30.3999 32.5294 30.1848 32.3863C29.8982 32.0281 29.6115 31.7415 29.2533 31.3837C29.1817 31.3117 29.0386 31.2406 28.8955 31.097C28.8239 31.0255 28.7524 31.0255 28.7524 30.9539C28.3086 30.5873 27.752 30.3848 27.1764 30.3806C26.5315 30.3806 25.887 30.6673 25.5288 31.1686C24.8124 32.0997 25.0275 33.5321 26.0302 34.3916C26.1017 34.3916 26.1017 34.4636 26.1733 34.4636C26.3164 34.5352 26.3884 34.6783 26.5315 34.7498C26.9613 35.0361 27.3195 35.2512 27.7493 35.4663C27.9644 35.5378 28.179 35.6809 28.3942 35.8245C29.6831 36.612 30.7577 37.2569 31.6173 38.0449C31.9755 38.4026 31.9755 38.7609 31.9755 39.1191V39.2622L32.6915 39.9071C32.5484 40.1217 32.4053 40.2653 32.3333 40.4799C28.7519 46.1385 27.391 52.7997 28.3222 59.3893L27.391 59.6755C27.391 59.7475 27.3195 59.7475 27.3195 59.8186C27.1764 60.1053 26.9613 60.3919 26.5315 60.6066C25.4573 60.9648 24.1679 61.1084 22.6639 61.2515H22.5919C22.3772 61.2515 22.0906 61.2515 21.8759 61.323C21.4461 61.323 21.0164 61.3946 20.515 61.4661C20.3719 61.4661 20.2288 61.5381 20.0852 61.5381C20.0137 61.5381 19.9421 61.5381 19.8701 61.6097C18.5808 61.8959 17.7928 63.1136 18.0079 64.2594C18.223 65.2625 19.1541 65.9074 20.2999 65.9074C20.515 65.9074 20.6581 65.9074 20.8732 65.8354C20.9448 65.8354 21.0164 65.8354 21.0164 65.7638C21.1595 65.7638 21.3026 65.6923 21.4457 65.6923C21.9475 65.5491 22.3057 65.406 22.7355 65.1909C22.9501 65.1194 23.1648 64.9758 23.3799 64.9047H23.4515C24.8124 64.4029 26.0302 63.9732 27.1764 63.8301H27.3195C27.7493 63.8301 28.0359 64.0447 28.2506 64.1883C28.3222 64.1883 28.3222 64.2598 28.3937 64.2598L29.3968 64.1167C31.1159 69.4166 34.4106 74.1441 38.78 77.5822C39.7827 78.3698 40.7853 79.0146 41.86 79.6595L41.4302 80.5901C41.4302 80.6621 41.5018 80.6621 41.5018 80.7333C41.6449 81.0199 41.788 81.3781 41.6449 81.8794C41.2155 82.9541 40.5707 84.0283 39.7827 85.246V85.3176C39.6395 85.5327 39.4964 85.6758 39.3533 85.8905C39.0666 86.2487 38.8515 86.6069 38.5649 87.0367C38.4933 87.1082 38.4218 87.2513 38.3502 87.3949C38.3502 87.4664 38.2786 87.538 38.2786 87.538C37.7057 88.7557 38.1355 90.1166 39.2098 90.6179C39.496 90.761 39.7827 90.833 40.0693 90.833C40.9289 90.833 41.7884 90.2597 42.2182 89.4717C42.2182 89.4002 42.2898 89.3286 42.2898 89.3286C42.3613 89.1855 42.4329 89.0424 42.5044 88.9704C42.7195 88.4691 42.7911 88.1109 42.9342 87.6811L43.1493 87.0367C43.6507 85.6042 44.0089 84.4581 44.6533 83.4554C44.9396 83.0256 45.2982 82.9541 45.5845 82.8105C45.656 82.8105 45.656 82.8105 45.7276 82.739L46.2293 81.8079C49.3809 83.0256 52.8191 83.6701 56.2569 83.6701C58.3343 83.6701 60.4832 83.4554 62.489 82.9541C63.7511 82.6719 64.9949 82.313 66.2134 81.8794L66.6428 82.6674C66.7148 82.6674 66.7148 82.6674 66.7863 82.739C67.1445 82.8105 67.4308 82.9541 67.7174 83.3839C68.2903 84.3865 68.7201 85.6042 69.2214 86.9651V87.0367L69.4366 87.6811C69.5797 88.1109 69.6512 88.5406 69.8659 88.9704C69.9379 89.1135 70.0094 89.1855 70.081 89.3286C70.081 89.4002 70.153 89.4717 70.153 89.4717C70.5823 90.3313 71.4419 90.833 72.3015 90.833C72.5881 90.833 72.8748 90.761 73.161 90.6179C73.6623 90.3317 74.0921 89.9015 74.2357 89.3286C74.3788 88.7557 74.3788 88.1109 74.0926 87.538C74.0926 87.4664 74.0206 87.4664 74.0206 87.3949C73.949 87.2518 73.8775 87.1087 73.8059 87.0367C73.5908 86.6069 73.3046 86.2487 73.0179 85.8905C72.8748 85.6758 72.7317 85.5327 72.5886 85.318V85.246C71.8001 84.0283 71.0837 82.9541 70.7259 81.8794C70.5828 81.3781 70.7259 81.0919 70.7974 80.7337C70.7974 80.6621 70.869 80.6621 70.869 80.5906L70.5108 79.731C74.3072 77.5106 77.5304 74.3587 79.9659 70.4913C81.2553 68.4855 82.2579 66.2651 82.9739 64.0447L83.8335 64.1878C83.9055 64.1878 83.9055 64.1163 83.9766 64.1163C84.2633 63.9732 84.4784 63.7585 84.9082 63.7585H85.0513C86.1975 63.9016 87.4148 64.331 88.7762 64.8327H88.8477C89.0624 64.9043 89.2771 65.0474 89.4922 65.1189C89.922 65.334 90.2802 65.4771 90.7815 65.6207C90.9246 65.6207 91.0677 65.6923 91.2113 65.6923C91.2829 65.6923 91.3544 65.6923 91.426 65.7638C91.6411 65.8354 91.7842 65.8354 91.9993 65.8354C93.0735 65.8354 94.0047 65.1194 94.2913 64.1883C94.2913 63.3287 93.5033 62.1826 92.214 61.8248V61.8243ZM59.0503 58.3146L55.8987 59.819L52.7472 58.3146L51.9596 54.9485L54.108 52.2268H57.6178L59.7667 54.9485L59.0507 58.3146H59.0503ZM77.7455 50.8659C78.3011 53.2344 78.4704 55.6771 78.2468 58.0995L67.2877 54.9485C66.285 54.6623 65.7121 53.6592 65.9268 52.6565C65.9983 52.3699 66.1419 52.0832 66.3565 51.8686L75.0237 44.0612C76.241 46.0669 77.1721 48.3593 77.7455 50.8659ZM71.5854 39.7639L62.2023 46.4251C61.4143 46.9265 60.3396 46.7829 59.6952 45.9954C59.4805 45.7803 59.4089 45.4936 59.337 45.2074L58.6925 33.5321C63.5706 34.0938 68.1149 36.2903 71.5854 39.7639ZM50.8134 33.8899C51.6014 33.7468 52.3174 33.6036 53.1054 33.4605L52.4609 44.9203C52.3894 45.9229 51.6014 46.7825 50.5267 46.7825C50.2405 46.7825 49.8822 46.7109 49.6671 46.5678L40.1409 39.7639C43.0778 36.8271 46.7307 34.821 50.8134 33.8899ZM36.7026 44.0608L45.2262 51.653C46.0142 52.2979 46.0858 53.5152 45.4413 54.3032C45.2262 54.5894 44.94 54.8045 44.5818 54.8765L33.4795 58.0995C33.0497 53.229 34.124 48.2869 36.7026 44.0608ZM34.7684 63.4714L46.1578 61.5373C47.0889 61.4657 47.9485 62.1106 48.1631 63.0417C48.2347 63.471 48.2347 63.8296 48.0916 64.1878L43.7222 74.7165C39.7111 72.1379 36.4875 68.1984 34.7684 63.4714ZM60.913 77.7249C59.2654 78.0831 57.6178 78.2978 55.8987 78.2978C53.392 78.2978 50.9565 77.8684 48.6649 77.152L54.3232 66.9096C54.896 66.2647 55.8272 65.9785 56.6152 66.4082C56.9496 66.6131 57.2414 66.8805 57.4747 67.1958L62.9899 77.152C62.3454 77.3667 61.629 77.5102 60.9125 77.7249H60.913ZM74.8801 67.7691C73.0895 70.6339 70.7255 72.9259 68.0041 74.7165L63.4916 63.9008C63.2765 63.0417 63.6347 62.1106 64.4943 61.6804C64.7805 61.5373 65.1388 61.4657 65.497 61.4657L76.9575 63.3999C76.5277 64.9754 75.8112 66.4082 74.8801 67.7691Z" fill="white"/>
</g>
<defs>
<clipPath id="clip0_587_3502">
<rect width="111.087" height="108" fill="white" transform="translate(0.171875)"/>
</clipPath>
</defs>
</svg>
