<svg width="266" height="64" viewBox="0 0 266 64" fill="none" xmlns="http://www.w3.org/2000/svg">
<path d="M43.5132 19.8614C43.2509 19.0221 42.6215 18.3402 41.8346 17.9206L25.8362 10.2623C25.4166 10.0525 24.9445 10 24.5248 10C24.1052 10 23.6331 10 23.2135 10.1049L7.21503 17.8157C6.42822 18.1828 5.85122 18.8647 5.64141 19.7565L1.70736 37.0139C1.55 37.9056 1.75981 38.7973 2.28435 39.5317L13.3521 53.2222C13.9816 53.8516 14.8733 54.2713 15.765 54.3237H33.3896C34.3337 54.4286 35.2254 54.009 35.8024 53.2222L46.8702 39.5317C47.3948 38.7973 47.6046 37.9056 47.4997 37.0139L43.5132 19.8614Z" fill="#326DE6"/>
<path d="M41.0477 36.332C40.9952 36.332 40.9428 36.332 40.9428 36.2795C40.9428 36.2271 40.8378 36.2271 40.7329 36.2271C40.5231 36.1746 40.3133 36.1746 40.1035 36.1746C39.9986 36.1746 39.8937 36.1746 39.7888 36.1221H39.7363C39.1593 36.0697 38.5299 35.9648 37.9529 35.8074C37.7955 35.755 37.6382 35.5976 37.5857 35.4402L37.1661 35.3353C37.3759 33.8142 37.271 32.2405 36.9563 30.7194C36.5891 29.1982 35.9596 27.7295 35.1204 26.4181L35.4351 26.1034V26.051C35.4351 25.8936 35.4875 25.6838 35.5924 25.5789C36.0645 25.1592 36.5366 24.8445 37.0612 24.5298C37.1661 24.4773 37.271 24.4249 37.3759 24.3724C37.5857 24.2675 37.7431 24.1626 37.9529 24.0577C38.0053 24.0052 38.0578 24.0052 38.1102 23.9528C38.1627 23.9003 38.1102 23.9003 38.1102 23.8479C38.5823 23.4807 38.6872 22.8513 38.3201 22.3792C38.1627 22.1694 37.848 22.012 37.5857 22.012C37.3234 22.012 37.0612 22.1169 36.8513 22.2743L36.7989 22.3267C36.7464 22.3792 36.694 22.4316 36.6415 22.4316C36.4842 22.589 36.3268 22.7463 36.2219 22.9037C36.1694 23.0086 36.0645 23.0611 36.0121 23.1135C35.6449 23.5332 35.1728 23.9528 34.7007 24.2675C34.5958 24.32 34.4909 24.3724 34.386 24.3724C34.3335 24.3724 34.2286 24.3724 34.1762 24.32H34.1237L33.7041 24.5822C33.2845 24.1626 32.8124 23.743 32.3928 23.3233C30.452 21.8022 28.0391 20.858 25.5737 20.5957L25.5213 20.1761V20.2286C25.3639 20.1236 25.3115 19.9663 25.259 19.8089C25.259 19.2319 25.259 18.6549 25.3639 18.0255V17.973C25.3639 17.8681 25.4164 17.7632 25.4164 17.6583C25.4688 17.4485 25.4688 17.2387 25.5213 17.0289V16.7141C25.5737 16.1896 25.1541 15.665 24.6296 15.6126C24.3148 15.5601 24.0001 15.7175 23.7378 15.9798C23.528 16.1896 23.4231 16.4519 23.4231 16.7141V16.9764C23.4231 17.1862 23.4756 17.396 23.528 17.6058C23.5805 17.7108 23.5805 17.8157 23.5805 17.9206V17.973C23.6854 18.55 23.6854 19.127 23.6854 19.7565C23.6329 19.9138 23.5805 20.0712 23.4231 20.1761V20.281L23.3707 20.7006C22.7937 20.7531 22.2167 20.858 21.5872 20.9629C19.1219 21.4875 16.8664 22.7988 15.1354 24.6347L14.8207 24.4249H14.7682C14.7158 24.4249 14.6633 24.4773 14.5584 24.4773C14.4535 24.4773 14.3486 24.4249 14.2437 24.3724C13.7716 24.0052 13.2995 23.5856 12.9323 23.166C12.8799 23.0611 12.775 23.0086 12.7225 22.9562C12.5652 22.7988 12.4602 22.6414 12.3029 22.4841C12.2504 22.4316 12.198 22.4316 12.1455 22.3792C12.0931 22.3267 12.0931 22.3267 12.0931 22.3267C11.8833 22.1694 11.621 22.0644 11.3587 22.0644C11.044 22.0644 10.7817 22.1694 10.6244 22.4316C10.3096 22.9037 10.4145 23.5332 10.8342 23.9003C10.8866 23.9003 10.8866 23.9528 10.8866 23.9528C10.8866 23.9528 10.9915 24.0577 11.044 24.0577C11.2013 24.1626 11.4112 24.2675 11.621 24.3724C11.7259 24.4249 11.8308 24.4773 11.9357 24.5298C12.4602 24.8445 12.9848 25.1592 13.4044 25.5789C13.5093 25.6838 13.6142 25.8936 13.5618 26.051V25.9985L13.8765 26.3132C13.824 26.4181 13.7716 26.4706 13.7191 26.5755C12.0931 29.1458 11.4112 32.1881 11.8833 35.178L11.4636 35.2829C11.4636 35.3353 11.4112 35.3353 11.4112 35.3353C11.3587 35.4927 11.2013 35.5976 11.044 35.7025C10.467 35.8599 9.89 35.9648 9.26055 36.0172C9.15564 36.0172 9.05074 36.0172 8.94583 36.0697C8.73601 36.0697 8.5262 36.1221 8.31638 36.1221C8.26393 36.1221 8.21147 36.1746 8.10656 36.1746C8.05411 36.1746 8.05411 36.1746 8.00166 36.2271C7.42466 36.332 7.05749 36.8565 7.16239 37.4335C7.2673 37.9056 7.73939 38.2203 8.21147 38.1679C8.31638 38.1679 8.36883 38.1679 8.47374 38.1154C8.5262 38.1154 8.5262 38.1154 8.5262 38.063C8.5262 38.0105 8.68356 38.063 8.73601 38.063C8.94583 38.0105 9.15564 37.9056 9.31301 37.8531C9.41791 37.8007 9.52282 37.7482 9.62773 37.7482H9.68018C10.2572 37.5384 10.7817 37.381 11.4112 37.2761H11.4636C11.621 37.2761 11.7783 37.3286 11.8833 37.4335C11.9357 37.4335 11.9357 37.486 11.9357 37.486L12.4078 37.4335C13.1946 39.8464 14.6633 41.997 16.709 43.5706C17.1811 43.9378 17.6007 44.2525 18.1253 44.5148L17.863 44.882C17.863 44.9344 17.9155 44.9344 17.9155 44.9344C18.0204 45.0918 18.0204 45.3016 17.9679 45.459C17.7581 45.9835 17.4434 46.5081 17.1286 46.9802V47.0326C17.0762 47.1375 17.0237 47.19 16.9188 47.2949C16.8139 47.3998 16.709 47.6096 16.5517 47.8194C16.4992 47.8719 16.4992 47.9243 16.4467 47.9768C16.4467 47.9768 16.4467 48.0292 16.3943 48.0292C16.132 48.5538 16.3418 49.1832 16.8139 49.4455C16.9188 49.4979 17.0762 49.5504 17.1811 49.5504C17.6007 49.5504 17.9679 49.2881 18.1777 48.921C18.1777 48.921 18.1777 48.8685 18.2302 48.8685C18.2302 48.816 18.2826 48.7636 18.3351 48.7111C18.3875 48.5013 18.4925 48.344 18.5449 48.1341L18.6498 47.8194C18.8072 47.2424 19.0694 46.7179 19.3317 46.1933C19.4366 46.036 19.594 45.9311 19.7513 45.8786C19.8038 45.8786 19.8038 45.8786 19.8038 45.8262L20.0136 45.4065C21.4823 45.9835 23.0035 46.2458 24.5771 46.2458C25.5213 46.2458 26.4655 46.1409 27.4096 45.8786C27.9866 45.7737 28.5636 45.5639 29.0882 45.4065L29.298 45.7737C29.3504 45.7737 29.3504 45.7737 29.3504 45.8262C29.5078 45.8786 29.6651 45.9835 29.7701 46.1409C30.0323 46.6654 30.2946 47.19 30.452 47.767V47.8194L30.5569 48.1341C30.6093 48.344 30.6618 48.5538 30.7667 48.7111C30.8191 48.7636 30.8191 48.816 30.8716 48.8685C30.8716 48.8685 30.8716 48.921 30.924 48.921C31.1339 49.2881 31.501 49.5504 31.9207 49.5504C32.078 49.5504 32.1829 49.4979 32.3403 49.4455C32.5501 49.3406 32.7599 49.1308 32.8124 48.8685C32.8648 48.6062 32.8648 48.344 32.7599 48.0817C32.7599 48.0292 32.7075 48.0292 32.7075 48.0292C32.7075 47.9768 32.655 47.9243 32.6026 47.8719C32.4977 47.6621 32.3928 47.5047 32.2354 47.3473C32.1829 47.2424 32.1305 47.19 32.0256 47.0851V46.9802C31.6584 46.5081 31.3961 45.9835 31.1863 45.459C31.1339 45.3016 31.1339 45.0918 31.2388 44.9344C31.2388 44.882 31.2912 44.882 31.2912 44.882L31.1339 44.4624C33.809 42.8363 35.8547 40.3185 36.7989 37.3286L37.2185 37.381C37.271 37.381 37.271 37.3286 37.271 37.3286C37.3759 37.2237 37.5332 37.1712 37.6906 37.1712H37.7431C38.3201 37.2761 38.897 37.4335 39.4216 37.6433H39.474C39.5789 37.6958 39.6839 37.7482 39.7888 37.7482C39.9986 37.8531 40.1559 37.958 40.3658 38.0105C40.4182 38.0105 40.4707 38.063 40.5756 38.063C40.628 38.063 40.628 38.063 40.6805 38.1154C40.7854 38.1679 40.8378 38.1679 40.9428 38.1679C41.4148 38.1679 41.8345 37.8531 41.9918 37.4335C41.9394 36.8565 41.5197 36.4369 41.0477 36.332ZM25.8885 34.7059L24.4722 35.3878L23.0559 34.7059L22.6888 33.1847L23.6854 31.9258H25.259L26.2556 33.1847L25.8885 34.7059ZM34.4385 31.2964C34.7007 32.3979 34.7532 33.4994 34.6483 34.601L29.6651 33.1847C29.1931 33.0798 28.9308 32.6077 29.0357 32.1356C29.0882 31.9783 29.1406 31.8734 29.2455 31.7685L33.1796 28.2016C33.7566 29.1458 34.1762 30.1948 34.4385 31.2964ZM31.6059 26.2608L27.3047 29.3031C26.9375 29.5129 26.413 29.4605 26.1507 29.0933C26.0458 28.9884 25.9934 28.8835 25.9934 28.7261L25.6786 23.4283C27.9866 23.6905 30.0323 24.6872 31.6059 26.2608ZM22.1118 23.5856L23.1609 23.3758L22.8986 28.6212C22.8986 29.0933 22.479 29.4605 22.0069 29.4605C21.8495 29.4605 21.7446 29.408 21.5872 29.3556L17.2336 26.2608C18.5974 24.9494 20.2759 24.0052 22.1118 23.5856ZM15.7124 28.2016L19.594 31.6635C19.9612 31.9783 20.0136 32.5028 19.6989 32.87C19.594 33.0274 19.4891 33.0798 19.2793 33.1323L14.1912 34.601C14.0339 32.3979 14.5584 30.1424 15.7124 28.2016ZM14.8207 37.0663L20.0136 36.1746C20.4332 36.1746 20.8529 36.4369 20.9053 36.8565C20.9578 37.0139 20.9578 37.2237 20.8529 37.381L18.8596 42.2068C17.0237 41.0004 15.555 39.1645 14.8207 37.0663ZM26.7277 43.5706C25.9934 43.728 25.259 43.8329 24.4722 43.8329C23.3707 43.8329 22.2167 43.6231 21.1676 43.3084L23.7378 38.6399C24.0001 38.3252 24.4198 38.2203 24.7869 38.4301C24.9443 38.535 25.0492 38.6399 25.2066 38.7973L27.7243 43.3608C27.4096 43.4133 27.0949 43.4657 26.7277 43.5706ZM33.1271 39.0071C32.3403 40.266 31.2388 41.3676 29.9799 42.1544L27.9342 37.2237C27.8293 36.8041 28.0391 36.3844 28.4063 36.2271C28.5636 36.1746 28.721 36.1221 28.8783 36.1221L34.1237 37.0139C33.8615 37.7482 33.5467 38.4301 33.1271 39.0071Z" fill="white"/>
<path d="M255.793 42.784C256.528 42.8364 257.315 42.7315 257.997 42.4693C258.416 42.2595 258.678 41.7874 258.626 41.3153C258.573 40.7907 258.259 40.3187 257.787 40.1613C257 39.6892 256.108 39.2696 255.216 39.0073C254.325 38.6926 253.538 38.3254 252.804 37.9582C252.122 37.6435 251.545 37.2239 250.968 36.6993C250.443 36.1748 250.076 35.5978 249.814 34.9159C249.499 34.1291 249.394 33.2898 249.394 32.4505C249.342 30.7195 250.128 29.041 251.492 27.9919C252.908 26.8904 254.797 26.3659 257.21 26.3659C258.364 26.3659 259.57 26.4708 260.724 26.733C261.616 26.8904 262.508 27.1002 263.399 27.4149L262.403 31.8735C261.668 31.6113 260.986 31.4539 260.252 31.2441C259.413 31.0343 258.521 30.9818 257.682 30.9818C255.898 30.9818 255.007 31.4539 255.007 32.4505C255.007 32.6604 255.059 32.8702 255.112 33.08C255.216 33.2898 255.374 33.4472 255.584 33.6045C255.793 33.7619 256.108 33.9193 256.475 34.1291C256.842 34.3389 257.367 34.5487 257.997 34.7585C259.046 35.1257 260.095 35.5978 261.039 36.1223C261.773 36.4895 262.403 36.9616 262.927 37.591C263.399 38.0631 263.714 38.6401 263.924 39.322C264.134 40.0564 264.239 40.7907 264.239 41.5251C264.343 43.3085 263.504 45.0395 261.983 46.0361C260.514 47.0328 258.416 47.5573 255.689 47.5573C254.167 47.6098 252.699 47.4524 251.23 47.0852C250.391 46.8754 249.604 46.6131 248.817 46.3509L249.761 41.7349C250.705 42.1021 251.702 42.4168 252.699 42.6266C253.748 42.6791 254.744 42.784 255.793 42.784ZM226.891 37.014C226.839 35.4404 227.154 33.8668 227.678 32.3981C228.15 31.1392 228.885 30.0376 229.829 29.041C230.72 28.1493 231.717 27.4674 232.871 27.0478C234.025 26.5757 235.231 26.3659 236.438 26.3659C239.27 26.3659 241.526 27.2576 243.152 28.9886C244.778 30.7195 245.617 33.2898 245.617 36.6469C245.617 36.9616 245.617 37.3288 245.565 37.7484C245.565 38.168 245.512 38.4828 245.512 38.7975H232.714C232.819 39.899 233.396 40.9481 234.34 41.5776C235.494 42.3119 236.858 42.6791 238.221 42.6266C239.218 42.6266 240.267 42.5217 241.264 42.3644C242.103 42.207 242.942 41.9447 243.729 41.5776L244.516 46.1935C244.149 46.4033 243.729 46.5082 243.309 46.6656C242.732 46.823 242.155 46.9803 241.578 47.0328C240.949 47.1377 240.32 47.2426 239.585 47.3475C238.903 47.4 238.169 47.4524 237.435 47.4524C235.808 47.5049 234.235 47.2426 232.714 46.6656C231.455 46.1935 230.353 45.4592 229.409 44.515C228.517 43.5708 227.888 42.4168 227.468 41.2104C227.101 39.7941 226.891 38.3778 226.891 37.014ZM240.162 34.8634C240.162 34.3913 240.057 33.9193 239.9 33.4472C239.795 32.9751 239.533 32.6079 239.27 32.2407C238.956 31.8735 238.589 31.5588 238.169 31.349C237.644 31.0867 237.12 30.9818 236.543 30.9818C235.966 30.9818 235.441 31.0867 234.917 31.349C234.497 31.5588 234.077 31.8211 233.763 32.1883C233.448 32.5554 233.186 32.9751 233.028 33.4472C232.871 33.9193 232.766 34.3913 232.714 34.8634H240.162ZM211.522 21.8548L217.187 20.9631V26.8379H224.006V31.5588H217.187V38.5877C217.135 39.5843 217.345 40.5809 217.817 41.4202C218.236 42.1021 219.076 42.4693 220.387 42.4693C221.016 42.4693 221.646 42.4168 222.223 42.3119C222.852 42.207 223.429 42.0496 224.006 41.8398L224.793 46.246C224.059 46.5607 223.272 46.7705 222.485 46.9803C221.489 47.1901 220.439 47.295 219.39 47.295C218.079 47.3475 216.768 47.1377 215.561 46.6656C214.617 46.2984 213.778 45.669 213.148 44.9346C212.519 44.1478 212.099 43.2036 211.837 42.207C211.575 41.053 211.47 39.8466 211.522 38.6926V21.8548ZM188.6 37.014C188.547 35.4404 188.862 33.8668 189.387 32.3981C189.859 31.1392 190.593 30.0376 191.537 29.041C192.429 28.1493 193.426 27.4674 194.58 27.0478C195.734 26.5757 196.94 26.3659 198.146 26.3659C200.979 26.3659 203.235 27.2576 204.861 28.9886C206.487 30.7195 207.326 33.2898 207.326 36.6469C207.326 36.9616 207.326 37.3288 207.274 37.7484C207.221 38.168 207.221 38.4828 207.221 38.7975H194.37C194.475 39.899 195.052 40.9481 195.996 41.5776C197.15 42.3119 198.514 42.6791 199.877 42.6266C200.874 42.6266 201.923 42.5217 202.92 42.3644C203.759 42.207 204.598 41.9447 205.438 41.5776L206.224 46.1935C205.857 46.4033 205.438 46.5082 205.018 46.6656C204.441 46.823 203.864 46.9803 203.287 47.0328C202.658 47.1377 202.028 47.2426 201.294 47.3475C200.612 47.4 199.878 47.4524 199.143 47.4524C197.517 47.5049 195.943 47.2426 194.422 46.6656C193.163 46.1935 192.062 45.4592 191.118 44.515C190.226 43.5708 189.597 42.4168 189.177 41.2104C188.757 39.7941 188.547 38.3778 188.6 37.014ZM201.871 34.8634C201.871 34.3913 201.766 33.9193 201.608 33.4472C201.504 32.9751 201.241 32.6079 200.979 32.2407C200.664 31.8735 200.297 31.5588 199.877 31.349C199.353 31.0867 198.828 30.9818 198.251 30.9818C197.674 30.9818 197.15 31.0867 196.625 31.349C196.206 31.5588 195.839 31.8211 195.524 32.1883C195.209 32.5554 194.947 32.9751 194.789 33.4472C194.632 33.9193 194.527 34.3913 194.475 34.8634H201.871ZM167.094 27.5198C168.3 27.2051 169.559 26.9429 170.818 26.733C172.392 26.4708 174.018 26.3659 175.591 26.3659C177.008 26.3134 178.424 26.5757 179.788 27.0478C180.837 27.4149 181.781 28.0444 182.463 28.8837C183.145 29.7229 183.617 30.7195 183.879 31.7686C184.194 32.9751 184.299 34.234 184.299 35.4929V46.7705H178.686V36.2272C178.686 34.3913 178.424 33.1324 177.952 32.3456C177.48 31.6113 176.588 31.1916 175.277 31.1916C174.857 31.1916 174.437 31.1916 173.965 31.2441C173.493 31.2441 173.126 31.2965 172.759 31.349V46.7705H167.094V27.5198ZM163.107 31.8735C162.583 31.7686 162.006 31.6113 161.324 31.5064C160.589 31.349 159.855 31.2965 159.121 31.2965C158.701 31.2965 158.281 31.349 157.809 31.4015C157.442 31.4539 157.075 31.5064 156.708 31.6113V46.8754H151.043V27.887C152.197 27.4674 153.403 27.1527 154.61 26.8904C156.131 26.5232 157.704 26.3659 159.226 26.4183C159.593 26.4183 159.96 26.4708 160.327 26.4708C160.747 26.4708 161.166 26.5232 161.639 26.6281C162.058 26.6806 162.478 26.733 162.95 26.8379C163.317 26.8904 163.684 26.9953 164.051 27.1527L163.107 31.8735ZM127.911 37.014C127.858 35.4404 128.173 33.8668 128.697 32.3981C129.17 31.1392 129.904 30.0376 130.848 29.041C131.74 28.1493 132.736 27.4674 133.89 27.0478C135.044 26.5757 136.251 26.3659 137.457 26.3659C140.29 26.3659 142.545 27.2576 144.171 28.9886C145.797 30.7195 146.637 33.2898 146.637 36.5944C146.637 36.9091 146.637 37.2763 146.584 37.6959C146.532 38.1156 146.532 38.4303 146.532 38.745H133.681C133.785 39.8466 134.362 40.8956 135.307 41.5251C136.461 42.2595 137.824 42.6266 139.188 42.5742C140.185 42.5742 141.234 42.4693 142.231 42.3119C143.07 42.1545 143.909 41.8923 144.696 41.5776L145.483 46.1935C145.116 46.4033 144.696 46.5082 144.276 46.6656C143.699 46.823 143.122 46.9803 142.545 47.0328C141.916 47.1377 141.286 47.2426 140.552 47.3475C139.87 47.4 139.136 47.4524 138.401 47.4524C136.775 47.5049 135.202 47.2426 133.681 46.6656C132.422 46.1935 131.32 45.4592 130.376 44.515C129.484 43.5708 128.855 42.4168 128.435 41.2104C128.12 39.7941 127.911 38.4303 127.911 37.014ZM141.234 34.8634C141.234 34.3913 141.129 33.9193 140.972 33.4472C140.867 32.9751 140.604 32.6079 140.342 32.2407C140.028 31.8735 139.66 31.5588 139.241 31.349C138.716 31.0867 138.192 30.9818 137.615 30.9818C137.038 30.9818 136.513 31.0867 135.989 31.349C135.569 31.5588 135.149 31.8211 134.835 32.1883C134.52 32.5554 134.258 32.9751 134.1 33.4472C133.943 33.9193 133.838 34.3913 133.785 34.8634H141.234ZM118.731 36.6993C118.731 33.0275 117.367 31.2441 114.692 31.2441C114.115 31.2441 113.538 31.2965 112.961 31.4539C112.489 31.5588 112.017 31.7686 111.597 32.0309V42.3119C111.86 42.3644 112.227 42.4168 112.647 42.4693C113.066 42.5217 113.538 42.5217 114.063 42.5217C115.427 42.6266 116.738 42.0496 117.577 40.9481C118.364 39.6892 118.784 38.2205 118.731 36.6993ZM124.501 36.9091C124.501 38.3778 124.291 39.8466 123.767 41.2628C123.347 42.5217 122.665 43.6233 121.774 44.5674C120.829 45.5116 119.728 46.246 118.521 46.7181C117.105 47.2426 115.636 47.4524 114.115 47.4524C113.433 47.4524 112.699 47.4 111.965 47.3475C111.23 47.295 110.496 47.1901 109.762 47.1377C109.08 47.0328 108.398 46.9279 107.716 46.7705C107.034 46.6656 106.457 46.5082 105.985 46.2984V18.2355L111.65 17.3438V27.31C112.279 27.0478 112.961 26.8379 113.643 26.6806C114.378 26.5232 115.112 26.4708 115.846 26.4708C117.158 26.4708 118.416 26.6806 119.623 27.2576C120.672 27.7297 121.616 28.464 122.351 29.3557C123.137 30.3524 123.714 31.4539 124.029 32.6604C124.344 33.9717 124.501 35.4404 124.501 36.9091ZM100.582 46.1411C99.3757 46.4558 98.1168 46.7181 96.8579 46.8754C95.2843 47.1377 93.6582 47.2426 92.0846 47.2426C90.6159 47.295 89.1996 47.0328 87.8358 46.5607C86.7867 46.1411 85.895 45.5116 85.1607 44.6723C84.4788 43.7806 84.0067 42.784 83.7444 41.6825C83.4297 40.476 83.3248 39.1647 83.3248 37.9058V26.8379H88.9898V37.2763C88.9898 39.1122 89.2521 40.4236 89.7242 41.2104C90.1962 41.9972 91.088 42.4168 92.3993 42.4168C92.8189 42.4168 93.2386 42.4168 93.7107 42.3644C94.1827 42.3119 94.5499 42.3119 94.9171 42.207V26.8379H100.582V46.1411ZM67.5361 34.0766C68.1131 33.4472 68.6377 32.8177 69.2671 32.1883C69.8441 31.5064 70.4211 30.8769 70.9981 30.2475C71.5751 29.5656 72.0996 28.9886 72.5717 28.4116C73.0438 27.8346 73.5159 27.31 73.883 26.8904H80.5972C79.2334 28.4116 77.922 29.9327 76.6631 31.349C75.3518 32.7653 73.988 34.234 72.4668 35.7027C73.3061 36.4895 74.0929 37.2763 74.8272 38.168C75.614 39.1122 76.4008 40.0564 77.1877 41.1055C77.922 42.1021 78.6564 43.1512 79.2858 44.1478C79.9153 45.1444 80.4398 46.0886 80.8594 46.9279H74.3551C73.9355 46.246 73.4634 45.5641 72.9389 44.7773C72.4143 43.9904 71.8373 43.2036 71.3128 42.3644C70.7358 41.5776 70.1064 40.7907 69.4245 40.0564C68.8475 39.3745 68.218 38.745 67.5361 38.2205V46.9803H61.8711V18.2355L67.5361 17.3438V34.0766Z" fill="black"/>
</svg>
