<svg width="16" height="16" viewBox="0 0 16 16" fill="none" xmlns="http://www.w3.org/2000/svg">
<path d="M4.29739 15.6914H1.17509V5.60414H4.29739V15.6914ZM2.72136 4.28314C1.70165 4.28314 0.875 3.44975 0.875 2.42187C0.875 1.39388 1.70177 0.560547 2.72136 0.560547C3.74095 0.560547 4.56761 1.39388 4.56761 2.42187C4.56766 3.44981 3.74101 4.28314 2.72136 4.28314ZM15.9982 15.6914H12.891V10.3964C12.891 8.94416 12.3394 8.1335 11.1911 8.1335C9.94128 8.1335 9.28837 8.97781 9.28837 10.3964V15.6914H6.29373V5.60414H9.28837V6.96272C9.28837 6.96272 10.1892 5.29645 12.3281 5.29645C14.467 5.29645 15.9982 6.60249 15.9982 9.30429L15.9982 15.6914Z" fill="url(#paint0_linear_604_6740)"/>
<defs>
<linearGradient id="paint0_linear_604_6740" x1="-1.96529" y1="-1.23896" x2="18.1458" y2="18.8721" gradientUnits="userSpaceOnUse">
<stop stop-color="#2489BE"/>
<stop offset="1" stop-color="#0575B3"/>
</linearGradient>
</defs>
</svg>
