<svg width="20" height="24" viewBox="0 0 20 24" fill="none" xmlns="http://www.w3.org/2000/svg">
<path d="M19.207 4.5C19.3946 4.68749 19.4999 4.9418 19.5 5.207V22.5C19.5 22.7652 19.3946 23.0196 19.2071 23.2071C19.0196 23.3946 18.7652 23.5 18.5 23.5H1.5C1.23478 23.5 0.98043 23.3946 0.792893 23.2071C0.605357 23.0196 0.5 22.7652 0.5 22.5V1.5C0.5 1.23478 0.605357 0.98043 0.792893 0.792893C0.98043 0.605357 1.23478 0.5 1.5 0.5H14.793C15.0582 0.500057 15.3125 0.605451 15.5 0.793L19.207 4.5Z" stroke="#262F59" stroke-linecap="round" stroke-linejoin="round"/>
<path d="M4 7.77148L5.083 8.85348C5.13428 8.90481 5.19612 8.94436 5.26421 8.96938C5.33231 8.99441 5.40504 9.00432 5.47735 8.99842C5.54966 8.99252 5.61983 8.97096 5.68297 8.93522C5.74611 8.89949 5.80072 8.85044 5.843 8.79148L8 5.77148" stroke="#262F59" stroke-linecap="round" stroke-linejoin="round"/>
<path d="M11.5 7.5H15.5" stroke="#262F59" stroke-linecap="round" stroke-linejoin="round"/>
<path d="M4 12.7715L5.083 13.8535C5.13428 13.9048 5.19612 13.9444 5.26421 13.9694C5.33231 13.9944 5.40504 14.0043 5.47735 13.9984C5.54966 13.9925 5.61983 13.971 5.68297 13.9352C5.74611 13.8995 5.80072 13.8504 5.843 13.7915L8 10.7715" stroke="#262F59" stroke-linecap="round" stroke-linejoin="round"/>
<path d="M11.5 12.5H15.5" stroke="#262F59" stroke-linecap="round" stroke-linejoin="round"/>
<path d="M4 17.7715L5.083 18.8535C5.13428 18.9048 5.19612 18.9444 5.26421 18.9694C5.33231 18.9944 5.40504 19.0043 5.47735 18.9984C5.54966 18.9925 5.61983 18.971 5.68297 18.9352C5.74611 18.8995 5.80072 18.8504 5.843 18.7915L8 15.7715" stroke="#262F59" stroke-linecap="round" stroke-linejoin="round"/>
<path d="M11.5 17.5H15.5" stroke="#262F59" stroke-linecap="round" stroke-linejoin="round"/>
</svg>
