<?xml version="1.0" encoding="UTF-8"?>
<svg id="Layer_1" data-name="Layer 1" xmlns="http://www.w3.org/2000/svg" version="1.1" viewBox="0 0 173 48">
  <defs>
    <style>
      .cls-1 {
        fill: #ff281e;
      }

      .cls-1, .cls-2, .cls-3, .cls-4 {
        stroke-width: 0px;
      }

      .cls-2, .cls-3 {
        fill: #262f59;
      }

      .cls-3 {
        fill-rule: evenodd;
      }

      .cls-4 {
        fill: #fff;
      }

      .cls-5 {
        display: none;
      }
    </style>
  </defs>
  <g id="Layer_1-2" data-name="Layer 1" class="cls-5">
    <path class="cls-3" d="M22.8.4c1-.5,2.3-.5,3.3,0l16.6,8c1,.5,1.8,1.5,2.1,2.6l2.8,12.3h-10.2l-1.5-6.3c0-.6-.5-1-1-1.3l-9.6-4.7c-.5-.3-1.1-.3-1.7,0l-9.6,4.6c-.5.3-.9.7-1,1.3l-1.4,6.3H1.4l2.8-12.2c.3-1.1,1-2.1,2.1-2.6L22.8.4ZM.5,27.1l-.4,1.9c-.3,1.1,0,2.3.7,3.2l11.5,14.4c.7.9,1.8,1.4,3,1.4h18.4c1.2,0,2.3-.5,3-1.4l11.5-14.4c.7-.9,1-2.1.7-3.2l-.4-1.9h-10.3v.3c.2.6,0,1.2-.3,1.6l-6.6,8.3c-.4.5-.9.7-1.5.7h-10.6c-.6,0-1.1-.3-1.5-.7l-6.7-8.3c-.4-.5-.5-1-.4-1.6v-.3c.1,0-10.1,0-10.1,0Z"/>
    <path class="cls-3" d="M25.3,15.7c-.5-.3-1.1-.3-1.7,0l-6,2.9c-.5.3-.9.7-1,1.3l-1.5,6.5c-.1.6,0,1.2.4,1.6l4.2,5.2c.4.5.9.7,1.5.7h6.7c.6,0,1.1-.3,1.5-.7l4.2-5.2c.4-.5.5-1,.4-1.6l-1.5-6.5c0-.6-.5-1-1-1.3l-6.2-2.9ZM23.3,21h2.7v2.7h2.7v2.7h-2.7v2.6h-2.7v-2.7h-2.7v-2.7h2.7v-2.6Z"/>
    <path class="cls-2" d="M58.5,26.5v-13.2h2.4v6.9l-.6-.2,5.6-6.6h3l-5.3,6.2v-1.7c0,0,5.4,8.6,5.4,8.6h-2.8l-3.5-5.8-1.8,2.1v3.7s-2.4,0-2.4,0ZM75.6,26.7c-1,0-1.9-.2-2.7-.6-.8-.4-1.4-1-1.8-1.8-.4-.7-.7-1.6-.7-2.5v-8.5h2.4v8.3c0,.5,0,1,.4,1.5.2.4.6.8,1,1s.9.4,1.5.4,1-.1,1.5-.4c.4-.2.8-.6,1-1s.4-.9.4-1.5v-8.3h2.4v8.5c0,.9-.2,1.8-.7,2.5-.4.7-1.1,1.3-1.9,1.8-.9.4-1.8.6-2.8.6ZM83.2,26.5v-13.2h5.6c.9,0,1.6.2,2.2.5s1.1.7,1.4,1.3c.3.5.5,1.2.5,2s-.2,1.2-.5,1.7-.8.9-1.5,1.3v-1.1c.6.2,1.2.6,1.5.9.4.4.6.8.8,1.2.2.4.2.9.2,1.4,0,1.3-.4,2.3-1.3,3-.8.7-2,1.1-3.4,1.1h-5.5ZM85.6,24.4h3.4c.6,0,1.1-.2,1.5-.5.4-.4.6-.8.6-1.4s-.2-1-.6-1.4-.9-.5-1.5-.5h-3.4v3.8ZM85.6,18.4h3.3c.5,0,.9-.1,1.2-.4.3-.3.4-.7.4-1.1s0-.8-.4-1.1c-.3-.3-.7-.4-1.2-.4h-3.3v3ZM95.4,26.5v-13.2h8.8v2.1h-6.3v3.4h6v2.1h-6v3.4h6.3v2.1h-8.8ZM105.9,26.5v-13.2h4.9c.9,0,1.7.2,2.4.5.7.3,1.2.8,1.6,1.4.4.6.6,1.4.6,2.2s-.2,1.7-.7,2.3c-.4.6-1,1.1-1.7,1.4l3,5.3h-2.7l-3.2-5.8,1.6.9h-3.3v4.9h-2.5ZM108.4,19.5h2.5c.4,0,.8-.1,1.1-.2.3-.2.6-.4.7-.7.2-.3.3-.7.3-1.1s0-.8-.3-1.1c-.2-.3-.4-.5-.7-.7-.3-.2-.7-.3-1.1-.3h-2.5v4.1ZM117.6,26.5v-13.2h1.9l7.3,9.8-1,.2v-10h2.4v13.2h-1.9l-7.1-9.8.9-.2v10h-2.5ZM130.8,26.5v-13.2h8.8v2.1h-6.3v3.4h6v2.1h-6v3.4h6.3v2.1h-8.8ZM143.6,26.5v-11.1h-3.4v-2.1h9.2v2.1h-3.4v11.1h-2.4ZM150.9,26.5v-13.2h8.8v2.1h-6.3v3.4h6v2.1h-6v3.4h6.3v2.1h-8.8ZM166.1,26.7c-.8,0-1.6-.2-2.3-.5s-1.3-.7-1.8-1.3c-.5-.6-.9-1.2-1.1-1.9l2-.9c.3.8.8,1.4,1.4,1.8.6.4,1.3.6,2,.6s.8-.1,1.1-.2.6-.3.7-.6c.2-.2.3-.5.3-.8s-.1-.7-.4-1c-.2-.3-.6-.5-1-.6l-2.5-.8c-1-.3-1.8-.8-2.3-1.4s-.8-1.4-.8-2.2.2-1.4.5-2c.4-.6.9-1,1.6-1.3.7-.3,1.4-.5,2.3-.5s1.5.1,2.2.4c.7.3,1.2.7,1.7,1.1.5.5.8,1.1,1.1,1.7l-2,.9c-.3-.7-.6-1.2-1.2-1.5-.5-.4-1.1-.5-1.8-.5s-.8.1-1.1.2c-.3.1-.5.3-.7.6-.2.2-.2.5-.2.8s.1.7.4,1c.2.3.6.5,1.1.6l2.4.8c1,.3,1.8.8,2.4,1.4.5.6.8,1.3.8,2.2s-.2,1.4-.6,2c-.4.6-.9,1-1.6,1.4-.9.3-1.7.5-2.6.5Z"/>
    <path class="cls-2" d="M59.7,36.2c-.4,0-.7,0-1.1-.2-.3,0-.6-.3-.9-.6-.2-.3-.4-.5-.6-.9s-.1-.7-.1-1,0-.8.2-1.1c0-.3.3-.6.6-.9.2-.3.5-.4.9-.6.3-.1.7-.2,1.1-.2s.7.1,1,.2.6.3.8.5.4.4.5.7l-1.1.4c0-.3-.3-.5-.5-.7s-.5-.3-.9-.3-.6.1-.9.2c-.3.2-.5.4-.6.7s-.2.6-.2,1,0,.7.2,1c0,.3.3.5.6.7s.6.2.9.2.6,0,.9-.3c.2-.2.4-.4.5-.7l.9.4c0,.3-.2.5-.5.7-.2.2-.5.4-.8.5-.2.3-.6.3-.9.3ZM65.4,36.2c-.4,0-.8,0-1.1-.2-.3,0-.6-.3-.9-.6-.3-.3-.5-.5-.6-.9,0-.3-.2-.7-.2-1.1s0-.8.2-1.1c0-.3.3-.6.6-.9s.6-.4.9-.6c.3-.1.7-.2,1.1-.2s.8.1,1.1.2c.3.1.6.3.9.6.3.2.5.5.6.9,0,.3.2.7.2,1.1s0,.8-.2,1.1-.3.6-.6.9c-.3.3-.6.4-.9.6-.4.2-.7.2-1.1.2ZM65.4,35.3c.3,0,.5,0,.7,0s.4-.2.6-.4.3-.4.4-.6c0-.2,0-.5,0-.8s0-.5,0-.7-.2-.4-.4-.6c-.2-.2-.4-.3-.6-.4s-.5-.1-.7-.1c-.3,0-.5,0-.7.1s-.4.2-.6.4c-.2.2-.3.4-.4.6,0,.2,0,.5,0,.7s0,.5,0,.8c0,.2.2.4.4.6.2.2.4.3.6.4.2,0,.4,0,.7,0ZM69.1,36.1v-5.4h.9l2,2.7h-.4l2-2.7h.9v5.4h-1v-4.3h.4c0,.1-2,2.8-2,2.8h0l-2-2.7h.3c0-.1,0,4.2,0,4.2h-1ZM75.5,36.1v-5.4h.9l2,2.7h-.4l2-2.7h.9v5.4h-1v-4.3h.4c0,.1-2,2.8-2,2.8h0l-2-2.7h.3c0-.1,0,4.2,0,4.2h-1ZM84,36.2c-.4,0-.8,0-1.1-.3-.3-.2-.6-.4-.8-.7-.2-.3-.3-.6-.3-1v-3.5h1v3.4c0,.2,0,.4,0,.6,0,.2.2.3.4.4s.4,0,.6,0,.4,0,.6,0,.3-.2.4-.4.2-.4.2-.6v-3.4h1v3.5c0,.4,0,.7-.3,1-.2.3-.4.5-.8.7-.2.2-.5.3-1,.3ZM87.2,36.1v-5.4h.8l3,4h-.4c0,0,0-4,0-4h1v5.4h-.8l-2.9-4h.4c0-.1,0,4,0,4,0,0-1.1,0-1.1,0ZM92.5,36.1v-5.4h1v5.4h-1ZM95.5,36.1v-4.5h-1.4v-.9h3.8v.9h-1.4v4.5h-1ZM99.8,36.1v-2.4l-1.8-3h1.1l1.4,2.3h-.4l1.4-2.3h1.1l-1.8,3v2.4h-1ZM104.5,36.1v-5.4h1.8c.6,0,1.1.1,1.5.3.4.2.8.5,1,.9.2.4.3.9.3,1.4s0,1-.3,1.4c-.2.4-.6.7-1,1-.4.2-.9.3-1.5.3h-1.8ZM105.5,35.3h.8c.4,0,.7,0,.9-.2.3-.2.5-.4.6-.6,0-.3.2-.6.2-1s0-.7-.2-1-.4-.5-.6-.6c-.3-.1-.6-.2-.9-.2h-.8v3.6ZM109.2,36.1l1.9-5.4h1.3l1.9,5.4h-1.1l-.4-1.2h-2.1l-.4,1.2h-1.1ZM110.9,34.1h1.5l-.9-2.7h.3l-.9,2.7ZM115.6,36.1v-2.4l-1.8-3h1.1l1.4,2.3h-.4l1.4-2.3h1.1l-1.8,3v2.4h-1ZM120.7,36.2c-.3,0-.7,0-1-.2-.3,0-.5-.3-.8-.5-.2-.2-.4-.5-.5-.8l.8-.4c0,.3.3.6.6.7.2.2.5.3.8.3s.3,0,.4,0,.2,0,.3-.2c0,0,0-.2,0-.3,0-.2,0-.3,0-.4,0,0-.2-.2-.4-.2l-1-.3c-.4,0-.7-.3-.9-.6-.2-.3-.3-.6-.3-.9s0-.6.2-.8c.2-.2.4-.4.6-.5.3-.1.6-.2.9-.2s.6.1.9.2.5.3.7.5.3.4.4.7l-.8.4c0-.3-.3-.5-.5-.6-.2-.1-.5-.2-.7-.2s-.3,0-.4.1-.2.1-.3.2c0,0,0,.2,0,.3s0,.3,0,.4c0,0,.2.2.4.3l1,.3c.4,0,.7.3,1,.6.2.2.3.5.3.9s0,.6-.2.8c-.2.2-.4.4-.7.6,0,0-.4,0-.8,0ZM124.4,36.1v-.4l3.1-4.5h-2.9v-.5h3.7v.4l-3.1,4.5h3.1v.5h-3.9ZM131,36.2c-.4,0-.7,0-1-.2-.3-.2-.5-.4-.7-.7s-.2-.6-.2-1v-3.6h.6v3.6c0,.3.1.5.2.7.1.2.3.3.5.5.2,0,.4.2.7.2s.5,0,.7-.2c.2,0,.4-.3.5-.5s.2-.4.2-.7v-3.6h.6v3.6c0,.4-.1.7-.2,1-.2.3-.4.5-.7.7-.5.2-.9.2-1.2.2ZM129.9,30v-.7h.7v.7h-.7ZM131.2,30v-.7h.7v.7h-.7ZM134.1,36.1v-5.4h1.8c.4,0,.7.1.9.2.3.1.5.3.6.6.1.2.2.5.2.9s-.1.7-.3,1-.5.5-.8.6l1.3,2.2h-.7l-1.3-2.3.4.2h-1.6v2.1h-.5ZM134.7,33.5h1.3c.2,0,.4,0,.6,0,.2,0,.3-.2.4-.4.1-.2.1-.4.1-.6s0-.4-.1-.6c-.1-.2-.2-.3-.4-.4s-.4-.1-.6-.1h-1.3v2.2ZM138.8,36.1v-5.4h.6v5.4h-.6ZM143.1,36.2c-.4,0-.7,0-1-.2-.3,0-.6-.3-.8-.6s-.4-.5-.5-.9c-.1-.3-.2-.7-.2-1.1s.1-.8.2-1.1c.1-.3.3-.6.5-.9s.5-.4.8-.6c.3-.1.7-.2,1-.2s.7.1,1,.2.5.3.7.5.3.4.4.6l-.5.2c-.1-.3-.3-.6-.6-.8-.3-.2-.6-.3-1-.3s-.7.1-1.1.3c-.3.2-.5.5-.7.8s-.3.7-.3,1.2.1.8.3,1.2c.2.3.4.6.7.8s.7.3,1.1.3.7,0,1-.3.5-.4.6-.8l.5.2c-.1.2-.2.4-.4.6-.2.2-.4.4-.7.5-.3.4-.7.4-1,.4ZM146.2,36.1v-5.4h.6v2.4h2.9v-2.4h.6v5.4h-.6v-2.4h-2.9v2.4h-.6ZM152.6,36.1v-.4l1.5-1.7c.3-.3.5-.6.7-.8s.3-.4.4-.6c.1-.2.1-.4.1-.6,0-.3-.1-.6-.3-.7-.2-.2-.4-.3-.8-.3s-.6.1-.8.3c-.2.2-.4.4-.4.8h-.5c.1-.4.2-.6.3-.9s.4-.4.6-.5c.2-.1.5-.2.8-.2s.6.1.8.2.4.3.6.5c.1.2.2.5.2.8s0,.4-.1.6-.2.4-.4.6c-.2.2-.4.5-.7.8l-1.4,1.5h2.7v.5h-3.3ZM159.1,36.2c-.4,0-.8,0-1.1-.3s-.6-.6-.7-1c-.2-.4-.3-.9-.3-1.5s.1-1,.3-1.5c.2-.4.4-.7.7-1,.3-.2.7-.3,1.1-.3s.8.1,1.1.3c.3.2.6.6.7,1,.2.4.3.9.3,1.5s-.1,1-.3,1.5c-.2.4-.4.7-.7,1-.3.2-.6.3-1.1.3ZM159.1,35.7c.3,0,.6,0,.8-.3s.4-.4.5-.8c.1-.3.2-.7.2-1.2s-.1-.8-.2-1.2c-.1-.3-.3-.6-.5-.8-.2-.2-.5-.3-.8-.3s-.6.1-.8.3c-.2.2-.4.4-.5.8-.1.3-.2.7-.2,1.2s.1.8.2,1.2c.1.3.3.6.5.8.3.2.5.3.8.3ZM162.2,36.1v-.4l1.5-1.7c.3-.3.5-.6.7-.8s.3-.4.4-.6c.1-.2.1-.4.1-.6,0-.3-.1-.6-.3-.7-.2-.2-.4-.3-.8-.3s-.6.1-.8.3c-.2.2-.4.4-.4.8h-.5c.1-.4.2-.6.3-.9.2-.2.4-.4.6-.5.2-.1.5-.2.8-.2s.6.1.8.2.4.3.6.5c.1.2.2.5.2.8s0,.4-.1.6-.2.4-.4.6c-.2.2-.4.5-.7.8l-1.4,1.5h2.7v.5h-3.3ZM168.2,36.2c-.3,0-.5,0-.8,0-.2,0-.4-.2-.6-.4-.2-.2-.3-.4-.4-.6l.5-.2c.1.3.3.5.5.7s.5.2.8.2.5,0,.6,0c.2,0,.3-.2.4-.4.1-.2.2-.4.2-.7s-.1-.5-.2-.7c-.1-.2-.3-.3-.4-.4-.2,0-.4,0-.6,0h-.4v-.3c-.1,0,1.4-1.8,1.4-1.8h-2.5v-.5h3.1v.5l-1.4,1.7h-.1c.3,0,.6,0,.9.1.2,0,.4.3.6.6.1.2.2.5.2.8s-.1.6-.2.9c-.2.3-.4.5-.6.6-.3.2-.6.2-1,.2Z"/>
    <g id="Original_font" data-name="Original font">
      <path class="cls-1" d="M-56.5,64.3v-13.4h3.9v5l3.9-5h4.9l-5,6.2,5.6,7.2h-5l-3.2-4.3-1.2,1.3v3h-3.9Z"/>
      <path class="cls-1" d="M-36.6,64.6c-1.4,0-2.6-.3-3.7-.8s-1.9-1.4-2.5-2.4-.9-2.3-.9-3.7.2-2,.5-2.9c.4-.9.8-1.6,1.5-2.2.6-.6,1.4-1.1,2.3-1.5s1.8-.5,2.9-.5,2.2,0,2.9.5,1.5.7,2.1,1.3l-1.9,3.2c-.3-.4-.8-.7-1.3-.8s-1-.3-1.7-.3-1,0-1.4.2c-.4.2-.8.4-1.1.6-.3.3-.5.6-.6,1s-.2.8-.2,1.3,0,1.2.4,1.7.7.8,1.2,1.1,1.1.4,1.8.4,1.1,0,1.7-.3,1.1-.4,1.6-.8l1.8,3.2c-.6.5-1.3.8-2.2,1.2-.9.3-2,.5-3.2.5Z"/>
      <path class="cls-1" d="M-29.5,64.3v-13.4h4.9c1.4,0,2.7.3,3.8.8,1.1.6,1.9,1.4,2.5,2.4s.9,2.2.9,3.5-.2,1.9-.5,2.7-.8,1.5-1.5,2.1-1.4,1-2.3,1.4c-.9.3-1.9.5-2.9.5h-4.9ZM-25.6,60.7h.9c.5,0,.9,0,1.3-.2.4,0,.7-.3,1-.6s.5-.6.7-1,.2-.8.2-1.4-.1-1.3-.4-1.7c-.3-.5-.6-.8-1.1-1s-1-.3-1.7-.3h-.9v6.2Z"/>
      <path class="cls-1" d="M-56.5,79.4v-9.7h3.5c1,0,1.9.2,2.7.6s1.4,1,1.8,1.7c.4.7.6,1.6.6,2.5s0,1.4-.4,2-.6,1.1-1.1,1.5-1,.8-1.6,1-1.3.3-2.1.3h-3.4ZM-53.7,76.8h.7c.3,0,.7,0,.9,0,.3,0,.5-.2.7-.4.2-.2.4-.4.5-.7,0-.3.2-.6.2-1s0-.9-.3-1.3c-.2-.3-.5-.6-.8-.7-.3-.2-.7-.2-1.2-.2h-.7s0,4.4,0,4.4Z"/>
      <path class="cls-1" d="M-46.3,79.4v-9.7h7.2v2.4h-4.4v1.3h3.6v2.2h-3.6v1.4h4.5v2.4s-7.3,0-7.3,0Z"/>
      <path class="cls-1" d="M-37.2,79.4v-9.7h2.8l3.4,5.2v-5.2h2.7v9.7h-2.8l-3.4-5.3v5.3h-2.7Z"/>
      <path class="cls-1" d="M-26.2,79.4v-9.7h2.7l3.5,5.9h-1.1l3.3-5.9h2.7v9.7h-2.7v-6.2c.1,0,.6.2.6.2l-2.5,4.4h-1.8l-2.6-4.4.5-.2v6.2c.1,0-2.6,0-2.6,0Z"/>
      <path class="cls-1" d="M-14.1,79.4l3.5-9.7h3.3l3.5,9.7h-3.2l-.5-1.7h-3.1l-.5,1.7h-3ZM-9.9,75.3h1.9l-.9-2.8-1,2.8Z"/>
      <path class="cls-1" d="M-2.7,79.4v-9.7H1.4c.8,0,1.4,0,2,.4.6.2,1,.6,1.3,1,.3.5.5,1,.5,1.6s0,.9-.2,1.2-.4.7-.7.9-.6.4-.9.6l2.4,4h-3.3l-1.8-3.4H.1v3.3h-2.8ZM.1,73.8h1c.4,0,.7,0,.9-.2s.3-.4.3-.7,0-.6-.3-.7-.5-.2-.9-.2H.1s0,1.8,0,1.8Z"/>
      <path class="cls-1" d="M7.1,79.4v-9.7h2.8v3.6l2.8-3.6h3.5l-3.6,4.5,4,5.2h-3.6l-2.3-3.1-.9.9v2.2h-2.7Z"/>
      <path class="cls-1" d="M-56.5,91.4v-1.2h3.5v1.2h-3.5Z"/>
      <path class="cls-1" d="M-51.5,94.5v-1l2-1.8,1.5-1.5c.4-.4.7-.8.8-1.1.2-.3.3-.7.3-1,0-.5-.2-.9-.5-1.2-.3-.3-.8-.4-1.4-.4s-.8,0-1.2.2-.7.3-.9.6l-.5-1.1c.4-.3.8-.6,1.3-.8.5-.2,1-.3,1.5-.3s1.2,0,1.7.3c.5.2.8.5,1.1.9s.4.9.4,1.4,0,.8-.2,1.1c0,.4-.4.8-.8,1.3-.4.5-.9,1-1.6,1.7l-1.4,1.3h4.3v1.2h-6.4v.2Z"/>
      <path class="cls-1" d="M-40.7,94.7c-.6,0-1.1,0-1.6-.4s-.9-.6-1.2-1-.6-.9-.7-1.5c-.2-.6-.3-1.2-.3-1.8s0-1.3.3-1.8c.2-.6.4-1.1.7-1.5s.7-.8,1.2-1,1-.4,1.6-.4,1.1,0,1.6.4c.5.2.9.6,1.2,1s.6.9.7,1.5c.2.6.3,1.2.3,1.8s0,1.3-.3,1.8c-.2.6-.4,1.1-.7,1.5s-.7.8-1.2,1c-.4.2-1,.4-1.6.4ZM-40.7,93.4c.3,0,.7,0,.9-.2.3-.2.5-.4.7-.7.2-.3.4-.7.5-1.1s.2-.9.2-1.4,0-1.3-.3-1.9c-.2-.5-.5-.9-.8-1.2-.3-.3-.8-.4-1.2-.4s-.7,0-.9.2-.5.4-.7.7c-.2.3-.4.7-.5,1.1s-.2.9-.2,1.5,0,1.3.3,1.9c.2.5.5.9.8,1.2.4,0,.8.3,1.2.3Z"/>
      <path class="cls-1" d="M-36,94.5v-1l2-1.8,1.5-1.5c.4-.4.7-.8.8-1.1.2-.3.3-.7.3-1,0-.5-.2-.9-.5-1.2-.3-.3-.8-.4-1.4-.4s-.8,0-1.2.2-.7.3-.9.6l-.5-1.1c.4-.3.8-.6,1.3-.8.5-.2,1-.3,1.5-.3s1.2,0,1.7.3c.5.2.8.5,1.1.9.3.4.4.9.4,1.4s-.1.8-.2,1.1c-.1.4-.4.8-.8,1.3s-.9,1-1.6,1.7l-1.4,1.3h4.3v1.2h-6.4v.2Z"/>
      <path class="cls-1" d="M-25.4,94.7c-.4,0-.8,0-1.1,0s-.7-.2-1-.3c-.3,0-.6-.3-.8-.5l.5-1.2c.3.3.6.5,1,.6.4.2.8.2,1.3.2s.8,0,1.1-.2c.3,0,.5-.3.7-.6s.3-.5.3-.9-.2-.9-.6-1.2c-.4-.3-.9-.4-1.5-.4h-.5c-.2,0-.4,0-.6,0l-.4-1,2.9-2.7h-4v-1.2h5.7v1.1l-2.7,2.6c.5,0,1.1,0,1.5.3.5.2.9.5,1.2.9.3.4.4.9.4,1.5s-.1,1.1-.4,1.5-.7.8-1.2,1-1.1.5-1.8.5Z"/>
      <path class="cls-1" d="M-20.7,91.4v-1.2h3.5v1.2h-3.5Z"/>
    </g>
    <g id="Logo_graphic" data-name="Logo graphic">
      <path class="cls-1" d="M-116.3,78.3c0,.7,0,1.3.5,1.9,0,0,0,.2.2.2l11.1,13.8h0l.2-14.6c-4,.5-8,.2-12-1.3Z"/>
      <path class="cls-1" d="M-104.2,75.3l.3-19.9-6.6,3.2c-.8.4-1.5,1.2-1.7,2.1l-3.4,14.7c3.8.9,7.6.7,11.4,0Z"/>
      <path class="cls-1" d="M-72.5,68.5l-1.8-7.8c-.2-.9-.8-1.7-1.7-2.1l-16-7.6c-.5-.2-1-.3-1.5-.3s-.8,0-1.2.3l-5.2,2.5.3,20.7c9-2.7,18.1-7.3,27.1-5.7Z"/>
      <path class="cls-1" d="M-99.5,78.9l.2,16.4h14.9c.9,0,1.8-.4,2.4-1.1l11.1-13.8c.6-.7.8-1.7.6-2.6h0l-.3-1.3c-9.7-3.5-19.3.5-28.9,2.4Z"/>
      <path class="cls-4" d="M-99.6,74.2l-.3-20.7-4.1,2-.3,19.9c-3.8.8-7.6,1-11.4,0l-.6,2.5c0,0,0,.3,0,.4,4,1.5,8,1.8,12,1.4l-.2,14.6c.6.7,1.5,1.1,2.4,1.1h2.9l-.2-16.4c9.6-1.9,19.2-5.9,28.8-2.4l-1.8-8c-9-1.7-18.1,2.9-27.1,5.6Z"/>
    </g>
  </g>
  <g id="Layer_2" data-name="Layer 2">
    <g id="Original_font-2" data-name="Original font">
      <path class="cls-1" d="M59.1,17.1V4.2h3.7v4.8l3.8-4.8h4.7l-4.8,6,5.4,6.9h-4.9l-3-4.1-1.1,1.2v2.9h-3.8Z"/>
      <path class="cls-1" d="M78.2,17.4c-1.3,0-2.5-.3-3.6-.8-1-.5-1.8-1.3-2.4-2.3s-.9-2.2-.9-3.6.2-1.9.5-2.8c.3-.8.8-1.5,1.4-2.2.6-.6,1.4-1.1,2.2-1.4.8-.3,1.8-.5,2.8-.5s2.1,0,2.8.4c.7.3,1.4.7,2.1,1.2l-1.8,3.1c-.3-.2-.7-.5-1.2-.7s-1-.3-1.6-.3-1,0-1.4.2-.7.4-1,.6-.5.6-.6,1-.2.8-.2,1.3,0,1.2.4,1.7.6.8,1.1,1.1c.5.2,1.1.4,1.8.4s1.1-.1,1.6-.2c.5-.2,1.1-.4,1.6-.8l1.7,3.1c-.6.4-1.3.8-2.2,1.1-.9.3-1.9.4-3.1.4Z"/>
      <path class="cls-1" d="M85.1,17.1V4.2h4.7c1.4,0,2.6.3,3.6.8s1.8,1.3,2.4,2.3.9,2.1.9,3.4-.2,1.8-.5,2.6-.8,1.5-1.4,2c-.6.6-1.3,1-2.2,1.3-.8.3-1.8.5-2.8.5h-4.7ZM88.8,13.7h.9c.5,0,.9-.1,1.2-.2s.7-.3,1-.6c.3-.2.5-.6.6-.9,0-.4.2-.8.2-1.3s0-1.2-.4-1.7c-.3-.4-.6-.8-1.1-1s-1-.3-1.6-.3h-.9v6h.1Z"/>
      <path class="cls-1" d="M59.1,31.7v-9.4h3.4c1,0,1.9.2,2.6.6s1.3.9,1.7,1.6c.4.7.6,1.5.6,2.4s0,1.3-.4,1.9c-.2.6-.6,1.1-1,1.5s-1,.7-1.6,1c-.6.2-1.3.3-2,.3h-3.3ZM61.8,29.1h.6c.3,0,.6,0,.9-.1s.5-.2.7-.4c.2-.2.4-.4.5-.7,0-.3.2-.6.2-1s0-.9-.3-1.2c-.2-.3-.4-.6-.8-.7-.3-.2-.7-.2-1.2-.2h-.6s0,4.3,0,4.3Z"/>
      <path class="cls-1" d="M68.9,31.7v-9.4h6.9v2.3h-4.2v1.2h3.5v2.2h-3.5v1.3h4.3v2.4s-7,0-7,0Z"/>
      <path class="cls-1" d="M77.6,31.7v-9.4h2.7l3.3,5v-5h2.6v9.4h-2.7l-3.3-5.1v5.1h-2.6Z"/>
      <path class="cls-1" d="M88.2,31.7v-9.4h2.6l3.4,5.7h-1.1l3.2-5.7h2.6v9.4h-2.6v-6c0,0,.6.2.6.2l-2.4,4.2h-1.7l-2.5-4.2.5-.2v6c0,0-2.6,0-2.6,0Z"/>
      <path class="cls-1" d="M99.9,31.7l3.4-9.4h3.2l3.4,9.4h-3l-.5-1.7h-3l-.5,1.7h-3ZM104,27.8h1.8l-.9-2.7-.9,2.7Z"/>
      <path class="cls-1" d="M110.9,31.7v-9.4h4c.7,0,1.4.1,1.9.3.5.2,1,.6,1.3,1s.5,1,.5,1.6,0,.9-.2,1.2c-.2.3-.4.6-.6.9-.3.2-.6.4-.9.6l2.3,3.8h-3.2l-1.8-3.2h-.5v3.2h-2.8ZM113.6,26.3h1c.4,0,.7-.1.9-.2.2-.1.3-.4.3-.7s0-.6-.3-.7c-.2-.1-.5-.2-.9-.2h-1v1.8Z"/>
      <path class="cls-1" d="M120.3,31.7v-9.4h2.7v3.5l2.7-3.5h3.4l-3.5,4.3,3.9,5h-3.5l-2.2-3-.8.9v2.1h-2.7Z"/>
      <g>
        <path class="cls-1" d="M57.7,41.9v-2.3h4v2.3h-4Z"/>
        <path class="cls-1" d="M62.9,44.5v-1.7l1.9-1.7c.6-.5,1-.9,1.3-1.3.3-.3.5-.6.6-.8.1-.2.2-.4.2-.7,0-.3-.1-.6-.3-.8-.2-.2-.5-.3-.9-.3s-.8,0-1.1.2c-.4.2-.7.4-1,.7l-.9-1.9c.4-.4.9-.7,1.5-.9.6-.2,1.1-.3,1.7-.3s1.3.1,1.8.4c.5.2.9.6,1.2,1,.3.4.4.9.4,1.5s0,.7-.2,1.1c-.1.3-.4.7-.8,1.2s-.9,1-1.5,1.6l-.6.5h3.3v2.1h-6.7Z"/>
        <path class="cls-1" d="M74.6,44.7c-.6,0-1.2-.1-1.7-.4s-.9-.6-1.2-1c-.3-.4-.6-.9-.8-1.5s-.3-1.2-.3-1.8,0-1.3.3-1.8.4-1.1.8-1.5c.3-.4.7-.8,1.2-1s1.1-.4,1.7-.4,1.2.1,1.7.4c.5.2.9.6,1.2,1,.3.4.6.9.8,1.5s.3,1.2.3,1.8,0,1.3-.3,1.8-.4,1.1-.8,1.5c-.3.4-.7.8-1.2,1-.5.2-1.1.4-1.7.4ZM74.6,42.4c.2,0,.4,0,.6-.2.2-.1.3-.3.5-.5.1-.2.2-.5.3-.8s.1-.7.1-1.1,0-1-.2-1.4c-.1-.4-.3-.7-.5-.8-.2-.2-.5-.3-.8-.3s-.4,0-.6.2c-.2.1-.3.3-.5.5-.1.2-.2.5-.3.8,0,.3-.1.7-.1,1.1s0,1,.2,1.4.3.7.5.8.5.3.8.3Z"/>
        <path class="cls-1" d="M79.6,44.5v-1.7l1.9-1.7c.6-.5,1-.9,1.3-1.3.3-.3.5-.6.6-.8.1-.2.2-.4.2-.7,0-.3-.1-.6-.3-.8-.2-.2-.5-.3-.9-.3s-.8,0-1.1.2c-.4.2-.7.4-1,.7l-.9-1.9c.4-.4.9-.7,1.5-.9.6-.2,1.1-.3,1.7-.3s1.3.1,1.8.4c.5.2.9.6,1.2,1,.3.4.4.9.4,1.5s0,.7-.2,1.1-.4.7-.8,1.2-.9,1-1.5,1.6l-.6.5h3.3v2.1h-6.7Z"/>
        <path class="cls-1" d="M91.2,44.5v-1.6h-4.2v-1.8l2.6-5.7h2.5l-2.5,5.4h1.5v-1.6h2.1v1.6h1.1v2.1h-1.1v1.6h-2.1Z"/>
        <path class="cls-1" d="M95.3,41.9v-2.3h4v2.3h-4Z"/>
      </g>
    </g>
    <g id="Logo_graphic-2" data-name="Logo graphic">
      <path class="cls-1" d="M0,29.6c-.1.7.1,1.4.5,2,.1.1.1.2.2.2l11.6,14.4h0l.2-15.3c-4.1.6-8.3.4-12.5-1.3Z"/>
      <path class="cls-1" d="M12.6,26.6l.3-20.9-7,3.3c-.9.4-1.5,1.2-1.7,2.2L.7,26.6c4,1,7.9.8,11.9,0Z"/>
      <path class="cls-1" d="M45.9,19.3l-1.9-8.2c-.2-.9-.9-1.8-1.7-2.2L25.5,1c-.5-.2-1-.3-1.6-.3s-.8.1-1.2.3l-5.5,2.6.3,21.7c9.5-2.8,19-7.6,28.4-6Z"/>
      <path class="cls-1" d="M17.6,30.3l.2,17.2h15.6c1,0,1.9-.5,2.5-1.2l11.6-14.4c.6-.7.8-1.8.6-2.7h0l-.3-1.4c-10-3.7-20.1.5-30.2,2.5Z"/>
      <path class="cls-4" d="M17.5,25.3l-.3-21.7-4.3,2.1-.3,20.9c-4,.8-8,1-12,0L0,29.2c0,.1,0,.3,0,.4,4.2,1.6,8.4,1.9,12.6,1.4l-.2,15.3c.6.7,1.5,1.2,2.5,1.2h3l-.2-17.2c10.1-2,20.2-6.2,30.3-2.5l-1.9-8.4c-9.6-1.7-19.1,3.1-28.6,5.9Z"/>
    </g>
  </g>
</svg>