<svg width="173" height="48" viewBox="0 0 173 48" fill="none" xmlns="http://www.w3.org/2000/svg">
<path fill-rule="evenodd" clip-rule="evenodd" d="M22.835 0.377532C23.8789 -0.125844 25.0952 -0.125844 26.1391 0.377532L42.7246 8.37558C43.7668 8.8782 44.5236 9.82798 44.7808 10.9562L47.5805 23.2393H37.3669L35.9363 16.9627C35.8078 16.3986 35.4294 15.9237 34.9082 15.6724L25.3124 11.0449C24.7905 10.7932 24.1823 10.7932 23.6603 11.0449L14.0645 15.6724C13.5433 15.9237 13.165 16.3986 13.0364 16.9627L11.6058 23.2393H1.39361L4.19332 10.9562C4.45047 9.82798 5.20725 8.8782 6.24953 8.37558L22.835 0.377532ZM0.523852 27.0551L0.0951418 28.936C-0.161797 30.0633 0.10797 31.2462 0.828231 32.1506L12.3087 46.5663C13.0303 47.4724 14.1255 48.0003 15.2839 48.0003H33.6902C34.8486 48.0003 35.9438 47.4724 36.6654 46.5663L48.1459 32.1506C48.8661 31.2462 49.1359 30.0633 48.879 28.936L48.4502 27.0551H38.2367L38.3073 27.365C38.4357 27.9286 38.3009 28.5201 37.9408 28.9723L31.2987 37.3128C30.9379 37.7658 30.3903 38.0298 29.8111 38.0298H19.1616C18.5824 38.0298 18.0348 37.7658 17.674 37.3128L11.032 28.9723C10.6719 28.5201 10.537 27.9286 10.6654 27.365L10.7361 27.0551H0.523852Z" fill="#262F59"/>
<path fill-rule="evenodd" clip-rule="evenodd" d="M25.3068 15.6619C24.7849 15.4102 24.1767 15.4102 23.6547 15.6619L17.634 18.5654C17.1128 18.8167 16.7344 19.2916 16.6059 19.8557L15.1179 26.3841C14.9894 26.9477 15.1243 27.5392 15.4844 27.9914L19.6524 33.2252C20.0132 33.6783 20.5609 33.9422 21.14 33.9422H27.8215C28.4007 33.9422 28.9483 33.6783 29.3091 33.2252L33.4772 27.9914C33.8373 27.5392 33.9721 26.9477 33.8437 26.3841L32.3557 19.8557C32.2271 19.2916 31.8487 18.8167 31.3276 18.5654L25.3068 15.6619ZM23.2936 20.9872H25.961V23.6581H28.6335V26.3292H25.961V29.0005H23.2936V26.3292H20.6313V23.6581H23.2936V20.9872Z" fill="#262F59"/>
<path d="M58.5064 26.4937V13.3179H60.9116V20.1799L60.2573 19.95L65.8636 13.3179H68.8879L63.6352 19.5432L63.7767 17.8454L69.047 26.4937H66.2173L62.6802 20.6928L60.9116 22.7974V26.4937H58.5064ZM75.5856 26.7059C74.5716 26.7059 73.6696 26.4937 72.8797 26.0692C72.1015 25.6447 71.4884 25.0611 71.0404 24.3183C70.5923 23.5755 70.3683 22.7325 70.3683 21.7893V13.3179H72.7736V21.6655C72.7736 22.2078 72.8915 22.6971 73.1273 23.1334C73.3749 23.5696 73.7109 23.9116 74.1354 24.1592C74.5598 24.395 75.0432 24.5129 75.5856 24.5129C76.1397 24.5129 76.6231 24.395 77.0358 24.1592C77.4603 23.9116 77.7904 23.5696 78.0262 23.1334C78.2738 22.6971 78.3976 22.2078 78.3976 21.6655V13.3179H80.8028V21.7893C80.8028 22.7325 80.5788 23.5755 80.1308 24.3183C79.6827 25.0611 79.0638 25.6447 78.2738 26.0692C77.4956 26.4937 76.5996 26.7059 75.5856 26.7059ZM83.2041 26.4937V13.3179H88.7574C89.6298 13.3179 90.3726 13.4712 90.9857 13.7777C91.6106 14.0725 92.0881 14.4969 92.4183 15.0511C92.7602 15.5934 92.9312 16.2537 92.9312 17.0319C92.9312 17.6332 92.7661 18.1991 92.436 18.7297C92.1176 19.2484 91.6047 19.6788 90.8973 20.0207V18.9065C91.5458 19.1541 92.0587 19.4607 92.436 19.8262C92.8133 20.1917 93.0785 20.5984 93.2318 21.0465C93.3851 21.4945 93.4617 21.9661 93.4617 22.4613C93.4617 23.7229 93.0432 24.7133 92.206 25.4325C91.3807 26.1399 90.2312 26.4937 88.7574 26.4937H83.2041ZM85.6093 24.3714H89.005C89.6298 24.3714 90.125 24.2004 90.4905 23.8585C90.8678 23.5048 91.0565 23.0391 91.0565 22.4613C91.0565 21.8836 90.8678 21.4179 90.4905 21.0642C90.125 20.7105 89.6298 20.5336 89.005 20.5336H85.6093V24.3714ZM85.6093 18.429H88.8812C89.3764 18.429 89.7713 18.2875 90.0661 18.0046C90.3608 17.7098 90.5082 17.3325 90.5082 16.8727C90.5082 16.4129 90.3608 16.0474 90.0661 15.7762C89.7713 15.505 89.3764 15.3694 88.8812 15.3694H85.6093V18.429ZM95.432 26.4937V13.3179H104.186V15.4401H97.8373V18.8181H103.833V20.9404H97.8373V24.3714H104.186V26.4937H95.432ZM105.95 26.4937V13.3179H110.849C111.745 13.3179 112.535 13.4829 113.219 13.8131C113.915 14.1314 114.457 14.603 114.846 15.2279C115.235 15.841 115.43 16.5897 115.43 17.474C115.43 18.3819 115.211 19.1541 114.775 19.7908C114.351 20.4275 113.773 20.8991 113.042 21.2057L116.066 26.4937H113.343L110.106 20.7105L111.663 21.6301H108.355V26.4937H105.95ZM108.355 19.5078H110.884C111.321 19.5078 111.698 19.4253 112.016 19.2602C112.335 19.0834 112.582 18.8417 112.759 18.5351C112.936 18.2286 113.024 17.8749 113.024 17.474C113.024 17.0613 112.936 16.7076 112.759 16.4129C112.582 16.1063 112.335 15.8705 112.016 15.7054C111.698 15.5286 111.321 15.4401 110.884 15.4401H108.355V19.5078ZM117.643 26.4937V13.3179H119.517L126.768 23.0803L125.796 23.2749V13.3179H128.201V26.4937H126.309L119.164 16.6605L120.048 16.4659V26.4937H117.643ZM130.751 26.4937V13.3179H139.506V15.4401H133.157V18.8181H139.152V20.9404H133.157V24.3714H139.506V26.4937H130.751ZM143.604 26.4937V15.4401H140.191V13.3179H149.387V15.4401H146.027V26.4937H143.604ZM150.855 26.4937V13.3179H159.609V15.4401H153.26V18.8181H159.256V20.9404H153.26V24.3714H159.609V26.4937H150.855ZM166.077 26.7059C165.24 26.7059 164.462 26.5526 163.743 26.2461C163.036 25.9395 162.422 25.515 161.904 24.9727C161.397 24.4185 161.025 23.776 160.789 23.045L162.788 22.1784C163.106 22.933 163.566 23.5284 164.167 23.9646C164.769 24.3891 165.447 24.6013 166.201 24.6013C166.626 24.6013 166.991 24.5364 167.298 24.4068C167.616 24.2653 167.858 24.0766 168.023 23.8408C168.2 23.605 168.288 23.322 168.288 22.9919C168.288 22.6028 168.17 22.2845 167.934 22.0369C167.71 21.7775 167.368 21.5771 166.909 21.4356L164.38 20.622C163.354 20.3037 162.582 19.8262 162.063 19.1895C161.544 18.5528 161.285 17.8041 161.285 16.9434C161.285 16.1888 161.467 15.5227 161.833 14.945C162.21 14.3672 162.729 13.9192 163.389 13.6008C164.061 13.2707 164.828 13.1056 165.688 13.1056C166.478 13.1056 167.203 13.2471 167.864 13.5301C168.524 13.8013 169.09 14.1845 169.562 14.6797C170.045 15.1631 170.405 15.7349 170.64 16.3952L168.66 17.2795C168.4 16.6192 168.011 16.1122 167.492 15.7585C166.974 15.393 166.372 15.2102 165.688 15.2102C165.287 15.2102 164.934 15.281 164.627 15.4225C164.321 15.5522 164.079 15.7408 163.902 15.9884C163.737 16.2242 163.655 16.5072 163.655 16.8373C163.655 17.2028 163.772 17.527 164.008 17.81C164.244 18.0812 164.604 18.2934 165.087 18.4467L167.51 19.2072C168.559 19.5491 169.343 20.0207 169.862 20.622C170.393 21.2233 170.658 21.9661 170.658 22.8504C170.658 23.605 170.463 24.2712 170.074 24.8489C169.685 25.4266 169.149 25.8806 168.465 26.2107C167.781 26.5408 166.985 26.7059 166.077 26.7059Z" fill="#262F59"/>
<path d="M59.6551 36.2322C59.2697 36.2322 58.9132 36.1624 58.5856 36.0227C58.2628 35.8829 57.9786 35.6878 57.7329 35.4373C57.492 35.1868 57.3041 34.8929 57.1692 34.5557C57.0343 34.2185 56.9669 33.8499 56.9669 33.4501C56.9669 33.0502 57.0319 32.6817 57.162 32.3444C57.2969 32.0024 57.4848 31.7085 57.7256 31.4628C57.9713 31.2123 58.258 31.0196 58.5856 30.8847C58.9132 30.745 59.2697 30.6751 59.6551 30.6751C60.0405 30.6751 60.3849 30.7402 60.6884 30.8703C60.9968 31.0003 61.2569 31.1738 61.4689 31.3906C61.6809 31.6025 61.8326 31.8362 61.9242 32.0915L61.0425 32.5034C60.9414 32.2336 60.7703 32.012 60.5295 31.8386C60.2886 31.6603 59.9971 31.5712 59.6551 31.5712C59.3178 31.5712 59.0192 31.6507 58.759 31.8097C58.5037 31.9687 58.3037 32.1879 58.1592 32.4673C58.0195 32.7467 57.9497 33.0743 57.9497 33.4501C57.9497 33.8258 58.0195 34.1558 58.1592 34.4401C58.3037 34.7195 58.5037 34.9387 58.759 35.0977C59.0192 35.2567 59.3178 35.3362 59.6551 35.3362C59.9971 35.3362 60.2886 35.2494 60.5295 35.076C60.7703 34.8978 60.9414 34.6737 61.0425 34.404L61.9242 34.8159C61.8326 35.0712 61.6809 35.3072 61.4689 35.524C61.2569 35.736 60.9968 35.907 60.6884 36.0371C60.3849 36.1672 60.0405 36.2322 59.6551 36.2322ZM65.3741 36.2322C64.9791 36.2322 64.6105 36.1624 64.2685 36.0227C63.9264 35.8829 63.6278 35.6878 63.3724 35.4373C63.1171 35.1868 62.9172 34.8929 62.7726 34.5557C62.6329 34.2137 62.5631 33.8451 62.5631 33.4501C62.5631 33.0502 62.6329 32.6817 62.7726 32.3444C62.9123 32.0072 63.1099 31.7133 63.3652 31.4628C63.6205 31.2123 63.9192 31.0196 64.2613 30.8847C64.6033 30.745 64.9743 30.6751 65.3741 30.6751C65.774 30.6751 66.1449 30.745 66.487 30.8847C66.829 31.0244 67.1277 31.2195 67.3831 31.47C67.6384 31.7157 67.8359 32.0072 67.9756 32.3444C68.1202 32.6817 68.1924 33.0502 68.1924 33.4501C68.1924 33.8451 68.1202 34.2137 67.9756 34.5557C67.8311 34.8929 67.6312 35.1868 67.3758 35.4373C67.1205 35.6878 66.8218 35.8829 66.4798 36.0227C66.1425 36.1624 65.774 36.2322 65.3741 36.2322ZM65.3741 35.3362C65.6391 35.3362 65.8824 35.2904 66.104 35.1989C66.3256 35.1025 66.5183 34.97 66.6821 34.8014C66.8507 34.6328 66.9784 34.4329 67.0651 34.2016C67.1566 33.9704 67.2024 33.7199 67.2024 33.4501C67.2024 33.1803 67.1566 32.9322 67.0651 32.7058C66.9784 32.4745 66.8507 32.2746 66.6821 32.106C66.5183 31.9325 66.3256 31.8 66.104 31.7085C65.8824 31.617 65.6391 31.5712 65.3741 31.5712C65.114 31.5712 64.8731 31.617 64.6515 31.7085C64.4299 31.8 64.2348 31.9325 64.0662 32.106C63.9024 32.2746 63.7747 32.4745 63.6832 32.7058C63.5916 32.9322 63.5459 33.1803 63.5459 33.4501C63.5459 33.7199 63.5916 33.9704 63.6832 34.2016C63.7747 34.4329 63.9024 34.6328 64.0662 34.8014C64.2348 34.97 64.4299 35.1025 64.6515 35.1989C64.8731 35.2904 65.114 35.3362 65.3741 35.3362ZM69.0663 36.1455V30.7619H70.0057L72.0219 33.5007H71.5739L73.5467 30.7619H74.4861V36.1455H73.4961V31.8819L73.8791 31.9759L71.834 34.7002H71.7184L69.7239 31.9759L70.0491 31.8819V36.1455H69.0663ZM75.5164 36.1455V30.7619H76.4558L78.472 33.5007H78.024L79.9968 30.7619H80.9362V36.1455H79.9462V31.8819L80.3292 31.9759L78.2841 34.7002H78.1685L76.174 31.9759L76.4992 31.8819V36.1455H75.5164ZM84.0405 36.2322C83.6262 36.2322 83.2576 36.1455 82.9348 35.9721C82.6169 35.7986 82.3664 35.5602 82.1833 35.2567C82.0002 34.9532 81.9087 34.6087 81.9087 34.2233V30.7619H82.8915V34.1727C82.8915 34.3943 82.9397 34.5942 83.036 34.7725C83.1372 34.9507 83.2745 35.0905 83.4479 35.1916C83.6214 35.288 83.8189 35.3362 84.0405 35.3362C84.2669 35.3362 84.4644 35.288 84.633 35.1916C84.8065 35.0905 84.9414 34.9507 85.0377 34.7725C85.1389 34.5942 85.1895 34.3943 85.1895 34.1727V30.7619H86.1723V34.2233C86.1723 34.6087 86.0807 34.9532 85.8977 35.2567C85.7146 35.5602 85.4617 35.7986 85.1389 35.9721C84.8209 36.1455 84.4548 36.2322 84.0405 36.2322ZM87.1534 36.1455V30.7619H87.9194L90.8822 34.7508L90.4848 34.8303V30.7619H91.4676V36.1455H90.6943L87.7749 32.1276L88.1362 32.0482V36.1455H87.1534ZM92.5097 36.1455V30.7619H93.4925V36.1455H92.5097ZM95.4819 36.1455V31.629H94.0872V30.7619H97.8449V31.629H96.4719V36.1455H95.4819ZM99.8176 36.1455V33.7608L98.0038 30.7619H99.1239L100.511 33.1032H100.114L101.494 30.7619H102.614L100.808 33.7536V36.1455H99.8176ZM104.5 36.1455V30.7619H106.256C106.824 30.7619 107.318 30.8775 107.737 31.1087C108.161 31.3351 108.488 31.6507 108.72 32.0554C108.951 32.4552 109.067 32.9201 109.067 33.4501C109.067 33.9752 108.951 34.4425 108.72 34.852C108.488 35.2567 108.161 35.5746 107.737 35.8059C107.318 36.0323 106.824 36.1455 106.256 36.1455H104.5ZM105.482 35.2783H106.277C106.643 35.2783 106.959 35.2037 107.224 35.0543C107.494 34.9002 107.703 34.6882 107.853 34.4184C108.002 34.1438 108.077 33.821 108.077 33.4501C108.077 33.0743 108.002 32.7515 107.853 32.4817C107.703 32.212 107.494 32.0024 107.224 31.853C106.959 31.7037 106.643 31.629 106.277 31.629H105.482V35.2783ZM109.189 36.1455L111.046 30.7619H112.318L114.175 36.1455H113.106L112.723 34.9893H110.642L110.251 36.1455H109.189ZM110.924 34.1221H112.441L111.545 31.4411H111.82L110.924 34.1221ZM115.639 36.1455V33.7608L113.826 30.7619H114.946L116.333 33.1032H115.936L117.316 30.7619H118.436L116.629 33.7536V36.1455H115.639ZM120.74 36.2322C120.398 36.2322 120.08 36.1696 119.787 36.0443C119.497 35.9191 119.247 35.7456 119.035 35.524C118.828 35.2976 118.676 35.0351 118.58 34.7364L119.396 34.3823C119.526 34.6906 119.714 34.9339 119.96 35.1121C120.206 35.2856 120.483 35.3723 120.791 35.3723C120.964 35.3723 121.114 35.3458 121.239 35.2928C121.369 35.235 121.468 35.1579 121.535 35.0616C121.608 34.9652 121.644 34.8496 121.644 34.7147C121.644 34.5557 121.596 34.4256 121.499 34.3245C121.408 34.2185 121.268 34.1366 121.08 34.0788L120.047 33.7464C119.628 33.6163 119.312 33.4212 119.1 33.161C118.888 32.9009 118.782 32.5949 118.782 32.2433C118.782 31.9349 118.857 31.6627 119.006 31.4267C119.16 31.1906 119.372 31.0076 119.642 30.8775C119.917 30.7426 120.23 30.6751 120.581 30.6751C120.904 30.6751 121.201 30.733 121.47 30.8486C121.74 30.9594 121.971 31.1159 122.164 31.3183C122.362 31.5158 122.508 31.7495 122.605 32.0192L121.795 32.3806C121.689 32.1108 121.531 31.9036 121.319 31.7591C121.107 31.6098 120.861 31.5351 120.581 31.5351C120.418 31.5351 120.273 31.564 120.148 31.6218C120.023 31.6748 119.924 31.7519 119.852 31.853C119.784 31.9494 119.75 32.065 119.75 32.1999C119.75 32.3493 119.799 32.4817 119.895 32.5974C119.991 32.7082 120.138 32.7949 120.336 32.8575L121.326 33.1682C121.755 33.308 122.075 33.5007 122.287 33.7464C122.504 33.992 122.612 34.2956 122.612 34.6569C122.612 34.9652 122.533 35.2374 122.374 35.4735C122.215 35.7095 121.995 35.895 121.716 36.0299C121.437 36.1648 121.111 36.2322 120.74 36.2322ZM124.364 36.1455V35.7553L127.442 31.3038H124.544V30.7619H128.201V31.1521L125.13 35.6035H128.266V36.1455H124.364ZM130.954 36.2322C130.573 36.2322 130.239 36.1527 129.949 35.9938C129.66 35.8348 129.436 35.618 129.277 35.3434C129.118 35.064 129.039 34.746 129.039 34.3895V30.7619H129.617V34.3895C129.617 34.6496 129.672 34.8785 129.783 35.076C129.899 35.2687 130.055 35.4205 130.253 35.5313C130.455 35.6373 130.689 35.6902 130.954 35.6902C131.219 35.6902 131.45 35.6373 131.648 35.5313C131.85 35.4205 132.007 35.2687 132.117 35.076C132.233 34.8785 132.291 34.6496 132.291 34.3895V30.7619H132.869V34.3895C132.869 34.746 132.789 35.064 132.63 35.3434C132.471 35.618 132.247 35.8348 131.958 35.9938C131.674 36.1527 131.339 36.2322 130.954 36.2322ZM129.942 30.0103V29.2877H130.665V30.0103H129.942ZM131.243 30.0103V29.2877H131.966V30.0103H131.243ZM134.121 36.1455V30.7619H135.97C136.322 30.7619 136.63 30.8317 136.895 30.9714C137.16 31.1063 137.365 31.299 137.51 31.5495C137.659 31.7952 137.734 32.0819 137.734 32.4095C137.734 32.7901 137.633 33.1152 137.43 33.385C137.233 33.6548 136.963 33.8451 136.621 33.9559L137.878 36.1455H137.199L135.884 33.8258L136.274 34.0499H134.699V36.1455H134.121ZM134.699 33.5079H135.999C136.231 33.5079 136.433 33.4645 136.606 33.3778C136.78 33.2863 136.915 33.1586 137.011 32.9948C137.107 32.8262 137.156 32.6287 137.156 32.4022C137.156 32.1758 137.107 31.9807 137.011 31.8169C136.915 31.6531 136.78 31.5279 136.606 31.4411C136.433 31.3496 136.231 31.3038 135.999 31.3038H134.699V33.5079ZM138.75 36.1455V30.7619H139.328V36.1455H138.75ZM143.056 36.2322C142.675 36.2322 142.326 36.1648 142.008 36.0299C141.69 35.8902 141.413 35.6975 141.177 35.4518C140.946 35.2013 140.765 34.9074 140.635 34.5702C140.505 34.2329 140.44 33.862 140.44 33.4573C140.44 33.0526 140.505 32.6817 140.635 32.3444C140.765 32.0072 140.946 31.7133 141.177 31.4628C141.413 31.2123 141.69 31.0196 142.008 30.8847C142.326 30.745 142.675 30.6751 143.056 30.6751C143.422 30.6751 143.75 30.7402 144.039 30.8703C144.332 31.0003 144.578 31.1689 144.776 31.3761C144.978 31.5784 145.123 31.7928 145.209 32.0192L144.667 32.2577C144.532 31.9446 144.325 31.6941 144.046 31.5062C143.771 31.3135 143.441 31.2171 143.056 31.2171C142.661 31.2171 142.309 31.3111 142.001 31.4989C141.692 31.6868 141.452 31.9494 141.278 32.2866C141.105 32.619 141.018 33.0093 141.018 33.4573C141.018 33.9005 141.105 34.2907 141.278 34.628C141.452 34.9652 141.692 35.2278 142.001 35.4156C142.309 35.5987 142.661 35.6902 143.056 35.6902C143.441 35.6902 143.771 35.5963 144.046 35.4084C144.325 35.2205 144.532 34.97 144.667 34.6569L145.209 34.8953C145.123 35.117 144.978 35.3313 144.776 35.5385C144.578 35.7408 144.332 35.907 144.039 36.0371C143.75 36.1672 143.422 36.2322 143.056 36.2322ZM146.244 36.1455V30.7619H146.823V33.1827H149.713V30.7619H150.291V36.1455H149.713V33.7247H146.823V36.1455H146.244ZM152.577 36.1455V35.7842L154.08 34.1293C154.374 33.8066 154.612 33.5392 154.795 33.3272C154.983 33.1152 155.123 32.9225 155.214 32.7491C155.306 32.5757 155.351 32.3878 155.351 32.1855C155.351 31.8627 155.258 31.6146 155.07 31.4411C154.882 31.2677 154.631 31.181 154.318 31.181C153.995 31.181 153.723 31.2725 153.502 31.4556C153.285 31.6387 153.138 31.894 153.061 32.2216L152.533 32.106C152.596 31.8121 152.709 31.5592 152.873 31.3472C153.037 31.1352 153.241 30.9714 153.487 30.8558C153.733 30.7354 154.007 30.6751 154.311 30.6751C154.634 30.6751 154.915 30.7402 155.156 30.8703C155.397 31.0003 155.585 31.1786 155.72 31.405C155.86 31.6314 155.93 31.8916 155.93 32.1855C155.93 32.3878 155.886 32.5829 155.8 32.7708C155.718 32.9587 155.592 33.161 155.424 33.3778C155.255 33.5946 155.038 33.8475 154.773 34.1366L153.408 35.6397H156.074V36.1455H152.577ZM159.143 36.2322C158.719 36.2322 158.345 36.1166 158.022 35.8854C157.704 35.6493 157.456 35.3241 157.278 34.9098C157.1 34.4907 157.011 34.0041 157.011 33.4501C157.011 32.896 157.1 32.4119 157.278 31.9976C157.456 31.5784 157.704 31.2533 158.022 31.022C158.34 30.7908 158.711 30.6751 159.135 30.6751C159.559 30.6751 159.93 30.7908 160.248 31.022C160.566 31.2533 160.814 31.5784 160.992 31.9976C161.171 32.4119 161.26 32.896 161.26 33.4501C161.26 34.0041 161.171 34.4907 160.992 34.9098C160.819 35.3289 160.573 35.6541 160.255 35.8854C159.937 36.1166 159.566 36.2322 159.143 36.2322ZM159.143 35.6902C159.451 35.6902 159.721 35.5963 159.952 35.4084C160.183 35.2205 160.364 34.9604 160.494 34.628C160.624 34.2907 160.689 33.8981 160.689 33.4501C160.689 33.002 160.624 32.6118 160.494 32.2794C160.364 31.9422 160.183 31.682 159.952 31.4989C159.721 31.3111 159.448 31.2171 159.135 31.2171C158.827 31.2171 158.557 31.3111 158.326 31.4989C158.095 31.682 157.914 31.9422 157.784 32.2794C157.654 32.6118 157.589 33.002 157.589 33.4501C157.589 33.8933 157.654 34.2835 157.784 34.6207C157.914 34.958 158.095 35.2205 158.326 35.4084C158.562 35.5963 158.834 35.6902 159.143 35.6902ZM162.202 36.1455V35.7842L163.705 34.1293C163.999 33.8066 164.238 33.5392 164.421 33.3272C164.609 33.1152 164.748 32.9225 164.84 32.7491C164.931 32.5757 164.977 32.3878 164.977 32.1855C164.977 31.8627 164.883 31.6146 164.695 31.4411C164.508 31.2677 164.257 31.181 163.944 31.181C163.621 31.181 163.349 31.2725 163.127 31.4556C162.911 31.6387 162.764 31.894 162.686 32.2216L162.159 32.106C162.222 31.8121 162.335 31.5592 162.499 31.3472C162.662 31.1352 162.867 30.9714 163.113 30.8558C163.359 30.7354 163.633 30.6751 163.937 30.6751C164.259 30.6751 164.541 30.7402 164.782 30.8703C165.023 31.0003 165.211 31.1786 165.346 31.405C165.486 31.6314 165.555 31.8916 165.555 32.1855C165.555 32.3878 165.512 32.5829 165.425 32.7708C165.343 32.9587 165.218 33.161 165.05 33.3778C164.881 33.5946 164.664 33.8475 164.399 34.1366L163.033 35.6397H165.7V36.1455H162.202ZM168.241 36.2322C167.961 36.2322 167.704 36.184 167.468 36.0877C167.231 35.9913 167.024 35.854 166.846 35.6758C166.673 35.4975 166.54 35.2856 166.449 35.0399L166.911 34.8231C167.022 35.1025 167.195 35.3241 167.431 35.4879C167.667 35.6469 167.937 35.7264 168.241 35.7264C168.482 35.7264 168.696 35.6806 168.884 35.5891C169.072 35.4927 169.219 35.3554 169.325 35.1772C169.431 34.9989 169.484 34.7821 169.484 34.5268C169.484 34.2715 169.428 34.0547 169.317 33.8764C169.211 33.6982 169.065 33.5633 168.877 33.4717C168.689 33.3802 168.474 33.3344 168.234 33.3344C168.171 33.3344 168.101 33.3369 168.024 33.3417C167.952 33.3465 167.891 33.3537 167.843 33.3634L167.728 33.1104L169.18 31.2677H166.702V30.7619H169.831V31.2677L168.472 32.9804L168.4 32.8864C168.723 32.896 169.009 32.9731 169.26 33.1177C169.51 33.2574 169.705 33.4477 169.845 33.6885C169.99 33.9294 170.062 34.2088 170.062 34.5268C170.062 34.8448 169.985 35.1338 169.831 35.394C169.676 35.6493 169.462 35.854 169.187 36.0082C168.913 36.1576 168.597 36.2322 168.241 36.2322Z" fill="#262F59"/>
</svg>
