<?xml version="1.0" encoding="utf-8"?>
<!-- Generator: Adobe Illustrator 27.6.1, SVG Export Plug-In . SVG Version: 6.00 Build 0)  -->
<svg version="1.1" xmlns="http://www.w3.org/2000/svg" xmlns:xlink="http://www.w3.org/1999/xlink" x="0px" y="0px"
	 viewBox="0 0 173 48" style="enable-background:new 0 0 173 48;" xml:space="preserve">
<style type="text/css">
	.st0{display:none;}
	.st1{display:inline;fill-rule:evenodd;clip-rule:evenodd;fill:#262F59;}
	.st2{display:inline;fill:#262F59;}
	.st3{display:inline;}
	.st4{fill:#FF281E;}
	.st5{fill:#FFFFFF;}
</style>
<g id="Layer_1" class="st0">
	<path class="st1" d="M22.8,0.4c1-0.5,2.3-0.5,3.3,0l16.6,8c1,0.5,1.8,1.5,2.1,2.6l2.8,12.3H37.4L35.9,17c-0.1-0.6-0.5-1-1-1.3
		L25.3,11c-0.5-0.3-1.1-0.3-1.7,0l-9.6,4.6c-0.5,0.3-0.9,0.7-1,1.3l-1.4,6.3H1.4L4.2,11c0.3-1.1,1-2.1,2.1-2.6L22.8,0.4z M0.5,27.1
		l-0.4,1.9c-0.3,1.1,0,2.3,0.7,3.2l11.5,14.4c0.7,0.9,1.8,1.4,3,1.4h18.4c1.2,0,2.3-0.5,3-1.4l11.5-14.4c0.7-0.9,1-2.1,0.7-3.2
		l-0.4-1.9H38.2l0.1,0.3c0.1,0.6,0,1.2-0.4,1.6l-6.6,8.3c-0.4,0.5-0.9,0.7-1.5,0.7H19.2c-0.6,0-1.1-0.3-1.5-0.7L11,29
		c-0.4-0.5-0.5-1-0.4-1.6l0.1-0.3H0.5z"/>
	<path class="st1" d="M25.3,15.7c-0.5-0.3-1.1-0.3-1.7,0l-6,2.9c-0.5,0.3-0.9,0.7-1,1.3l-1.5,6.5c-0.1,0.6,0,1.2,0.4,1.6l4.2,5.2
		c0.4,0.5,0.9,0.7,1.5,0.7h6.7c0.6,0,1.1-0.3,1.5-0.7l4.2-5.2c0.4-0.5,0.5-1,0.4-1.6l-1.5-6.5c-0.1-0.6-0.5-1-1-1.3L25.3,15.7z
		 M23.3,21H26v2.7h2.7v2.7H26V29h-2.7v-2.7h-2.7v-2.7h2.7V21z"/>
	<path class="st2" d="M58.5,26.5V13.3h2.4v6.9L60.3,20l5.6-6.6h3l-5.3,6.2l0.1-1.7l5.3,8.6h-2.8l-3.5-5.8l-1.8,2.1v3.7H58.5z
		 M75.6,26.7c-1,0-1.9-0.2-2.7-0.6c-0.8-0.4-1.4-1-1.8-1.8c-0.4-0.7-0.7-1.6-0.7-2.5v-8.5h2.4v8.3c0,0.5,0.1,1,0.4,1.5
		c0.2,0.4,0.6,0.8,1,1c0.4,0.2,0.9,0.4,1.5,0.4c0.6,0,1-0.1,1.5-0.4c0.4-0.2,0.8-0.6,1-1c0.2-0.4,0.4-0.9,0.4-1.5v-8.3h2.4v8.5
		c0,0.9-0.2,1.8-0.7,2.5c-0.4,0.7-1.1,1.3-1.9,1.8C77.5,26.5,76.6,26.7,75.6,26.7z M83.2,26.5V13.3h5.6c0.9,0,1.6,0.2,2.2,0.5
		c0.6,0.3,1.1,0.7,1.4,1.3c0.3,0.5,0.5,1.2,0.5,2c0,0.6-0.2,1.2-0.5,1.7c-0.3,0.5-0.8,0.9-1.5,1.3v-1.1c0.6,0.2,1.2,0.6,1.5,0.9
		c0.4,0.4,0.6,0.8,0.8,1.2c0.2,0.4,0.2,0.9,0.2,1.4c0,1.3-0.4,2.3-1.3,3c-0.8,0.7-2,1.1-3.4,1.1H83.2z M85.6,24.4H89
		c0.6,0,1.1-0.2,1.5-0.5c0.4-0.4,0.6-0.8,0.6-1.4c0-0.6-0.2-1-0.6-1.4c-0.4-0.4-0.9-0.5-1.5-0.5h-3.4V24.4z M85.6,18.4h3.3
		c0.5,0,0.9-0.1,1.2-0.4c0.3-0.3,0.4-0.7,0.4-1.1c0-0.5-0.1-0.8-0.4-1.1c-0.3-0.3-0.7-0.4-1.2-0.4h-3.3V18.4z M95.4,26.5V13.3h8.8
		v2.1h-6.3v3.4h6v2.1h-6v3.4h6.3v2.1H95.4z M105.9,26.5V13.3h4.9c0.9,0,1.7,0.2,2.4,0.5c0.7,0.3,1.2,0.8,1.6,1.4
		c0.4,0.6,0.6,1.4,0.6,2.2c0,0.9-0.2,1.7-0.7,2.3c-0.4,0.6-1,1.1-1.7,1.4l3,5.3h-2.7l-3.2-5.8l1.6,0.9h-3.3v4.9H105.9z M108.4,19.5
		h2.5c0.4,0,0.8-0.1,1.1-0.2c0.3-0.2,0.6-0.4,0.7-0.7c0.2-0.3,0.3-0.7,0.3-1.1c0-0.4-0.1-0.8-0.3-1.1c-0.2-0.3-0.4-0.5-0.7-0.7
		c-0.3-0.2-0.7-0.3-1.1-0.3h-2.5V19.5z M117.6,26.5V13.3h1.9l7.3,9.8l-1,0.2v-10h2.4v13.2h-1.9l-7.1-9.8l0.9-0.2v10H117.6z
		 M130.8,26.5V13.3h8.8v2.1h-6.3v3.4h6v2.1h-6v3.4h6.3v2.1H130.8z M143.6,26.5V15.4h-3.4v-2.1h9.2v2.1H146v11.1H143.6z M150.9,26.5
		V13.3h8.8v2.1h-6.3v3.4h6v2.1h-6v3.4h6.3v2.1H150.9z M166.1,26.7c-0.8,0-1.6-0.2-2.3-0.5c-0.7-0.3-1.3-0.7-1.8-1.3
		c-0.5-0.6-0.9-1.2-1.1-1.9l2-0.9c0.3,0.8,0.8,1.4,1.4,1.8c0.6,0.4,1.3,0.6,2,0.6c0.4,0,0.8-0.1,1.1-0.2c0.3-0.1,0.6-0.3,0.7-0.6
		c0.2-0.2,0.3-0.5,0.3-0.8c0-0.4-0.1-0.7-0.4-1c-0.2-0.3-0.6-0.5-1-0.6l-2.5-0.8c-1-0.3-1.8-0.8-2.3-1.4c-0.5-0.6-0.8-1.4-0.8-2.2
		c0-0.8,0.2-1.4,0.5-2c0.4-0.6,0.9-1,1.6-1.3c0.7-0.3,1.4-0.5,2.3-0.5c0.8,0,1.5,0.1,2.2,0.4c0.7,0.3,1.2,0.7,1.7,1.1
		c0.5,0.5,0.8,1.1,1.1,1.7l-2,0.9c-0.3-0.7-0.6-1.2-1.2-1.5c-0.5-0.4-1.1-0.5-1.8-0.5c-0.4,0-0.8,0.1-1.1,0.2
		c-0.3,0.1-0.5,0.3-0.7,0.6c-0.2,0.2-0.2,0.5-0.2,0.8c0,0.4,0.1,0.7,0.4,1c0.2,0.3,0.6,0.5,1.1,0.6l2.4,0.8c1,0.3,1.8,0.8,2.4,1.4
		c0.5,0.6,0.8,1.3,0.8,2.2c0,0.8-0.2,1.4-0.6,2c-0.4,0.6-0.9,1-1.6,1.4C167.8,26.5,167,26.7,166.1,26.7z"/>
	<path class="st2" d="M59.7,36.2c-0.4,0-0.7-0.1-1.1-0.2c-0.3-0.1-0.6-0.3-0.9-0.6c-0.2-0.3-0.4-0.5-0.6-0.9S57,33.8,57,33.5
		c0-0.4,0.1-0.8,0.2-1.1c0.1-0.3,0.3-0.6,0.6-0.9c0.2-0.3,0.5-0.4,0.9-0.6c0.3-0.1,0.7-0.2,1.1-0.2c0.4,0,0.7,0.1,1,0.2
		c0.3,0.1,0.6,0.3,0.8,0.5c0.2,0.2,0.4,0.4,0.5,0.7L61,32.5c-0.1-0.3-0.3-0.5-0.5-0.7c-0.2-0.2-0.5-0.3-0.9-0.3
		c-0.3,0-0.6,0.1-0.9,0.2c-0.3,0.2-0.5,0.4-0.6,0.7c-0.1,0.3-0.2,0.6-0.2,1c0,0.4,0.1,0.7,0.2,1c0.1,0.3,0.3,0.5,0.6,0.7
		c0.3,0.2,0.6,0.2,0.9,0.2c0.3,0,0.6-0.1,0.9-0.3c0.2-0.2,0.4-0.4,0.5-0.7l0.9,0.4c-0.1,0.3-0.2,0.5-0.5,0.7
		c-0.2,0.2-0.5,0.4-0.8,0.5C60.4,36.2,60,36.2,59.7,36.2z M65.4,36.2c-0.4,0-0.8-0.1-1.1-0.2c-0.3-0.1-0.6-0.3-0.9-0.6
		c-0.3-0.3-0.5-0.5-0.6-0.9c-0.1-0.3-0.2-0.7-0.2-1.1c0-0.4,0.1-0.8,0.2-1.1c0.1-0.3,0.3-0.6,0.6-0.9c0.3-0.3,0.6-0.4,0.9-0.6
		c0.3-0.1,0.7-0.2,1.1-0.2c0.4,0,0.8,0.1,1.1,0.2c0.3,0.1,0.6,0.3,0.9,0.6c0.3,0.2,0.5,0.5,0.6,0.9c0.1,0.3,0.2,0.7,0.2,1.1
		c0,0.4-0.1,0.8-0.2,1.1c-0.1,0.3-0.3,0.6-0.6,0.9c-0.3,0.3-0.6,0.4-0.9,0.6C66.1,36.2,65.8,36.2,65.4,36.2z M65.4,35.3
		c0.3,0,0.5,0,0.7-0.1c0.2-0.1,0.4-0.2,0.6-0.4c0.2-0.2,0.3-0.4,0.4-0.6c0.1-0.2,0.1-0.5,0.1-0.8s0-0.5-0.1-0.7
		c-0.1-0.2-0.2-0.4-0.4-0.6c-0.2-0.2-0.4-0.3-0.6-0.4c-0.2-0.1-0.5-0.1-0.7-0.1c-0.3,0-0.5,0-0.7,0.1c-0.2,0.1-0.4,0.2-0.6,0.4
		c-0.2,0.2-0.3,0.4-0.4,0.6c-0.1,0.2-0.1,0.5-0.1,0.7s0,0.5,0.1,0.8c0.1,0.2,0.2,0.4,0.4,0.6c0.2,0.2,0.4,0.3,0.6,0.4
		C64.9,35.3,65.1,35.3,65.4,35.3z M69.1,36.1v-5.4H70l2,2.7h-0.4l2-2.7h0.9v5.4h-1v-4.3l0.4,0.1l-2,2.7h-0.1l-2-2.7l0.3-0.1v4.3
		H69.1z M75.5,36.1v-5.4h0.9l2,2.7H78l2-2.7h0.9v5.4h-1v-4.3l0.4,0.1l-2,2.7h-0.1l-2-2.7l0.3-0.1v4.3H75.5z M84,36.2
		c-0.4,0-0.8-0.1-1.1-0.3c-0.3-0.2-0.6-0.4-0.8-0.7c-0.2-0.3-0.3-0.6-0.3-1v-3.5h1v3.4c0,0.2,0,0.4,0.1,0.6c0.1,0.2,0.2,0.3,0.4,0.4
		c0.2,0.1,0.4,0.1,0.6,0.1c0.2,0,0.4,0,0.6-0.1c0.2-0.1,0.3-0.2,0.4-0.4c0.1-0.2,0.2-0.4,0.2-0.6v-3.4h1v3.5c0,0.4-0.1,0.7-0.3,1
		c-0.2,0.3-0.4,0.5-0.8,0.7C84.8,36.1,84.5,36.2,84,36.2z M87.2,36.1v-5.4h0.8l3,4l-0.4,0.1v-4.1h1v5.4h-0.8l-2.9-4l0.4-0.1v4.1
		H87.2z M92.5,36.1v-5.4h1v5.4H92.5z M95.5,36.1v-4.5h-1.4v-0.9h3.8v0.9h-1.4v4.5H95.5z M99.8,36.1v-2.4l-1.8-3h1.1l1.4,2.3h-0.4
		l1.4-2.3h1.1l-1.8,3v2.4H99.8z M104.5,36.1v-5.4h1.8c0.6,0,1.1,0.1,1.5,0.3c0.4,0.2,0.8,0.5,1,0.9c0.2,0.4,0.3,0.9,0.3,1.4
		c0,0.5-0.1,1-0.3,1.4c-0.2,0.4-0.6,0.7-1,1c-0.4,0.2-0.9,0.3-1.5,0.3H104.5z M105.5,35.3h0.8c0.4,0,0.7-0.1,0.9-0.2
		c0.3-0.2,0.5-0.4,0.6-0.6c0.1-0.3,0.2-0.6,0.2-1c0-0.4-0.1-0.7-0.2-1c-0.1-0.3-0.4-0.5-0.6-0.6c-0.3-0.1-0.6-0.2-0.9-0.2h-0.8V35.3
		z M109.2,36.1l1.9-5.4h1.3l1.9,5.4h-1.1l-0.4-1.2h-2.1l-0.4,1.2H109.2z M110.9,34.1h1.5l-0.9-2.7h0.3L110.9,34.1z M115.6,36.1v-2.4
		l-1.8-3h1.1l1.4,2.3h-0.4l1.4-2.3h1.1l-1.8,3v2.4H115.6z M120.7,36.2c-0.3,0-0.7-0.1-1-0.2c-0.3-0.1-0.5-0.3-0.8-0.5
		c-0.2-0.2-0.4-0.5-0.5-0.8l0.8-0.4c0.1,0.3,0.3,0.6,0.6,0.7c0.2,0.2,0.5,0.3,0.8,0.3c0.2,0,0.3,0,0.4-0.1c0.1-0.1,0.2-0.1,0.3-0.2
		c0.1-0.1,0.1-0.2,0.1-0.3c0-0.2,0-0.3-0.1-0.4c-0.1-0.1-0.2-0.2-0.4-0.2l-1-0.3c-0.4-0.1-0.7-0.3-0.9-0.6c-0.2-0.3-0.3-0.6-0.3-0.9
		c0-0.3,0.1-0.6,0.2-0.8c0.2-0.2,0.4-0.4,0.6-0.5c0.3-0.1,0.6-0.2,0.9-0.2c0.3,0,0.6,0.1,0.9,0.2c0.3,0.1,0.5,0.3,0.7,0.5
		c0.2,0.2,0.3,0.4,0.4,0.7l-0.8,0.4c-0.1-0.3-0.3-0.5-0.5-0.6c-0.2-0.1-0.5-0.2-0.7-0.2c-0.2,0-0.3,0-0.4,0.1
		c-0.1,0.1-0.2,0.1-0.3,0.2c-0.1,0.1-0.1,0.2-0.1,0.3c0,0.1,0,0.3,0.1,0.4c0.1,0.1,0.2,0.2,0.4,0.3l1,0.3c0.4,0.1,0.7,0.3,1,0.6
		c0.2,0.2,0.3,0.5,0.3,0.9c0,0.3-0.1,0.6-0.2,0.8c-0.2,0.2-0.4,0.4-0.7,0.6C121.4,36.2,121.1,36.2,120.7,36.2z M124.4,36.1v-0.4
		l3.1-4.5h-2.9v-0.5h3.7v0.4l-3.1,4.5h3.1v0.5H124.4z M131,36.2c-0.4,0-0.7-0.1-1-0.2c-0.3-0.2-0.5-0.4-0.7-0.7
		c-0.2-0.3-0.2-0.6-0.2-1v-3.6h0.6v3.6c0,0.3,0.1,0.5,0.2,0.7c0.1,0.2,0.3,0.3,0.5,0.5c0.2,0.1,0.4,0.2,0.7,0.2s0.5-0.1,0.7-0.2
		c0.2-0.1,0.4-0.3,0.5-0.5c0.1-0.2,0.2-0.4,0.2-0.7v-3.6h0.6v3.6c0,0.4-0.1,0.7-0.2,1c-0.2,0.3-0.4,0.5-0.7,0.7
		C131.7,36.2,131.3,36.2,131,36.2z M129.9,30v-0.7h0.7V30H129.9z M131.2,30v-0.7h0.7V30H131.2z M134.1,36.1v-5.4h1.8
		c0.4,0,0.7,0.1,0.9,0.2c0.3,0.1,0.5,0.3,0.6,0.6c0.1,0.2,0.2,0.5,0.2,0.9c0,0.4-0.1,0.7-0.3,1c-0.2,0.3-0.5,0.5-0.8,0.6l1.3,2.2
		h-0.7l-1.3-2.3l0.4,0.2h-1.6v2.1H134.1z M134.7,33.5h1.3c0.2,0,0.4,0,0.6-0.1c0.2-0.1,0.3-0.2,0.4-0.4c0.1-0.2,0.1-0.4,0.1-0.6
		c0-0.2,0-0.4-0.1-0.6c-0.1-0.2-0.2-0.3-0.4-0.4c-0.2-0.1-0.4-0.1-0.6-0.1h-1.3V33.5z M138.8,36.1v-5.4h0.6v5.4H138.8z M143.1,36.2
		c-0.4,0-0.7-0.1-1-0.2c-0.3-0.1-0.6-0.3-0.8-0.6c-0.2-0.3-0.4-0.5-0.5-0.9c-0.1-0.3-0.2-0.7-0.2-1.1c0-0.4,0.1-0.8,0.2-1.1
		c0.1-0.3,0.3-0.6,0.5-0.9c0.2-0.3,0.5-0.4,0.8-0.6c0.3-0.1,0.7-0.2,1-0.2c0.4,0,0.7,0.1,1,0.2c0.3,0.1,0.5,0.3,0.7,0.5
		c0.2,0.2,0.3,0.4,0.4,0.6l-0.5,0.2c-0.1-0.3-0.3-0.6-0.6-0.8c-0.3-0.2-0.6-0.3-1-0.3c-0.4,0-0.7,0.1-1.1,0.3
		c-0.3,0.2-0.5,0.5-0.7,0.8c-0.2,0.3-0.3,0.7-0.3,1.2c0,0.4,0.1,0.8,0.3,1.2c0.2,0.3,0.4,0.6,0.7,0.8c0.3,0.2,0.7,0.3,1.1,0.3
		c0.4,0,0.7-0.1,1-0.3c0.3-0.2,0.5-0.4,0.6-0.8l0.5,0.2c-0.1,0.2-0.2,0.4-0.4,0.6c-0.2,0.2-0.4,0.4-0.7,0.5
		C143.8,36.2,143.4,36.2,143.1,36.2z M146.2,36.1v-5.4h0.6v2.4h2.9v-2.4h0.6v5.4h-0.6v-2.4h-2.9v2.4H146.2z M152.6,36.1v-0.4
		l1.5-1.7c0.3-0.3,0.5-0.6,0.7-0.8c0.2-0.2,0.3-0.4,0.4-0.6c0.1-0.2,0.1-0.4,0.1-0.6c0-0.3-0.1-0.6-0.3-0.7
		c-0.2-0.2-0.4-0.3-0.8-0.3c-0.3,0-0.6,0.1-0.8,0.3c-0.2,0.2-0.4,0.4-0.4,0.8l-0.5-0.1c0.1-0.3,0.2-0.5,0.3-0.8s0.4-0.4,0.6-0.5
		c0.2-0.1,0.5-0.2,0.8-0.2c0.3,0,0.6,0.1,0.8,0.2c0.2,0.1,0.4,0.3,0.6,0.5c0.1,0.2,0.2,0.5,0.2,0.8c0,0.2,0,0.4-0.1,0.6
		c-0.1,0.2-0.2,0.4-0.4,0.6c-0.2,0.2-0.4,0.5-0.7,0.8l-1.4,1.5h2.7v0.5H152.6z M159.1,36.2c-0.4,0-0.8-0.1-1.1-0.3
		c-0.3-0.2-0.6-0.6-0.7-1c-0.2-0.4-0.3-0.9-0.3-1.5c0-0.6,0.1-1,0.3-1.5c0.2-0.4,0.4-0.7,0.7-1c0.3-0.2,0.7-0.3,1.1-0.3
		c0.4,0,0.8,0.1,1.1,0.3c0.3,0.2,0.6,0.6,0.7,1c0.2,0.4,0.3,0.9,0.3,1.5c0,0.6-0.1,1-0.3,1.5c-0.2,0.4-0.4,0.7-0.7,1
		C159.9,36.1,159.6,36.2,159.1,36.2z M159.1,35.7c0.3,0,0.6-0.1,0.8-0.3c0.2-0.2,0.4-0.4,0.5-0.8c0.1-0.3,0.2-0.7,0.2-1.2
		c0-0.4-0.1-0.8-0.2-1.2c-0.1-0.3-0.3-0.6-0.5-0.8c-0.2-0.2-0.5-0.3-0.8-0.3c-0.3,0-0.6,0.1-0.8,0.3c-0.2,0.2-0.4,0.4-0.5,0.8
		c-0.1,0.3-0.2,0.7-0.2,1.2c0,0.4,0.1,0.8,0.2,1.2c0.1,0.3,0.3,0.6,0.5,0.8C158.6,35.6,158.8,35.7,159.1,35.7z M162.2,36.1v-0.4
		l1.5-1.7c0.3-0.3,0.5-0.6,0.7-0.8c0.2-0.2,0.3-0.4,0.4-0.6c0.1-0.2,0.1-0.4,0.1-0.6c0-0.3-0.1-0.6-0.3-0.7
		c-0.2-0.2-0.4-0.3-0.8-0.3c-0.3,0-0.6,0.1-0.8,0.3c-0.2,0.2-0.4,0.4-0.4,0.8l-0.5-0.1c0.1-0.3,0.2-0.5,0.3-0.8
		c0.2-0.2,0.4-0.4,0.6-0.5c0.2-0.1,0.5-0.2,0.8-0.2c0.3,0,0.6,0.1,0.8,0.2c0.2,0.1,0.4,0.3,0.6,0.5c0.1,0.2,0.2,0.5,0.2,0.8
		c0,0.2,0,0.4-0.1,0.6c-0.1,0.2-0.2,0.4-0.4,0.6c-0.2,0.2-0.4,0.5-0.7,0.8l-1.4,1.5h2.7v0.5H162.2z M168.2,36.2
		c-0.3,0-0.5,0-0.8-0.1c-0.2-0.1-0.4-0.2-0.6-0.4c-0.2-0.2-0.3-0.4-0.4-0.6l0.5-0.2c0.1,0.3,0.3,0.5,0.5,0.7
		c0.2,0.2,0.5,0.2,0.8,0.2c0.2,0,0.5,0,0.6-0.1c0.2-0.1,0.3-0.2,0.4-0.4c0.1-0.2,0.2-0.4,0.2-0.7c0-0.3-0.1-0.5-0.2-0.7
		c-0.1-0.2-0.3-0.3-0.4-0.4c-0.2-0.1-0.4-0.1-0.6-0.1c-0.1,0-0.1,0-0.2,0c-0.1,0-0.1,0-0.2,0l-0.1-0.3l1.5-1.8h-2.5v-0.5h3.1v0.5
		l-1.4,1.7l-0.1-0.1c0.3,0,0.6,0.1,0.9,0.2c0.2,0.1,0.4,0.3,0.6,0.6c0.1,0.2,0.2,0.5,0.2,0.8c0,0.3-0.1,0.6-0.2,0.9
		c-0.2,0.3-0.4,0.5-0.6,0.6C168.9,36.2,168.6,36.2,168.2,36.2z"/>
	<g id="Original_font_1_" class="st3">
		<path class="st4" d="M-56.5,64.3V50.9h3.9v5l3.9-5h4.9l-5,6.2l5.6,7.2h-5l-3.2-4.3l-1.2,1.3v3H-56.5z"/>
		<path class="st4" d="M-36.6,64.6c-1.4,0-2.6-0.3-3.7-0.8s-1.9-1.4-2.5-2.4c-0.6-1-0.9-2.3-0.9-3.7c0-1,0.2-2,0.5-2.9
			c0.4-0.9,0.8-1.6,1.5-2.2c0.6-0.6,1.4-1.1,2.3-1.5s1.8-0.5,2.9-0.5c1.2,0,2.2,0.1,2.9,0.5s1.5,0.7,2.1,1.3l-1.9,3.2
			c-0.3-0.4-0.8-0.7-1.3-0.8s-1-0.3-1.7-0.3c-0.5,0-1,0.1-1.4,0.2c-0.4,0.2-0.8,0.4-1.1,0.6c-0.3,0.3-0.5,0.6-0.6,1
			c-0.1,0.4-0.2,0.8-0.2,1.3c0,0.7,0.1,1.2,0.4,1.7s0.7,0.8,1.2,1.1c0.5,0.3,1.1,0.4,1.8,0.4c0.5,0,1.1-0.1,1.7-0.3s1.1-0.4,1.6-0.8
			l1.8,3.2c-0.6,0.5-1.3,0.8-2.2,1.2C-34.3,64.4-35.4,64.6-36.6,64.6z"/>
		<path class="st4" d="M-29.5,64.3V50.9h4.9c1.4,0,2.7,0.3,3.8,0.8c1.1,0.6,1.9,1.4,2.5,2.4c0.6,1,0.9,2.2,0.9,3.5
			c0,1-0.2,1.9-0.5,2.7c-0.3,0.8-0.8,1.5-1.5,2.1s-1.4,1-2.3,1.4c-0.9,0.3-1.9,0.5-2.9,0.5H-29.5z M-25.6,60.7h0.9
			c0.5,0,0.9-0.1,1.3-0.2c0.4-0.1,0.7-0.3,1-0.6c0.3-0.3,0.5-0.6,0.7-1c0.2-0.4,0.2-0.8,0.2-1.4c0-0.7-0.1-1.3-0.4-1.7
			c-0.3-0.5-0.6-0.8-1.1-1c-0.5-0.2-1-0.3-1.7-0.3h-0.9V60.7z"/>
		<path class="st4" d="M-56.5,79.4v-9.7h3.5c1,0,1.9,0.2,2.7,0.6c0.8,0.4,1.4,1,1.8,1.7c0.4,0.7,0.6,1.6,0.6,2.5
			c0,0.7-0.1,1.4-0.4,2s-0.6,1.1-1.1,1.5c-0.5,0.4-1,0.8-1.6,1s-1.3,0.3-2.1,0.3H-56.5z M-53.7,76.8h0.7c0.3,0,0.7,0,0.9-0.1
			c0.3-0.1,0.5-0.2,0.7-0.4c0.2-0.2,0.4-0.4,0.5-0.7c0.1-0.3,0.2-0.6,0.2-1c0-0.5-0.1-0.9-0.3-1.3c-0.2-0.3-0.5-0.6-0.8-0.7
			c-0.3-0.2-0.7-0.2-1.2-0.2h-0.7V76.8z"/>
		<path class="st4" d="M-46.3,79.4v-9.7h7.2v2.4h-4.4v1.3h3.6v2.2h-3.6v1.4h4.5v2.4H-46.3z"/>
		<path class="st4" d="M-37.2,79.4v-9.7h2.8l3.4,5.2v-5.2h2.7v9.7h-2.8l-3.4-5.3v5.3H-37.2z"/>
		<path class="st4" d="M-26.2,79.4v-9.7h2.7l3.5,5.9l-1.1,0l3.3-5.9h2.7v9.7h-2.7l0.1-6.2l0.5,0.2l-2.5,4.4h-1.8l-2.6-4.4l0.5-0.2
			l0.1,6.2H-26.2z"/>
		<path class="st4" d="M-14.1,79.4l3.5-9.7h3.3l3.5,9.7h-3.2l-0.5-1.7h-3.1l-0.5,1.7H-14.1z M-9.9,75.3H-8l-0.9-2.8L-9.9,75.3z"/>
		<path class="st4" d="M-2.7,79.4v-9.7h4.1c0.8,0,1.4,0.1,2,0.4c0.6,0.2,1,0.6,1.3,1c0.3,0.5,0.5,1,0.5,1.6c0,0.5-0.1,0.9-0.2,1.2
			s-0.4,0.7-0.7,0.9s-0.6,0.4-0.9,0.6l2.4,4H2.5L0.7,76H0.1v3.3H-2.7z M0.1,73.8h1c0.4,0,0.7-0.1,0.9-0.2c0.2-0.1,0.3-0.4,0.3-0.7
			c0-0.4-0.1-0.6-0.3-0.7c-0.2-0.1-0.5-0.2-0.9-0.2h-1V73.8z"/>
		<path class="st4" d="M7.1,79.4v-9.7h2.8v3.6l2.8-3.6h3.5l-3.6,4.5l4,5.2H13l-2.3-3.1l-0.9,0.9v2.2H7.1z"/>
		<path class="st4" d="M-56.5,91.4v-1.2h3.5v1.2H-56.5z"/>
		<path class="st4" d="M-51.5,94.5v-1l2-1.8c0.6-0.6,1.1-1.1,1.5-1.5c0.4-0.4,0.7-0.8,0.8-1.1c0.2-0.3,0.3-0.7,0.3-1
			c0-0.5-0.2-0.9-0.5-1.2c-0.3-0.3-0.8-0.4-1.4-0.4c-0.4,0-0.8,0.1-1.2,0.2c-0.4,0.1-0.7,0.3-0.9,0.6l-0.5-1.1
			c0.4-0.3,0.8-0.6,1.3-0.8c0.5-0.2,1-0.3,1.5-0.3c0.6,0,1.2,0.1,1.7,0.3c0.5,0.2,0.8,0.5,1.1,0.9c0.3,0.4,0.4,0.9,0.4,1.4
			c0,0.4-0.1,0.8-0.2,1.1c-0.1,0.4-0.4,0.8-0.8,1.3c-0.4,0.5-0.9,1-1.6,1.7l-1.4,1.3h4.3v1.2H-51.5z"/>
		<path class="st4" d="M-40.7,94.7c-0.6,0-1.1-0.1-1.6-0.4s-0.9-0.6-1.2-1s-0.6-0.9-0.7-1.5c-0.2-0.6-0.3-1.2-0.3-1.8
			c0-0.7,0.1-1.3,0.3-1.8c0.2-0.6,0.4-1.1,0.7-1.5c0.3-0.4,0.7-0.8,1.2-1c0.5-0.2,1-0.4,1.6-0.4s1.1,0.1,1.6,0.4
			c0.5,0.2,0.9,0.6,1.2,1c0.3,0.4,0.6,0.9,0.7,1.5c0.2,0.6,0.3,1.2,0.3,1.8c0,0.7-0.1,1.3-0.3,1.8c-0.2,0.6-0.4,1.1-0.7,1.5
			c-0.3,0.4-0.7,0.8-1.2,1C-39.5,94.5-40.1,94.7-40.7,94.7z M-40.7,93.4c0.3,0,0.7-0.1,0.9-0.2c0.3-0.2,0.5-0.4,0.7-0.7
			c0.2-0.3,0.4-0.7,0.5-1.1s0.2-0.9,0.2-1.4c0-0.7-0.1-1.3-0.3-1.9c-0.2-0.5-0.5-0.9-0.8-1.2c-0.3-0.3-0.8-0.4-1.2-0.4
			c-0.3,0-0.7,0.1-0.9,0.2s-0.5,0.4-0.7,0.7c-0.2,0.3-0.4,0.7-0.5,1.1c-0.1,0.4-0.2,0.9-0.2,1.5c0,0.7,0.1,1.3,0.3,1.9
			c0.2,0.5,0.5,0.9,0.8,1.2C-41.5,93.2-41.1,93.4-40.7,93.4z"/>
		<path class="st4" d="M-36,94.5v-1l2-1.8c0.6-0.6,1.1-1.1,1.5-1.5c0.4-0.4,0.7-0.8,0.8-1.1c0.2-0.3,0.3-0.7,0.3-1
			c0-0.5-0.2-0.9-0.5-1.2c-0.3-0.3-0.8-0.4-1.4-0.4c-0.4,0-0.8,0.1-1.2,0.2c-0.4,0.1-0.7,0.3-0.9,0.6l-0.5-1.1
			c0.4-0.3,0.8-0.6,1.3-0.8c0.5-0.2,1-0.3,1.5-0.3c0.6,0,1.2,0.1,1.7,0.3c0.5,0.2,0.8,0.5,1.1,0.9c0.3,0.4,0.4,0.9,0.4,1.4
			c0,0.4-0.1,0.8-0.2,1.1c-0.1,0.4-0.4,0.8-0.8,1.3c-0.4,0.5-0.9,1-1.6,1.7l-1.4,1.3h4.3v1.2H-36z"/>
		<path class="st4" d="M-25.4,94.7c-0.4,0-0.8,0-1.1-0.1s-0.7-0.2-1-0.3c-0.3-0.1-0.6-0.3-0.8-0.5l0.5-1.2c0.3,0.3,0.6,0.5,1,0.6
			c0.4,0.2,0.8,0.2,1.3,0.2c0.4,0,0.8-0.1,1.1-0.2c0.3-0.1,0.5-0.3,0.7-0.6s0.3-0.5,0.3-0.9c0-0.5-0.2-0.9-0.6-1.2
			c-0.4-0.3-0.9-0.4-1.5-0.4c-0.2,0-0.3,0-0.5,0c-0.2,0-0.4,0.1-0.6,0.1l-0.4-1l2.9-2.7h-4v-1.2h5.7v1.1l-2.7,2.6
			c0.5,0,1.1,0.1,1.5,0.3c0.5,0.2,0.9,0.5,1.2,0.9c0.3,0.4,0.4,0.9,0.4,1.5c0,0.6-0.1,1.1-0.4,1.5c-0.3,0.4-0.7,0.8-1.2,1
			S-24.7,94.7-25.4,94.7z"/>
		<path class="st4" d="M-20.7,91.4v-1.2h3.5v1.2H-20.7z"/>
	</g>
	<g id="Logo_graphic_1_" class="st3">
		<path class="st4" d="M-116.3,78.3c0,0.7,0.1,1.3,0.5,1.9c0.1,0.1,0.1,0.2,0.2,0.2l11.1,13.8c0,0,0,0,0,0l0.2-14.6
			C-108.3,80.1-112.3,79.8-116.3,78.3z"/>
		<path class="st4" d="M-104.2,75.3l0.3-19.9l-6.6,3.2c-0.8,0.4-1.5,1.2-1.7,2.1l-3.4,14.7C-111.8,76.3-108,76.1-104.2,75.3z"/>
		<path class="st4" d="M-72.5,68.5l-1.8-7.8c-0.2-0.9-0.8-1.7-1.7-2.1L-92,51c-0.5-0.2-1-0.3-1.5-0.3c-0.4,0-0.8,0.1-1.2,0.3
			l-5.2,2.5l0.3,20.7C-90.6,71.5-81.5,66.9-72.5,68.5z"/>
		<path class="st4" d="M-99.5,78.9l0.2,16.4h14.9c0.9,0,1.8-0.4,2.4-1.1l11.1-13.8c0.6-0.7,0.8-1.7,0.6-2.6v0l-0.3-1.3
			C-80.3,73-89.9,77-99.5,78.9z"/>
		<path class="st5" d="M-99.6,74.2l-0.3-20.7l-4.1,2l-0.3,19.9c-3.8,0.8-7.6,1-11.4,0l-0.6,2.5c0,0.1-0.1,0.3-0.1,0.4
			c4,1.5,8,1.8,12,1.4l-0.2,14.6c0.6,0.7,1.5,1.1,2.4,1.1h2.9l-0.2-16.4c9.6-1.9,19.2-5.9,28.8-2.4l-1.8-8
			C-81.5,66.9-90.6,71.5-99.6,74.2z"/>
	</g>
</g>
<g id="Layer_2">
	<g id="Original_font_00000177452253931134260850000008314978853843304894_">
		<path class="st4" d="M59.1,17.1V4.2h3.7V9l3.8-4.8h4.7l-4.8,6l5.4,6.9H67L64,13l-1.1,1.2v2.9H59.1z"/>
		<path class="st4" d="M78.2,17.4c-1.3,0-2.5-0.3-3.6-0.8c-1-0.5-1.8-1.3-2.4-2.3c-0.6-1-0.9-2.2-0.9-3.6c0-1,0.2-1.9,0.5-2.8
			c0.3-0.8,0.8-1.5,1.4-2.2c0.6-0.6,1.4-1.1,2.2-1.4c0.8-0.3,1.8-0.5,2.8-0.5c1.1,0,2.1,0.1,2.8,0.4c0.7,0.3,1.4,0.7,2.1,1.2
			l-1.8,3.1C81,8.3,80.6,8,80.1,7.8c-0.5-0.2-1-0.3-1.6-0.3c-0.5,0-1,0.1-1.4,0.2c-0.4,0.1-0.7,0.4-1,0.6s-0.5,0.6-0.6,1
			s-0.2,0.8-0.2,1.3c0,0.6,0.1,1.2,0.4,1.7c0.3,0.5,0.6,0.8,1.1,1.1c0.5,0.2,1.1,0.4,1.8,0.4c0.5,0,1.1-0.1,1.6-0.2
			c0.5-0.2,1.1-0.4,1.6-0.8l1.7,3.1c-0.6,0.4-1.3,0.8-2.2,1.1C80.4,17.3,79.4,17.4,78.2,17.4z"/>
		<path class="st4" d="M85.1,17.1V4.2h4.7c1.4,0,2.6,0.3,3.6,0.8s1.8,1.3,2.4,2.3c0.6,1,0.9,2.1,0.9,3.4c0,1-0.2,1.8-0.5,2.6
			s-0.8,1.5-1.4,2c-0.6,0.6-1.3,1-2.2,1.3c-0.8,0.3-1.8,0.5-2.8,0.5H85.1z M88.8,13.7h0.9c0.5,0,0.9-0.1,1.2-0.2s0.7-0.3,1-0.6
			c0.3-0.2,0.5-0.6,0.6-0.9c0.1-0.4,0.2-0.8,0.2-1.3c0-0.7-0.1-1.2-0.4-1.7c-0.3-0.4-0.6-0.8-1.1-1c-0.5-0.2-1-0.3-1.6-0.3h-0.9
			V13.7z"/>
		<path class="st4" d="M59.1,31.7v-9.4h3.4c1,0,1.9,0.2,2.6,0.6c0.7,0.4,1.3,0.9,1.7,1.6c0.4,0.7,0.6,1.5,0.6,2.4
			c0,0.7-0.1,1.3-0.4,1.9c-0.2,0.6-0.6,1.1-1,1.5c-0.4,0.4-1,0.7-1.6,1c-0.6,0.2-1.3,0.3-2,0.3H59.1z M61.8,29.1h0.6
			c0.3,0,0.6,0,0.9-0.1s0.5-0.2,0.7-0.4s0.4-0.4,0.5-0.7c0.1-0.3,0.2-0.6,0.2-1c0-0.5-0.1-0.9-0.3-1.2c-0.2-0.3-0.4-0.6-0.8-0.7
			c-0.3-0.2-0.7-0.2-1.2-0.2h-0.6V29.1z"/>
		<path class="st4" d="M68.9,31.7v-9.4h6.9v2.3h-4.2v1.2h3.5V28h-3.5v1.3h4.3v2.4H68.9z"/>
		<path class="st4" d="M77.6,31.7v-9.4h2.7l3.3,5v-5h2.6v9.4h-2.7l-3.3-5.1v5.1H77.6z"/>
		<path class="st4" d="M88.2,31.7v-9.4h2.6l3.4,5.7l-1.1,0l3.2-5.7h2.6v9.4h-2.6l0.1-6l0.5,0.2l-2.4,4.2h-1.7l-2.5-4.2l0.5-0.2
			l0.1,6H88.2z"/>
		<path class="st4" d="M99.9,31.7l3.4-9.4h3.2l3.4,9.4h-3l-0.5-1.7h-3l-0.5,1.7H99.9z M104,27.8h1.8l-0.9-2.7L104,27.8z"/>
		<path class="st4" d="M110.9,31.7v-9.4h4c0.7,0,1.4,0.1,1.9,0.3c0.5,0.2,1,0.6,1.3,1c0.3,0.4,0.5,1,0.5,1.6c0,0.5-0.1,0.9-0.2,1.2
			c-0.2,0.3-0.4,0.6-0.6,0.9c-0.3,0.2-0.6,0.4-0.9,0.6l2.3,3.8h-3.2l-1.8-3.2h-0.5v3.2H110.9z M113.6,26.3h1c0.4,0,0.7-0.1,0.9-0.2
			c0.2-0.1,0.3-0.4,0.3-0.7c0-0.3-0.1-0.6-0.3-0.7c-0.2-0.1-0.5-0.2-0.9-0.2h-1V26.3z"/>
		<path class="st4" d="M120.3,31.7v-9.4h2.7v3.5l2.7-3.5h3.4l-3.5,4.3l3.9,5H126l-2.2-3l-0.8,0.9v2.1H120.3z"/>
		<path class="st4" d="M59,43.2V42h3.4v1.2H59z"/>
		<path class="st4" d="M63.9,46.2v-1l1.9-1.7c0.6-0.6,1.1-1,1.5-1.4c0.4-0.4,0.6-0.8,0.8-1.1c0.2-0.3,0.3-0.6,0.3-1
			c0-0.5-0.2-0.9-0.5-1.1s-0.8-0.4-1.4-0.4c-0.4,0-0.8,0.1-1.1,0.2c-0.4,0.1-0.7,0.3-0.9,0.6l-0.5-1c0.4-0.3,0.8-0.6,1.2-0.7
			s1-0.2,1.5-0.2c0.6,0,1.1,0.1,1.6,0.3c0.5,0.2,0.8,0.5,1.1,0.9c0.3,0.4,0.4,0.8,0.4,1.4c0,0.4-0.1,0.7-0.2,1.1
			c-0.1,0.4-0.4,0.8-0.8,1.2c-0.4,0.5-0.9,1-1.6,1.6L65.7,45h4.1v1.2H63.9z"/>
		<path class="st4" d="M74.3,46.4c-0.6,0-1.1-0.1-1.5-0.4c-0.4-0.2-0.8-0.6-1.1-1c-0.3-0.4-0.5-0.9-0.7-1.5
			c-0.2-0.6-0.2-1.1-0.2-1.8c0-0.6,0.1-1.2,0.2-1.8c0.2-0.6,0.4-1,0.7-1.5c0.3-0.4,0.7-0.7,1.1-1c0.4-0.2,0.9-0.4,1.5-0.4
			s1.1,0.1,1.5,0.4c0.4,0.2,0.8,0.6,1.1,1c0.3,0.4,0.5,0.9,0.7,1.5s0.2,1.1,0.2,1.8c0,0.6-0.1,1.2-0.2,1.8s-0.4,1-0.7,1.5
			c-0.3,0.4-0.7,0.8-1.1,1C75.4,46.2,74.9,46.4,74.3,46.4z M74.3,45.1c0.3,0,0.6-0.1,0.9-0.2c0.3-0.2,0.5-0.4,0.7-0.7
			c0.2-0.3,0.4-0.6,0.5-1c0.1-0.4,0.2-0.9,0.2-1.4c0-0.7-0.1-1.3-0.3-1.8c-0.2-0.5-0.4-0.9-0.8-1.1c-0.3-0.3-0.7-0.4-1.2-0.4
			c-0.3,0-0.6,0.1-0.9,0.2c-0.3,0.2-0.5,0.4-0.7,0.7c-0.2,0.3-0.3,0.6-0.5,1c-0.1,0.4-0.2,0.9-0.2,1.4c0,0.7,0.1,1.3,0.3,1.8
			c0.2,0.5,0.4,0.9,0.8,1.1S73.9,45.1,74.3,45.1z"/>
		<path class="st4" d="M78.8,46.2v-1l1.9-1.7c0.6-0.6,1.1-1,1.5-1.4c0.4-0.4,0.6-0.8,0.8-1.1c0.2-0.3,0.3-0.6,0.3-1
			c0-0.5-0.2-0.9-0.5-1.1s-0.8-0.4-1.4-0.4c-0.4,0-0.8,0.1-1.1,0.2c-0.4,0.1-0.7,0.3-0.9,0.6l-0.5-1c0.4-0.3,0.8-0.6,1.2-0.7
			s1-0.2,1.5-0.2c0.6,0,1.1,0.1,1.6,0.3c0.5,0.2,0.8,0.5,1.1,0.9c0.3,0.4,0.4,0.8,0.4,1.4c0,0.4-0.1,0.7-0.2,1.1
			c-0.1,0.4-0.4,0.8-0.8,1.2c-0.4,0.5-0.9,1-1.6,1.6L80.7,45h4.1v1.2H78.8z"/>
		<path class="st4" d="M89,46.4c-0.4,0-0.7,0-1.1-0.1s-0.7-0.2-1-0.3c-0.3-0.1-0.5-0.3-0.7-0.5l0.5-1.2c0.3,0.2,0.6,0.4,1,0.6
			s0.8,0.2,1.2,0.2c0.4,0,0.7-0.1,1-0.2c0.3-0.1,0.5-0.3,0.7-0.6c0.2-0.2,0.2-0.5,0.2-0.9c0-0.5-0.2-0.9-0.5-1.2
			c-0.4-0.3-0.8-0.4-1.5-0.4c-0.2,0-0.3,0-0.5,0c-0.2,0-0.4,0.1-0.5,0.1l-0.4-0.9l2.7-2.6h-3.9v-1.2h5.5v1.1L89.3,41
			c0.5,0,1,0.1,1.5,0.3c0.5,0.2,0.8,0.5,1.1,0.9c0.3,0.4,0.4,0.9,0.4,1.4c0,0.6-0.1,1-0.4,1.5c-0.3,0.4-0.7,0.7-1.1,1
			C90.2,46.2,89.7,46.4,89,46.4z"/>
		<path class="st4" d="M93.5,43.2V42h3.4v1.2H93.5z"/>
	</g>
	<g id="Logo_graphic_00000097489952648009377030000003112639749400042397_">
		<path class="st4" d="M0,29.6c-0.1,0.7,0.1,1.4,0.5,2c0.1,0.1,0.1,0.2,0.2,0.2l11.6,14.4c0,0,0,0,0,0l0.2-15.3
			C8.4,31.5,4.2,31.3,0,29.6z"/>
		<path class="st4" d="M12.6,26.6l0.3-20.9L5.9,9c-0.9,0.4-1.5,1.2-1.7,2.2L0.7,26.6C4.7,27.6,8.6,27.4,12.6,26.6z"/>
		<path class="st4" d="M45.9,19.3l-1.9-8.2c-0.2-0.9-0.9-1.8-1.7-2.2L25.5,1c-0.5-0.2-1-0.3-1.6-0.3c-0.4,0-0.8,0.1-1.2,0.3
			l-5.5,2.6l0.3,21.7C27,22.5,36.5,17.7,45.9,19.3z"/>
		<path class="st4" d="M17.6,30.3l0.2,17.2h15.6c1,0,1.9-0.5,2.5-1.2l11.6-14.4c0.6-0.7,0.8-1.8,0.6-2.7v0l-0.3-1.4
			C37.8,24.1,27.7,28.3,17.6,30.3z"/>
		<path class="st5" d="M17.5,25.3L17.2,3.6l-4.3,2.1l-0.3,20.9c-4,0.8-8,1-12,0l-0.6,2.6C0,29.3,0,29.5,0,29.6
			c4.2,1.6,8.4,1.9,12.6,1.4l-0.2,15.3c0.6,0.7,1.5,1.2,2.5,1.2h3l-0.2-17.2c10.1-2,20.2-6.2,30.3-2.5l-1.9-8.4
			C36.5,17.7,27,22.5,17.5,25.3z"/>
	</g>
</g>
</svg>
