<?xml version="1.0" encoding="UTF-8" standalone="no"?>
<!-- Generator: Adobe Illustrator 27.7.0, SVG Export Plug-In . SVG Version: 6.00 Build 0)  -->

<svg
   version="1.1"
   x="0px"
   y="0px"
   viewBox="0 0 2318.2 2456"
   xml:space="preserve"
   id="svg48"
   sodipodi:docname="171b247d4b10fcd493d3503acd693a21.svg"
   width="2318.2"
   height="2456"
   xmlns:inkscape="http://www.inkscape.org/namespaces/inkscape"
   xmlns:sodipodi="http://sodipodi.sourceforge.net/DTD/sodipodi-0.dtd"
   xmlns="http://www.w3.org/2000/svg"
   xmlns:svg="http://www.w3.org/2000/svg"><defs
   id="defs52" /><sodipodi:namedview
   id="namedview50"
   pagecolor="#ffffff"
   bordercolor="#666666"
   borderopacity="1.0"
   inkscape:pageshadow="2"
   inkscape:pageopacity="0.0"
   inkscape:pagecheckerboard="0" />
<style
   type="text/css"
   id="style2">
	.st0{fill:#326CE5;}
	.st1{fill:#FFFFFF;}
</style>
<g
   id="TEXT-white"
   transform="translate(-468.3,-291.7)">
	<path
   class="st0"
   d="m 468.3,2253.4 c 0,-70.8 52.1,-119.1 117.4,-119.1 41.8,0 70.1,19.7 88.4,45.6 l -24.2,13.5 c -13.1,-19.3 -36.9,-33.5 -64.2,-33.5 -49.4,0 -87.7,38.7 -87.7,93.6 0,54.6 38.3,93.6 87.7,93.6 27.3,0 51.1,-13.8 64.2,-33.5 l 24.5,13.5 c -19.3,26.2 -47,45.6 -88.7,45.6 -65.3,-0.1 -117.4,-48.5 -117.4,-119.3 z"
   id="path4" />
	<path
   class="st0"
   d="m 711,2138.1 h 28.7 v 204.8 h 107 v 25.6 H 711 Z"
   id="path6" />
	<path
   class="st0"
   d="m 975.4,2134.3 c 68,0 114.3,51.1 114.3,119.1 0,68 -46.3,119.1 -114.3,119.1 -68.4,0 -114.3,-51.1 -114.3,-119.1 0,-68 45.9,-119.1 114.3,-119.1 z m 0,25.6 c -51.8,0 -84.6,39.7 -84.6,93.6 0,53.5 32.8,93.6 84.6,93.6 51.5,0 84.6,-40.1 84.6,-93.6 0,-53.9 -33.2,-93.6 -84.6,-93.6 z"
   id="path8" />
	<path
   class="st0"
   d="m 1134.5,2138.1 h 28.7 v 140.2 c 0,42.1 22.8,68.7 65.3,68.7 42.5,0 65.3,-26.6 65.3,-68.7 v -140.2 h 28.7 v 140.5 c 0,57.3 -31.4,93.9 -93.9,93.9 -62.5,0 -93.9,-36.9 -93.9,-93.6 v -140.8 z"
   id="path10" />
	<path
   class="st0"
   d="m 1376.3,2138.1 h 78.7 c 71.5,0 118.1,50.1 118.1,115.3 0,65.6 -46.6,115 -118.1,115 h -78.7 z m 78.7,204.8 c 55.9,0 88.4,-40.1 88.4,-89.4 0,-49.7 -31.4,-89.8 -88.4,-89.8 h -50.1 v 179.2 z"
   id="path12" />
	<path
   class="st0"
   d="m 1721.9,2182.7 v 185.8 h -28.7 v -230.3 h 29.4 l 132.6,182 v -182 h 28.7 v 230.3 h -27.6 z"
   id="path14" />
	<path
   class="st0"
   d="M 2082.7,2317.3 H 1966 l -20.4,51.1 h -31.8 l 92.5,-230.3 h 35.6 l 92.9,230.3 H 2103 Z m -108.4,-25.5 h 99.8 l -49.7,-128.1 z"
   id="path16" />
	<path
   class="st0"
   d="m 2186,2163.7 h -72.9 v -25.6 h 174.7 v 25.6 h -73.2 v 204.8 H 2186 Z"
   id="path18" />
	<path
   class="st0"
   d="m 2325.8,2138.1 h 28.7 v 230.3 h -28.7 z"
   id="path20" />
	<path
   class="st0"
   d="m 2384.5,2138.1 h 32.8 l 77.7,198.9 77.7,-198.9 h 32.8 l -92.9,230.3 H 2477 Z"
   id="path22" />
	<path
   class="st0"
   d="m 2635.6,2138.1 h 150.9 v 25.6 h -122.2 v 74.2 H 2784 v 25.6 h -119.8 v 79.4 h 122.2 v 25.6 h -150.9 v -230.4 z"
   id="path24" />
	<path
   class="st0"
   d="m 928.8,2604.4 v 139.2 h -59.4 v -230.3 h 61.1 l 93.2,132.6 v -132.6 h 59.7 v 230.3 h -57.3 z"
   id="path26" />
	<path
   class="st0"
   d="m 1240,2509.4 c 70.4,0 122.9,49 122.9,119.1 0,70.1 -52.5,119.1 -122.9,119.1 -70.4,0 -123.3,-49 -123.3,-119.1 0,-70.1 52.8,-119.1 123.3,-119.1 z m 0,52.5 c -38.3,0 -62.8,29 -62.8,66.6 0,37.3 24.5,66.6 62.8,66.6 38,0 62.5,-29.4 62.5,-66.6 0,-37.6 -24.6,-66.6 -62.5,-66.6 z"
   id="path28" />
	<path
   class="st0"
   d="m 1486.2,2665.5 h -30.4 v 78 h -59.4 v -230.3 h 115.3 c 51.1,0 80.1,33.8 80.1,76.7 0,40.1 -24.5,61.5 -45.9,69.1 l 47,84.6 h -68 z m 16.5,-102.2 h -47 v 51.8 h 47 c 15.5,0 28.7,-10 28.7,-25.9 0,-15.9 -13.1,-25.9 -28.7,-25.9 z"
   id="path30" />
	<path
   class="st0"
   d="m 1628.1,2513.2 h 96.7 c 72.5,0 124.7,43.5 124.7,115 0,71.5 -52.1,115.3 -124.3,115.3 h -97 v -230.3 z m 96.7,178.5 c 40.4,0 63.9,-29.4 63.9,-63.5 0,-35.6 -21.4,-63.2 -63.5,-63.2 h -37.6 v 126.7 z"
   id="path32" />
	<path
   class="st0"
   d="m 1882.6,2513.2 h 59.4 v 230.3 h -59.4 z"
   id="path34" />
	<path
   class="st0"
   d="m 1975.1,2628.5 c 0,-71.1 53.9,-119.1 122.9,-119.1 57.3,0 87,31.4 102.2,61.8 l -51.1,24.2 c -7.6,-18.3 -27.3,-33.5 -51.1,-33.5 -35.9,0 -62.5,29 -62.5,66.6 0,37.6 26.6,66.6 62.5,66.6 23.8,0 43.5,-15.2 51.1,-33.5 l 51.1,24.2 c -14.8,29.7 -44.9,61.8 -102.2,61.8 -69,0.1 -122.9,-48.3 -122.9,-119.1 z"
   id="path36" />
	<path
   class="st0"
   d="m 2250,2666.5 c 16.6,16.6 42.1,30.4 73.6,30.4 20.4,0 32.8,-8.6 32.8,-19.7 0,-13.1 -14.8,-18.3 -39.4,-23.5 -38,-7.6 -91.2,-17.3 -91.2,-71.8 0,-38.7 32.8,-72.2 91.9,-72.2 36.9,0 69.1,11 93.6,32.1 l -32.5,42.5 c -19.3,-15.9 -44.5,-23.8 -64.9,-23.8 -19.7,0 -27.3,7.9 -27.3,18 0,12.1 14.2,16.2 39.7,21.1 38,7.9 90.5,19 90.5,71.1 0,46.3 -34.2,77 -96,77 -46.6,0 -79.1,-14.5 -102.2,-36.6 z"
   id="path38" />
</g>
<g
   id="LOGO-BIG"
   transform="translate(-468.3,-291.7)">
	<g
   id="g43">
		<polygon
   class="st0"
   points="803.4,1319.9 1258.4,1890.5 1988.2,1890.5 2443.3,1319.9 2280.9,608.4 1623.3,291.7 965.8,608.4 "
   id="polygon41" />
	</g>
	<path
   class="st1"
   d="m 2245.2,1239.3 -122.6,-28.1 84.6,-53.1 -40.9,-65.2 -149.8,94 -66.8,-15.3 59,-121.1 -108,-85.6 53.6,-42.7 175.7,20 8.7,-76.5 -99.2,-11.3 98.4,-78.3 -47.9,-60.2 -98.4,78.3 11.3,-99.2 -76.5,-8.7 -20,175.7 -53.6,42.7 -59.1,-124.4 -129.2,30.1 V 742 l 125,-125 -54.4,-54.4 -70.6,70.6 V 507.4 h -77 v 125.7 l -70.6,-70.6 -54.4,54.4 125,125 v 68.5 l -133,-30.9 -58.7,123.2 -53.6,-42.7 -19.8,-175.7 -76.5,8.6 11.2,99.2 -98.3,-78.4 -48,60.2 98.3,78.4 -99.2,11.2 8.6,76.5 175.7,-19.8 53.8,42.8 -107.1,84.7 59.7,122.8 -66.8,15.2 -149.7,-94.1 -41,65.2 84.5,53.1 -122.6,27.9 17.1,75 122.6,-27.9 -53.1,84.5 65.2,41 94.1,-149.7 66.8,-15.2 -0.6,137.9 131.3,29.5 -29.8,61.7 -166.9,58.3 25.4,72.7 94.3,-32.9 -54.6,113.3 69.3,33.4 54.6,-113.3 32.9,94.3 72.7,-25.4 -58.3,-166.9 29.6,-61.5 105.6,86.1 107.3,-86.2 29.7,61.7 -58.5,166.8 72.6,25.5 33,-94.2 54.5,113.3 69.4,-33.4 -54.5,-113.3 94.2,33 25.5,-72.6 -166.8,-58.5 -29.7,-61.7 133.2,-29.7 -0.5,-136.5 66.8,15.3 94,149.8 65.2,-40.9 -53.1,-84.6 122.6,28.1 z m -332.7,-166.8 -39.8,81.5 -162.6,-37.2 128.8,-102.5 z m -161.6,-203 40.2,84.6 -126.4,100.7 V 889.5 Z m -253.4,-0.9 90.1,21 v 166.2 L 1457.7,952.1 Z m -160.4,201.1 72.6,-57.4 129.9,103.7 -162.1,36.9 z m 57.2,252.1 0.4,-93.9 160.4,-36.6 -72.4,150.3 z m 229.2,111.7 -71.6,-58.4 72.2,-149.8 72,149.8 z m 232.4,-111.9 -90.3,20.2 -72,-149.8 162,37.1 z"
   id="path45" />
</g>
</svg>
