<?xml version="1.0" encoding="UTF-8"?>
<svg id="a" data-name="Layer 1" xmlns="http://www.w3.org/2000/svg" width="1354.99" height="247.7" viewBox="0 0 1354.99 247.7">
  <path d="m575.69,45.5c-17.5,0-35.7,4.8-58.2,16.8l12.5,30.9c19.5-10.9,35.7-15.7,47.5-15.7,13.4,0,19.3,5,19.3,11.6v.5c0,4.5-3.6,7-12.5,8l-15.5,1.6c-38.6,4.1-54.5,20.9-54.5,44.1v1.6c0,22,18.2,39.3,43.9,39.3,16.9,0,31.6-7.1,40.5-19.7l2.9,17.5h35v-79.3c0-37.7-21.6-57.2-60.9-57.2m-3.4,108.4c-13,0-19.1-5-19.1-12.7v-.5c0-6.8,3.9-11.8,18-13.9l6.1-.9c9-1.3,14.5-2.9,19.5-6v10.1c0,15.2-9.5,23.9-24.5,23.9" style="stroke-width: 0px;"/>
  <polygon points="246.59 46.4 201.79 1.6 156.99 46.4 179.29 68.6 66.99 180.9 111.79 225.7 156.59 180.9 134.29 158.6 246.59 46.4" style="fill: #f04e23; stroke-width: 0px;"/>
  <rect x="-.88" y="48.5" width="158.8" height="63.3" transform="translate(-33.68 79) rotate(-45)" style="fill: #f04e23; stroke-width: 0px;"/>
  <rect x="155.69" y="115.52" width="158.8" height="63.3" transform="translate(-35.21 209.34) rotate(-45)" style="fill: #f04e23; stroke-width: 0px;"/>
  <rect x="659.29" width="39.8" height="181.8" style="stroke-width: 0px;"/>
  <path d="m447.49,45.5c-18.1,0-32.6,8-40.6,20.5l-3-18.3h-35v179.5h39.8v-62.2c7.6,11.7,21.9,19.1,38.9,19.1,31.8,0,57.7-28.2,57.7-67v-4.5c-.1-39-26-67.1-57.8-67.1m16.8,70.4c0,20.5-10.7,35.2-28.4,35.2s-28.4-14.8-28.4-35.2v-2.3c0-20.5,10.7-35.2,28.4-35.2s28.4,14.8,28.4,35.2v2.3Z" style="stroke-width: 0px;"/>
  <path d="m1235.69,45.5c-40.7,0-69.3,28.2-69.3,67v4.5c0,38.9,28.6,67,69.3,67s69.3-28.2,69.3-67v-4.5c0-38.9-28.6-67-69.3-67m28.4,70.4c0,20.5-10.7,35.2-28.4,35.2s-28.4-14.8-28.4-35.2v-2.3c0-20.5,10.7-35.2,28.4-35.2s28.4,14.8,28.4,35.2v2.3Z" style="stroke-width: 0px;"/>
  <path d="m1342.49,53.6v-.6c0-3.9-3-6.6-8.2-6.6h-9.1v20.9h4.3v-7h4.8l3.6,7h4.8l-4.4-8.3c2.7-.8,4.2-2.8,4.2-5.4m-13-3.4h4.8c2.7,0,3.9.9,3.9,3v.2c0,1.8-1.1,3-3.9,3h-4.8v-6.2Z" style="stroke-width: 0px;"/>
  <path d="m1333.39,35.2c-12.3,0-21.6,9.3-21.6,21.6s9.3,21.6,21.6,21.6,21.6-9.3,21.6-21.6-9.3-21.6-21.6-21.6m0,40.3c-10.7,0-18.4-7.7-18.4-18.6s7.7-18.6,18.4-18.6,18.4,7.7,18.4,18.6-7.7,18.6-18.4,18.6" style="stroke-width: 0px;"/>
  <rect x="1009.49" width="39.8" height="181.8" style="stroke-width: 0px;"/>
  <path d="m1127.69,151.1c-11.6,0-15.9-5.7-15.9-18v-54.7h46.8v-30.7h-46.8v-30.7l-39.8,6v114c0,31.1,15.9,47,47.7,47,14.1,0,30.7-4.3,44.3-12l-11.4-28.2c-7.8,4.4-19,7.3-24.9,7.3" style="stroke-width: 0px;"/>
  <path d="m925.89,45.5c-17.5,0-35.7,4.8-58.2,16.8l12.5,30.9c19.5-10.9,35.7-15.7,47.5-15.7,13.4,0,19.3,5,19.3,11.6v.5c0,4.5-3.6,7-12.5,8l-15.5,1.6c-38.6,4.1-54.5,20.9-54.5,44.1v1.6c0,22,18.2,39.3,43.9,39.3,16.9,0,31.6-7.1,40.5-19.7l2.9,17.5h35v-79.3c0-37.7-21.6-57.2-60.9-57.2m-3.4,108.4c-13,0-19.1-5-19.1-12.7v-.5c0-6.8,3.9-11.8,18-13.9l6.1-.9c9-1.3,14.5-2.9,19.5-6v10.1c0,15.2-9.5,23.9-24.5,23.9" style="stroke-width: 0px;"/>
  <path d="m786.09,45.5c-40.7,0-69.3,28.2-69.3,67v4.5c0,38.9,28.6,67,69.3,67s69.3-28.2,69.3-67v-4.5c.1-38.9-28.6-67-69.3-67m28.4,70.4c0,20.5-10.7,35.2-28.4,35.2s-28.4-14.8-28.4-35.2v-2.3c0-20.5,10.7-35.2,28.4-35.2s28.4,14.8,28.4,35.2v2.3Z" style="stroke-width: 0px;"/>
  <polygon points="948.89 214.1 959.09 214.1 973.19 232.6 973.29 232.6 973.29 214.1 982.69 214.1 982.69 246.8 972.79 246.8 958.39 227.8 958.29 227.8 958.29 246.8 948.89 246.8 948.89 214.1" style="stroke-width: 0px;"/>
  <polygon points="995.09 214.1 1023.69 214.1 1024.09 222 1004.89 222 1004.89 226.5 1019.99 226.5 1019.99 233.7 1004.89 233.7 1004.89 238.8 1024.59 238.8 1024.29 246.8 995.09 246.8 995.09 214.1" style="stroke-width: 0px;"/>
  <polygon points="1044.59 222.5 1033.09 222.5 1033.49 214.1 1065.49 214.1 1065.89 222.5 1054.39 222.5 1054.39 246.8 1044.59 246.8 1044.59 222.5" style="stroke-width: 0px;"/>
  <polygon points="1073.79 214.1 1084.19 214.1 1089.59 236.8 1090.09 236.8 1096.99 214.1 1106.59 214.1 1113.39 236.8 1113.89 236.8 1119.09 214.1 1129.09 214.1 1120.49 246.8 1107.69 246.8 1101.69 227.1 1101.39 227.1 1095.29 246.8 1082.39 246.8 1073.79 214.1" style="stroke-width: 0px;"/>
  <path d="m1136.29,230.4c0-10.7,7.2-17.3,18.7-17.3s18.7,6.7,18.7,17.3-7.2,17.3-18.7,17.3c-11.5.1-18.7-6.6-18.7-17.3m27.6,0c0-5.7-3.3-9-8.9-9s-8.9,3.4-8.9,9,3.3,9,8.9,9,8.9-3.3,8.9-9" style="stroke-width: 0px;"/>
  <path d="m1184.29,214.1h19.1c8.7,0,12.9,4.1,12.9,11.7,0,5.2-2.2,8.8-6.4,10.5l7.8,10.5h-11.1l-6-8.6h-6.4v8.6h-9.8v-32.7h-.1Zm17.8,16.4c3.3,0,4.4-1.8,4.4-4.3s-1.2-4.3-4.4-4.3h-8v8.6h8Z" style="stroke-width: 0px;"/>
  <polygon points="1229.09 214.1 1238.89 214.1 1238.89 226.1 1242.89 226.1 1252.49 214.1 1263.49 214.1 1263.59 214.1 1250.99 229.8 1264.29 246.7 1264.19 246.8 1252.79 246.8 1242.89 234.2 1238.89 234.2 1238.89 246.8 1229.09 246.8 1229.09 214.1" style="stroke-width: 0px;"/>
  <path d="m1271.79,244.6v-9h0c5.5,2.8,10.8,4.1,15.4,4.1,3.5,0,5.3-.8,5.3-2.5,0-1.6-1.2-2.1-8.2-3.2-7.7-1.2-12.8-3.5-12.8-10.1,0-6.1,5.4-10.8,15.9-10.8,4.2,0,8.6.9,12.7,2.6v8.9h0c-3.9-2.2-9.1-3.6-13.3-3.6-3.7,0-5.2.9-5.2,2.4,0,1.9,2.3,2.1,8,3.1,7.7,1.3,12.8,3.5,12.8,10.4,0,5.4-4,10.7-15.6,10.7-5.7.1-10.2-1.1-15-3" style="stroke-width: 0px;"/>
</svg>