<svg width="198" height="56" viewBox="0 0 198 56" fill="none" xmlns="http://www.w3.org/2000/svg">
<g clip-path="url(#clip0_428_2834)">
<mask id="mask0_428_2834" style="mask-type:luminance" maskUnits="userSpaceOnUse" x="0" y="0" width="198" height="56">
<path d="M0 56H197.996V0.0266571H0V56Z" fill="white"/>
</mask>
<g mask="url(#mask0_428_2834)">
<path d="M0 56H197.996V-0.00453568H0V56Z" fill="#FCD205"/>
<path d="M164.427 43.1982L166.362 34.0292H8.45234L6.51562 43.1982H164.427Z" fill="white"/>
<path d="M183.445 21.5325C183.445 21.5325 185.563 11.8185 185.592 11.7273H172.136C172.136 11.7887 169.355 24.6185 169.355 24.6794C169.384 24.6794 172.802 24.6794 172.802 24.6794C172.832 24.6794 174.918 14.9955 174.918 14.9955H181.449C181.449 14.9955 179.393 24.7091 179.333 24.7705C179.393 24.7705 189.281 24.7705 189.281 24.7705L187.981 30.7614C187.981 30.7614 178.124 30.7614 178.092 30.7614C178.092 30.8223 176.097 39.9003 176.097 39.9003C176.097 39.9003 168.689 39.9003 168.629 39.9003C168.629 39.93 167.963 43.168 167.934 43.1982H178.939C178.939 43.168 180.906 34.0292 180.906 34.0292C180.906 34.0292 190.733 34.0292 190.794 34.0292C190.794 33.999 193.395 21.5923 193.395 21.5325H183.445Z" fill="#ED1C24"/>
<path d="M159.096 24.407C160.517 24.407 161.485 25.3748 161.485 26.9788C161.485 27.2505 161.454 27.4926 161.425 27.7649H155.286C155.921 25.7383 157.281 24.407 159.096 24.407ZM162.15 36.4508L162.937 32.8494C161.606 33.3024 160.305 33.6652 158.643 33.6652C156.707 33.6652 155.014 33.0004 154.924 30.6698H164.902C165.264 29.489 165.476 28.31 165.476 27.2209C165.476 23.8917 163.541 21.1675 159.398 21.1675C154.015 21.1675 150.75 25.5873 150.75 30.459C150.75 34.634 153.532 37.0859 157.856 37.0859C159.61 37.0859 161 36.8126 162.15 36.4508ZM145.731 33.3934C143.765 33.3934 142.435 32.5465 142.435 30.0955C142.435 27.2209 144.249 24.8298 147.122 24.8298C148.029 24.8298 149.057 25.102 150.085 25.4961L150.811 22.0463C149.631 21.623 148.24 21.32 146.849 21.32C142.102 21.32 138.049 24.86 138.049 30.308C138.049 34.786 140.802 36.9032 144.763 36.9032C146.093 36.9032 147.212 36.6617 148.029 36.3295L148.815 32.788C147.908 33.1212 146.909 33.3934 145.731 33.3934ZM124.836 36.6315L126.499 28.9753C127.164 25.8891 128.677 24.8298 130.249 24.8298C132.275 24.8298 132.517 26.3437 132.123 28.0678L130.309 36.6315H134.634L136.538 27.8559C137.475 23.4684 135.45 21.1675 132.275 21.1675C130.521 21.1675 128.828 21.864 127.376 23.4075L127.769 21.623H123.748L120.512 36.6315H124.836ZM109.294 32.3043C109.294 30.7921 110.624 29.9435 112.831 29.9435C113.256 29.9435 114.191 29.9748 115.039 30.0955L114.857 30.943C114.342 32.7271 112.892 33.939 111.17 33.939C109.929 33.939 109.294 33.3336 109.294 32.3043ZM113.467 21.2585C111.471 21.2585 109.445 21.7131 108.78 21.9249L108.055 25.4051C109.021 25.1334 110.926 24.6179 112.62 24.6179C114.887 24.6179 115.704 25.3139 115.704 26.4946C115.704 26.7055 115.704 26.9486 115.644 27.1896L115.583 27.4926C114.495 27.3719 113.467 27.2818 112.982 27.2818C108.689 27.2818 105.243 28.945 105.243 32.8797C105.243 35.4512 107.238 36.9949 109.838 36.9949C111.683 36.9949 113.256 36.2686 114.283 35.0582L113.95 36.6315H117.79L119.666 28.0382C119.816 27.4015 119.876 26.7367 119.876 26.1016C119.876 23.5284 118.456 21.2585 113.467 21.2585ZM92.5119 36.6315L94.1746 28.9753C94.8404 25.8891 96.351 24.8298 97.9252 24.8298C99.9514 24.8298 100.193 26.3437 99.8006 28.0678L97.985 36.6315H102.309L104.213 27.8559C105.151 23.4684 103.126 21.1675 99.9514 21.1675C98.1952 21.1675 96.5019 21.864 95.0511 23.4075L95.4438 21.623H91.4227L88.187 36.6315H92.5119ZM84.7713 17.4766C84.6793 18.8378 85.6781 19.8973 87.0082 19.8973C88.4897 19.8973 89.5483 18.8378 89.6378 17.4766C89.7294 16.1153 88.7317 15.0558 87.4009 15.0558C85.9199 15.0558 84.8613 16.1153 84.7713 17.4766ZM84.1654 21.623L80.9302 36.6315H85.2245L88.4602 21.623H84.1654ZM71.9483 36.6315L73.6416 28.794H80.1743L80.9614 24.951H74.4589L75.4577 20.1393H82.3217L83.1681 16.2958H71.8293L67.535 36.6315H71.9483ZM67.6853 24.9209L68.3813 21.623H63.7557L64.6618 17.4469L60.1558 18.4448L57.3436 31.2747C56.5587 34.9072 58.5531 36.9032 62.1815 36.9032C62.939 36.9032 64.2077 36.7528 65.1161 36.4508L65.8417 33.1514C65.1161 33.3336 64.2077 33.5147 63.4228 33.5147C62.1815 33.5147 61.3049 33.0914 61.6083 31.5776L63.0299 24.9209H67.6853ZM51.2963 32.2133C51.2963 33.4246 49.8153 33.6356 48.5756 33.6356C47.0026 33.6356 45.2495 33.2128 44.3131 32.9093L43.5859 36.2983C44.9472 36.6315 46.6707 36.9032 48.3031 36.9032C52.1728 36.9032 55.319 35.4512 55.319 31.8202C55.319 27.1297 49.6946 27.9471 49.6946 25.8596C49.6946 24.9209 50.6018 24.5878 52.0219 24.5878C53.3823 24.5878 55.2894 25.1334 55.9235 25.3139L56.6491 21.8953C55.3492 21.5319 53.8068 21.32 52.4152 21.32C48.2131 21.32 45.6734 23.1967 45.6734 26.3135C45.6734 30.8816 51.2963 30.1258 51.2963 32.2133ZM35.0285 37.0859C39.7764 37.0859 42.9814 33.6356 43.7071 29.1272C44.4635 24.6179 41.954 21.1675 37.2056 21.1675C32.4587 21.1675 29.2533 24.6179 28.5275 29.1272C27.7717 33.6356 30.2816 37.0859 35.0285 37.0859ZM35.4229 33.6059C33.6984 33.6059 32.3381 32.244 32.9721 29.1272C33.6068 26.0105 35.1195 24.6492 36.843 24.6492C38.5669 24.6492 39.9278 26.0401 39.2619 29.1272C38.6267 32.2133 37.1457 33.6059 35.4229 33.6059ZM17.1882 30.4276H19.0937C25.1717 30.4276 28.5588 27.4328 28.5588 22.4393C28.5588 18.7171 25.926 16.2958 21.421 16.2958H15.7982L11.5039 36.6315H15.858L17.1882 30.4276ZM17.944 26.7055L19.3653 20.0186H21.1797C23.1757 20.0186 24.1423 20.8359 24.1423 22.7422C24.1423 25.1932 22.6009 26.7055 19.7596 26.7055H17.944Z" fill="#231F20"/>
</g>
</g>
<defs>
<clipPath id="clip0_428_2834">
<rect width="198" height="56" fill="white"/>
</clipPath>
</defs>
</svg>
