<svg width="217" height="56" viewBox="0 0 217 56" fill="none" xmlns="http://www.w3.org/2000/svg">
<g clip-path="url(#clip0_428_2811)">
<path fill-rule="evenodd" clip-rule="evenodd" d="M72.0046 29.9854H75.5511C76.5824 29.9854 77.3687 29.7034 77.9073 29.137C78.4468 28.5711 78.7163 27.8441 78.7163 26.9555C78.7163 26.0477 78.4468 25.3045 77.9073 24.7248C77.3687 24.1447 76.5824 23.8549 75.5511 23.8549H72.0046V29.9854ZM72.0046 33.6332V40.6332H67.2347V20.207H75.5511C77.9802 20.207 79.9082 20.8274 81.3336 22.0658C82.7605 23.3062 83.4734 24.9262 83.4734 26.9275C83.4734 28.9386 82.7605 30.5591 81.3336 31.7892C79.9082 33.0182 77.9802 33.6332 75.5511 33.6332H72.0046ZM102.287 20.2071V33.5911C102.287 35.9205 101.511 37.7253 99.958 39.0069C98.406 40.2875 96.3726 40.9276 93.8593 40.9276C91.3169 40.9276 89.2672 40.2875 87.7097 39.0069C86.1528 37.7253 85.3733 35.9205 85.3733 33.5911V20.2071H90.1437V33.5911C90.1437 34.8447 90.4679 35.7726 91.1149 36.3764C91.7618 36.9786 92.6768 37.2807 93.8593 37.2807C95.0314 37.2807 95.9336 36.9816 96.5672 36.3827C97.2003 35.7839 97.5167 34.8536 97.5167 33.5911V20.2071H102.287ZM110.015 36.9863H119.345V40.6332H104.162V38.5013L113.322 23.8548H104.12V20.2069H119.219V22.2554L110.015 36.9863ZM126.687 36.9863H136.016V40.6332H120.834V38.5013L129.994 23.8548H120.791V20.2069H135.89V22.2554L126.687 36.9863ZM142.571 36.9863H151.393V40.6332H137.8V20.2069H142.571V36.9863ZM165.85 31.8937H157.815V36.9863H167.285V40.6331H153.046V20.2069H167.313V23.8548H157.815V28.2458H165.85V31.8937ZM181.679 40.6332H176.937V20.207H181.679V40.6332ZM198.99 23.8549H193.586V40.6332H188.816V23.8549H183.455V20.207H198.99V23.8549ZM216.35 33.4652L216.378 33.5488C216.284 35.9435 215.573 37.7713 214.246 39.0348C212.917 40.2972 210.993 40.9275 208.47 40.9275C205.937 40.9275 203.878 40.1513 202.293 38.5991C200.707 37.0468 199.914 35.0313 199.914 32.553V28.2882C199.914 25.8188 200.676 23.8057 202.201 22.249C203.726 20.6918 205.706 19.9128 208.146 19.9128C210.735 19.9128 212.714 20.5631 214.083 21.8624C215.454 23.1632 216.227 25.0097 216.405 27.4045L216.378 27.4885H211.748C211.682 26.1602 211.385 25.1738 210.854 24.5283C210.325 23.8829 209.421 23.5601 208.146 23.5601C207.067 23.5601 206.218 23.9929 205.599 24.8584C204.98 25.724 204.67 26.8572 204.67 28.2602V32.553C204.67 33.9653 205.008 35.1069 205.684 35.9759C206.359 36.8464 207.287 37.2811 208.47 37.2811C209.614 37.2811 210.426 36.9765 210.904 36.3684C211.382 35.7612 211.655 34.793 211.72 33.4652H216.35ZM8.1822 47.8432C-2.7274 36.967 -2.7274 19.3338 8.1822 8.45805C19.0898 -2.41725 36.7772 -2.41676 47.6853 8.45805C58.5944 19.3348 58.5934 36.966 47.6853 47.8423C36.7767 58.7185 19.0913 58.7195 8.1822 47.8432Z" fill="#1E5A96"/>
<path fill-rule="evenodd" clip-rule="evenodd" d="M41.6922 28.9189C40.7127 31.5691 34.982 31.546 27.2011 31.5691C27.2011 31.5691 32.2287 30.8607 33.6812 28.0622C35.1347 25.2656 36.8464 19.5969 36.8464 19.5969C29.1054 19.5964 28.4156 22.3001 28.4156 22.3001C28.4156 22.3001 23.523 35.9391 21.7783 40.9712C8.22237 40.9712 10.3888 34.2954 10.3888 34.2954L17.1695 15.3311H30.9073L29.9898 18.0623C29.9898 18.0623 31.1093 15.3311 38.6808 15.3311C38.6808 15.3311 46.4429 15.3649 45.5309 18.0765C44.6204 20.7871 41.6922 28.9189 41.6922 28.9189Z" fill="white"/>
</g>
<defs>
<clipPath id="clip0_428_2811">
<rect width="217" height="56" fill="white"/>
</clipPath>
</defs>
</svg>
