<svg width="22" height="22" viewBox="0 0 22 22" fill="none" xmlns="http://www.w3.org/2000/svg">
<path fill-rule="evenodd" clip-rule="evenodd" d="M8.06509 0C6.84913 0.000897034 5.86503 0.98584 5.86593 2.19953C5.86503 3.41321 6.85002 4.39816 8.06599 4.39906H10.266V2.20042C10.2669 0.986737 9.28195 0.00179407 8.06509 0C8.06599 0 8.06599 0 8.06509 0ZM8.06509 5.8666H2.20006C0.984098 5.8675 -0.000896261 6.85244 2.45608e-06 8.06613C-0.00179498 9.27982 0.983199 10.2648 2.19916 10.2666H8.06509C9.28105 10.2657 10.266 9.28071 10.2651 8.06703C10.266 6.85244 9.28105 5.8675 8.06509 5.8666Z" fill="#36C5F0"/>
<path fill-rule="evenodd" clip-rule="evenodd" d="M21.9995 8.06613C22.0004 6.85244 21.0154 5.8675 19.7995 5.8666C18.5835 5.8675 17.5985 6.85244 17.5994 8.06613V10.2666H19.7995C21.0154 10.2657 22.0004 9.28071 21.9995 8.06613ZM16.1336 8.06613V2.19953C16.1345 0.986737 15.1504 0.00179407 13.9344 0C12.7185 0.000897034 11.7335 0.98584 11.7344 2.19953V8.06613C11.7326 9.27982 12.7176 10.2648 13.9335 10.2666C15.1495 10.2657 16.1345 9.28071 16.1336 8.06613Z" fill="#2EB67D"/>
<path fill-rule="evenodd" clip-rule="evenodd" d="M13.9344 21.9999C15.1504 21.999 16.1354 21.014 16.1345 19.8003C16.1354 18.5867 15.1504 17.6017 13.9344 17.6008H11.7344V19.8003C11.7335 21.0131 12.7185 21.9981 13.9344 21.9999ZM13.9344 16.1324H19.8004C21.0163 16.1315 22.0013 15.1465 22.0004 13.9328C22.0022 12.7192 21.0172 11.7342 19.8013 11.7324H13.9353C12.7194 11.7333 11.7344 12.7183 11.7353 13.9319C11.7344 15.1465 12.7185 16.1315 13.9344 16.1324Z" fill="#ECB22E"/>
<path fill-rule="evenodd" clip-rule="evenodd" d="M6.14509e-07 13.9329C-0.000898103 15.1466 0.984096 16.1316 2.20006 16.1325C3.41602 16.1316 4.40102 15.1466 4.40012 13.9329V11.7334H2.20006C0.984096 11.7343 -0.000898103 12.7192 6.14509e-07 13.9329ZM5.86593 13.9329V19.7995C5.86413 21.0132 6.84912 21.9982 8.06509 22C9.28105 21.9991 10.266 21.0141 10.2651 19.8004V13.9347C10.2669 12.721 9.28195 11.7361 8.06599 11.7343C6.84912 11.7343 5.86503 12.7192 5.86593 13.9329Z" fill="#E01E5A"/>
</svg>
