<?xml version="1.0" encoding="UTF-8" standalone="no"?>
<!DOCTYPE svg PUBLIC "-//W3C//DTD SVG 1.1//EN" "http://www.w3.org/Graphics/SVG/1.1/DTD/svg11.dtd">
<svg width="100%" height="100%" viewBox="0 0 2481 1459" version="1.1" xmlns="http://www.w3.org/2000/svg" xmlns:xlink="http://www.w3.org/1999/xlink" xml:space="preserve" xmlns:serif="http://www.serif.com/" style="fill-rule:evenodd;clip-rule:evenodd;stroke-linejoin:round;stroke-miterlimit:2;">
    <g transform="matrix(3.83156,0,0,3.83156,-6547.33,-137.534)">
        <g transform="matrix(4.16667,0,0,4.16667,0,-3086.26)">
            <rect x="416.693" y="777.553" width="141.732" height="27.517"/>
        </g>
        <g transform="matrix(4.16667,0,0,4.16667,0,0)">
            <g>
                <g transform="matrix(0.187049,0,0,0.187049,426.593,45.9389)">
                    <path d="M65.404,11.379L65.625,11.158L65.625,10.762C65.625,6.962 63.387,4.054 63.387,4.054C61.267,1.433 58.825,0.121 56.067,0.121L9.558,0.121C8.333,0.121 6.771,0.354 5.233,1.35C1.746,3.729 0,6.867 0,10.762L0,21.442C0,23.846 0.813,27.004 2.6,28.767C4.7,30.763 6.771,32.192 10.583,32.192L50.608,32.192L50.608,41.392L0.108,41.392L0,41.5C0,42.754 0.5,44.471 1.5,46.662C2.746,48.9 4.612,50.45 7.104,51.317C8.2,51.796 8.983,51.921 9.704,51.929L56.379,51.921C58.138,51.658 59.363,51.063 60.679,50.342C63.975,47.938 65.625,44.833 65.625,41.033L65.625,31.217C65.625,31.217 65.558,29.475 64.892,27.683C63.242,23.263 59.775,20.829 54.967,20.829L15.05,20.829L15.05,11.387L65.404,11.379Z" style="fill:white;fill-rule:nonzero;"/>
                </g>
                <g transform="matrix(0.187049,0,0,0.187049,426.593,45.9389)">
                    <path d="M569.938,11.379L570.154,11.158L570.154,10.762C570.154,6.962 567.925,4.054 567.925,4.054C565.8,1.433 563.363,0.121 560.6,0.121L514.092,0.121C512.871,0.121 511.3,0.354 509.771,1.35C506.279,3.729 504.529,6.867 504.529,10.762L504.529,21.442C504.529,23.846 505.346,27.004 507.133,28.767C509.233,30.763 511.3,32.192 515.117,32.192L555.142,32.192L555.142,41.392L504.646,41.392L504.529,41.5C504.529,42.754 505.033,44.471 506.037,46.662C507.283,48.9 509.146,50.45 511.633,51.317C512.733,51.796 513.517,51.921 514.237,51.929L560.913,51.921C562.671,51.658 563.896,51.063 565.217,50.342C568.512,47.938 570.154,44.833 570.154,41.033L570.154,31.217C570.154,31.217 570.092,29.475 569.425,27.683C567.779,23.263 564.312,20.829 559.504,20.829L519.587,20.829L519.587,11.387L569.938,11.379Z" style="fill:white;fill-rule:nonzero;"/>
                </g>
                <g transform="matrix(0.187049,0,0,0.187049,426.593,45.9296)">
                    <path d="M87.542,11.475L122.7,11.475L122.7,41.612L87.542,41.612L87.542,11.475ZM137.567,41.425L137.567,10.854C137.567,4.379 134.329,0.05 127.754,0.05L83.367,0.05C76.713,0.05 72.675,4.575 72.675,10.854L72.675,41.246C72.675,48 78.083,52.05 83.258,52.05L127.021,52.05C133.942,52.05 137.567,47.608 137.567,41.425Z" style="fill:white;fill-rule:nonzero;"/>
                </g>
                <g transform="matrix(0.187049,0,0,0.187049,426.593,45.9576)">
                    <path d="M210.129,41.575L210.346,41.575M211.642,41.425L211.642,0L196.571,0.021L196.525,41.429L161.496,41.429L161.437,0.025L146.692,0.025C146.692,0.025 146.571,35.7 146.571,41.233C146.571,46.767 150.879,51.9 157.175,51.9L201.992,51.95C208.775,51.713 211.642,47.167 211.642,41.425Z" style="fill:white;fill-rule:nonzero;"/>
                </g>
                <g transform="matrix(0.187049,0,0,0.187049,426.593,45.9483)">
                    <path d="M284.854,51.871L284.854,0.117L271.342,0.075L271.342,38.454L243.583,0.013L220.3,0L220.221,52L233.733,51.938L233.733,12.925L261.583,52L284.854,51.871Z" style="fill:white;fill-rule:nonzero;"/>
                </g>
                <g transform="matrix(0.187049,0,0,0.187049,426.593,45.9506)">
                    <path d="M308.287,41.483L308.354,11.471L343.071,11.471L343.071,41.483L308.287,41.483ZM357.758,41.263L357.758,10.879C357.758,5.204 354.058,0.083 347.579,0.083L293.671,0.079L293.671,51.858C293.671,51.858 341.037,51.908 347.321,51.908C353.6,51.908 357.758,47.063 357.758,41.263Z" style="fill:white;fill-rule:nonzero;"/>
                </g>
                <g transform="matrix(0.187049,0,0,0.187049,426.593,45.9693)">
                    <path d="M476.196,0.058L458.021,0.058L439.346,38.021L418.725,0.058L400.088,0L410.371,19.954L400.088,38.104C396.496,31.742 379.137,0.058 379.137,0.058L361.154,0L389.833,51.846L410.567,51.887L419.717,35.387L428.904,51.846L449.558,51.846L476.196,0.058Z" style="fill:white;fill-rule:nonzero;"/>
                </g>
                <g transform="matrix(0.187049,0,0,0.187049,426.593,45.9405)">
                    <rect x="483.508" y="0.079" width="14.929" height="51.883" style="fill:white;"/>
                </g>
                <g transform="matrix(0.187049,0,0,0.187049,426.593,45.9249)">
                    <path d="M640.721,0.121L576.137,0.121L576.137,52.004L640.721,52.004L640.721,40.517L590.842,40.517L590.842,11.521L640.721,11.521L640.721,0.121Z" style="fill:white;fill-rule:nonzero;"/>
                </g>
                <g transform="matrix(0.187049,0,0,0.187049,426.593,46.1501)">
                    <rect x="595.254" y="19.721" width="41.729" height="11.479" style="fill:white;"/>
                </g>
            </g>
        </g>
    </g>
</svg>
