<svg width="302" height="82" viewBox="0 0 302 82" fill="none" xmlns="http://www.w3.org/2000/svg">
<g clip-path="url(#clip0_428_2780)">
<path d="M198.061 33.0791C196.117 32.3445 194.067 31.9278 191.99 31.8451C189.679 31.8451 187.87 32.4501 187.87 34.5519C187.87 39.5197 200.667 36.4626 200.667 46.6847C200.667 53.603 195.049 56.2381 188.715 56.2381C185.84 56.233 182.981 55.8092 180.228 54.9802L180.73 48.9138C183.215 49.7312 185.799 50.2053 188.412 50.323C190.866 50.323 192.874 49.5268 192.874 47.4171C192.874 42.0991 180.085 45.5065 180.085 35.3321C180.085 28.9632 185.448 26.3599 191.368 26.3599C194.097 26.3275 196.812 26.7527 199.4 27.6177L198.061 33.0791ZM174.674 33.0791C172.732 32.3484 170.685 31.9318 168.611 31.8451C166.3 31.8451 164.443 32.4501 164.443 34.5519C164.443 39.5197 177.288 36.4626 177.288 46.6847C177.288 53.603 171.623 56.2381 165.336 56.2381C162.43 56.2259 159.54 55.8024 156.754 54.9802L157.303 48.9138C159.805 49.7292 162.405 50.2031 165.033 50.323C167.423 50.323 169.447 49.5268 169.447 47.4171C169.447 42.0991 156.602 45.5065 156.602 35.3321C156.602 28.9632 162.021 26.3599 167.885 26.3599C170.648 26.3345 173.396 26.7594 176.021 27.6177L174.674 33.0791ZM292.885 26.3121C298.463 26.3121 301.714 29.3214 301.714 35.8655V55.6171H294.287V37.4179C294.287 34.4643 293.435 32.5059 290.303 32.5059C287.171 32.5059 284.382 35.2604 284.382 40.2202V55.6649H277.115V37.4179C277.115 34.6633 276.207 32.5059 273.044 32.5059C269.737 32.5059 267.179 35.563 267.179 40.5228V55.649H259.657V26.9171C264.565 26.3121 266.422 28.3183 266.629 31.5266C267.497 29.9132 268.796 28.5718 270.382 27.6513C271.967 26.7308 273.776 26.2672 275.609 26.3121C280.773 26.3121 282.829 29.1701 283.578 31.8849C284.829 29.0348 288.04 26.3121 292.909 26.3121H292.885ZM141.614 26.9171C140.02 35.4356 135.893 48.874 133.287 55.641H125.462L119.94 36.5342H119.844L114.322 55.641H106.545C104.035 48.9696 99.5171 35.0853 98.2182 26.9171H105.589L110.458 46.6688H110.561L116.378 26.9171H123.757L129.422 46.5175H129.526L134.442 26.9171H141.614ZM93.8038 33.0791C91.8593 32.3445 89.8091 31.9278 87.7319 31.8451C85.4211 31.8451 83.668 32.4501 83.668 34.5519C83.668 39.5197 96.4174 36.4626 96.4174 46.6847C96.4174 53.603 90.7997 56.2381 84.4649 56.2381C81.5925 56.2337 78.7362 55.8099 75.9866 54.9802L76.4328 48.9138C78.9339 49.7292 81.5339 50.2031 84.1621 50.323C86.6163 50.323 88.6243 49.5268 88.6243 47.4171C88.6243 42.0991 75.875 45.5065 75.875 35.3321C75.875 28.9632 81.2377 26.3599 87.1582 26.3599C89.8868 26.332 92.6011 26.7571 95.1903 27.6177L93.8038 33.0791ZM241.306 56.2381C233.13 56.2381 227.409 51.7799 227.409 41.7567C227.409 32.7845 233.433 26.3121 242.158 26.3121C250.286 26.3121 255.553 30.8818 255.553 40.6422C255.553 50.0204 249.84 56.2301 241.306 56.2301V56.2381ZM241.608 32.6412C238.302 32.6412 235.138 35.0933 235.138 41.3985C235.138 46.8599 237.194 49.9169 241.513 49.9169C245.178 49.9169 247.991 46.9633 247.991 41.1597C247.991 35.5868 245.983 32.6412 241.616 32.6412H241.608ZM144.976 55.649H152.355V26.9171C148.889 26.5668 144.976 27.5222 144.976 32.9358V55.649ZM149.008 23.3107C149.624 23.332 150.238 23.2301 150.813 23.0111C151.389 22.7921 151.915 22.4603 152.36 22.0353C152.805 21.6103 153.161 21.1007 153.407 20.5363C153.652 19.972 153.782 19.3643 153.789 18.749C153.74 17.5523 153.229 16.4211 152.364 15.592C151.499 14.7628 150.347 14.2998 149.148 14.2998C147.949 14.2998 146.797 14.7628 145.932 15.592C145.067 16.4211 144.556 17.5523 144.506 18.749C144.518 19.9441 144.995 21.0879 145.835 21.939C146.674 22.7901 147.812 23.2819 149.008 23.3107ZM217.847 56.1426C209.313 56.1426 203.743 51.8834 203.743 41.709C203.743 33.0791 208.524 26.4156 218.994 26.4156C221.388 26.4199 223.764 26.8263 226.022 27.6177L224.429 33.6364C222.767 32.9827 221.003 32.6269 219.217 32.5855C213.847 32.5855 211.64 36.0884 211.64 41.3428C211.64 46.4618 213.648 49.8692 218.915 49.8692C220.919 49.8518 222.899 49.4237 224.732 48.6113L225.584 54.5265C224.15 55.442 221.09 56.1426 217.879 56.1426H217.847Z" fill="#001155"/>
<path d="M27.8183 21.5352C26.9051 21.6427 26.0383 21.9956 25.31 22.5564C24.5818 23.1172 24.0194 23.8648 23.6827 24.7196C22.9496 26.3517 22.5512 28.1509 21.4755 29.6157C19.2443 32.6728 13.4593 31.9563 12.5748 36.1519C11.276 42.3138 19.3001 43.6115 21.6827 47.9025C23.4277 51.087 22.5751 55.9831 25.874 58.2043C26.3784 58.5346 26.9326 58.7819 27.5155 58.9367C27.6175 58.9648 27.7214 58.9861 27.8262 59.0004L27.8183 21.5352Z" fill="white"/>
<path d="M27.8262 59.0161L27.5155 58.9524C26.93 58.7978 26.3732 58.5505 25.866 58.22C22.5671 55.9988 23.4197 51.055 21.6826 47.9183C21.0655 46.8992 20.2532 46.0118 19.2921 45.307L19.2045 45.2354C18.822 45.6175 18.2563 46.2146 17.3399 47.1301C16.6279 47.8565 15.96 48.6248 15.3398 49.4309C17.4721 51.5769 19.2475 54.0495 20.5989 56.7552C22.1926 60.3297 22.6229 64.2227 23.866 67.9008C24.2823 69.2816 24.9056 70.5915 25.7146 71.7858C26.2361 72.5646 26.9723 73.1757 27.8342 73.5453V58.9763L27.8262 59.0161Z" fill="url(#paint0_linear_428_2780)"/>
<path d="M23.9034 13.6853C24.2541 14.0674 24.7003 14.5292 25.0987 14.9431C25.4971 15.3571 26.039 15.9144 26.6207 16.4717C26.9792 16.814 27.4175 17.2678 27.792 17.5863V0.748392C27.4015 0.66958 27.0023 0.642811 26.6047 0.668782C25.6003 0.72573 24.6096 0.929582 23.6644 1.27383C22.8204 1.56879 22.0353 2.01084 21.3456 2.57946C20.568 3.2097 20.0284 4.08576 19.8157 5.06334C19.6009 6.42762 19.8359 7.82466 20.485 9.04393C20.8804 9.88181 21.3526 10.6813 21.8954 11.4323C21.8954 11.4323 22.2938 11.9179 22.517 12.1647C22.9712 12.6264 23.4413 13.1519 23.9034 13.6853Z" fill="url(#paint1_radial_428_2780)"/>
<path d="M50.7971 26.71C50.6002 24.1601 49.9556 21.6646 48.8927 19.338C47.9571 17.3332 46.679 15.5066 45.1157 13.9403C44.9643 13.789 44.8049 13.6298 44.6455 13.4865C43.7684 12.6675 42.819 11.9295 41.8088 11.2813C40.8142 10.6432 39.7665 10.0919 38.6772 9.63332C36.8838 8.87749 34.9829 8.40738 33.0436 8.24011C31.2614 8.03642 29.457 8.31123 27.8164 9.03623V17.5547C28.7726 18.4304 29.92 19.4813 30.5017 19.9988C30.9081 20.357 31.2986 20.6993 31.705 21.0496L32.8922 22.0448L34.1273 23.0877C34.6373 23.5176 36.47 24.9984 36.6852 25.1815L37.0437 25.4681L41.6733 29.2178L41.7769 29.2974C42.3985 29.799 45.5938 32.3704 47.1635 33.7158C48.7333 35.0613 49.9126 36.1042 50.0242 36.2236C50.3342 34.8259 50.5657 33.4119 50.7174 31.9883C50.9016 30.2348 50.9283 28.4683 50.7971 26.71Z" fill="url(#paint2_radial_428_2780)"/>
<path d="M60.838 51.4134C60.2805 49.3202 59.3986 47.327 58.2244 45.5062C56.5632 42.9607 54.6199 40.6106 52.4314 38.5004C51.6345 37.7043 50.8377 36.9878 50.0409 36.2314C49.9612 36.5897 49.762 37.4415 49.3636 38.7392C49.1564 39.4159 48.7819 40.5305 48.6385 40.9524C48.4233 41.5654 48.009 42.6641 47.7301 43.3408C47.3476 44.3359 46.742 45.7291 46.2001 46.8914C45.4192 48.5633 44.981 49.3594 44.1124 50.9516C43.722 51.6602 43.3873 52.3369 42.9012 53.1808C42.7339 53.4674 42.5586 53.7699 42.3514 54.1043C42.2638 54.2396 41.2598 55.8637 41.1562 56.0468C40.957 56.3573 40.7339 56.7155 40.5984 56.9145C39.3952 58.7536 39.2916 58.8412 39.1004 59.1118C38.6541 59.7169 39.2597 58.8889 38.4151 60.0751L36.415 62.8934C36.1202 63.2994 35.1241 64.605 34.0245 65.9664C32.9249 67.3278 31.7934 68.8165 31.2914 69.4136L27.7773 73.5534V81.8728C29.2595 81.7534 30.8053 81.5464 32.391 81.2598C34.4209 80.8803 36.427 80.3832 38.3991 79.771C40.127 79.2325 41.8242 78.6 43.4829 77.8763C44.973 77.2255 46.4255 76.4919 47.8336 75.679C49.6419 74.6359 51.3539 73.4343 52.9493 72.0885C54.7451 70.5773 56.3291 68.8314 57.6586 66.8979C59.0465 64.8764 60.0662 62.626 60.6706 60.2503C61.0138 58.892 61.2167 57.5021 61.2762 56.1025C61.3573 54.5265 61.2096 52.9471 60.838 51.4134Z" fill="url(#paint3_radial_428_2780)"/>
<path d="M25.7069 71.8257C24.8979 70.6313 24.2746 69.3214 23.8582 67.9406C22.6152 64.2307 22.2167 60.3377 20.5912 56.795C19.2414 54.0903 17.4688 51.6179 15.3401 49.4707C14.7799 50.1965 14.2662 50.957 13.8022 51.7476C13.3808 52.4691 13.0287 53.2288 12.7504 54.0165C12.6055 54.4627 12.4884 54.9173 12.3998 55.3779C12.3106 55.8509 12.2573 56.3299 12.2404 56.8109C12.2186 57.4314 12.256 58.0525 12.3519 58.6659C12.4609 59.3434 12.6316 60.0096 12.8619 60.6561C13.1612 61.4868 13.5401 62.2867 13.9934 63.0445L14.1926 63.3709C15.1306 64.8771 16.273 66.2462 17.5871 67.4391C18.3277 68.123 19.1073 68.7636 19.9219 69.3577C20.4717 69.7478 21.0295 70.1538 21.6032 70.4802C22.4 70.9579 23.157 71.4037 23.9538 71.8177C25.0375 72.375 26.7428 73.1472 27.8344 73.5851C26.9696 73.2169 26.2305 72.6056 25.7069 71.8257Z" fill="url(#paint4_radial_428_2780)"/>
<path d="M50.0271 36.2228C49.9156 36.1193 48.6327 34.9649 47.1665 33.715C45.7003 32.4651 42.3855 29.7982 41.7799 29.2966L41.6763 29.217L37.0467 25.4752C36.8714 25.3399 36.7519 25.2364 36.6881 25.1807C36.473 25.0055 34.6403 23.5248 34.1303 23.0949L32.8952 22.0599L31.7159 21.0807C31.2856 20.7304 30.9191 20.3881 30.5047 20.0218C29.923 19.5123 28.7756 18.4296 27.8194 17.5857C27.4528 17.2434 27.0226 16.7896 26.656 16.4791C26.0743 15.9218 25.6281 15.476 25.1341 14.9506C24.64 14.4251 24.2894 14.0749 23.9388 13.6927C23.4448 13.1593 22.9746 12.6339 22.5523 12.1403L22.0742 11.583C22.3531 12.0368 22.9348 12.8727 23.2296 13.2867C24.0265 14.4649 23.8751 14.2182 24.6719 15.4123C25.2137 16.2084 26.1301 17.6892 26.6321 18.5331C26.6967 18.6385 26.7552 18.7475 26.8074 18.8595C27.1165 19.4363 27.3828 20.035 27.6042 20.6508C27.7105 20.9322 27.7776 21.2268 27.8035 21.5265C27.8035 21.5265 27.8035 58.9838 27.8035 59.0077V73.5766L31.3175 69.4368C31.8195 68.8397 32.9669 67.3828 34.0506 65.9896C35.1343 64.5964 36.1065 63.3226 36.4411 62.9166L38.4412 60.0665C39.2858 58.8803 38.6802 59.7082 39.1265 59.1032C39.3177 58.8325 39.4213 58.7449 40.6245 56.9059L41.1823 56.0382C41.2859 55.855 42.2899 54.231 42.3775 54.0877C42.5847 53.7613 42.76 53.4587 42.9274 53.1721C43.4134 52.3283 43.7242 51.6516 44.1385 50.943C45.0071 49.3508 45.4294 48.5547 46.2103 46.8987C46.7522 45.7205 47.3578 44.3352 47.7402 43.3481C48.0191 42.6554 48.4335 41.5488 48.6407 40.9597C48.7921 40.5298 49.1666 39.4232 49.3737 38.7465C49.7722 37.4409 49.9714 36.589 50.0511 36.2308L50.0271 36.2228Z" fill="url(#paint5_radial_428_2780)"/>
<path d="M15.3326 49.4307C15.9528 48.6246 16.6207 47.8563 17.3327 47.1299C18.2491 46.2144 18.8148 45.6252 19.1973 45.2351C16.0099 42.7274 11.5875 40.8485 12.5756 36.1674C13.4601 31.9718 19.2451 32.6884 21.4762 29.6313C22.552 28.1664 22.9504 26.3672 23.6835 24.7351C24.0201 23.8803 24.5825 23.1327 25.3108 22.5719C26.0391 22.0112 26.9059 21.6582 27.819 21.5507C27.794 21.2483 27.7269 20.9509 27.6198 20.667C27.3999 20.0532 27.1335 19.4571 26.823 18.8837C26.7725 18.7683 26.7139 18.6565 26.6477 18.5493C26.1457 17.7134 25.2293 16.2485 24.6875 15.4285C23.8906 14.2344 24.0659 14.4812 23.2452 13.3109C22.9504 12.8889 22.3687 12.053 22.0898 11.5992C22.0376 11.5445 21.9897 11.486 21.9464 11.4241C21.402 10.6741 20.9297 9.87446 20.536 9.03573L20.3288 8.53418L17.747 10.4449C15.7072 11.9416 13.6513 13.4223 11.6672 14.9907C10.3604 16.0177 9.07749 17.0845 7.85037 18.1752C6.63711 19.2634 5.50026 20.4338 4.44789 21.6781C2.47971 24.0664 0.925885 26.7414 0.702772 29.7985C0.666784 30.2967 0.666784 30.7969 0.702772 31.2951C0.732351 31.8303 0.801598 32.3625 0.909947 32.8874C1.29535 34.7408 2.09633 36.4829 3.25264 37.9825C4.54749 39.6349 6.01684 41.1429 7.63523 42.4806L8.43206 43.1891C10.3046 44.7814 12.2091 46.3736 14.0099 48.125C14.5199 48.6027 15.0059 49.1043 15.492 49.6138L15.3406 49.4466L15.3326 49.4307Z" fill="url(#paint6_radial_428_2780)"/>
</g>
<defs>
<linearGradient id="paint0_linear_428_2780" x1="26.7346" y1="73.8717" x2="19.2331" y2="45.2241" gradientUnits="userSpaceOnUse">
<stop stop-color="#350706"/>
<stop offset="0.36" stop-color="#3F0808"/>
<stop offset="0.98" stop-color="#5B0C0E"/>
<stop offset="1" stop-color="#5C0C0E"/>
</linearGradient>
<radialGradient id="paint1_radial_428_2780" cx="0" cy="0" r="1" gradientUnits="userSpaceOnUse" gradientTransform="translate(27.6406 16.1532) scale(16.0721 16.0577)">
<stop stop-color="#003789"/>
<stop offset="1" stop-color="#5FC7FF" stop-opacity="0.98"/>
</radialGradient>
<radialGradient id="paint2_radial_428_2780" cx="0" cy="0" r="1" gradientUnits="userSpaceOnUse" gradientTransform="translate(38.4223 13.9801) scale(19.1878 19.1705)">
<stop stop-color="#EC0A1C"/>
<stop offset="1" stop-color="#BB0E15"/>
</radialGradient>
<radialGradient id="paint3_radial_428_2780" cx="0" cy="0" r="1" gradientUnits="userSpaceOnUse" gradientTransform="translate(56.1287 41.2868) scale(32.957 32.9274)">
<stop stop-color="#5BC0FF" stop-opacity="0.98"/>
<stop offset="1" stop-color="#003789"/>
</radialGradient>
<radialGradient id="paint4_radial_428_2780" cx="0" cy="0" r="1" gradientUnits="userSpaceOnUse" gradientTransform="translate(14.2006 54.4783) scale(21.5304 21.5111)">
<stop stop-color="#42B4F3" stop-opacity="0.98"/>
<stop offset="1" stop-color="#003A80"/>
</radialGradient>
<radialGradient id="paint5_radial_428_2780" cx="0" cy="0" r="1" gradientUnits="userSpaceOnUse" gradientTransform="translate(41.8277 28.7473) scale(38.0408 38.0066)">
<stop stop-color="#5FC7FF"/>
<stop offset="1" stop-color="#003785" stop-opacity="0.98"/>
</radialGradient>
<radialGradient id="paint6_radial_428_2780" cx="0" cy="0" r="1" gradientUnits="userSpaceOnUse" gradientTransform="translate(8.93406 21.4153) scale(43.9693 43.9297)">
<stop stop-color="#EC0A1C"/>
<stop offset="1" stop-color="#9E0D18"/>
</radialGradient>
<clipPath id="clip0_428_2780">
<rect width="302" height="82" fill="white"/>
</clipPath>
</defs>
</svg>
