<?xml version="1.0" encoding="UTF-8" standalone="no"?>
<!-- Created with Inkscape (http://www.inkscape.org/) -->

<svg
   version="1.1"
   id="svg2"
   width="925.65332"
   height="188.01334"
   viewBox="0 0 925.65332 188.01334"
   sodipodi:docname="sysdig-lockup-black.eps"
   xmlns:inkscape="http://www.inkscape.org/namespaces/inkscape"
   xmlns:sodipodi="http://sodipodi.sourceforge.net/DTD/sodipodi-0.dtd"
   xmlns="http://www.w3.org/2000/svg"
   xmlns:svg="http://www.w3.org/2000/svg">
  <defs
     id="defs6" />
  <sodipodi:namedview
     id="namedview4"
     pagecolor="#ffffff"
     bordercolor="#000000"
     borderopacity="0.25"
     inkscape:showpageshadow="2"
     inkscape:pageopacity="0.0"
     inkscape:pagecheckerboard="0"
     inkscape:deskcolor="#d1d1d1" />
  <g
     id="g8"
     inkscape:groupmode="layer"
     inkscape:label="ink_ext_XXXXXX"
     transform="matrix(1.3333333,0,0,-1.3333333,0,188.01333)">
    <g
       id="g10"
       transform="scale(0.1)">
      <path
         d="m 676.898,507.301 c 0,-89.199 -30.597,-157.199 -91.796,-203.801 -56,-43.602 -131.801,-65.301 -227.204,-65.301 -130.199,-0.597 -256.699,44 -357.898,126 l 101.102,155.602 c 91.199,-66.403 178.898,-99.602 263,-99.602 66.398,0 99.597,20.699 99.597,62.199 v 3.102 c 0,22.801 -17.097,42 -51.398,57.602 C 399.801,548.301 359.398,561.301 291,582 125,630.699 42,714.199 42,832.5 v 3.102 c -2.8008,76 30.6992,148.796 90.199,196.098 56,45.6 127.602,68.5 214.801,68.5 111.102,0.3 219.699,-33.4 311.199,-96.5 L 567.898,840.301 c -88.199,51.898 -163.398,77.801 -225.597,77.801 -58.102,0 -87.102,-19.204 -87.102,-57.602 v -3.102 c 0,-20.796 17.102,-39.5 51.403,-56 13.398,-6.199 52.898,-20.796 118.199,-43.597 76.699,-25.903 133.301,-52.903 169.597,-80.903 52.704,-39 83.403,-100.898 82.5,-166.5 v -3.097"
         style="fill:#100f0d;fill-opacity:1;fill-rule:nonzero;stroke:none"
         id="path12" />
      <path
         d="M 1252,233.398 C 1219.9,147.301 1184.1,87.1992 1144.7,52.8984 1103.2,17.6992 1047.7,0.101563 978.199,0 c -74,-0.199219 -146.5,19.6992 -210.097,57.6016 L 847.5,228.801 c 30.102,-19.903 65.102,-31.102 101.102,-32.602 36.199,-0.801 68.998,20.903 82.498,54.403 L 704.301,1087.7 h 250.597 l 189.802,-567.899 182,567.899 h 245.8 L 1252,233.5 v -0.102"
         style="fill:#100f0d;fill-opacity:1;fill-rule:nonzero;stroke:none"
         id="path14" />
      <path
         d="m 2238.8,507.301 c 0,-89.199 -30.6,-157.199 -91.8,-203.801 -56,-43.602 -131.8,-65.301 -227.2,-65.301 -130.2,-0.597 -256.7,44 -357.9,126 L 1663,519.801 c 91.2,-66.403 178.9,-99.602 263,-99.602 66.4,0 99.6,20.699 99.6,62.199 v 3.102 c 0,22.801 -17.1,42 -51.4,57.602 -12.5,5.199 -52.9,18.199 -121.3,38.898 -166,48.699 -249,132.199 -249,250.5 v 3.102 c -2.8,76 30.7,148.699 90.2,196.098 56,45.6 127.6,68.5 214.8,68.5 111.1,0.3 219.7,-33.4 311.2,-96.5 l -90.3,-163.399 c -88.2,51.898 -163.4,77.801 -225.6,77.801 -58.1,0 -87.1,-19.204 -87.1,-57.602 v -3.102 c 0,-20.796 17.1,-39.5 51.4,-56 13.4,-6.199 52.9,-20.796 118.2,-43.597 76.7,-25.903 133.3,-52.903 169.6,-80.903 52.7,-39 83.4,-100.898 82.5,-166.5 v -3.097"
         style="fill:#100f0d;fill-opacity:1;fill-rule:nonzero;stroke:none"
         id="path16" />
      <path
         d="m 2960.5,253.602 v 73.097 C 2894.1,267.602 2807.5,238 2700.6,238 c -99.3,-1.898 -194.8,38.199 -263,110.5 -77.8,80.898 -116.7,187.699 -116.7,320.5 v 3.102 c 0,132.796 38.4,239.597 115.1,320.5 68.7,72.398 164.7,112.598 264.5,110.498 103.7,0 190.3,-25.9 259.9,-77.8 v 364.2 h 236.5 V 253.602 h -236.5 z m 3.1,418.597 c 2.3,61 -18.8,120.602 -59.1,166.5 -35.9,41.403 -88.4,64.801 -143.2,63.801 -54.5,1.102 -106.7,-21.602 -143.1,-62.199 -41.3,-46 -63.1,-106.301 -60.7,-168.102 v -3.097 c -2.2,-61.301 19.5,-121.102 60.7,-166.5 71.1,-79.102 192.8,-85.5 271.9,-14.5 5.1,4.597 9.9,9.398 14.5,14.5 40.3,45.898 61.4,105.5 59.1,166.5 v 3.097 h -0.1"
         style="fill:#100f0d;fill-opacity:1;fill-rule:nonzero;stroke:none"
         id="path18" />
      <path
         d="m 3340.2,1389.6 h 249 v -210.1 h -249 z m 6.2,-301.9 h 236.5 V 253.699 H 3346.4 V 1087.7"
         style="fill:#100f0d;fill-opacity:1;fill-rule:nonzero;stroke:none"
         id="path20" />
      <path
         d="m 4602.5,441.898 c 0,-154.597 -38.9,-267.097 -116.7,-337.699 C 4411.1,35.8008 4294.9,1.5 4137.2,1.5 4009,-0.398438 3882.3,29.6016 3768.4,88.6016 L 3849.3,281.5 c 85.6,-49.602 182.7,-75.801 281.7,-76.199 158.7,0 238,65.301 238,196.097 v 9.301 C 4294.3,351.602 4203.6,322 4096.7,322 c -96.2,-2.5 -189.4,33.898 -258.3,101.102 -74.6,72.597 -112,168.5 -112,287.898 v 3.102 c 0,119.199 37.9,215.199 113.6,287.798 68.4,67 161,103.5 256.8,101.1 95.6,2.4 189.6,-24.8 269.2,-77.8 v 62.2 h 236.5 V 441.699 Z m -233.4,272.301 c 1.5,52.602 -20.1,103.199 -59.1,138.5 -82.8,72.602 -206.6,72.602 -289.5,0 -38.2,-35.801 -59.1,-86.199 -57.6,-138.5 v -3.097 c -1.8,-52.801 19.2,-103.801 57.6,-140 39.6,-35.801 91.4,-54.704 144.7,-52.903 53.6,-1.699 105.6,17.903 144.7,54.5 39,35.403 60.6,85.903 59.1,138.5 v 3.102 l 0.1,-0.102"
         style="fill:#100f0d;fill-opacity:1;fill-rule:nonzero;stroke:none"
         id="path22" />
      <path
         d="m 5139.7,1112.9 c -16.8,7.2 -30.1,17.5 -39.8,31 -9.8,13.5 -14.8,29.5 -15.1,47.9 h 64.6 c 0.8,-12.4 5.2,-22.2 13.1,-29.3 7.9,-7.2 18.7,-10.8 32.5,-10.8 13.8,0 25.2,3.4 33.2,10.1 8,6.8 12,15.6 12,26.5 0,8.9 -2.7,16.2 -8.2,22 -5.5,5.8 -12.3,10.3 -20.5,13.6 -8.2,3.3 -19.5,7 -33.9,11 -19.5,5.7 -35.4,11.4 -47.6,17 -12.2,5.6 -22.7,14 -31.5,25.4 -8.8,11.3 -13.1,26.5 -13.1,45.4 0,17.8 4.4,33.3 13.4,46.5 9,13.2 21.4,23.3 37.5,30.4 16.1,7 34.5,10.5 55.2,10.5 31,0 56.2,-7.5 75.6,-22.6 19.4,-15.1 30.1,-36.1 32.1,-63.1 h -66.4 c -0.6,10.4 -4.9,18.9 -13.1,25.7 -8.2,6.7 -19,10.1 -32.5,10.1 -11.8,0 -21.2,-3 -28.2,-9 -7.1,-6 -10.6,-14.8 -10.6,-26.3 0,-8 2.7,-14.7 8,-20 5.3,-5.3 11.9,-9.6 19.8,-12.9 7.9,-3.3 19,-7.1 33.4,-11.5 19.5,-5.7 35.5,-11.5 47.8,-17.2 12.3,-5.7 23,-14.4 31.9,-25.9 8.9,-11.5 13.4,-26.5 13.4,-45.2 0,-16.1 -4.1,-31 -12.5,-44.8 -8.4,-13.8 -20.5,-24.8 -36.7,-33 -16.1,-8.2 -35.2,-12.3 -57.3,-12.3 -21,0 -39.9,3.6 -56.7,10.7 l 0.2,0.1"
         style="fill:#100f0d;fill-opacity:1;fill-rule:nonzero;stroke:none"
         id="path24" />
      <path
         d="m 5415.2,1357.2 v -75.4 h 101.3 V 1234 h -101.3 v -79.7 h 114.2 v -49.1 h -174.5 v 301.2 h 174.5 v -49.1 h -114.2 v -0.1"
         style="fill:#100f0d;fill-opacity:1;fill-rule:nonzero;stroke:none"
         id="path26" />
      <path
         d="m 5589.6,1335.5 c 13.4,23.4 31.6,41.6 54.7,54.7 23.1,13.1 49,19.6 77.8,19.6 33.6,0 63,-8.6 88.3,-25.8 25.3,-17.2 43,-41.1 53,-71.5 H 5794 c -6.9,14.3 -16.6,25.1 -29.1,32.3 -12.5,7.2 -26.9,10.8 -43.3,10.8 -17.5,0 -33.1,-4.1 -46.8,-12.3 -13.7,-8.2 -24.3,-19.7 -31.9,-34.7 -7.7,-14.9 -11.5,-32.5 -11.5,-52.6 0,-20.1 3.8,-37.2 11.5,-52.3 7.6,-15.1 18.2,-26.7 31.9,-34.9 13.7,-8.2 29.2,-12.3 46.8,-12.3 16.4,0 30.8,3.7 43.3,11 12.5,7.3 22.2,18.2 29.1,32.5 h 69.4 c -10.1,-30.7 -27.6,-54.6 -52.8,-71.7 -25.2,-17.1 -54.7,-25.6 -88.6,-25.6 -28.7,0 -54.7,6.5 -77.8,19.6 -23.1,13.1 -41.3,31.2 -54.7,54.5 -13.4,23.3 -20,49.7 -20,79.3 0,29.6 6.7,56.1 20,79.5 l 0.1,-0.1"
         style="fill:#100f0d;fill-opacity:1;fill-rule:nonzero;stroke:none"
         id="path28" />
      <path
         d="m 5974.6,1405.9 v -186.1 c 0,-20.4 5.3,-36 15.9,-46.8 10.6,-10.7 25.6,-16.1 44.8,-16.1 19.2,0 34.6,5.4 45.2,16.1 10.7,10.8 15.9,26.4 15.9,46.8 v 186.1 h 60.8 v -185.7 c 0,-25.5 -5.5,-47.2 -16.6,-64.9 -11.1,-17.6 -25.8,-30.9 -44.4,-39.8 -18.5,-8.9 -39.1,-13.4 -61.8,-13.4 -22.7,0 -42.7,4.4 -61,13.4 -18.2,8.9 -32.7,22.2 -43.3,39.8 -10.6,17.7 -15.9,39.3 -15.9,64.9 v 185.7 h 60.3 0.1"
         style="fill:#100f0d;fill-opacity:1;fill-rule:nonzero;stroke:none"
         id="path30" />
      <path
         d="m 6275.8,1267.6 h 50.4 c 16.4,0 28.6,3.9 36.6,11.8 8,7.9 12.1,18.9 12.1,33 0,14.1 -4.1,24.5 -12.1,32.1 -8,7.6 -20.3,11.4 -36.6,11.4 h -50.4 z m 94.8,-162.5 -66.4,117.2 h -28.5 v -117.2 h -60.3 v 300.8 h 112.9 c 23.3,0 43.1,-4.1 59.4,-12.3 16.4,-8.2 28.7,-19.2 36.9,-33.2 8.2,-14 12.3,-29.5 12.3,-46.8 0,-19.8 -5.7,-37.7 -17.2,-53.6 -11.5,-15.9 -28.6,-26.9 -51.3,-32.9 l 72,-122 h -69.8"
         style="fill:#100f0d;fill-opacity:1;fill-rule:nonzero;stroke:none"
         id="path32" />
      <path
         d="m 6552,1357.2 v -75.4 h 101.3 V 1234 H 6552 v -79.7 h 114.2 v -49.1 h -174.5 v 301.2 h 174.5 v -49.1 H 6552 v -0.1"
         style="fill:#100f0d;fill-opacity:1;fill-rule:nonzero;stroke:none"
         id="path34" />
      <path
         d="m 5152.8,926.301 v -75.403 h 101.3 V 803.102 H 5152.8 V 723.398 H 5267 V 674.301 H 5092.5 V 975.5 H 5267 v -49.102 h -114.2 v -0.097"
         style="fill:#100f0d;fill-opacity:1;fill-rule:nonzero;stroke:none"
         id="path36" />
      <path
         d="M 5591.9,975 5481.6,674.199 h -73.3 L 5298,975 h 64.6 L 5445.3,735.898 5527.6,975 h 64.2 0.1"
         style="fill:#100f0d;fill-opacity:1;fill-rule:nonzero;stroke:none"
         id="path38" />
      <path
         d="m 5688.4,926.301 v -75.403 h 101.3 v -47.796 h -101.3 v -79.704 h 114.2 V 674.301 H 5628.1 V 975.5 h 174.5 v -49.102 h -114.2 v -0.097"
         style="fill:#100f0d;fill-opacity:1;fill-rule:nonzero;stroke:none"
         id="path40" />
      <path
         d="m 5917.7,836.699 h 50.4 c 16.4,0 28.6,3.903 36.6,11.801 8,7.898 12.1,18.898 12.1,33 0,14.102 -4.1,24.5 -12.1,32.102 -8,7.597 -20.3,11.398 -36.6,11.398 h -50.4 z m 94.8,-162.5 -66.4,117.199 h -28.5 V 674.199 h -60.3 V 975 h 112.9 c 23.3,0 43.1,-4.102 59.4,-12.301 16.4,-8.199 28.7,-19.199 36.9,-33.199 8.2,-14 12.3,-29.5 12.3,-46.801 0,-19.801 -5.7,-37.699 -17.2,-53.597 -11.5,-15.903 -28.6,-26.903 -51.3,-32.903 l 72,-122 h -69.8"
         style="fill:#100f0d;fill-opacity:1;fill-rule:nonzero;stroke:none"
         id="path42" />
      <path
         d="M 6372.7,975 6271,779 V 674.301 h -60.3 V 779 l -102.1,196 h 68.1 L 6241.3,837.602 6305.5,975 h 67.2 v 0"
         style="fill:#100f0d;fill-opacity:1;fill-rule:nonzero;stroke:none"
         id="path44" />
      <path
         d="m 5139.7,251.102 c -16.8,7.199 -30.1,17.5 -39.8,31 -9.8,13.5 -14.8,29.5 -15.1,47.898 h 64.6 c 0.8,-12.398 5.2,-22.199 13.1,-29.301 7.9,-7.199 18.7,-10.801 32.5,-10.801 13.8,0 25.2,3.403 33.2,10.102 8,6.801 12,15.602 12,26.5 0,8.898 -2.7,16.199 -8.2,22 -5.5,5.801 -12.3,10.301 -20.5,13.602 -8.2,3.296 -19.5,7 -33.9,11 -19.5,5.699 -35.4,11.398 -47.6,17 -12.2,5.597 -22.7,14 -31.5,25.398 -8.8,11.301 -13.1,26.5 -13.1,45.398 0,17.801 4.4,33.301 13.4,46.5 9,13.204 21.4,23.301 37.5,30.403 16.1,7 34.5,10.5 55.2,10.5 31,0 56.2,-7.5 75.6,-22.602 19.4,-15.097 30.1,-36.097 32.1,-63.097 h -66.4 c -0.6,10.398 -4.9,18.898 -13.1,25.699 -8.2,6.699 -19,10.097 -32.5,10.097 -11.8,0 -21.2,-3 -28.2,-9 -7.1,-6 -10.6,-14.796 -10.6,-26.296 0,-8 2.7,-14.704 8,-20 5.3,-5.301 11.9,-9.602 19.8,-12.903 7.9,-3.301 19,-7.097 33.4,-11.5 19.5,-5.699 35.5,-11.5 47.8,-17.199 12.3,-5.699 23,-14.398 31.9,-25.898 8.9,-11.5 13.4,-26.5 13.4,-45.204 0,-16.097 -4.1,-31 -12.5,-44.796 -8.4,-13.801 -20.5,-24.801 -36.7,-33 -16.1,-8.204 -35.2,-12.301 -57.3,-12.301 -21,0 -39.9,3.597 -56.7,10.699 l 0.2,0.102"
         style="fill:#100f0d;fill-opacity:1;fill-rule:nonzero;stroke:none"
         id="path46" />
      <path
         d="M 5415.2,495.398 V 420 h 101.3 V 372.199 H 5415.2 V 292.5 h 114.2 v -49.102 h -174.5 v 301.204 h 174.5 V 495.5 h -114.2 v -0.102"
         style="fill:#100f0d;fill-opacity:1;fill-rule:nonzero;stroke:none"
         id="path48" />
      <path
         d="m 5589.6,473.699 c 13.4,23.403 31.6,41.602 54.7,54.699 23.1,13.102 49,19.602 77.8,19.602 33.6,0 63,-8.602 88.3,-25.801 25.3,-17.199 43,-41.097 53,-71.5 H 5794 c -6.9,14.301 -16.6,25.102 -29.1,32.301 -12.5,7.199 -26.9,10.801 -43.3,10.801 -17.5,0 -33.1,-4.102 -46.8,-12.301 -13.7,-8.199 -24.3,-19.699 -31.9,-34.699 -7.7,-14.903 -11.5,-32.5 -11.5,-52.602 0,-20.097 3.8,-37.199 11.5,-52.301 7.6,-15.097 18.2,-26.699 31.9,-34.898 13.7,-8.199 29.2,-12.301 46.8,-12.301 16.4,0 30.8,3.699 43.3,11 12.5,7.301 22.2,18.199 29.1,32.5 h 69.4 c -10.1,-30.699 -27.6,-54.597 -52.8,-71.699 -25.2,-17.102 -54.7,-25.602 -88.6,-25.602 -28.7,0 -54.7,6.5 -77.8,19.602 -23.1,13.102 -41.3,31.199 -54.7,54.5 -13.4,23.301 -20,49.699 -20,79.301 0,29.597 6.7,56.097 20,79.5 l 0.1,-0.102"
         style="fill:#100f0d;fill-opacity:1;fill-rule:nonzero;stroke:none"
         id="path50" />
      <path
         d="m 6102.6,306.5 c 13.8,8.199 24.6,19.898 32.3,35.102 7.7,15.199 11.6,32.898 11.6,53 0,20.097 -3.9,37.699 -11.6,52.796 -7.8,15.102 -18.6,26.602 -32.3,34.704 -13.8,8 -29.7,12 -47.8,12 -18.1,0 -34.1,-4 -48.1,-12 -13.9,-8.102 -24.8,-19.602 -32.5,-34.704 -7.8,-15.097 -11.7,-32.699 -11.7,-52.796 0,-20.102 3.9,-37.801 11.7,-53 7.7,-15.204 18.6,-26.903 32.5,-35.102 14,-8.199 30,-12.301 48.1,-12.301 18.1,0 34,4.102 47.8,12.301 z m -125.4,-46.301 c -23.5,13.199 -42.2,31.5 -56,54.903 -13.8,23.398 -20.7,49.898 -20.7,79.5 0,29.597 6.9,55.597 20.7,79.097 13.8,23.5 32.5,41.699 56,55 23.5,13.199 49.4,19.801 77.6,19.801 28.2,0 54.4,-6.602 77.7,-19.801 23.4,-13.199 42,-31.5 55.6,-55 13.7,-23.398 20.5,-49.801 20.5,-79.097 0,-29.301 -6.8,-56.102 -20.5,-79.5 -13.6,-23.403 -32.3,-41.704 -55.8,-54.903 -23.5,-13.199 -49.4,-19.801 -77.5,-19.801 -28.1,0 -54,6.602 -77.6,19.801"
         style="fill:#100f0d;fill-opacity:1;fill-rule:nonzero;stroke:none"
         id="path52" />
      <path
         d="m 6510.6,243.301 h -60.3 L 6313.7,449.699 V 243.301 h -60.3 V 544.5 h 60.3 L 6450.3,337.602 V 544.5 h 60.3 V 243.301"
         style="fill:#100f0d;fill-opacity:1;fill-rule:nonzero;stroke:none"
         id="path54" />
      <path
         d="m 6746.3,320.5 c 17.2,17.199 25.9,41.5 25.9,72.801 0,31.301 -8.6,55.801 -25.9,73.5 -17.3,17.699 -41.6,26.5 -73.3,26.5 h -42.7 V 294.602 h 42.7 c 31.6,0 56,8.597 73.3,25.796 z m 12.3,205.102 c 24,-12.301 42.5,-29.903 55.6,-52.801 13.1,-22.903 19.6,-49.301 19.6,-79.5 0,-30.199 -6.5,-56.5 -19.6,-79.102 -13.1,-22.597 -31.6,-40 -55.6,-52.398 -24,-12.301 -51.8,-18.5 -83.4,-18.5 h -105.1 v 300.801 h 105.1 c 31.6,0 59.4,-6.204 83.4,-18.5 v 0"
         style="fill:#100f0d;fill-opacity:1;fill-rule:nonzero;stroke:none"
         id="path56" />
      <path
         d="m 6878.8,250.398 c -7,6.801 -10.6,15.204 -10.6,25.204 0,10 3.6,18.5 10.6,25.199 7.1,6.699 16,10.097 26.9,10.097 10.9,0 19.4,-3.398 26.3,-10.097 6.9,-6.801 10.4,-15.199 10.4,-25.199 0,-10 -3.5,-18.403 -10.4,-25.204 -6.9,-6.796 -15.6,-10.097 -26.3,-10.097 -10.7,0 -19.9,3.301 -26.9,10.097"
         style="fill:#100f0d;fill-opacity:1;fill-rule:nonzero;stroke:none"
         id="path58" />
    </g>
  </g>
</svg>
