<?xml version="1.0" encoding="utf-8"?>
<!-- Generator: Adobe Illustrator 27.7.0, SVG Export Plug-In . SVG Version: 6.00 Build 0)  -->
<svg version="1.1" id="Layer_1" xmlns="http://www.w3.org/2000/svg" xmlns:xlink="http://www.w3.org/1999/xlink" x="0px" y="0px"
	 viewBox="0 0 400 80" style="enable-background:new 0 0 400 80;" xml:space="preserve">
<style type="text/css">
	.st0{fill:#009DDC;}
</style>
<path class="st0" d="M40,15.4H21c-2.8,0-9.8,0.6-12.2,7.9C6.1,31.1,7,35.4,7,36.1s0.4,4.4,6,6.5c1.2,0.5,5.5,2,6.7,2.5
	c3,1.1,6.3,2.8,4.9,7.8c-1.2,4.4-2.5,4.8-6.7,4.8H2.8l-1.5,8.5h25.4c1.9,0,8.8-0.7,11.1-9.4c2.1-7.9,1.6-11.6,1.5-12.3
	c-0.1-0.6-0.3-4.3-6-6.5c-1.6-0.6-7.5-2.7-8.5-3.1c-1.2-0.4-4.6-2-3.2-7c0.9-3.4,2.2-3.9,5.3-4c0.3,0,11.7,0,11.7,0L40,15.4z"/>
<path class="st0" d="M114.6,15.4h-19c-2.8,0-9.8,0.6-12.2,7.9c-2.6,7.8-1.7,12.1-1.7,12.8s0.4,4.4,6,6.5c1.2,0.5,5.5,2,6.7,2.5
	c3,1.1,6.3,2.8,4.9,7.8c-1.2,4.4-2.5,4.8-6.7,4.8H77.4L76,66.1h25.4c1.9,0,8.8-0.7,11.1-9.4c2.1-7.9,1.6-11.6,1.5-12.3
	c-0.1-0.6-0.3-4.3-6-6.5c-1.6-0.6-7.5-2.7-8.5-3.1c-1.2-0.4-4.6-2-3.2-7c0.9-3.4,2.2-3.9,5.3-4c0.3,0,11.7,0,11.7,0L114.6,15.4z"/>
<path class="st0" d="M400,15.4h-20.2c0,0-7,0.4-11.3,4.7c0,0-4.9,4.1-7.4,18.8c0,0-2,9.1-1.6,15.6c0.6,8.9,8.6,11.5,13.3,11.5H395
	l1.5-8.5h-16c-1.7-0.1-6.7-0.8-6.3-7.4c0.5-9.1,1.8-14.2,4.6-21.5c1.8-4.7,7.4-4.9,7.4-4.9h12.5L400,15.4z"/>
<polygon class="st0" points="358.7,15.4 344.8,15.4 336.3,66.1 350.2,66.1 "/>
<polygon class="st0" points="65.6,47.2 62.5,66.1 48.5,66.1 51.9,45 42.2,15.3 55.8,15.3 61.5,32.6 71.6,15.3 85,15.3 "/>
<polygon class="st0" points="155.8,23.8 143.8,23.8 136.6,66.1 122.6,66.1 129.8,23.8 116.4,23.8 117.7,15.3 157.1,15.3 "/>
<polygon class="st0" points="338.5,23.8 326.5,23.8 319.3,66.1 305.3,66.1 312.5,23.8 299,23.8 300.4,15.3 339.8,15.3 "/>
<polygon class="st0" points="193.7,23.8 172.7,23.8 170.9,34.5 186.5,34.5 185.1,43 169.6,43 167.2,57.6 188.2,57.6 186.9,66.1 
	151.8,66.1 160,15.3 195,15.3 "/>
<path class="st0" d="M237.7,15.4l-14.1,32.1l-4-32.1h-20.8l-8.1,50.6h13l5.4-33.1l4.2,33.1h11.9l15.1-34.4l-0.4,2.3c0,0,0,0.1,0,0.1
	l-5.1,32h12.9l8.1-50.6H237.7z"/>
<path class="st0" d="M292.5,15.4h-18.7l-24,50.6h12.8l5.9-12.5h17.1l2.1,12.5h13.3L292.5,15.4z M272,46.4l9.2-19.4l3.2,19.4H272z"/>
</svg>
