<?xml version="1.0" encoding="UTF-8"?>
<svg id="a" data-name="Layer 1" xmlns="http://www.w3.org/2000/svg" width="398.7" height="50.9" viewBox="0 0 398.7 50.9">
  <path d="m38.7.1h-19C16.9.1,9.9.7,7.5,8c-2.7,7.8-1.8,12.1-1.8,12.8s.4,4.4,6,6.5c1.2.5,5.5,2,6.7,2.5,3,1.1,6.3,2.8,4.9,7.8-1.2,4.4-2.5,4.8-6.7,4.8H1.5l-1.5,8.5h25.4c1.9,0,8.8-.7,11.1-9.4,2.1-7.9,1.6-11.6,1.5-12.3-.1-.6-.3-4.3-6-6.5-1.6-.6-7.5-2.7-8.5-3.1-1.2-.4-4.6-2-3.2-7,.9-3.4,2.2-3.9,5.3-4h11.7L38.7.1Z" style="fill: #009ddc; stroke-width: 0px;"/>
  <path d="m113.3.1h-19c-2.8,0-9.8.6-12.2,7.9-2.6,7.8-1.7,12.1-1.7,12.8s.4,4.4,6,6.5c1.2.5,5.5,2,6.7,2.5,3,1.1,6.3,2.8,4.9,7.8-1.2,4.4-2.5,4.8-6.7,4.8h-15.2l-1.4,8.4h25.4c1.9,0,8.8-.7,11.1-9.4,2.1-7.9,1.6-11.6,1.5-12.3-.1-.6-.3-4.3-6-6.5-1.6-.6-7.5-2.7-8.5-3.1-1.2-.4-4.6-2-3.2-7,.9-3.4,2.2-3.9,5.3-4h11.7L113.3.1Z" style="fill: #009ddc; stroke-width: 0px;"/>
  <path d="m398.7.1h-20.2s-7,.4-11.3,4.7c0,0-4.9,4.1-7.4,18.8,0,0-2,9.1-1.6,15.6.6,8.9,8.6,11.5,13.3,11.5h22.2l1.5-8.5h-16c-1.7-.1-6.7-.8-6.3-7.4.5-9.1,1.8-14.2,4.6-21.5,1.8-4.7,7.4-4.9,7.4-4.9h12.5l1.3-8.3Z" style="fill: #009ddc; stroke-width: 0px;"/>
  <polygon points="357.4 .1 343.5 .1 335 50.8 348.9 50.8 357.4 .1" style="fill: #009ddc; stroke-width: 0px;"/>
  <polygon points="64.3 31.9 61.2 50.8 47.2 50.8 50.6 29.7 40.9 0 54.5 0 60.2 17.3 70.3 0 83.7 0 64.3 31.9" style="fill: #009ddc; stroke-width: 0px;"/>
  <polygon points="154.5 8.5 142.5 8.5 135.3 50.8 121.3 50.8 128.5 8.5 115.1 8.5 116.4 0 155.8 0 154.5 8.5" style="fill: #009ddc; stroke-width: 0px;"/>
  <polygon points="337.2 8.5 325.2 8.5 318 50.8 304 50.8 311.2 8.5 297.7 8.5 299.1 0 338.5 0 337.2 8.5" style="fill: #009ddc; stroke-width: 0px;"/>
  <polygon points="192.4 8.5 171.4 8.5 169.6 19.2 185.2 19.2 183.8 27.7 168.3 27.7 165.9 42.3 186.9 42.3 185.6 50.8 150.5 50.8 158.7 0 193.7 0 192.4 8.5" style="fill: #009ddc; stroke-width: 0px;"/>
  <path d="m236.4.1l-14.1,32.1L218.3.1h-20.8l-8.1,50.6h13l5.4-33.1,4.2,33.1h11.9l15.1-34.4-.4,2.3v.1l-5.1,32h12.9L254.5.1s-18.1,0-18.1,0Z" style="fill: #009ddc; stroke-width: 0px;"/>
  <path d="m291.2.1h-18.7l-24,50.6h12.8l5.9-12.5h17.1l2.1,12.5h13.3L291.2.1Zm-20.5,31l9.2-19.4,3.2,19.4h-12.4Z" style="fill: #009ddc; stroke-width: 0px;"/>
</svg>