<svg width="3.19975in" height="1.14998in" xmlns="http://www.w3.org/2000/svg" xmlns:xlink="http://www.w3.org/1999/xlink" viewBox="0 0 978.14 338.83"><defs><style>.cls-1{fill:url(#linear-gradient);}.cls-2{fill:url(#linear-gradient-2);}.cls-3{fill:url(#linear-gradient-3);}.cls-4{fill:url(#linear-gradient-4);}.cls-5{fill:url(#linear-gradient-5);}.cls-6{fill:url(#linear-gradient-6);}.cls-7{fill:url(#linear-gradient-7);}.cls-8{fill:url(#linear-gradient-8);}.cls-9{fill:url(#linear-gradient-9);}.cls-10{fill:url(#linear-gradient-10);}.cls-11{fill:url(#linear-gradient-11);}.cls-12{fill:#0c0c0c;}</style><linearGradient id="linear-gradient" x1="31.89" y1="325.76" x2="137.63" y2="0.33" gradientUnits="userSpaceOnUse"><stop offset="0" stop-color="#f04d58"/><stop offset="1" stop-color="#ec9022"/></linearGradient><linearGradient id="linear-gradient-2" x1="109.09" y1="354.32" x2="214.83" y2="28.89" xlink:href="#linear-gradient"/><linearGradient id="linear-gradient-3" x1="185.71" y1="382.66" x2="291.45" y2="57.23" xlink:href="#linear-gradient"/><linearGradient id="linear-gradient-4" x1="7.54" y1="314.68" x2="113.28" y2="-10.75" xlink:href="#linear-gradient"/><linearGradient id="linear-gradient-5" x1="84.74" y1="343.24" x2="190.48" y2="17.81" xlink:href="#linear-gradient"/><linearGradient id="linear-gradient-6" x1="161.35" y1="371.58" x2="267.09" y2="46.15" xlink:href="#linear-gradient"/><linearGradient id="linear-gradient-7" x1="56.25" y1="336.84" x2="161.99" y2="11.41" xlink:href="#linear-gradient"/><linearGradient id="linear-gradient-8" x1="133.45" y1="365.4" x2="239.19" y2="39.97" xlink:href="#linear-gradient"/><linearGradient id="linear-gradient-9" x1="210.07" y1="393.74" x2="315.8" y2="68.31" xlink:href="#linear-gradient"/><linearGradient id="linear-gradient-10" x1="87.73" y1="347" x2="195.59" y2="15.05" xlink:href="#linear-gradient"/><linearGradient id="linear-gradient-11" x1="192.19" y1="397.15" x2="301.87" y2="59.6" xlink:href="#linear-gradient"/></defs><g id="Layer_3" data-name="Layer 3"><g id="TC_with_Text" data-name="TC with Text"><g id="Gradient"><rect class="cls-1" x="51.72" y="139.76" width="61.29" height="61.29" rx="4.18"/><rect class="cls-2" x="138.2" y="139.76" width="61.29" height="61.29" rx="4.18"/><rect class="cls-3" x="224.03" y="139.76" width="61.29" height="61.29" rx="4.18"/><path class="cls-4" d="M108.83,53.72H55.91a4.19,4.19,0,0,0-4.19,4.18v52.93A4.19,4.19,0,0,0,55.91,115h52.92a4.19,4.19,0,0,0,4.19-4.18V57.9A4.19,4.19,0,0,0,108.83,53.72ZM95.67,97.66H69.08V71.07H95.67Z"/><path class="cls-5" d="M195.31,53.72H142.39a4.19,4.19,0,0,0-4.19,4.18v52.93a4.19,4.19,0,0,0,4.19,4.18h52.92a4.19,4.19,0,0,0,4.19-4.18V57.9A4.19,4.19,0,0,0,195.31,53.72ZM182.15,97.66H155.56V71.07h26.59Z"/><path class="cls-6" d="M281.14,53.72H228.21A4.18,4.18,0,0,0,224,57.9v52.93a4.18,4.18,0,0,0,4.18,4.18h52.93a4.18,4.18,0,0,0,4.18-4.18V57.9A4.18,4.18,0,0,0,281.14,53.72ZM268.53,97.66H241.94V71.07h26.59Z"/><path class="cls-7" d="M108.83,225.8H55.91A4.2,4.2,0,0,0,51.72,230v52.92a4.2,4.2,0,0,0,4.19,4.19h52.92a4.2,4.2,0,0,0,4.19-4.19V230A4.2,4.2,0,0,0,108.83,225.8ZM95.67,269.74H69.08V243.16H95.67Z"/><path class="cls-8" d="M195.31,225.8H142.39A4.2,4.2,0,0,0,138.2,230v52.92a4.2,4.2,0,0,0,4.19,4.19h52.92a4.2,4.2,0,0,0,4.19-4.19V230A4.2,4.2,0,0,0,195.31,225.8Zm-13.16,43.94H155.56V243.16h26.59Z"/><path class="cls-9" d="M281.14,225.8H228.21A4.19,4.19,0,0,0,224,230v52.92a4.19,4.19,0,0,0,4.18,4.19h52.93a4.19,4.19,0,0,0,4.18-4.19V230A4.19,4.19,0,0,0,281.14,225.8Zm-12.61,43.94H241.94V243.16h26.59Z"/><path class="cls-10" d="M19.16,19.17H137.87V0H20.16A20.15,20.15,0,0,0,0,20.16V318.68a20.15,20.15,0,0,0,20.16,20.15H285.35V319.75H19.16Z"/><path class="cls-11" d="M318.68,0H199.05V19.17H319.73l-.14,319.62a20.14,20.14,0,0,0,19.24-20.11V20.16A20.15,20.15,0,0,0,318.68,0Z"/></g><g id="Outlined_Text" data-name="Outlined Text"><path class="cls-12" d="M452.42,273.6c-12.43,0-18-5.46-18-18V220.82c0-12.53,5.56-18,18-18H482c12.43,0,18,5.46,18,18v6.78h-8.29V222c0-8.8-3.13-11.93-11.93-11.93H454.85c-8.59,0-11.93,3.33-11.93,11.93v32.35c0,8.6,3.34,11.93,11.93,11.93h24.87c8.8,0,11.93-3.13,11.93-11.93v-6.47h8.29v7.68c0,12.54-5.56,18-18,18Z"/><path class="cls-12" d="M574.76,202.83h8.49V273.6h-8.49V240.14H527V273.6h-8.49V202.83H527v29.82h47.73Z"/><path class="cls-12" d="M665.24,273.6l-8.59-18.3H614.28l-8.59,18.3h-9l34.48-70.77h9.1l34.47,70.77Zm-47.72-25.07h35.89l-17.9-38.22Z"/><path class="cls-12" d="M687.88,273.6V202.83h46.71c11.32,0,16,4.55,16,16v12.54c0,11.42-4.66,16-16,16H696.37V273.6Zm8.49-33.06H732c7.79,0,10.11-2.32,10.11-10.11V219.92c0-7.79-2.32-10.12-10.11-10.12H696.37Z"/><path class="cls-12" d="M824.47,202.83v7.58h-27.7V273.6h-8.5V210.41h-27.7v-7.58Z"/><path class="cls-12" d="M847.41,266.42h48.74v7.18H838.92V202.83h56.22V210H847.41v23.15h43.68v6.77H847.41Z"/><path class="cls-12" d="M978.14,273.6h-9.81L947.4,245.19H920.91V273.6h-8.49V202.83h46.71c11.32,0,16,4.55,16,16v10c0,11.43-4.66,16-16,16l-2.32.1Zm-57.23-64v28.92H956.5c7.79,0,10.11-2.33,10.11-10.11v-8.7c0-7.78-2.32-10.11-10.11-10.11Z"/><path class="cls-12" d="M507.61,80.52V95.89H477.07v55.4H459.28V95.89H428.74V80.52Z"/><path class="cls-12" d="M540.86,136.93h55.21v14.36H523V80.52h72.09V94.87h-54.2v13.45H591v13.14H540.86Z"/><path class="cls-12" d="M631.55,151.29c-13.35,0-19.61-6.17-19.61-19.61V100.13c0-13.45,6.26-19.61,19.61-19.61H674c13.35,0,19.62,6.16,19.62,19.61v8.29H676.44v-5c0-6.17-2.12-8.29-8.29-8.29H638c-6.07,0-8.29,2.12-8.29,8.29v25.07c0,6.17,2.22,8.29,8.29,8.29h30.13c6.17,0,8.29-2.12,8.29-8.29v-5.76h17.19v9c0,13.44-6.27,19.61-19.62,19.61Z"/><path class="cls-12" d="M775.62,80.52h17.79v70.77H775.62V122.17h-45.7v29.12h-17.8V80.52h17.8V106.8h45.7Z"/></g></g></g></svg>