<svg width="19" height="23" viewBox="0 0 19 23" fill="none" xmlns="http://www.w3.org/2000/svg">
<path d="M5.5 10.5V22.5" stroke="#262F59" stroke-miterlimit="10" stroke-linecap="round" stroke-linejoin="round"/>
<path d="M13.5 10.5V22.5" stroke="#262F59" stroke-miterlimit="10" stroke-linecap="round" stroke-linejoin="round"/>
<path d="M16.4991 17.5L17.9901 15.263C18.1291 15.0548 18.1849 14.8021 18.1466 14.5547C18.1083 14.3074 17.9786 14.0834 17.7831 13.927L13.4991 10.5H5.49911L1.21511 13.927C1.01966 14.0834 0.889963 14.3074 0.851638 14.5547C0.813313 14.8021 0.869146 15.0548 1.00811 15.263L2.49911 17.5" stroke="#262F59" stroke-miterlimit="10" stroke-linecap="round" stroke-linejoin="round"/>
<path d="M9.5 6.5C11.1569 6.5 12.5 5.15685 12.5 3.5C12.5 1.84315 11.1569 0.5 9.5 0.5C7.84315 0.5 6.5 1.84315 6.5 3.5C6.5 5.15685 7.84315 6.5 9.5 6.5Z" stroke="#262F59" stroke-miterlimit="10" stroke-linecap="round" stroke-linejoin="round"/>
</svg>
