<?xml version="1.0" encoding="UTF-8"?>
<svg id="a" data-name="TV2" xmlns="http://www.w3.org/2000/svg" width="3058.2" height="1000" viewBox="0 0 3058.2 1000">
  <circle cx="500" cy="500" r="500" style="fill: #f0281e; stroke-width: 0px;"/>
  <g>
    <path d="m373.6,571.4c-17.9,31.7-25.6,45.7-44.5,45.7-13.3,0-26.6-6.8-26.6-31.4s.5-124.7.5-124.7h-77v130.7c0,77,56.5,102.3,102.6,102.3,41.9,0,69.3-19.1,98.7-70.2,12.7-21.9,93.7-162.8,93.7-162.8h-85s-37.8,66.9-62.4,110.4Z" style="fill: #fff; stroke-width: 0px;"/>
    <polygon points="789 692 486 692 529.7 615 789 615 789 692" style="fill: #fff; stroke-width: 0px;"/>
    <path d="m712,307H172v77h540c21.3,0,39,16.7,39,38s-17.7,39-39,39h-97l-44.7,77h141.7c63.9,0,116-52.1,116-116s-52.1-115-116-115Z" style="fill: #fff; stroke-width: 0px;"/>
  </g>
  <g>
    <path d="m1190.9,346h92.5c28.5,0,54.9,5.7,79.1,17.1s43.6,28.7,58.2,51.9c14.6,23.2,21.8,51.5,21.8,85s-7.4,60-22.1,83c-14.7,23.1-34.2,40.5-58.6,52.3s-51,17.7-79.8,17.7h-91.2v-307h.1Zm94.2,256.4c18.2,0,34.7-4.1,49.7-12.3s26.9-20.2,35.7-35.9c8.8-15.7,13.2-34.2,13.2-55.6s-4.3-39.7-13-55.1c-8.6-15.4-20.4-27.1-35.2-35-14.8-7.9-31.3-11.9-49.5-11.9h-38.5v205.8h37.6Z" style="fill: #f0281e; stroke-width: 0px;"/>
    <path d="m1495.6,638.9c-14-12.2-21-28.3-21-48.2,0-21.6,8.4-39.1,25.3-52.3,16.9-13.3,39.8-19.9,69-19.9h43.2v-10.4c0-12.7-4.6-22.7-13.8-30-9.2-7.4-21.6-11-37.2-11-12.7,0-25.4,2.8-38,8.4-12.7,5.6-23.1,11.7-31.1,18.4v-50.2c7.5-6.6,18.4-12.7,32.6-18.2,14.3-5.5,29.5-8.2,45.6-8.2,29.1,0,52.7,8.4,70.9,25.3s27.2,40.9,27.2,72v73.9c0,6.9,1.9,12.3,5.6,16s8.5,5.6,14.3,5.6c2,0,4.5-.4,7.6-1.3,3-.9,5.8-2,8.4-3.5v42.4c-10.1,6.3-22.8,9.5-38,9.5s-26.4-4-35.2-12.1c-8.8-8.1-14.1-18.3-15.8-30.7-4.3,11.8-12.6,21.9-24.9,30.3-12.3,8.4-26.2,12.5-41.7,12.5-21.3.1-39-6-53-18.3Zm46.7-31.1c6.2,5.3,13.9,8,23.1,8,13.3,0,24.4-4.7,33.3-14.1,8.9-9.4,13.4-21.7,13.4-37v-11.7h-34.1c-13.6,0-24.4,3.2-32.6,9.7s-12.3,14.8-12.3,24.9c-.1,8.2,3,14.9,9.2,20.2Z" style="fill: #f0281e; stroke-width: 0px;"/>
    <path d="m1740.1,421.7h54v35.5c1.4-4.6,4.8-9.9,9.9-16s12.8-11.5,22.9-16.4,22.5-7.4,37.2-7.4c24.8,0,44.6,8.1,59.5,24.2,14.8,16.1,22.3,38.9,22.3,68.3v143.1h-56.6v-134c0-17.6-4-31.1-11.9-40.6s-18.5-14.3-31.8-14.3c-14.1,0-25.8,5.2-35,15.6s-13.8,23.8-13.8,40.2v133.1h-56.6v-231.3h-.1Z" style="fill: #f0281e; stroke-width: 0px;"/>
    <path d="m2008.1,421.7h54.5v36.3c3.5-9.8,11.1-19,22.9-27.7,11.8-8.6,26.8-13,45-13,17,0,31.6,3.8,43.9,11.5,12.2,7.6,20.8,17.9,25.7,30.9,6.6-12.1,16.3-22.2,29-30.3,12.7-8.1,28.5-12.1,47.6-12.1,15.3,0,29,3.6,41.3,10.8,12.2,7.2,21.9,17.8,29,31.8s10.6,30.6,10.6,49.9v143.2h-56.2v-135.3c0-17.3-4.3-30.5-12.8-39.8-8.5-9.2-19.1-13.8-31.8-13.8s-23.8,5-32.4,15.1c-8.6,10.1-13,23.6-13,40.6v133.2h-56.2v-135.3c0-17.6-3.9-30.9-11.7-40s-18.7-13.6-32.9-13.6c-13,0-23.9,5.3-32.6,16-8.8,10.7-13.2,23.9-13.2,39.8v133.1h-56.6v-231.3h-.1Z" style="fill: #f0281e; stroke-width: 0px;"/>
    <path d="m2423.6,638.9c-14-12.2-21-28.3-21-48.2,0-21.6,8.4-39.1,25.3-52.3,16.9-13.3,39.8-19.9,69-19.9h43.2v-10.4c0-12.7-4.6-22.7-13.8-30-9.2-7.4-21.6-11-37.2-11-12.7,0-25.4,2.8-38,8.4-12.7,5.6-23.1,11.7-31.1,18.4v-50.2c7.5-6.6,18.4-12.7,32.6-18.2,14.3-5.5,29.5-8.2,45.6-8.2,29.1,0,52.7,8.4,70.9,25.3s27.2,40.9,27.2,72v73.9c0,6.9,1.9,12.3,5.6,16,3.7,3.7,8.5,5.6,14.3,5.6,2,0,4.5-.4,7.6-1.3,3-.9,5.8-2,8.4-3.5v42.4c-10.1,6.3-22.8,9.5-38,9.5s-26.4-4-35.2-12.1-14.1-18.3-15.8-30.7c-4.3,11.8-12.6,21.9-24.9,30.3-12.3,8.4-26.2,12.5-41.7,12.5-21.3.1-39-6-53-18.3Zm46.7-31.1c6.2,5.3,13.9,8,23.1,8,13.3,0,24.4-4.7,33.3-14.1,8.9-9.4,13.4-21.7,13.4-37v-11.7h-34.1c-13.6,0-24.4,3.2-32.6,9.7-8.2,6.5-12.3,14.8-12.3,24.9-.1,8.2,3,14.9,9.2,20.2Z" style="fill: #f0281e; stroke-width: 0px;"/>
    <path d="m2668.1,421.7h54v48.9c4.3-15,12.2-27.6,23.6-37.8,11.4-10.2,26.6-15.3,45.6-15.3,5.5,0,10.8.7,16,2.2v53.2c-6.9-.6-12.8-.9-17.7-.9-19.3,0-35,5.6-46.9,16.6-12,11.1-17.9,26.9-17.9,47.3v117.1h-56.6v-231.3h-.1Z" style="fill: #f0281e; stroke-width: 0px;"/>
    <path d="m2848.1,346h56.6v169.9l80.9-94.3h69.6l-100.7,111.1,103.7,120.3h-69.6l-83.9-105.1v105.1h-56.6v-307h0Z" style="fill: #f0281e; stroke-width: 0px;"/>
  </g>
</svg>