<svg width="20" height="17" viewBox="0 0 20 17" fill="none" xmlns="http://www.w3.org/2000/svg">
<path d="M6.27547 16.2231C13.8058 16.2231 17.9239 9.98225 17.9239 4.57038C17.9239 4.39314 17.9203 4.21671 17.9123 4.04102C18.7136 3.46101 19.4051 2.74286 19.9544 1.92025C19.2209 2.2465 18.4315 2.46608 17.6034 2.56508C18.4486 2.05806 19.0975 1.25595 19.4037 0.299844C18.6 0.776761 17.7208 1.11296 16.804 1.29396C16.057 0.497887 14.9934 0 13.8156 0C11.5548 0 9.72142 1.8341 9.72142 4.09492C9.72142 4.41634 9.75739 4.72888 9.82764 5.02876C6.42504 4.85749 3.40787 3.22779 1.38862 0.749751C1.02493 1.37476 0.833639 2.0851 0.834274 2.80822C0.834274 4.22912 1.55701 5.48345 2.65613 6.21731C2.00599 6.19744 1.37012 6.02177 0.80199 5.70506C0.801381 5.72226 0.801381 5.73901 0.801381 5.75738C0.801381 7.74078 2.21255 9.39679 4.08583 9.77204C3.734 9.86789 3.37096 9.91635 3.00631 9.91614C2.74296 9.91614 2.48631 9.89022 2.23688 9.84232C2.75809 11.4696 4.26944 12.6537 6.06132 12.6868C4.66009 13.7855 2.89497 14.4399 0.97655 14.4399C0.650202 14.4402 0.32412 14.4212 0 14.3832C1.81188 15.545 3.96331 16.2228 6.27567 16.2228" fill="#1DA1F2"/>
</svg>
