<svg xmlns="http://www.w3.org/2000/svg" width="26" height="21" viewBox="0 0 26 21" fill="none"><path fill="currentColor" d="M25.203 3a9.995 9.995 0 0 1-2.87.805 5.015 5.015 0 0 0 2.194-2.777c-.969.584-2.042.992-3.174 1.225C20.433 1.25 19.137.667 17.668.667c-2.742 0-4.982 2.24-4.982 5.005 0 .396.047.781.128 1.143A14.227 14.227 0 0 1 2.5 1.588a4.952 4.952 0 0 0-.676 2.509c0 1.738.875 3.278 2.228 4.153-.828 0-1.598-.233-2.275-.583v.035a5.009 5.009 0 0 0 4.013 4.911c-.734.201-1.505.23-2.251.082a4.994 4.994 0 0 0 4.666 3.477 9.941 9.941 0 0 1-6.218 2.146c-.397 0-.793-.023-1.19-.07A14.169 14.169 0 0 0 8.474 20.5c9.193 0 14.244-7.63 14.244-14.245 0-.222 0-.432-.011-.653.98-.7 1.82-1.587 2.496-2.602Z"/></svg>
