<svg width="206" height="32" viewBox="0 0 206 32" fill="none" xmlns="http://www.w3.org/2000/svg">
<g clip-path="url(#clip0_428_2757)">
<path d="M88.6609 29.3971L79.6378 4.26648C79.5101 3.92514 79.3398 3.45581 79.3398 3.07181C79.3398 1.96248 80.2762 0.938477 81.5956 0.938477C82.7448 0.938477 83.5109 1.70648 83.8514 2.77314L91.2998 24.4478L98.8332 2.73048C99.1737 1.70648 99.8547 0.938477 101.004 0.938477H101.217C102.408 0.938477 103.175 1.70648 103.515 2.73048L110.963 24.4478L118.539 2.64514C118.837 1.70648 119.476 0.938477 120.668 0.938477C121.944 0.938477 122.838 1.91981 122.838 3.02914C122.838 3.41314 122.668 3.88248 122.54 4.22381L113.475 29.4398C113.006 30.7625 112.113 31.4451 111.049 31.4451H110.878C109.729 31.4451 108.878 30.7625 108.452 29.4398L101.046 8.06381L93.6407 29.3971C93.2576 30.7198 92.3638 31.4025 91.2146 31.4025H91.087C90.0229 31.4025 89.1291 30.7198 88.6609 29.3971Z" fill="black"/>
<path d="M154.332 3.11387C154.332 1.91921 155.311 0.852539 156.502 0.852539C157.779 0.852539 158.758 1.83387 158.758 3.11387V8.23387C160.929 3.28454 165.781 0.937871 168.973 0.937871C170.292 0.937871 171.144 1.91921 171.144 3.19921C171.144 4.39387 170.335 5.28987 169.186 5.46054C163.44 6.14321 158.716 10.4952 158.716 19.0712V29.1832C158.716 30.3779 157.779 31.4445 156.545 31.4445C155.268 31.4445 154.289 30.4632 154.289 29.1832V3.11387" fill="black"/>
<path d="M185.404 31.6156C177.402 31.6156 170.848 25.3862 170.848 16.2556V16.1276C170.848 7.63691 176.764 0.767578 184.808 0.767578C193.406 0.767578 198.343 7.89291 198.343 15.7009C198.343 16.8956 197.364 17.7489 196.3 17.7489H175.232C175.827 24.1489 180.296 27.7329 185.489 27.7329C189.107 27.7329 191.746 26.3249 193.874 24.3196C194.214 24.0209 194.597 23.8076 195.108 23.8076C196.172 23.8076 197.023 24.6609 197.023 25.6849C197.023 26.1969 196.81 26.7089 196.342 27.0929C193.618 29.8662 190.341 31.6156 185.404 31.6156ZM194.001 14.5916C193.533 9.21558 190.511 4.56491 184.723 4.56491C179.658 4.56491 175.827 8.83158 175.274 14.5916H194.001Z" fill="black"/>
<path d="M122.961 22.3998V22.2718C122.961 15.9998 128.111 12.6718 135.644 12.6718C139.432 12.6718 142.114 13.1838 144.753 13.9518V12.9278C144.753 7.59448 141.475 4.82115 135.942 4.82115C132.963 4.82115 131.218 5.20514 129.047 6.18648C128.749 6.31448 128.451 6.35715 128.239 6.35715C127.217 6.35715 126.281 5.50381 126.281 4.47981C126.281 3.54114 126.664 2.98648 127.473 2.64514C130.409 1.36514 132.58 0.938477 136.368 0.938477C140.539 0.938477 143.774 2.00515 145.944 4.22381C147.945 6.22915 148.966 9.08781 148.966 12.8851V29.2691C148.966 30.5491 148.03 31.4451 146.838 31.4451C145.561 31.4451 144.71 30.5065 144.71 29.3545V26.5385C142.625 29.2265 139.22 31.6585 133.984 31.6585C128.537 31.6585 122.961 28.5011 122.961 22.3998ZM144.795 20.0958V17.2371C142.625 16.5971 139.688 15.9571 136.07 15.9571C130.537 15.9571 127.43 18.3891 127.43 22.1011V22.2291C127.43 25.9411 130.877 28.1598 134.878 28.1598C140.326 28.1598 144.795 24.7891 144.795 20.0958Z" fill="black"/>
<path d="M8.34356 2.77319C7.36464 0.63986 4.98117 -0.341474 2.72538 0.682526C0.469597 1.66386 -0.339082 4.1812 0.682406 6.31453L10.0886 26.7945C11.5783 29.9945 13.1105 31.7012 16.0473 31.7012C19.1543 31.7012 20.5163 29.8665 22.006 26.7945C22.006 26.7945 30.2204 8.87453 30.3055 8.70386C30.3907 8.49053 30.646 7.93586 31.4973 7.93586C32.2208 7.93586 32.8167 8.49053 32.8167 9.25853V26.7945C32.8167 29.4825 34.3064 31.7012 37.2006 31.7012C40.0522 31.7012 41.627 29.4825 41.627 26.7945V12.4585C41.627 9.68519 43.5849 7.89319 46.3089 7.89319C48.9903 7.89319 50.7779 9.72786 50.7779 12.4585V26.7945C50.7779 29.4825 52.2675 31.7012 55.1617 31.7012C58.0134 31.7012 59.5882 29.4825 59.5882 26.7945V12.4585C59.5882 9.68519 61.546 7.89319 64.27 7.89319C66.9514 7.89319 68.739 9.72786 68.739 12.4585V26.7945C68.739 29.4825 70.2287 31.7012 73.1229 31.7012C75.9746 31.7012 77.5493 29.4825 77.5493 26.7945V10.4532C77.5493 4.43719 72.7398 0.255859 66.9514 0.255859C61.163 0.255859 57.5452 4.26653 57.5452 4.26653C55.6299 1.74919 52.9485 0.255859 48.4795 0.255859C43.7551 0.255859 39.5841 4.26653 39.5841 4.26653C37.6688 1.74919 34.3915 0.255859 31.6675 0.255859C27.4539 0.255859 24.1341 2.09053 22.0911 6.78386L16.0898 20.9919L8.34356 2.77319Z" fill="black"/>
<path d="M198.68 4.56454C198.68 2.51654 200.297 0.852539 202.34 0.852539C204.426 0.852539 206 2.51654 206 4.52187C206 6.52721 204.383 8.23387 202.34 8.23387C200.297 8.23387 198.68 6.56987 198.68 4.56454ZM205.319 4.52187C205.319 2.85787 204.043 1.49254 202.34 1.49254C200.68 1.49254 199.361 2.85787 199.361 4.52187V4.56454C199.361 6.22854 200.638 7.5512 202.34 7.5512C204.043 7.5512 205.319 6.14321 205.319 4.52187Z" fill="black"/>
<path d="M200.977 3.07247C200.977 2.85914 201.147 2.68848 201.36 2.68848H202.594C203.062 2.68848 203.403 2.81647 203.615 3.07247C203.828 3.28581 203.913 3.54181 203.913 3.88314C203.913 4.43781 203.615 4.77914 203.19 4.94981L203.743 5.58981C203.828 5.67514 203.871 5.76048 203.871 5.88848C203.871 6.10181 203.701 6.22981 203.488 6.22981C203.317 6.22981 203.19 6.14447 203.105 6.01647L202.339 5.03514H201.743V5.80314C201.743 6.01647 201.572 6.18714 201.36 6.18714C201.147 6.18714 200.977 6.01647 200.977 5.80314V3.07247ZM202.551 4.39514C202.934 4.39514 203.147 4.18181 203.147 3.88314C203.147 3.54181 202.934 3.37114 202.551 3.37114H201.743V4.39514H202.551Z" fill="black"/>
</g>
<defs>
<clipPath id="clip0_428_2757">
<rect width="206" height="32" fill="white"/>
</clipPath>
</defs>
</svg>
