<svg width="1272" height="302" viewBox="0 0 1272 302" fill="none" xmlns="http://www.w3.org/2000/svg"><g clip-path="url(#logo_svg__a)"><path d="M164.16 264.17 0 169.29v-40.66l163.16-95.39-.61 42.25-127.91 74.22 129.7 72.79-.18 41.67Z" fill="#444"/><path d="M365.87 28v38.41s-40.79-30-90.18-30c-53.43-.05-113.14 39.06-113.14 39.06V33.31C203.85 11.22 240.49 0 276.14 0c43.55 0 89.73 28 89.73 28Z" fill="#4081CB"/><path d="M277.03 247.57a99.547 99.547 0 0 0 91.972-61.454A99.547 99.547 0 0 0 277.03 48.47c-55.12 0-99.81 44.57-99.81 99.54a99.675 99.675 0 0 0 29.284 70.453 99.673 99.673 0 0 0 70.526 29.107Z" fill="#4081CB"/><path d="m389.91 36.82 164.16 94.88v40.66l-163.16 95.39.6-42.25 127.92-74.22-129.7-72.79.18-41.67Z" fill="#444"/><path d="M188.13 273.27v-38.41s40.8 30.05 90.19 30.05c53.43 0 113.13-39.13 113.13-39.13v42.18c-41.29 22.09-77.94 33.31-113.58 33.31-43.55 0-89.74-28-89.74-28Z" fill="#4081CB"/><path d="M623.19 72.11h44.32l39.38 114.07 39.6-114.07h42.3l-61.65 157.73h-42.75l-61.2-157.73ZM885.42 107.47c-9.52-3.147-17.52-4.723-24-4.73-5.1 0-9.1.937-12 2.81a9.162 9.162 0 0 0-3.311 3.513 9.157 9.157 0 0 0-1.069 4.707 11.242 11.242 0 0 0 3.82 8.66 29.25 29.25 0 0 0 9.45 5.62c3.753 1.427 9.303 3.267 16.65 5.52a216.24 216.24 0 0 1 27.11 9.45 47.343 47.343 0 0 1 18.34 14.45c5.1 6.52 7.65 15.033 7.65 25.54s-2.773 19.467-8.32 26.88c-5.553 7.433-13.167 13.02-22.84 16.76a88.717 88.717 0 0 1-32.29 5.63 116.863 116.863 0 0 1-39-6.86 107.01 107.01 0 0 1-33.63-18.79l16-32.17a99.36 99.36 0 0 0 28.24 17.32c10.867 4.5 20.503 6.75 28.91 6.75 6.147 0 10.983-1.127 14.51-3.38a10.997 10.997 0 0 0 5.29-9.89 11.647 11.647 0 0 0-.976-4.935 11.65 11.65 0 0 0-2.964-4.065 28.765 28.765 0 0 0-9.9-5.74c-4-1.433-9.587-3.12-16.76-5.06a205.916 205.916 0 0 1-26.77-9.12 47.277 47.277 0 0 1-18.12-14c-5.02-6.22-7.53-14.507-7.53-24.86a43.388 43.388 0 0 1 7.76-25.65c5.167-7.333 12.5-13 22-17s20.563-6 33.19-6a120.303 120.303 0 0 1 33.75 4.84 111.396 111.396 0 0 1 29.25 12.94l-15.53 32.85a138.22 138.22 0 0 0-26.91-11.99ZM949.03 72.11h41.17v64.36h63.68V72.11h41.15v157.73h-41.17v-60.53h-63.68v60.53h-41.15V72.11ZM1233.38 72.11h38.25v157.73h-36l-71.55-94.28v94.28h-38.47V72.11h36.22l71.78 95-.23-95Z" fill="#444"/></g><defs><clipPath id="logo_svg__a"><path fill="#fff" d="M0 0h1271.63v301.28H0z"/></clipPath></defs></svg>