
<svg width="24" height="22" viewBox="0 0 24 22" fill="none" xmlns="http://www.w3.org/2000/svg">
<path d="M12.5317 19.5904L7.60784 19.5003C6.0136 19.4689 4.41539 19.5315 2.85241 19.2062C0.474754 18.7202 0.306312 16.3371 0.130056 14.3381C-0.112807 11.5278 -0.0187875 8.66643 0.439526 5.87957C0.69826 4.31584 1.71648 3.38275 3.29112 3.28122C8.6067 2.91272 13.9576 2.95639 19.2614 3.12831C19.8216 3.14407 20.3856 3.23021 20.9379 3.32826C23.6643 3.80647 23.7308 6.50708 23.9076 8.78048C24.0838 11.0773 24.0094 13.386 23.6725 15.6672C23.4022 17.556 22.8851 19.14 20.7028 19.2929C17.9686 19.4928 15.2971 19.6538 12.5552 19.6025C12.5553 19.5904 12.5395 19.5904 12.5317 19.5904ZM9.63694 14.8085C11.6974 13.6247 13.7186 12.4606 15.7673 11.2848C13.703 10.101 11.6857 8.93688 9.63694 7.76102V14.8085Z" fill="#FF0000"/>
</svg>
