<svg width="1024" height="1024" viewBox="0 0 1024 1024" fill="none" xmlns="http://www.w3.org/2000/svg">
<rect width="1024" height="1024" rx="200" fill="#141F52"/>
<path fill-rule="evenodd" clip-rule="evenodd" d="M536.964 155.695C521.19 148.102 502.81 148.102 487.036 155.695L236.431 276.33C220.682 283.912 209.247 298.237 205.361 315.254L163.058 500.52H317.371L338.987 405.853C340.929 397.344 346.647 390.181 354.521 386.391L499.519 316.592C507.406 312.796 516.596 312.796 524.483 316.592L669.481 386.391C677.355 390.181 683.073 397.344 685.015 405.853L706.631 500.52H860.942L818.639 315.254C814.753 298.237 803.318 283.912 787.569 276.33L536.964 155.695ZM143.438 586.449L149.916 558.076H304.228L303.16 562.753C301.219 571.254 303.257 580.175 308.699 586.996L409.063 712.797C414.515 719.631 422.79 723.612 431.542 723.612H592.46C601.212 723.612 609.487 719.631 614.939 712.797L715.303 586.996C720.745 580.175 722.783 571.254 720.842 562.753L719.774 558.076H874.084L880.562 586.449C884.445 603.451 880.369 621.293 869.486 634.935L696.016 852.37C685.112 866.038 668.563 874 651.059 874H372.941C355.438 874 338.888 866.038 327.984 852.37L154.514 634.935C143.631 621.293 139.555 603.451 143.438 586.449ZM499.455 386.234C507.341 382.437 516.532 382.437 524.419 386.234L615.396 430.028C623.27 433.819 628.988 440.982 630.93 449.49L653.415 547.959C655.356 556.46 653.318 565.381 647.876 572.202L584.895 651.145C579.443 657.979 571.169 661.96 562.417 661.96H461.456C452.705 661.96 444.43 657.979 438.978 651.145L375.997 572.202C370.556 565.381 368.518 556.46 370.459 547.959L392.943 449.49C394.886 440.982 400.603 433.819 408.478 430.028L499.455 386.234ZM533.536 466.56H493.231V506.85H453.002V547.139H493.231V587.427H533.536V547.139H573.918V506.85H533.536V466.56Z" fill="white"/>
</svg>
